<svg width="68" height="243" viewBox="0 0 68 243" fill="none" xmlns="http://www.w3.org/2000/svg">
<mask id="path-1-outside-1_1826_51" maskUnits="userSpaceOnUse" x="0.03125" y="0.859375" width="68" height="242" fill="black">
<rect fill="white" x="0.03125" y="0.859375" width="68" height="242"/>
<path d="M14.8125 228.863H66V241.168H14.8125L14.8125 228.863ZM14.8125 199.332L45.75 217.719V231.008L34.6055 232.484V224.082L14.8125 214.238V199.332ZM66 212.129L43.6055 224.117L35.3438 215.152L66 197.574L66 212.129ZM56.5078 159.254H66V186.535H56.5078L56.5078 159.254ZM14.8125 182.141H66V194.48H14.8125V182.141ZM35.1328 162.77H44.3086L44.3086 186.535H35.1328L35.1328 162.77ZM14.8125 159.148H24.3398L24.3398 186.535H14.8125L14.8125 159.148ZM47.1211 142.555L14.8125 124.168V111.828H66V124.168H33.7266L66 142.555V154.895H14.8125L14.8125 142.555H47.1211ZM1.03125 128.387L1.03125 120.266C3.14062 120.266 5.01562 120.805 6.65625 121.883C8.27344 122.937 9.53906 124.438 10.4531 126.383C11.3672 128.328 11.8242 130.625 11.8242 133.273C11.8242 137.281 10.8281 140.457 8.83594 142.801C6.82031 145.145 4.21875 146.316 1.03125 146.316L1.03125 138.23C2.17969 138.23 3.21094 137.855 4.125 137.105C5.03906 136.355 5.49609 135.078 5.49609 133.273C5.49609 131.469 5.03906 130.203 4.125 129.477C3.21094 128.75 2.17969 128.387 1.03125 128.387ZM48.668 75.1602V62.8555C52.2305 63.0195 55.3711 63.9805 58.0898 65.7383C60.8086 67.4961 62.9297 69.9336 64.4531 73.0508C65.9531 76.1445 66.7031 79.8008 66.7031 84.0195C66.7031 87.4414 66.1289 90.5 64.9805 93.1953C63.832 95.8672 62.1797 98.1406 60.0234 100.016C57.8672 101.867 55.2539 103.285 52.1836 104.27C49.1133 105.23 45.6562 105.711 41.8125 105.711H39.0352C35.1914 105.711 31.7344 105.207 28.6641 104.199C25.5703 103.168 22.9453 101.715 20.7891 99.8398C18.6094 97.9414 16.9453 95.668 15.7969 93.0195C14.6484 90.3711 14.0742 87.4297 14.0742 84.1953C14.0742 79.7422 14.8711 75.9805 16.4648 72.9102C18.0586 69.8398 20.25 67.4609 23.0391 65.7734C25.8047 64.0859 28.957 63.0898 32.4961 62.7852V75.0898C30.5742 75.1367 28.9687 75.4648 27.6797 76.0742C26.3672 76.6836 25.3828 77.6445 24.7266 78.957C24.0703 80.2695 23.7422 82.0156 23.7422 84.1953C23.7422 85.7188 24.0234 87.043 24.5859 88.168C25.1484 89.293 26.0391 90.2305 27.2578 90.9805C28.4766 91.7305 30.0586 92.293 32.0039 92.668C33.9258 93.0195 36.2461 93.1953 38.9648 93.1953H41.8125C44.5312 93.1953 46.8516 93.0313 48.7734 92.7031C50.6953 92.375 52.2656 91.8477 53.4844 91.1211C54.7031 90.3945 55.6055 89.457 56.1914 88.3086C56.7539 87.1367 57.0352 85.707 57.0352 84.0195C57.0352 82.1445 56.7422 80.5625 56.1562 79.2734C55.5469 77.9844 54.6328 76.9883 53.4141 76.2852C52.1719 75.582 50.5898 75.207 48.668 75.1602ZM32.4258 49.3555V38.3516C32.4258 34.2031 33.1172 30.5938 34.5 27.5234C35.8828 24.4531 37.8164 22.0859 40.3008 20.4219C42.7852 18.7344 45.6914 17.8906 49.0195 17.8906C51.5273 17.8906 53.8242 18.3711 55.9102 19.332C57.9727 20.293 59.7656 21.6758 61.2891 23.4805C62.7891 25.2617 63.9492 27.4062 64.7695 29.9141C65.5898 32.4219 66 35.2344 66 38.3516V57.0547L14.8125 57.0547V44.6797L56.5078 44.6797V38.3516C56.5078 36.5938 56.168 35.1172 55.4883 33.9219C54.8086 32.7031 53.9062 31.7773 52.7812 31.1445C51.6328 30.5117 50.3555 30.1953 48.9492 30.1953C47.5898 30.1953 46.3828 30.5117 45.3281 31.1445C44.2734 31.7773 43.4414 32.7031 42.832 33.9219C42.2227 35.1172 41.918 36.5938 41.918 38.3516V49.3555H32.4258ZM14.8125 1.85938L66 1.85938V14.1641L14.8125 14.1641V1.85938Z"/>
</mask>
<path d="M14.8125 228.863H66V241.168H14.8125L14.8125 228.863ZM14.8125 199.332L45.75 217.719V231.008L34.6055 232.484V224.082L14.8125 214.238V199.332ZM66 212.129L43.6055 224.117L35.3438 215.152L66 197.574L66 212.129ZM56.5078 159.254H66V186.535H56.5078L56.5078 159.254ZM14.8125 182.141H66V194.48H14.8125V182.141ZM35.1328 162.77H44.3086L44.3086 186.535H35.1328L35.1328 162.77ZM14.8125 159.148H24.3398L24.3398 186.535H14.8125L14.8125 159.148ZM47.1211 142.555L14.8125 124.168V111.828H66V124.168H33.7266L66 142.555V154.895H14.8125L14.8125 142.555H47.1211ZM1.03125 128.387L1.03125 120.266C3.14062 120.266 5.01562 120.805 6.65625 121.883C8.27344 122.937 9.53906 124.438 10.4531 126.383C11.3672 128.328 11.8242 130.625 11.8242 133.273C11.8242 137.281 10.8281 140.457 8.83594 142.801C6.82031 145.145 4.21875 146.316 1.03125 146.316L1.03125 138.23C2.17969 138.23 3.21094 137.855 4.125 137.105C5.03906 136.355 5.49609 135.078 5.49609 133.273C5.49609 131.469 5.03906 130.203 4.125 129.477C3.21094 128.75 2.17969 128.387 1.03125 128.387ZM48.668 75.1602V62.8555C52.2305 63.0195 55.3711 63.9805 58.0898 65.7383C60.8086 67.4961 62.9297 69.9336 64.4531 73.0508C65.9531 76.1445 66.7031 79.8008 66.7031 84.0195C66.7031 87.4414 66.1289 90.5 64.9805 93.1953C63.832 95.8672 62.1797 98.1406 60.0234 100.016C57.8672 101.867 55.2539 103.285 52.1836 104.27C49.1133 105.23 45.6562 105.711 41.8125 105.711H39.0352C35.1914 105.711 31.7344 105.207 28.6641 104.199C25.5703 103.168 22.9453 101.715 20.7891 99.8398C18.6094 97.9414 16.9453 95.668 15.7969 93.0195C14.6484 90.3711 14.0742 87.4297 14.0742 84.1953C14.0742 79.7422 14.8711 75.9805 16.4648 72.9102C18.0586 69.8398 20.25 67.4609 23.0391 65.7734C25.8047 64.0859 28.957 63.0898 32.4961 62.7852V75.0898C30.5742 75.1367 28.9687 75.4648 27.6797 76.0742C26.3672 76.6836 25.3828 77.6445 24.7266 78.957C24.0703 80.2695 23.7422 82.0156 23.7422 84.1953C23.7422 85.7188 24.0234 87.043 24.5859 88.168C25.1484 89.293 26.0391 90.2305 27.2578 90.9805C28.4766 91.7305 30.0586 92.293 32.0039 92.668C33.9258 93.0195 36.2461 93.1953 38.9648 93.1953H41.8125C44.5312 93.1953 46.8516 93.0313 48.7734 92.7031C50.6953 92.375 52.2656 91.8477 53.4844 91.1211C54.7031 90.3945 55.6055 89.457 56.1914 88.3086C56.7539 87.1367 57.0352 85.707 57.0352 84.0195C57.0352 82.1445 56.7422 80.5625 56.1562 79.2734C55.5469 77.9844 54.6328 76.9883 53.4141 76.2852C52.1719 75.582 50.5898 75.207 48.668 75.1602ZM32.4258 49.3555V38.3516C32.4258 34.2031 33.1172 30.5938 34.5 27.5234C35.8828 24.4531 37.8164 22.0859 40.3008 20.4219C42.7852 18.7344 45.6914 17.8906 49.0195 17.8906C51.5273 17.8906 53.8242 18.3711 55.9102 19.332C57.9727 20.293 59.7656 21.6758 61.2891 23.4805C62.7891 25.2617 63.9492 27.4062 64.7695 29.9141C65.5898 32.4219 66 35.2344 66 38.3516V57.0547L14.8125 57.0547V44.6797L56.5078 44.6797V38.3516C56.5078 36.5938 56.168 35.1172 55.4883 33.9219C54.8086 32.7031 53.9062 31.7773 52.7812 31.1445C51.6328 30.5117 50.3555 30.1953 48.9492 30.1953C47.5898 30.1953 46.3828 30.5117 45.3281 31.1445C44.2734 31.7773 43.4414 32.7031 42.832 33.9219C42.2227 35.1172 41.918 36.5938 41.918 38.3516V49.3555H32.4258ZM14.8125 1.85938L66 1.85938V14.1641L14.8125 14.1641V1.85938Z" stroke="#373737" stroke-width="2" mask="url(#path-1-outside-1_1826_51)"/>
</svg>
