<svg width="55" height="278" viewBox="0 0 55 278" fill="none" xmlns="http://www.w3.org/2000/svg">
<mask id="path-1-outside-1_1811_79" maskUnits="userSpaceOnUse" x="0.0742188" y="0.289062" width="55" height="278" fill="black">
<rect fill="white" x="0.0742188" y="0.289062" width="55" height="278"/>
<path d="M33.6992 255.891L1.8125 243.797L1.8125 230.754L42.418 248.016C43.918 248.672 45.3477 249.434 46.707 250.301C48.0664 251.145 49.2734 252.152 50.3281 253.324C51.3828 254.473 52.2148 255.832 52.8242 257.402C53.4336 258.973 53.7383 260.812 53.7383 262.922C53.7383 263.438 53.7266 264.07 53.7031 264.82C53.7031 265.547 53.6914 266.18 53.668 266.719L44.1055 266.93C44.1758 266.625 44.2227 266.203 44.2461 265.664C44.2461 265.125 44.2461 264.738 44.2461 264.504C44.2461 263.098 44.082 261.984 43.7539 261.164C43.4023 260.344 42.8867 259.699 42.207 259.23C41.5039 258.738 40.6133 258.316 39.5352 257.965L33.6992 255.891ZM1.8125 262.746L24.0313 252.27L38.2344 248.262L38.2344 257.121L1.8125 275.859L1.8125 262.746ZM35.668 198.27V185.965C39.2305 186.129 42.3711 187.09 45.0898 188.848C47.8086 190.605 49.9297 193.043 51.4531 196.16C52.9531 199.254 53.7031 202.91 53.7031 207.129C53.7031 210.551 53.1289 213.609 51.9805 216.305C50.832 218.977 49.1797 221.25 47.0234 223.125C44.8672 224.977 42.2539 226.395 39.1836 227.379C36.1133 228.34 32.6562 228.82 28.8125 228.82H26.0352C22.1914 228.82 18.7344 228.316 15.6641 227.309C12.5703 226.277 9.94531 224.824 7.78906 222.949C5.60938 221.051 3.94531 218.777 2.79688 216.129C1.64844 213.48 1.07422 210.539 1.07422 207.305C1.07422 202.852 1.87109 199.09 3.46484 196.02C5.05859 192.949 7.25 190.57 10.0391 188.883C12.8047 187.195 15.957 186.199 19.4961 185.895V198.199C17.5742 198.246 15.9688 198.574 14.6797 199.184C13.3672 199.793 12.3828 200.754 11.7266 202.066C11.0703 203.379 10.7422 205.125 10.7422 207.305C10.7422 208.828 11.0234 210.152 11.5859 211.277C12.1484 212.402 13.0391 213.34 14.2578 214.09C15.4766 214.84 17.0586 215.402 19.0039 215.777C20.9258 216.129 23.2461 216.305 25.9648 216.305H28.8125C31.5312 216.305 33.8516 216.141 35.7734 215.812C37.6953 215.484 39.2656 214.957 40.4844 214.23C41.7031 213.504 42.6055 212.566 43.1914 211.418C43.7539 210.246 44.0352 208.816 44.0352 207.129C44.0352 205.254 43.7422 203.672 43.1562 202.383C42.5469 201.094 41.6328 200.098 40.4141 199.395C39.1719 198.691 37.5898 198.316 35.668 198.27ZM1.8125 145.395H11.3398L11.3398 171.832H1.8125L1.8125 145.395ZM1.8125 137.062H53V149.402H1.8125L1.8125 137.062ZM1.8125 172.676L1.8125 160.406L27.8281 161.742C31.7656 161.953 35.1641 162.352 38.0234 162.938C40.8594 163.523 43.25 164.309 45.1953 165.293C47.1172 166.277 48.6523 167.461 49.8008 168.844C50.9492 170.227 51.7695 171.832 52.2617 173.66C52.7539 175.465 53 177.492 53 179.742V182.73H43.5078L43.3672 181.395C43.25 180.316 42.957 179.367 42.4883 178.547C41.9961 177.727 41.2695 177.023 40.3086 176.438C39.3477 175.828 38.1172 175.324 36.6172 174.926C35.1172 174.527 33.3008 174.211 31.168 173.977C29.0117 173.719 26.4922 173.543 23.6094 173.449L1.8125 172.676ZM33.6992 113.156L1.8125 101.062L1.81249 88.0195L42.418 105.281C43.918 105.937 45.3477 106.699 46.707 107.566C48.0664 108.41 49.2734 109.418 50.3281 110.59C51.3828 111.738 52.2148 113.098 52.8242 114.668C53.4336 116.238 53.7383 118.078 53.7383 120.188C53.7383 120.703 53.7266 121.336 53.7031 122.086C53.7031 122.812 53.6914 123.445 53.668 123.984L44.1055 124.195C44.1758 123.891 44.2227 123.469 44.2461 122.93C44.2461 122.391 44.2461 122.004 44.2461 121.77C44.2461 120.363 44.082 119.25 43.7539 118.43C43.4023 117.609 42.8867 116.965 42.207 116.496C41.5039 116.004 40.6133 115.582 39.5352 115.23L33.6992 113.156ZM1.8125 120.012L24.0312 109.535L38.2344 105.527V114.387L1.8125 133.125L1.8125 120.012ZM1.81249 49.3125L11.3398 49.3125L11.3398 71.5664H53L53 83.8711H1.81249L1.81249 49.3125ZM34.1211 32.0156L1.81249 13.6289L1.81249 1.28906L53 1.28906V13.6289L20.7266 13.6289L53 32.0156V44.3555L1.81249 44.3555L1.81249 32.0156L34.1211 32.0156Z"/>
</mask>
<path d="M33.6992 255.891L1.8125 243.797L1.8125 230.754L42.418 248.016C43.918 248.672 45.3477 249.434 46.707 250.301C48.0664 251.145 49.2734 252.152 50.3281 253.324C51.3828 254.473 52.2148 255.832 52.8242 257.402C53.4336 258.973 53.7383 260.812 53.7383 262.922C53.7383 263.438 53.7266 264.07 53.7031 264.82C53.7031 265.547 53.6914 266.18 53.668 266.719L44.1055 266.93C44.1758 266.625 44.2227 266.203 44.2461 265.664C44.2461 265.125 44.2461 264.738 44.2461 264.504C44.2461 263.098 44.082 261.984 43.7539 261.164C43.4023 260.344 42.8867 259.699 42.207 259.23C41.5039 258.738 40.6133 258.316 39.5352 257.965L33.6992 255.891ZM1.8125 262.746L24.0313 252.27L38.2344 248.262L38.2344 257.121L1.8125 275.859L1.8125 262.746ZM35.668 198.27V185.965C39.2305 186.129 42.3711 187.09 45.0898 188.848C47.8086 190.605 49.9297 193.043 51.4531 196.16C52.9531 199.254 53.7031 202.91 53.7031 207.129C53.7031 210.551 53.1289 213.609 51.9805 216.305C50.832 218.977 49.1797 221.25 47.0234 223.125C44.8672 224.977 42.2539 226.395 39.1836 227.379C36.1133 228.34 32.6562 228.82 28.8125 228.82H26.0352C22.1914 228.82 18.7344 228.316 15.6641 227.309C12.5703 226.277 9.94531 224.824 7.78906 222.949C5.60938 221.051 3.94531 218.777 2.79688 216.129C1.64844 213.48 1.07422 210.539 1.07422 207.305C1.07422 202.852 1.87109 199.09 3.46484 196.02C5.05859 192.949 7.25 190.57 10.0391 188.883C12.8047 187.195 15.957 186.199 19.4961 185.895V198.199C17.5742 198.246 15.9688 198.574 14.6797 199.184C13.3672 199.793 12.3828 200.754 11.7266 202.066C11.0703 203.379 10.7422 205.125 10.7422 207.305C10.7422 208.828 11.0234 210.152 11.5859 211.277C12.1484 212.402 13.0391 213.34 14.2578 214.09C15.4766 214.84 17.0586 215.402 19.0039 215.777C20.9258 216.129 23.2461 216.305 25.9648 216.305H28.8125C31.5312 216.305 33.8516 216.141 35.7734 215.812C37.6953 215.484 39.2656 214.957 40.4844 214.23C41.7031 213.504 42.6055 212.566 43.1914 211.418C43.7539 210.246 44.0352 208.816 44.0352 207.129C44.0352 205.254 43.7422 203.672 43.1562 202.383C42.5469 201.094 41.6328 200.098 40.4141 199.395C39.1719 198.691 37.5898 198.316 35.668 198.27ZM1.8125 145.395H11.3398L11.3398 171.832H1.8125L1.8125 145.395ZM1.8125 137.062H53V149.402H1.8125L1.8125 137.062ZM1.8125 172.676L1.8125 160.406L27.8281 161.742C31.7656 161.953 35.1641 162.352 38.0234 162.938C40.8594 163.523 43.25 164.309 45.1953 165.293C47.1172 166.277 48.6523 167.461 49.8008 168.844C50.9492 170.227 51.7695 171.832 52.2617 173.66C52.7539 175.465 53 177.492 53 179.742V182.73H43.5078L43.3672 181.395C43.25 180.316 42.957 179.367 42.4883 178.547C41.9961 177.727 41.2695 177.023 40.3086 176.438C39.3477 175.828 38.1172 175.324 36.6172 174.926C35.1172 174.527 33.3008 174.211 31.168 173.977C29.0117 173.719 26.4922 173.543 23.6094 173.449L1.8125 172.676ZM33.6992 113.156L1.8125 101.062L1.81249 88.0195L42.418 105.281C43.918 105.937 45.3477 106.699 46.707 107.566C48.0664 108.41 49.2734 109.418 50.3281 110.59C51.3828 111.738 52.2148 113.098 52.8242 114.668C53.4336 116.238 53.7383 118.078 53.7383 120.188C53.7383 120.703 53.7266 121.336 53.7031 122.086C53.7031 122.812 53.6914 123.445 53.668 123.984L44.1055 124.195C44.1758 123.891 44.2227 123.469 44.2461 122.93C44.2461 122.391 44.2461 122.004 44.2461 121.77C44.2461 120.363 44.082 119.25 43.7539 118.43C43.4023 117.609 42.8867 116.965 42.207 116.496C41.5039 116.004 40.6133 115.582 39.5352 115.23L33.6992 113.156ZM1.8125 120.012L24.0312 109.535L38.2344 105.527V114.387L1.8125 133.125L1.8125 120.012ZM1.81249 49.3125L11.3398 49.3125L11.3398 71.5664H53L53 83.8711H1.81249L1.81249 49.3125ZM34.1211 32.0156L1.81249 13.6289L1.81249 1.28906L53 1.28906V13.6289L20.7266 13.6289L53 32.0156V44.3555L1.81249 44.3555L1.81249 32.0156L34.1211 32.0156Z" stroke="#161617" stroke-width="2" mask="url(#path-1-outside-1_1811_79)"/>
</svg>
