<svg width="113" height="402" viewBox="0 0 113 402" fill="none" xmlns="http://www.w3.org/2000/svg">
<mask id="path-1-outside-1_1764_22" maskUnits="userSpaceOnUse" x="0.71875" y="0.765625" width="112" height="401" fill="black">
<rect fill="white" x="0.71875" y="0.765625" width="112" height="401"/>
<path d="M24.6875 380.105H110V400.613H24.6875L24.6875 380.105ZM24.6875 330.887L76.25 361.531V383.68L57.6758 386.141V372.137L24.6875 355.73L24.6875 330.887ZM110 352.215L72.6758 372.195L58.9063 357.254L110 327.957V352.215ZM94.1797 264.09H110L110 309.559H94.1797L94.1797 264.09ZM24.6875 302.234H110V322.801H24.6875L24.6875 302.234ZM58.5547 269.949H73.8477L73.8477 309.559H58.5547V269.949ZM24.6875 263.914H40.5664V309.559H24.6875L24.6875 263.914ZM78.5352 236.258L24.6875 205.613V185.047H110V205.613H56.2109L110 236.258V256.824H24.6875V236.258H78.5352ZM1.71875 212.645L1.71875 199.109C5.23438 199.109 8.35938 200.008 11.0938 201.805C13.7891 203.562 15.8984 206.062 17.4219 209.305C18.9453 212.547 19.707 216.375 19.707 220.789C19.707 227.469 18.0469 232.762 14.7266 236.668C11.3672 240.574 7.03125 242.527 1.71875 242.527L1.71875 229.051C3.63281 229.051 5.35156 228.426 6.875 227.176C8.39844 225.926 9.16016 223.797 9.16016 220.789C9.16016 217.781 8.39844 215.672 6.875 214.461C5.35156 213.25 3.63281 212.645 1.71875 212.645ZM81.1133 123.934L81.1133 103.426C87.0508 103.699 92.2851 105.301 96.8164 108.23C101.348 111.16 104.883 115.223 107.422 120.418C109.922 125.574 111.172 131.668 111.172 138.699C111.172 144.402 110.215 149.5 108.301 153.992C106.387 158.445 103.633 162.234 100.039 165.359C96.4453 168.445 92.0898 170.809 86.9727 172.449C81.8555 174.051 76.0938 174.852 69.6875 174.852H65.0586C58.6523 174.852 52.8906 174.012 47.7734 172.332C42.6172 170.613 38.2422 168.191 34.6484 165.066C31.0156 161.902 28.2422 158.113 26.3281 153.699C24.4141 149.285 23.457 144.383 23.457 138.992C23.457 131.57 24.7852 125.301 27.4414 120.184C30.0977 115.066 33.75 111.102 38.3984 108.289C43.0078 105.477 48.2617 103.816 54.1602 103.309V123.816C50.957 123.895 48.2812 124.441 46.1328 125.457C43.9453 126.473 42.3047 128.074 41.2109 130.262C40.1172 132.449 39.5703 135.359 39.5703 138.992C39.5703 141.531 40.0391 143.738 40.9766 145.613C41.9141 147.488 43.3984 149.051 45.4297 150.301C47.4609 151.551 50.0977 152.488 53.3398 153.113C56.543 153.699 60.4102 153.992 64.9414 153.992H69.6875C74.2188 153.992 78.0859 153.719 81.2891 153.172C84.4922 152.625 87.1094 151.746 89.1406 150.535C91.1719 149.324 92.6758 147.762 93.6523 145.848C94.5898 143.895 95.0586 141.512 95.0586 138.699C95.0586 135.574 94.5703 132.938 93.5938 130.789C92.5781 128.641 91.0547 126.98 89.0234 125.809C86.9531 124.637 84.3164 124.012 81.1133 123.934ZM54.043 80.9258L54.043 62.5859C54.043 55.6719 55.1953 49.6563 57.5 44.5391C59.8047 39.4219 63.0273 35.4766 67.168 32.7031C71.3086 29.8906 76.1523 28.4844 81.6992 28.4844C85.8789 28.4844 89.707 29.2852 93.1836 30.8867C96.6211 32.4883 99.6094 34.793 102.148 37.8008C104.648 40.7695 106.582 44.3438 107.949 48.5234C109.316 52.7031 110 57.3906 110 62.5859V93.7578H24.6875L24.6875 73.1328H94.1797V62.5859C94.1797 59.6562 93.6133 57.1953 92.4805 55.2031C91.3476 53.1719 89.8437 51.6289 87.9687 50.5742C86.0547 49.5195 83.9258 48.9922 81.582 48.9922C79.3164 48.9922 77.3047 49.5195 75.5469 50.5742C73.7891 51.6289 72.4023 53.1719 71.3867 55.2031C70.3711 57.1953 69.8633 59.6562 69.8633 62.5859V80.9258H54.043ZM24.6875 1.76563L110 1.76562V22.2734L24.6875 22.2734L24.6875 1.76563Z"/>
</mask>
<path d="M24.6875 380.105H110V400.613H24.6875L24.6875 380.105ZM24.6875 330.887L76.25 361.531V383.68L57.6758 386.141V372.137L24.6875 355.73L24.6875 330.887ZM110 352.215L72.6758 372.195L58.9063 357.254L110 327.957V352.215ZM94.1797 264.09H110L110 309.559H94.1797L94.1797 264.09ZM24.6875 302.234H110V322.801H24.6875L24.6875 302.234ZM58.5547 269.949H73.8477L73.8477 309.559H58.5547V269.949ZM24.6875 263.914H40.5664V309.559H24.6875L24.6875 263.914ZM78.5352 236.258L24.6875 205.613V185.047H110V205.613H56.2109L110 236.258V256.824H24.6875V236.258H78.5352ZM1.71875 212.645L1.71875 199.109C5.23438 199.109 8.35938 200.008 11.0938 201.805C13.7891 203.562 15.8984 206.062 17.4219 209.305C18.9453 212.547 19.707 216.375 19.707 220.789C19.707 227.469 18.0469 232.762 14.7266 236.668C11.3672 240.574 7.03125 242.527 1.71875 242.527L1.71875 229.051C3.63281 229.051 5.35156 228.426 6.875 227.176C8.39844 225.926 9.16016 223.797 9.16016 220.789C9.16016 217.781 8.39844 215.672 6.875 214.461C5.35156 213.25 3.63281 212.645 1.71875 212.645ZM81.1133 123.934L81.1133 103.426C87.0508 103.699 92.2851 105.301 96.8164 108.23C101.348 111.16 104.883 115.223 107.422 120.418C109.922 125.574 111.172 131.668 111.172 138.699C111.172 144.402 110.215 149.5 108.301 153.992C106.387 158.445 103.633 162.234 100.039 165.359C96.4453 168.445 92.0898 170.809 86.9727 172.449C81.8555 174.051 76.0938 174.852 69.6875 174.852H65.0586C58.6523 174.852 52.8906 174.012 47.7734 172.332C42.6172 170.613 38.2422 168.191 34.6484 165.066C31.0156 161.902 28.2422 158.113 26.3281 153.699C24.4141 149.285 23.457 144.383 23.457 138.992C23.457 131.57 24.7852 125.301 27.4414 120.184C30.0977 115.066 33.75 111.102 38.3984 108.289C43.0078 105.477 48.2617 103.816 54.1602 103.309V123.816C50.957 123.895 48.2812 124.441 46.1328 125.457C43.9453 126.473 42.3047 128.074 41.2109 130.262C40.1172 132.449 39.5703 135.359 39.5703 138.992C39.5703 141.531 40.0391 143.738 40.9766 145.613C41.9141 147.488 43.3984 149.051 45.4297 150.301C47.4609 151.551 50.0977 152.488 53.3398 153.113C56.543 153.699 60.4102 153.992 64.9414 153.992H69.6875C74.2188 153.992 78.0859 153.719 81.2891 153.172C84.4922 152.625 87.1094 151.746 89.1406 150.535C91.1719 149.324 92.6758 147.762 93.6523 145.848C94.5898 143.895 95.0586 141.512 95.0586 138.699C95.0586 135.574 94.5703 132.938 93.5938 130.789C92.5781 128.641 91.0547 126.98 89.0234 125.809C86.9531 124.637 84.3164 124.012 81.1133 123.934ZM54.043 80.9258L54.043 62.5859C54.043 55.6719 55.1953 49.6563 57.5 44.5391C59.8047 39.4219 63.0273 35.4766 67.168 32.7031C71.3086 29.8906 76.1523 28.4844 81.6992 28.4844C85.8789 28.4844 89.707 29.2852 93.1836 30.8867C96.6211 32.4883 99.6094 34.793 102.148 37.8008C104.648 40.7695 106.582 44.3438 107.949 48.5234C109.316 52.7031 110 57.3906 110 62.5859V93.7578H24.6875L24.6875 73.1328H94.1797V62.5859C94.1797 59.6562 93.6133 57.1953 92.4805 55.2031C91.3476 53.1719 89.8437 51.6289 87.9687 50.5742C86.0547 49.5195 83.9258 48.9922 81.582 48.9922C79.3164 48.9922 77.3047 49.5195 75.5469 50.5742C73.7891 51.6289 72.4023 53.1719 71.3867 55.2031C70.3711 57.1953 69.8633 59.6562 69.8633 62.5859V80.9258H54.043ZM24.6875 1.76563L110 1.76562V22.2734L24.6875 22.2734L24.6875 1.76563Z" stroke="#161617" stroke-width="2" mask="url(#path-1-outside-1_1764_22)"/>
</svg>
