<svg width="91" height="508" viewBox="0 0 91 508" fill="none" xmlns="http://www.w3.org/2000/svg">
<mask id="path-1-outside-1_1764_26" maskUnits="userSpaceOnUse" x="0.515625" y="0.351562" width="90" height="508" fill="black">
<rect fill="white" x="0.515625" y="0.351562" width="90" height="508"/>
<path d="M43.6445 432.309H47.1016C53.625 432.309 59.4844 433.227 64.6797 435.062C69.8359 436.859 74.25 439.418 77.9219 442.738C81.5547 446.059 84.3477 449.984 86.3008 454.516C88.2148 459.047 89.1719 464.047 89.1719 469.516C89.1719 475.023 88.2148 480.062 86.3008 484.633C84.3477 489.164 81.5547 493.109 77.9219 496.469C74.25 499.789 69.8359 502.367 64.6797 504.203C59.4844 506 53.625 506.898 47.1016 506.898H43.6445C37.1211 506.898 31.2617 506 26.0664 504.203C20.8711 502.367 16.457 499.809 12.8242 496.527C9.15234 493.207 6.35938 489.281 4.44531 484.75C2.49219 480.18 1.51563 475.141 1.51562 469.633C1.51562 464.164 2.49219 459.164 4.44531 454.633C6.35937 450.062 9.15234 446.117 12.8242 442.797C16.457 439.477 20.8711 436.898 26.0664 435.062C31.2617 433.227 37.1211 432.309 43.6445 432.309ZM47.1016 453.168H43.5273C39.3086 453.168 35.5977 453.539 32.3945 454.281C29.1523 454.984 26.4375 456.039 24.25 457.445C22.0625 458.852 20.4219 460.59 19.3281 462.66C18.1953 464.691 17.6289 467.016 17.6289 469.633C17.6289 472.367 18.1953 474.75 19.3281 476.781C20.4219 478.812 22.0625 480.512 24.25 481.879C26.4375 483.246 29.1523 484.281 32.3945 484.984C35.5977 485.648 39.3086 485.98 43.5273 485.98H47.1016C51.2812 485.98 54.9922 485.648 58.2344 484.984C61.4375 484.281 64.1523 483.246 66.3789 481.879C68.6055 480.473 70.2852 478.754 71.418 476.723C72.5508 474.652 73.1172 472.25 73.1172 469.516C73.1172 466.898 72.5508 464.574 71.418 462.543C70.2852 460.512 68.6055 458.812 66.3789 457.445C64.1523 456.039 61.4375 454.984 58.2344 454.281C54.9922 453.539 51.2812 453.168 47.1016 453.168ZM2.6875 385.375H88V405.941H2.6875L2.6875 385.375ZM2.6875 359.711H18.5664L18.5664 431.02H2.6875L2.6875 359.711ZM47.1601 316.352V331.059H36.8476V320.16C36.8476 317.621 36.4375 315.57 35.6172 314.008C34.7578 312.445 33.5469 311.293 31.9844 310.551C30.3828 309.809 28.5078 309.437 26.3594 309.438C24.7578 309.438 23.2734 309.867 21.9062 310.727C20.5391 311.547 19.4453 312.816 18.625 314.535C17.8047 316.254 17.3945 318.441 17.3945 321.098C17.3945 323.129 17.7266 324.984 18.3906 326.664C19.0547 328.344 20.0312 329.672 21.3203 330.648C22.5703 331.625 24.1328 332.113 26.0078 332.113V352.621C22.1797 352.621 18.7617 351.781 15.7539 350.102C12.7461 348.422 10.1875 346.137 8.07812 343.246C5.96874 340.316 4.36718 336.957 3.27343 333.168C2.14062 329.34 1.57421 325.316 1.57421 321.098C1.57421 316.215 2.10156 311.801 3.15624 307.855C4.17187 303.91 5.69531 300.531 7.72655 297.719C9.7578 294.867 12.2969 292.68 15.3437 291.156C18.3516 289.633 21.8476 288.871 25.832 288.871C28.7617 288.871 31.5156 289.535 34.0937 290.863C36.6719 292.152 38.9375 294.008 40.8906 296.43C42.8437 298.852 44.3867 301.762 45.5195 305.16C46.6133 308.52 47.1601 312.25 47.1601 316.352ZM41.9453 331.059V316.352C41.9453 311.781 42.4336 307.719 43.4101 304.164C44.3867 300.609 45.8125 297.602 47.6875 295.141C49.5625 292.641 51.8867 290.746 54.6601 289.457C57.3945 288.168 60.5391 287.523 64.0937 287.523C68.0781 287.523 71.6328 288.363 74.7578 290.043C77.8437 291.684 80.4609 294.008 82.6094 297.016C84.7578 300.023 86.3789 303.578 87.4726 307.68C88.5664 311.742 89.1133 316.215 89.1133 321.098C89.1133 325.043 88.6445 328.969 87.707 332.875C86.7305 336.742 85.2461 340.258 83.2539 343.422C81.2617 346.586 78.7031 349.125 75.5781 351.039C72.4531 352.914 68.7031 353.852 64.3281 353.852L64.3281 333.227C66.0469 333.227 67.5898 332.719 68.957 331.703C70.3242 330.648 71.3984 329.203 72.1797 327.367C72.9609 325.531 73.3516 323.441 73.3516 321.098C73.3516 318.363 72.9219 316.039 72.0625 314.125C71.2031 312.172 70.0312 310.687 68.5469 309.672C67.0625 308.656 65.4219 308.148 63.625 308.148C61.5156 308.148 59.7383 308.402 58.293 308.91C56.8086 309.418 55.6172 310.18 54.7187 311.195C53.7812 312.211 53.1172 313.48 52.7266 315.004C52.2969 316.488 52.082 318.207 52.082 320.16V331.059H41.9453ZM32.043 262.621V244.281C32.043 237.367 33.1953 231.352 35.5 226.234C37.8047 221.117 41.0273 217.172 45.168 214.398C49.3086 211.586 54.1523 210.18 59.6992 210.18C63.8789 210.18 67.707 210.98 71.1836 212.582C74.6211 214.184 77.6094 216.488 80.1484 219.496C82.6484 222.465 84.582 226.039 85.9492 230.219C87.3164 234.398 88 239.086 88 244.281V275.453H2.68749L2.68749 254.828H72.1797V244.281C72.1797 241.352 71.6133 238.891 70.4805 236.898C69.3476 234.867 67.8437 233.324 65.9687 232.27C64.0547 231.215 61.9258 230.687 59.582 230.688C57.3164 230.688 55.3047 231.215 53.5469 232.27C51.7891 233.324 50.4023 234.867 49.3867 236.898C48.3711 238.891 47.8633 241.352 47.8633 244.281L47.8633 262.621H32.043ZM2.68749 183.461H88V203.969H2.68749L2.68749 183.461ZM51.7305 135.941V157.914L38.2539 158.031V140.219C38.2539 137.016 37.9023 134.457 37.1992 132.543C36.457 130.629 35.3828 129.242 33.9765 128.383C32.5703 127.484 30.8125 127.035 28.7031 127.035C26.2812 127.035 24.3281 127.484 22.8437 128.383C21.3594 129.281 20.2851 130.707 19.6211 132.66C18.918 134.574 18.5664 137.055 18.5664 140.102L18.5664 150.18H88V170.746H2.68749L2.68749 140.102C2.68749 134.828 3.17577 130.121 4.15233 125.98C5.08983 121.84 6.53514 118.324 8.48827 115.434C10.4414 112.504 12.9023 110.277 15.8711 108.754C18.8008 107.23 22.2578 106.469 26.2422 106.469C29.7187 106.469 32.9805 107.211 36.0273 108.695C39.0742 110.18 41.5547 112.66 43.4687 116.137C45.3437 119.574 46.3203 124.281 46.3984 130.258L51.7305 135.941ZM88 136.762V162.895L72.1797 155.863V136.762C72.1797 133.949 71.75 131.703 70.8906 130.023C69.9922 128.305 68.8203 127.074 67.375 126.332C65.8906 125.551 64.25 125.16 62.4531 125.16C60.2656 125.16 58.3711 125.531 56.7695 126.273C55.168 126.977 53.9375 128.109 53.0781 129.672C52.1797 131.234 51.7305 133.324 51.7305 135.941V153.227L38.2539 153.109V132.426L43.6445 127.621C43.4101 121.918 44.2109 117.406 46.0469 114.086C47.8828 110.727 50.3047 108.324 53.3125 106.879C56.3203 105.434 59.4648 104.711 62.7461 104.711C68.332 104.711 73 105.922 76.75 108.344C80.5 110.727 83.3125 114.301 85.1875 119.066C87.0625 123.832 88 129.73 88 136.762ZM32.043 80.5117V62.1719C32.043 55.2578 33.1953 49.2422 35.5 44.125C37.8047 39.0078 41.0273 35.0625 45.1679 32.2891C49.3086 29.4766 54.1523 28.0703 59.6992 28.0703C63.8789 28.0703 67.707 28.8711 71.1836 30.4727C74.6211 32.0742 77.6094 34.3789 80.1484 37.3867C82.6484 40.3555 84.582 43.9297 85.9492 48.1094C87.3164 52.2891 88 56.9766 88 62.1719V93.3438H2.68748L2.68748 72.7188H72.1797V62.1719C72.1797 59.2422 71.6133 56.7812 70.4805 54.7891C69.3476 52.7578 67.8437 51.2148 65.9687 50.1602C64.0547 49.1055 61.9258 48.5781 59.582 48.5781C57.3164 48.5781 55.3047 49.1055 53.5469 50.1602C51.789 51.2148 50.4023 52.7578 49.3867 54.7891C48.3711 56.7812 47.8633 59.2422 47.8633 62.1719L47.8633 80.5117H32.043ZM2.68748 1.35157L88 1.35156V21.8594L2.68748 21.8594L2.68748 1.35157Z"/>
</mask>
<path d="M43.6445 432.309L43.6445 431.309H43.6445L43.6445 432.309ZM47.1016 432.309L47.1016 433.309H47.1016L47.1016 432.309ZM64.6797 435.062L64.3465 436.005L64.3506 436.007L64.6797 435.062ZM77.9219 442.738L78.5965 442L78.5926 441.997L77.9219 442.738ZM86.3008 454.516L87.222 454.126L87.2191 454.12L86.3008 454.516ZM89.1719 469.516L88.1719 469.516L89.1719 469.516ZM86.3008 484.633L87.2192 485.029L87.2232 485.019L86.3008 484.633ZM77.9219 496.469L78.5926 497.211L78.6008 497.203L77.9219 496.469ZM64.6797 504.203L65.0066 505.148L65.0151 505.145L64.6797 504.203ZM47.1016 506.898L47.1016 507.898H47.1016L47.1016 506.898ZM43.6445 506.898L43.6445 505.898H43.6445L43.6445 506.898ZM26.0664 504.203L25.7332 505.146L25.7395 505.148L26.0664 504.203ZM12.8242 496.527L12.1535 497.269L12.1539 497.269L12.8242 496.527ZM4.44531 484.75L5.36651 484.361L5.36486 484.357L4.44531 484.75ZM1.51562 469.633L0.515625 469.633L1.51562 469.633ZM4.44531 454.633L5.36369 455.029L5.36769 455.019L4.44531 454.633ZM12.8242 442.797L13.4949 443.539L13.4989 443.535L12.8242 442.797ZM47.1016 453.168L47.1016 454.168H47.1016L47.1016 453.168ZM43.5273 453.168L43.5273 452.168H43.5273L43.5273 453.168ZM32.3945 454.281L32.6065 455.259L32.6203 455.255L32.3945 454.281ZM19.3281 462.66L20.2015 463.147L20.207 463.137L20.2123 463.127L19.3281 462.66ZM17.6289 469.633L18.6289 469.633L17.6289 469.633ZM19.3281 476.781L20.2086 476.307L20.2051 476.301L20.2015 476.294L19.3281 476.781ZM32.3945 484.984L32.1826 485.962L32.1915 485.964L32.3945 484.984ZM43.5273 485.98L43.5273 484.98H43.5273L43.5273 485.98ZM47.1016 485.98L47.1016 486.98H47.1016L47.1016 485.98ZM58.2344 484.984L58.435 485.964L58.4488 485.961L58.2344 484.984ZM66.3789 481.879L66.9022 482.731L66.9129 482.724L66.3789 481.879ZM71.418 476.723L72.2914 477.21L72.2952 477.203L71.418 476.723ZM73.1172 469.516L74.1172 469.516L73.1172 469.516ZM66.3789 457.445L65.8449 458.291L65.8556 458.297L66.3789 457.445ZM58.2344 454.281L58.0112 455.256L58.02 455.258L58.2344 454.281ZM2.6875 385.375V384.375H1.6875L1.6875 385.375L2.6875 385.375ZM88 385.375H89V384.375H88V385.375ZM88 405.941V406.941H89V405.941H88ZM2.6875 405.941L1.6875 405.941L1.6875 406.941H2.6875V405.941ZM2.6875 359.711V358.711H1.6875L1.6875 359.711L2.6875 359.711ZM18.5664 359.711L19.5664 359.711L19.5664 358.711H18.5664V359.711ZM18.5664 431.02V432.02H19.5664L19.5664 431.02L18.5664 431.02ZM2.6875 431.02L1.6875 431.02L1.6875 432.02H2.6875V431.02ZM47.1601 316.352L48.1601 316.352V316.352L47.1601 316.352ZM47.1601 331.059V332.059H48.1601V331.059H47.1601ZM36.8476 331.059H35.8476V332.059H36.8476V331.059ZM36.8476 320.16L37.8476 320.16V320.16L36.8476 320.16ZM35.6172 314.008L36.5026 313.543L36.4981 313.534L36.4934 313.526L35.6172 314.008ZM31.9844 310.551L32.4134 309.647L32.4048 309.643L31.9844 310.551ZM26.3594 309.438L26.3594 308.438L26.3594 309.438ZM21.9062 310.727L22.4207 311.584L22.4296 311.579L22.4384 311.573L21.9062 310.727ZM17.3945 321.098L16.3945 321.098L17.3945 321.098ZM21.3203 330.648L21.936 329.86L21.9301 329.856L21.9242 329.851L21.3203 330.648ZM26.0078 332.113H27.0078V331.113L26.0078 331.113L26.0078 332.113ZM26.0078 352.621L26.0078 353.621L27.0078 353.621V352.621H26.0078ZM8.07812 343.246L7.26657 343.83L7.27033 343.836L8.07812 343.246ZM3.27343 333.168L4.23423 332.891L4.23233 332.884L3.27343 333.168ZM1.57421 321.098L0.574212 321.098L1.57421 321.098ZM3.15624 307.855L4.12236 308.114L4.12467 308.105L3.15624 307.855ZM7.72655 297.719L8.53725 298.304L8.54104 298.299L7.72655 297.719ZM15.3437 291.156L15.791 292.051L15.7956 292.048L15.3437 291.156ZM25.832 288.871L25.832 289.871L25.832 288.871ZM34.0937 290.863L33.6358 291.752L33.6465 291.758L34.0937 290.863ZM45.5195 305.16L46.4704 304.851L46.4682 304.844L45.5195 305.16ZM41.9453 331.059H40.9453V332.059H41.9453V331.059ZM41.9453 316.352L42.9453 316.352V316.352L41.9453 316.352ZM47.6875 295.141L48.4829 295.747L48.4875 295.741L47.6875 295.141ZM54.6601 289.457L55.0816 290.364L55.0866 290.362L54.6601 289.457ZM64.0937 287.523L64.0937 286.523L64.0937 287.523ZM74.7578 290.043L74.2844 290.924L74.2884 290.926L74.7578 290.043ZM87.4726 307.68L86.5064 307.937L86.507 307.94L87.4726 307.68ZM87.707 332.875L88.6767 333.12L88.6794 333.108L87.707 332.875ZM75.5781 351.039L76.0926 351.897L76.1004 351.892L75.5781 351.039ZM64.3281 353.852L63.3281 353.852L63.3281 354.852L64.3281 354.852L64.3281 353.852ZM64.3281 333.227L64.3281 332.227L63.3281 332.227L63.3281 333.227L64.3281 333.227ZM68.957 331.703L69.5533 332.506L69.5606 332.5L69.5678 332.495L68.957 331.703ZM73.3516 321.098L72.3516 321.098L73.3516 321.098ZM72.0625 314.125L71.1472 314.528L71.1502 314.535L72.0625 314.125ZM63.625 308.148L63.625 307.148L63.625 308.148ZM58.293 308.91L58.6167 309.856L58.6244 309.854L58.293 308.91ZM54.7187 311.195L55.4535 311.874L55.4607 311.866L55.4677 311.858L54.7187 311.195ZM52.7266 315.004L53.6871 315.282L53.6914 315.267L53.6952 315.252L52.7266 315.004ZM52.082 320.16L53.082 320.16V320.16L52.082 320.16ZM52.082 331.059V332.059H53.082V331.059H52.082ZM32.043 262.621H31.043V263.621H32.043V262.621ZM32.043 244.281L33.043 244.281V244.281L32.043 244.281ZM45.168 214.398L45.7245 215.229L45.7298 215.226L45.168 214.398ZM59.6992 210.18L59.6992 211.18L59.6992 210.18ZM71.1836 212.582L71.6059 211.676L71.602 211.674L71.1836 212.582ZM80.1484 219.496L80.9133 218.852L80.9126 218.851L80.1484 219.496ZM88 244.281L89 244.281V244.281L88 244.281ZM88 275.453V276.453H89V275.453H88ZM2.68749 275.453L1.68749 275.453L1.68749 276.453H2.68749V275.453ZM2.68749 254.828V253.828H1.68749L1.68749 254.828L2.68749 254.828ZM72.1797 254.828V255.828H73.1797V254.828H72.1797ZM72.1797 244.281L73.1797 244.281V244.281L72.1797 244.281ZM70.4805 236.898L69.6071 237.386L69.6112 237.393L70.4805 236.898ZM65.9687 232.27L66.459 231.398L66.4513 231.394L65.9687 232.27ZM59.582 230.688L59.582 229.688L59.582 230.688ZM49.3867 236.898L50.2776 237.353L50.2811 237.346L49.3867 236.898ZM47.8633 244.281L46.8633 244.281L46.8633 244.281L47.8633 244.281ZM47.8633 262.621V263.621H48.8633L48.8633 262.621L47.8633 262.621ZM2.68749 183.461V182.461H1.68749L1.68749 183.461L2.68749 183.461ZM88 183.461H89V182.461H88V183.461ZM88 203.969V204.969H89V203.969H88ZM2.68749 203.969L1.68749 203.969L1.68749 204.969H2.68749V203.969ZM51.7305 135.941L52.7305 135.941V135.941L51.7305 135.941ZM51.7305 157.914L51.7391 158.914L52.7305 158.905V157.914H51.7305ZM38.2539 158.031H37.2539V159.04L38.2626 159.031L38.2539 158.031ZM38.2539 140.219L39.2539 140.219V140.219L38.2539 140.219ZM37.1992 132.543L38.1379 132.198L38.1348 132.19L38.1316 132.181L37.1992 132.543ZM33.9765 128.383L33.4382 129.226L33.4466 129.231L33.4551 129.236L33.9765 128.383ZM28.7031 127.035L28.7031 128.035L28.7031 127.035ZM19.6211 132.66L20.5597 133.005L20.5639 132.994L20.5679 132.982L19.6211 132.66ZM18.5664 140.102L17.5664 140.102L17.5664 140.102L18.5664 140.102ZM18.5664 150.18L17.5664 150.18L17.5664 151.18H18.5664V150.18ZM88 150.18H89V149.18H88V150.18ZM88 170.746V171.746H89V170.746H88ZM2.68749 170.746L1.68749 170.746L1.68749 171.746H2.68749V170.746ZM2.68749 140.102L3.68749 140.102L2.68749 140.102ZM4.15233 125.98L5.12566 126.21L5.12764 126.201L4.15233 125.98ZM8.48827 115.434L9.31687 115.993L9.32032 115.988L8.48827 115.434ZM15.8711 108.754L16.3276 109.644L16.3324 109.641L15.8711 108.754ZM26.2422 106.469L26.2422 105.469L26.2422 106.469ZM43.4687 116.137L44.3466 115.658L44.3447 115.654L43.4687 116.137ZM46.3984 130.258L45.3985 130.271L45.4036 130.659L45.6691 130.942L46.3984 130.258ZM88 136.762L89 136.762V136.762L88 136.762ZM88 162.895L87.5938 163.808L89 164.433V162.895H88ZM72.1797 155.863H71.1797V156.513L71.7735 156.777L72.1797 155.863ZM72.1797 136.762L73.1797 136.762V136.762L72.1797 136.762ZM70.8906 130.023L71.7809 129.568L71.7768 129.56L70.8906 130.023ZM67.375 126.332L66.9092 127.217L66.9182 127.222L67.375 126.332ZM62.4531 125.16L62.4531 126.16L62.4531 125.16ZM56.7695 126.273L57.1715 127.189L57.1808 127.185L57.19 127.181L56.7695 126.273ZM53.0781 129.672L53.945 130.17L53.9497 130.162L53.9543 130.154L53.0781 129.672ZM51.7305 153.227L51.7218 154.227L52.7305 154.235V153.227H51.7305ZM38.2539 153.109H37.2539V154.101L38.2452 154.109L38.2539 153.109ZM38.2539 132.426L37.5885 131.679L37.2539 131.978V132.426H38.2539ZM43.6445 127.621L44.3099 128.368L44.6631 128.053L44.6437 127.58L43.6445 127.621ZM46.0469 114.086L46.922 114.57L46.9244 114.566L46.0469 114.086ZM62.7461 104.711L62.7461 103.711L62.7461 104.711ZM76.75 108.344L76.2074 109.184L76.2137 109.188L76.75 108.344ZM32.043 80.5117H31.043V81.5117H32.043V80.5117ZM32.043 62.1719L33.043 62.1719V62.1719L32.043 62.1719ZM45.1679 32.2891L45.7245 33.1199L45.7298 33.1163L45.1679 32.2891ZM59.6992 28.0703L59.6992 29.0703L59.6992 28.0703ZM71.1836 30.4727L71.6059 29.5662L71.602 29.5644L71.1836 30.4727ZM80.1484 37.3867L80.9133 36.7426L80.9126 36.7417L80.1484 37.3867ZM88 62.1719L89 62.1719V62.1719L88 62.1719ZM88 93.3438V94.3438H89V93.3438H88ZM2.68748 93.3438L1.68748 93.3438L1.68748 94.3438H2.68748V93.3438ZM2.68748 72.7188V71.7188H1.68748L1.68748 72.7188L2.68748 72.7188ZM72.1797 72.7188V73.7188H73.1797V72.7188H72.1797ZM72.1797 62.1719L73.1797 62.1719V62.1719L72.1797 62.1719ZM70.4805 54.7891L69.6071 55.2761L69.6112 55.2834L70.4805 54.7891ZM65.9687 50.1602L66.459 49.2885L66.4513 49.2843L65.9687 50.1602ZM49.3867 54.7891L50.2776 55.2433L50.2811 55.2363L49.3867 54.7891ZM47.8633 62.1719L46.8633 62.1719L46.8633 62.1719L47.8633 62.1719ZM47.8633 80.5117V81.5117H48.8633L48.8633 80.5117L47.8633 80.5117ZM2.68748 1.35157L2.68748 0.351566L1.68748 0.351566L1.68748 1.35157L2.68748 1.35157ZM88 1.35156H89V0.351562L88 0.351563L88 1.35156ZM88 21.8594L88 22.8594L89 22.8594V21.8594H88ZM2.68748 21.8594L1.68748 21.8594L1.68748 22.8594L2.68748 22.8594L2.68748 21.8594ZM43.6445 433.309H47.1016V431.309H43.6445V433.309ZM47.1016 433.309C53.5319 433.309 59.2758 434.213 64.3465 436.005L65.0129 434.12C59.6929 432.24 53.7181 431.309 47.1016 431.309L47.1016 433.309ZM64.3506 436.007C69.3936 437.764 73.6882 440.258 77.2512 443.48L78.5926 441.997C74.8118 438.578 70.2782 435.955 65.0088 434.118L64.3506 436.007ZM77.2472 443.476C80.7752 446.701 83.4852 450.51 85.3825 454.911L87.2191 454.12C85.2101 449.459 82.3342 445.416 78.5965 442L77.2472 443.476ZM85.3796 454.905C87.2361 459.3 88.1719 464.166 88.1719 469.516L90.1719 469.516C90.1719 463.928 89.1936 458.794 87.222 454.127L85.3796 454.905ZM88.1719 469.516C88.1719 474.906 87.2358 479.812 85.3784 484.247L87.2232 485.019C89.1939 480.313 90.1719 475.141 90.1719 469.516L88.1719 469.516ZM85.3825 484.237C83.4848 488.64 80.7735 492.47 77.2429 495.735L78.6008 497.203C82.3359 493.749 85.2105 489.689 87.2191 485.029L85.3825 484.237ZM77.2512 495.727C73.6866 498.95 69.3898 501.465 64.3443 503.261L65.0151 505.145C70.2821 503.27 74.8134 500.628 78.5926 497.21L77.2512 495.727ZM64.3528 503.258C59.2802 505.012 53.534 505.898 47.1016 505.898L47.1016 507.898C53.716 507.898 59.6886 506.988 65.0066 505.148L64.3528 503.258ZM47.1016 505.898H43.6445V507.898H47.1016V505.898ZM43.6445 505.898C37.2121 505.898 31.4659 505.012 26.3933 503.258L25.7395 505.148C31.0575 506.988 37.0301 507.898 43.6445 507.898L43.6445 505.898ZM26.3996 503.26C21.3132 501.463 17.0177 498.968 13.4945 495.785L12.1539 497.269C15.8963 500.65 20.429 503.272 25.7332 505.146L26.3996 503.26ZM13.4949 495.786C9.93055 492.563 7.22341 488.757 5.3665 484.361L3.52413 485.139C5.49534 489.806 8.37414 493.852 12.1535 497.269L13.4949 495.786ZM5.36486 484.357C3.4703 479.924 2.51563 475.02 2.51562 469.633L0.515625 469.633C0.515625 475.261 1.51408 480.436 3.52576 485.143L5.36486 484.357ZM2.51562 469.633C2.51562 464.285 3.46996 459.422 5.36364 455.029L3.52699 454.237C1.51441 458.906 0.515625 464.043 0.515625 469.633L2.51562 469.633ZM5.36769 455.019C7.22504 450.584 9.93213 446.76 13.4949 443.539L12.1535 442.055C8.37255 445.474 5.4937 449.541 3.52294 454.247L5.36769 455.019ZM13.4989 443.535C17.0215 440.315 21.3156 437.802 26.3996 436.005L25.7332 434.12C20.4266 435.995 15.8925 438.638 12.1496 442.059L13.4989 443.535ZM26.3996 436.005C31.4703 434.213 37.2142 433.309 43.6445 433.309L43.6445 431.309C37.0279 431.309 31.0532 432.24 25.7332 434.12L26.3996 436.005ZM47.1016 452.168H43.5273V454.168H47.1016V452.168ZM43.5273 452.168C39.2528 452.168 35.4633 452.544 32.1688 453.307L32.6203 455.255C35.732 454.534 39.3644 454.168 43.5273 454.168L43.5273 452.168ZM32.1826 453.304C28.8543 454.026 26.0208 455.118 23.7092 456.604L24.7908 458.286C26.8542 456.96 29.4504 455.943 32.6065 455.259L32.1826 453.304ZM23.7092 456.604C21.3934 458.093 19.6267 459.954 18.4439 462.193L20.2123 463.127C21.2171 461.225 22.7316 459.61 24.7908 458.286L23.7092 456.604ZM18.4548 462.173C17.2289 464.371 16.6289 466.867 16.6289 469.633L18.6289 469.633C18.6289 467.164 19.1617 465.012 20.2015 463.147L18.4548 462.173ZM16.6289 469.633C16.6289 472.508 17.2254 475.064 18.4548 477.268L20.2015 476.294C19.1652 474.436 18.6289 472.227 18.6289 469.633L16.6289 469.633ZM18.4477 477.255C19.6332 479.457 21.403 481.279 23.72 482.727L24.78 481.031C22.722 479.745 21.2106 478.168 20.2086 476.307L18.4477 477.255ZM23.72 482.727C26.0287 484.17 28.8584 485.241 32.1826 485.962L32.6065 484.007C29.4463 483.322 26.8463 482.322 24.78 481.031L23.72 482.727ZM32.1915 485.964C35.4774 486.645 39.2589 486.98 43.5273 486.98L43.5273 484.98C39.3583 484.98 35.7179 484.652 32.5975 484.005L32.1915 485.964ZM43.5273 486.98H47.1016V484.98H43.5273V486.98ZM47.1016 486.98C51.332 486.98 55.1122 486.645 58.435 485.964L58.0337 484.005C54.8721 484.652 51.2305 484.98 47.1016 484.98L47.1016 486.98ZM58.4488 485.961C61.7344 485.24 64.5596 484.17 66.9022 482.731L65.8556 481.027C63.7451 482.323 61.1406 483.323 58.02 484.008L58.4488 485.961ZM66.9129 482.724C69.2618 481.241 71.0669 479.405 72.2913 477.21L70.5446 476.236C69.5034 478.102 67.9491 479.704 65.8449 481.033L66.9129 482.724ZM72.2952 477.203C73.5205 474.963 74.1172 472.391 74.1172 469.516L72.1172 469.516C72.1172 472.109 71.581 474.341 70.5407 476.243L72.2952 477.203ZM74.1172 469.516C74.1172 466.75 73.5172 464.254 72.2913 462.056L70.5446 463.03C71.5844 464.894 72.1172 467.047 72.1172 469.516L74.1172 469.516ZM72.2913 462.056C71.0651 459.857 69.2564 458.039 66.9022 456.593L65.8556 458.297C67.9545 459.586 69.5052 461.166 70.5446 463.03L72.2913 462.056ZM66.9129 456.6C64.5675 455.119 61.7385 454.027 58.4488 453.305L58.02 455.258C61.1365 455.942 63.7372 456.96 65.8449 458.291L66.9129 456.6ZM58.4575 453.306C55.1263 452.544 51.3381 452.168 47.1016 452.168L47.1016 454.168C51.2244 454.168 54.8581 454.534 58.0112 455.256L58.4575 453.306ZM2.6875 386.375H88V384.375H2.6875V386.375ZM87 385.375V405.941H89V385.375H87ZM88 404.941H2.6875V406.941H88V404.941ZM3.6875 405.941L3.6875 385.375L1.6875 385.375L1.6875 405.941L3.6875 405.941ZM2.6875 360.711H18.5664V358.711H2.6875V360.711ZM17.5664 359.711L17.5664 431.02L19.5664 431.02L19.5664 359.711L17.5664 359.711ZM18.5664 430.02H2.6875V432.02H18.5664V430.02ZM3.6875 431.02L3.6875 359.711L1.6875 359.711L1.6875 431.02L3.6875 431.02ZM46.1601 316.352V331.059H48.1601V316.352H46.1601ZM47.1601 330.059H36.8476V332.059H47.1601V330.059ZM37.8476 331.059V320.16H35.8476V331.059H37.8476ZM37.8476 320.16C37.8476 317.525 37.4239 315.298 36.5026 313.543L34.7318 314.473C35.4511 315.843 35.8476 317.717 35.8476 320.16L37.8476 320.16ZM36.4934 313.526C35.5362 311.786 34.1717 310.483 32.4134 309.648L31.5553 311.454C32.9221 312.103 33.9794 313.105 34.741 314.49L36.4934 313.526ZM32.4048 309.643C30.6461 308.828 28.6221 308.437 26.3594 308.438L26.3594 310.438C28.3935 310.437 30.1195 310.789 31.5639 311.458L32.4048 309.643ZM26.3594 308.438C24.5679 308.438 22.8993 308.921 21.3741 309.88L22.4384 311.573C23.6476 310.813 24.9477 310.438 26.3594 310.438L26.3594 308.438ZM21.3917 309.869C19.8257 310.809 18.6107 312.243 17.7225 314.104L19.5275 314.966C20.2799 313.389 21.2524 312.285 22.4207 311.584L21.3917 309.869ZM17.7225 314.104C16.8178 316 16.3945 318.348 16.3945 321.098L18.3945 321.098C18.3945 318.535 18.7915 316.508 19.5275 314.966L17.7225 314.104ZM16.3945 321.098C16.3945 323.239 16.7449 325.221 17.4607 327.032L19.3206 326.296C18.7082 324.747 18.3945 323.019 18.3945 321.098L16.3945 321.098ZM17.4607 327.032C18.184 328.861 19.2648 330.346 20.7164 331.446L21.9242 329.851C20.7977 328.998 19.9254 327.826 19.3206 326.296L17.4607 327.032ZM20.7047 331.436C22.1611 332.574 23.9519 333.113 26.0078 333.113L26.0078 331.113C24.3137 331.113 22.9796 330.676 21.936 329.86L20.7047 331.436ZM25.0078 332.113V352.621H27.0078V332.113H25.0078ZM26.0078 351.621C22.331 351.621 19.0842 350.816 16.2415 349.228L15.2663 350.975C18.4392 352.747 22.0284 353.621 26.0078 353.621L26.0078 351.621ZM16.2415 349.228C13.3645 347.622 10.9136 345.435 8.88591 342.657L7.27033 343.836C9.46136 346.838 12.1277 349.222 15.2663 350.975L16.2415 349.228ZM8.88965 342.662C6.85316 339.833 5.2991 336.58 4.2342 332.891L2.31266 333.445C3.43526 337.334 5.08432 340.799 7.26658 343.83L8.88965 342.662ZM4.23233 332.884C3.12828 329.153 2.57421 325.226 2.57421 321.098L0.574212 321.098C0.574212 325.407 1.15296 329.526 2.31453 333.452L4.23233 332.884ZM2.57421 321.098C2.57421 316.286 3.09403 311.96 4.12232 308.114L2.19017 307.597C1.10908 311.641 0.574212 316.144 0.574212 321.098L2.57421 321.098ZM4.12467 308.105C5.11449 304.26 6.59065 301 8.53723 298.304L6.91588 297.133C4.79996 300.063 3.22924 303.561 2.18782 307.606L4.12467 308.105ZM8.54104 298.299C10.4801 295.577 12.8945 293.499 15.791 292.051L14.8965 290.262C11.6992 291.86 9.03547 294.158 6.91207 297.139L8.54104 298.299ZM15.7956 292.048C18.64 290.608 21.9762 289.871 25.832 289.871L25.832 287.871C21.7191 287.871 18.0631 288.658 14.8919 290.264L15.7956 292.048ZM25.832 289.871C28.6041 289.871 31.2008 290.498 33.6358 291.752L34.5517 289.974C31.8304 288.572 28.9193 287.871 25.832 287.871L25.832 289.871ZM33.6465 291.758C36.0865 292.978 38.2418 294.738 40.1122 297.057L41.669 295.802C39.6332 293.277 37.2573 291.327 34.541 289.969L33.6465 291.758ZM40.1122 297.057C41.98 299.374 43.4701 302.174 44.5708 305.476L46.4682 304.844C45.3033 301.349 43.7075 298.33 41.669 295.802L40.1122 297.057ZM44.5687 305.47C45.6251 308.715 46.1601 312.339 46.1601 316.352L48.1601 316.352C48.1601 312.161 47.6014 308.325 46.4704 304.851L44.5687 305.47ZM42.9453 331.059V316.352H40.9453V331.059H42.9453ZM42.9453 316.352C42.9453 311.85 43.4264 307.88 44.3744 304.429L42.4459 303.899C41.4407 307.558 40.9453 311.712 40.9453 316.352L42.9453 316.352ZM44.3744 304.429C45.3234 300.975 46.6989 298.088 48.4829 295.747L46.8921 294.535C44.9261 297.115 43.45 300.244 42.4459 303.899L44.3744 304.429ZM48.4875 295.741C50.2658 293.37 52.4611 291.582 55.0816 290.364L54.2387 288.55C51.3123 289.91 48.8592 291.912 46.8875 294.541L48.4875 295.741ZM55.0866 290.362C57.6661 289.145 60.6608 288.523 64.0937 288.523L64.0937 286.523C60.4173 286.523 57.1229 287.19 54.2337 288.553L55.0866 290.362ZM64.0937 288.523C67.9335 288.523 71.3221 289.332 74.2844 290.924L75.2312 289.162C71.9435 287.395 68.2227 286.523 64.0937 286.523L64.0937 288.523ZM74.2884 290.926C77.2299 292.49 79.7318 294.707 81.7956 297.597L83.4231 296.434C81.1901 293.308 78.4576 290.877 75.2272 289.16L74.2884 290.926ZM81.7956 297.597C83.8647 300.493 85.4391 303.935 86.5064 307.937L88.4389 307.422C87.3187 303.221 85.651 299.553 83.4231 296.434L81.7956 297.597ZM86.507 307.94C87.5747 311.905 88.1133 316.289 88.1133 321.098L90.1133 321.098C90.1133 316.141 89.5581 311.579 88.4383 307.42L86.507 307.94ZM88.1133 321.098C88.1133 324.963 87.6541 328.81 86.7346 332.642L88.6794 333.108C89.6349 329.127 90.1133 325.123 90.1133 321.098L88.1133 321.098ZM86.7375 332.63C85.7849 336.402 84.3402 339.82 82.4077 342.889L84.1001 343.955C86.1519 340.696 87.676 337.082 88.6766 333.12L86.7375 332.63ZM82.4077 342.889C80.4957 345.926 78.0469 348.354 75.0558 350.186L76.1004 351.892C79.3593 349.896 82.0277 347.246 84.1001 343.955L82.4077 342.889ZM75.0636 350.182C72.1226 351.946 68.5584 352.852 64.3281 352.852L64.3281 354.852C68.8479 354.852 72.7836 353.882 76.0926 351.897L75.0636 350.182ZM65.3281 353.852L65.3281 333.227L63.3281 333.227L63.3281 353.852L65.3281 353.852ZM64.3281 334.227C66.2595 334.227 68.012 333.651 69.5533 332.506L68.3607 330.9C67.1676 331.787 65.8342 332.227 64.3281 332.227L64.3281 334.227ZM69.5678 332.495C71.0906 331.32 72.262 329.728 73.0998 327.759L71.2595 326.976C70.5348 328.679 69.5579 329.977 68.3462 330.911L69.5678 332.495ZM73.0998 327.759C73.9421 325.779 74.3516 323.553 74.3516 321.098L72.3516 321.098C72.3516 323.33 71.9797 325.283 71.2595 326.976L73.0998 327.759ZM74.3516 321.098C74.3516 318.263 73.9067 315.791 72.9748 313.715L71.1502 314.535C71.9371 316.287 72.3516 318.464 72.3516 321.098L74.3516 321.098ZM72.9778 313.722C72.0574 311.631 70.7766 309.986 69.1116 308.847L67.9822 310.497C69.2859 311.389 70.3488 312.713 71.1472 314.528L72.9778 313.722ZM69.1116 308.847C67.461 307.717 65.6236 307.148 63.625 307.148L63.625 309.148C65.2201 309.148 66.664 309.595 67.9822 310.497L69.1116 308.847ZM63.625 307.148C61.4422 307.148 59.5451 307.41 57.9615 307.967L58.6244 309.854C59.9315 309.394 61.589 309.148 63.625 309.148L63.625 307.148ZM57.9693 307.964C56.347 308.519 54.9999 309.368 53.9697 310.533L55.4677 311.858C56.2344 310.991 57.2702 310.317 58.6166 309.856L57.9693 307.964ZM53.9839 310.517C52.9194 311.67 52.1839 313.094 51.7579 314.756L53.6952 315.252C54.0504 313.867 54.6431 312.752 55.4535 311.874L53.9839 310.517ZM51.766 314.726C51.3043 316.321 51.082 318.137 51.082 320.16L53.082 320.16C53.082 318.278 53.2894 316.656 53.6871 315.282L51.766 314.726ZM51.082 320.16V331.059H53.082V320.16H51.082ZM52.082 330.059H41.9453V332.059H52.082V330.059ZM33.043 262.621V244.281H31.043V262.621H33.043ZM33.043 244.281C33.043 237.477 34.1771 231.607 36.4118 226.645L34.5882 225.824C32.2135 231.096 31.043 237.258 31.043 244.281L33.043 244.281ZM36.4118 226.645C38.6496 221.676 41.7582 217.886 45.7245 215.229L44.6114 213.568C40.2965 216.458 36.9597 220.558 34.5882 225.824L36.4118 226.645ZM45.7298 215.226C49.687 212.538 54.3301 211.18 59.6992 211.18L59.6992 209.18C53.9745 209.18 48.9302 210.634 44.6061 213.571L45.7298 215.226ZM59.6992 211.18C63.7479 211.18 67.4315 211.955 70.7652 213.49L71.602 211.674C67.9825 210.006 64.0099 209.18 59.6992 209.18L59.6992 211.18ZM70.7613 213.488C74.0622 215.026 76.9352 217.24 79.3843 220.141L80.9126 218.851C78.2835 215.737 75.18 213.341 71.6059 211.676L70.7613 213.488ZM79.3835 220.14C81.7906 222.999 83.6662 226.456 84.9988 230.53L86.8997 229.908C85.4979 225.622 83.5063 221.931 80.9133 218.852L79.3835 220.14ZM84.9988 230.53C86.3278 234.593 87 239.173 87 244.281L89 244.281C89 238.999 88.305 234.204 86.8997 229.908L84.9988 230.53ZM87 244.281V275.453H89V244.281H87ZM88 274.453H2.68749V276.453H88V274.453ZM3.68749 275.453L3.68749 254.828L1.68749 254.828L1.68749 275.453L3.68749 275.453ZM2.68749 255.828H72.1797V253.828H2.68749V255.828ZM73.1797 254.828V244.281H71.1797V254.828H73.1797ZM73.1797 244.281C73.1797 241.226 72.5889 238.583 71.3498 236.404L69.6112 237.393C70.6376 239.198 71.1797 241.478 71.1797 244.281L73.1797 244.281ZM71.3538 236.411C70.1388 234.233 68.5077 232.55 66.459 231.398L65.4785 233.141C67.1798 234.098 68.5565 235.502 69.6071 237.386L71.3538 236.411ZM66.4513 231.394C64.3788 230.252 62.0819 229.687 59.582 229.688L59.582 231.688C61.7696 231.687 63.7305 232.178 65.4861 233.145L66.4513 231.394ZM59.582 229.688C57.1548 229.688 54.9616 230.254 53.0324 231.412L54.0614 233.127C55.6477 232.175 57.478 231.688 59.582 231.688L59.582 229.688ZM53.0324 231.412C51.0942 232.575 49.5835 234.269 48.4923 236.451L50.2811 237.346C51.2212 235.466 52.4839 234.073 54.0614 233.127L53.0324 231.412ZM48.4958 236.444C47.3897 238.614 46.8633 241.241 46.8633 244.281L48.8633 244.281C48.8633 241.462 49.3524 239.167 50.2776 237.353L48.4958 236.444ZM46.8633 244.281L46.8633 262.621L48.8633 262.621L48.8633 244.281L46.8633 244.281ZM47.8633 261.621H32.043V263.621H47.8633V261.621ZM2.68749 184.461H88V182.461H2.68749V184.461ZM87 183.461V203.969H89V183.461H87ZM88 202.969H2.68749V204.969H88V202.969ZM3.68749 203.969L3.68749 183.461L1.68749 183.461L1.68749 203.969L3.68749 203.969ZM50.7305 135.941V157.914H52.7305V135.941H50.7305ZM51.7218 156.914L38.2452 157.031L38.2626 159.031L51.7391 158.914L51.7218 156.914ZM39.2539 158.031V140.219H37.2539V158.031H39.2539ZM39.2539 140.219C39.2539 136.957 38.8979 134.267 38.1379 132.198L36.2605 132.888C36.9067 134.647 37.2539 137.074 37.2539 140.219L39.2539 140.219ZM38.1316 132.181C37.3299 130.114 36.1334 128.529 34.498 127.53L33.4551 129.236C34.6322 129.955 35.5841 131.144 36.2668 132.904L38.1316 132.181ZM34.5149 127.54C32.9104 126.515 30.9532 126.035 28.7031 126.035L28.7031 128.035C30.6718 128.035 32.2302 128.454 33.4382 129.226L34.5149 127.54ZM28.7031 126.035C26.1677 126.035 24.0165 126.504 22.3259 127.527L23.3615 129.238C24.6397 128.465 26.3948 128.035 28.7031 128.035L28.7031 126.035ZM22.3259 127.527C20.6037 128.57 19.3991 130.206 18.6743 132.338L20.5679 132.982C21.1711 131.208 22.115 129.993 23.3615 129.238L22.3259 127.527ZM18.6824 132.315C17.9239 134.38 17.5664 136.989 17.5664 140.102L19.5664 140.102C19.5664 137.12 19.912 134.768 20.5597 133.005L18.6824 132.315ZM17.5664 140.102L17.5664 150.18L19.5664 150.18L19.5664 140.102L17.5664 140.102ZM18.5664 151.18H88V149.18H18.5664V151.18ZM87 150.18V170.746H89V150.18H87ZM88 169.746H2.68749V171.746H88V169.746ZM3.68749 170.746L3.68749 140.102L1.68749 140.102L1.68749 170.746L3.68749 170.746ZM3.68749 140.102C3.68749 134.888 4.17043 130.26 5.12563 126.21L3.17903 125.751C2.1811 129.982 1.68749 134.768 1.68749 140.102L3.68749 140.102ZM5.12764 126.201C6.04349 122.156 7.44655 118.761 9.31685 115.993L7.65968 114.874C5.62373 117.887 4.13617 121.523 3.17702 125.76L5.12764 126.201ZM9.32032 115.988C11.1843 113.192 13.519 111.085 16.3276 109.644L15.4145 107.864C12.2857 109.47 9.6985 111.815 7.65622 114.879L9.32032 115.988ZM16.3324 109.641C19.0931 108.206 22.3855 107.469 26.2422 107.469L26.2422 105.469C22.1301 105.469 18.5085 106.255 15.4097 107.867L16.3324 109.641ZM26.2422 107.469C29.571 107.469 32.6825 108.178 35.5894 109.594L36.4653 107.796C33.2784 106.244 29.8665 105.469 26.2422 105.469L26.2422 107.469ZM35.5894 109.594C38.4206 110.974 40.7607 113.291 42.5927 116.619L44.3447 115.654C42.3487 112.029 39.7278 109.386 36.4653 107.796L35.5894 109.594ZM42.5908 116.616C44.3574 119.854 45.3215 124.379 45.3985 130.271L47.3983 130.245C47.3191 124.184 46.3301 119.294 44.3466 115.658L42.5908 116.616ZM45.6691 130.942L51.0012 136.626L52.4598 135.257L47.1277 129.574L45.6691 130.942ZM87 136.762V162.895H89V136.762H87ZM88.4061 161.981L72.5858 154.949L71.7735 156.777L87.5938 163.808L88.4061 161.981ZM73.1797 155.863V136.762H71.1797V155.863H73.1797ZM73.1797 136.762C73.1797 133.862 72.7391 131.441 71.7809 129.568L70.0004 130.479C70.7609 131.965 71.1797 134.036 71.1797 136.762L73.1797 136.762ZM71.7768 129.56C70.8017 127.695 69.4942 126.296 67.8318 125.442L66.9182 127.222C68.1464 127.852 69.1827 128.915 70.0044 130.487L71.7768 129.56ZM67.8407 125.447C66.2026 124.585 64.4004 124.16 62.4531 124.16L62.4531 126.16C64.0996 126.16 65.5786 126.517 66.9092 127.217L67.8407 125.447ZM62.4531 124.16C60.1543 124.16 58.11 124.55 56.3491 125.366L57.19 127.181C58.6322 126.512 60.377 126.16 62.4531 126.16L62.4531 124.16ZM56.3675 125.358C54.5603 126.151 53.1651 127.439 52.2019 129.19L53.9543 130.154C54.7099 128.78 55.7756 127.802 57.1715 127.189L56.3675 125.358ZM52.2112 129.173C51.1949 130.941 50.7305 133.223 50.7305 135.941L52.7305 135.941C52.7305 133.425 53.1645 131.528 53.945 130.17L52.2112 129.173ZM50.7305 135.941V153.227H52.7305V135.941H50.7305ZM51.7391 152.227L38.2626 152.109L38.2452 154.109L51.7218 154.227L51.7391 152.227ZM39.2539 153.109V132.426H37.2539V153.109H39.2539ZM38.9193 133.172L44.3099 128.368L42.9791 126.875L37.5885 131.679L38.9193 133.172ZM44.6437 127.58C44.4133 121.974 45.2086 117.668 46.922 114.57L45.1717 113.602C43.2132 117.144 42.407 121.862 42.6454 127.662L44.6437 127.58ZM46.9244 114.566C48.6753 111.362 50.9533 109.122 53.7456 107.78L52.8794 105.978C49.6561 107.526 47.0903 110.091 45.1694 113.606L46.9244 114.566ZM53.7456 107.78C56.6206 106.399 59.6174 105.711 62.7461 105.711L62.7461 103.711C59.3123 103.711 56.02 104.468 52.8794 105.978L53.7456 107.78ZM62.7461 105.711C68.1878 105.711 72.6554 106.89 76.2075 109.184L77.2925 107.504C73.3446 104.954 68.4762 103.711 62.7461 103.711L62.7461 105.711ZM76.2137 109.188C79.7586 111.44 82.4472 114.833 84.2569 119.433L86.1181 118.7C84.1778 113.769 81.2414 110.013 77.2863 107.5L76.2137 109.188ZM84.2569 119.433C86.0724 124.047 87 129.812 87 136.762L89 136.762C89 129.649 88.0526 123.617 86.1181 118.7L84.2569 119.433ZM33.043 80.5117V62.1719H31.043V80.5117H33.043ZM33.043 62.1719C33.043 55.3674 34.1771 49.4974 36.4118 44.5357L34.5882 43.7143C32.2135 48.9869 31.043 55.1482 31.043 62.1719L33.043 62.1719ZM36.4118 44.5357C38.6496 39.5669 41.7582 35.7765 45.7245 33.1199L44.6114 31.4582C40.2964 34.3485 36.9597 38.4487 34.5882 43.7143L36.4118 44.5357ZM45.7298 33.1163C49.687 30.4284 54.3301 29.0703 59.6992 29.0703L59.6992 27.0703C53.9745 27.0703 48.9302 28.5247 44.6061 31.4618L45.7298 33.1163ZM59.6992 29.0703C63.7479 29.0703 67.4315 29.8452 70.7652 31.3809L71.602 29.5644C67.9825 27.897 64.0099 27.0703 59.6992 27.0703L59.6992 29.0703ZM70.7612 31.3791C74.0622 32.917 76.9352 35.1305 79.3843 38.0318L80.9126 36.7417C78.2835 33.6273 75.18 31.2314 71.6059 29.5662L70.7612 31.3791ZM79.3835 38.0309C81.7906 40.8893 83.6662 44.3464 84.9988 48.4203L86.8996 47.7985C85.4978 43.513 83.5063 39.8217 80.9133 36.7426L79.3835 38.0309ZM84.9988 48.4203C86.3278 52.4833 87 57.0635 87 62.1719L89 62.1719C89 56.8896 88.305 52.0948 86.8996 47.7985L84.9988 48.4203ZM87 62.1719V93.3438H89V62.1719H87ZM88 92.3438H2.68748V94.3438H88V92.3438ZM3.68748 93.3437L3.68748 72.7187L1.68748 72.7188L1.68748 93.3438L3.68748 93.3437ZM2.68748 73.7188H72.1797V71.7188H2.68748V73.7188ZM73.1797 72.7188V62.1719H71.1797V72.7188H73.1797ZM73.1797 62.1719C73.1797 59.1161 72.5889 56.474 71.3497 54.2948L69.6112 55.2834C70.6376 57.0885 71.1797 59.3682 71.1797 62.1719L73.1797 62.1719ZM71.3538 54.302C70.1388 52.1233 68.5077 50.441 66.459 49.2886L65.4785 51.0317C67.1798 51.9887 68.5565 53.3924 69.6071 55.2761L71.3538 54.302ZM66.4513 49.2843C64.3788 48.1423 62.0819 47.5781 59.582 47.5781L59.582 49.5781C61.7696 49.5781 63.7305 50.0686 65.4861 51.036L66.4513 49.2843ZM59.582 47.5781C57.1548 47.5781 54.9616 48.1451 53.0324 49.3027L54.0614 51.0176C55.6477 50.0658 57.478 49.5781 59.582 49.5781L59.582 47.5781ZM53.0324 49.3027C51.0942 50.4656 49.5835 52.1595 48.4923 54.3418L50.2811 55.2363C51.2212 53.3562 52.4839 51.9641 54.0614 51.0176L53.0324 49.3027ZM48.4958 54.3349C47.3897 56.5045 46.8633 59.1315 46.8633 62.1719L48.8633 62.1719C48.8633 59.3529 49.3524 57.058 50.2776 55.2432L48.4958 54.3349ZM46.8633 62.1719L46.8633 80.5117L48.8633 80.5117L48.8633 62.1719L46.8633 62.1719ZM47.8633 79.5117H32.043V81.5117H47.8633V79.5117ZM2.68748 2.35157L88 2.35156L88 0.351563L2.68748 0.351566L2.68748 2.35157ZM87 1.35156V21.8594H89V1.35156H87ZM88 20.8594L2.68748 20.8594L2.68748 22.8594L88 22.8594L88 20.8594ZM3.68748 21.8594L3.68748 1.35157L1.68748 1.35157L1.68748 21.8594L3.68748 21.8594Z" fill="#161617" mask="url(#path-1-outside-1_1764_26)"/>
</svg>
