<svg width="91" height="463" viewBox="0 0 91 463" fill="none" xmlns="http://www.w3.org/2000/svg">
<mask id="path-1-outside-1_1764_28" maskUnits="userSpaceOnUse" x="0.574219" y="-0.242188" width="90" height="463" fill="black">
<rect fill="white" x="0.574219" y="-0.242188" width="90" height="463"/>
<path d="M47.1602 423.867V438.574H36.8477V427.676C36.8477 425.137 36.4375 423.086 35.6172 421.523C34.7578 419.961 33.5469 418.809 31.9844 418.066C30.3828 417.324 28.5078 416.953 26.3594 416.953C24.7578 416.953 23.2734 417.383 21.9062 418.242C20.5391 419.063 19.4453 420.332 18.625 422.051C17.8047 423.77 17.3945 425.957 17.3945 428.613C17.3945 430.645 17.7266 432.5 18.3906 434.18C19.0547 435.859 20.0312 437.188 21.3203 438.164C22.5703 439.141 24.1328 439.629 26.0078 439.629L26.0078 460.137C22.1797 460.137 18.7617 459.297 15.7539 457.617C12.7461 455.938 10.1875 453.652 8.07813 450.762C5.96875 447.832 4.36719 444.473 3.27344 440.684C2.14063 436.855 1.57422 432.832 1.57422 428.613C1.57422 423.73 2.10156 419.316 3.15625 415.371C4.17187 411.426 5.69531 408.047 7.72656 405.234C9.75781 402.383 12.2969 400.195 15.3437 398.672C18.3516 397.148 21.8477 396.387 25.832 396.387C28.7617 396.387 31.5156 397.051 34.0938 398.379C36.6719 399.668 38.9375 401.523 40.8906 403.945C42.8438 406.367 44.3867 409.277 45.5195 412.676C46.6133 416.035 47.1602 419.766 47.1602 423.867ZM41.9453 438.574V423.867C41.9453 419.297 42.4336 415.234 43.4102 411.68C44.3867 408.125 45.8125 405.117 47.6875 402.656C49.5625 400.156 51.8867 398.262 54.6602 396.973C57.3945 395.684 60.5391 395.039 64.0938 395.039C68.0781 395.039 71.6328 395.879 74.7578 397.559C77.8438 399.199 80.4609 401.523 82.6094 404.531C84.7578 407.539 86.3789 411.094 87.4727 415.195C88.5664 419.258 89.1133 423.73 89.1133 428.613C89.1133 432.559 88.6445 436.484 87.707 440.391C86.7305 444.258 85.2461 447.773 83.2539 450.938C81.2617 454.102 78.7031 456.641 75.5781 458.555C72.4531 460.43 68.7031 461.367 64.3281 461.367V440.742C66.0469 440.742 67.5898 440.234 68.957 439.219C70.3242 438.164 71.3984 436.719 72.1797 434.883C72.9609 433.047 73.3516 430.957 73.3516 428.613C73.3516 425.879 72.9219 423.555 72.0625 421.641C71.2031 419.688 70.0312 418.203 68.5469 417.188C67.0625 416.172 65.4219 415.664 63.625 415.664C61.5156 415.664 59.7383 415.918 58.293 416.426C56.8086 416.934 55.6172 417.695 54.7188 418.711C53.7813 419.727 53.1172 420.996 52.7266 422.52C52.2969 424.004 52.082 425.723 52.082 427.676V438.574H41.9453ZM20.6172 346.758L88 367.559V389.648L2.6875 358.301L2.6875 344.297L20.6172 346.758ZM88 329.531L20.6172 350.391L2.6875 353.086L2.6875 338.906L88 307.383V329.531ZM56.1836 330.352H72.0625L72.0625 374.121H56.1836V330.352ZM58.0586 256.699V279.492L55.5391 285.586C53.3516 292.539 50.1094 297.832 45.8125 301.465C41.4766 305.098 35.9492 306.914 29.2305 306.914C23.3711 306.914 18.4883 305.605 14.582 302.988C10.6367 300.371 7.66796 296.66 5.67578 291.855C3.68359 287.051 2.68749 281.348 2.68749 274.746L2.68749 243.809H88V264.434H18.5664V274.746C18.5664 278.848 19.6406 281.816 21.7891 283.652C23.8984 285.488 26.9844 286.406 31.0469 286.406C34.1719 286.406 36.6328 285.977 38.4297 285.117C40.2266 284.219 41.5156 282.91 42.2969 281.191C43.0391 279.473 43.4101 277.324 43.4101 274.746V256.816L58.0586 256.699ZM50.3828 272.52L88 290.625V313.008L50.3828 295.137V272.52ZM51.7305 197.637L51.7305 219.609L38.2539 219.727L38.2539 201.914C38.2539 198.711 37.9023 196.152 37.1992 194.238C36.457 192.324 35.3828 190.937 33.9766 190.078C32.5703 189.18 30.8125 188.73 28.7031 188.73C26.2812 188.73 24.3281 189.18 22.8437 190.078C21.3594 190.977 20.2851 192.402 19.6211 194.355C18.918 196.27 18.5664 198.75 18.5664 201.797V211.875H88V232.441H2.68749L2.68749 201.797C2.68749 196.523 3.17577 191.816 4.15233 187.676C5.08983 183.535 6.53515 180.02 8.48827 177.129C10.4414 174.199 12.9023 171.973 15.8711 170.449C18.8008 168.926 22.2578 168.164 26.2422 168.164C29.7187 168.164 32.9805 168.906 36.0273 170.391C39.0742 171.875 41.5547 174.355 43.4687 177.832C45.3437 181.27 46.3203 185.977 46.3984 191.953L51.7305 197.637ZM88 198.457V224.59L72.1797 217.559V198.457C72.1797 195.645 71.75 193.398 70.8906 191.719C69.9922 190 68.8203 188.77 67.375 188.027C65.8906 187.246 64.25 186.855 62.4531 186.855C60.2656 186.855 58.3711 187.227 56.7695 187.969C55.168 188.672 53.9375 189.805 53.0781 191.367C52.1797 192.93 51.7305 195.02 51.7305 197.637L51.7305 214.922L38.2539 214.805L38.2539 194.121L43.6445 189.316C43.4101 183.613 44.2109 179.102 46.0469 175.781C47.8828 172.422 50.3047 170.02 53.3125 168.574C56.3203 167.129 59.4648 166.406 62.7461 166.406C68.332 166.406 73 167.617 76.75 170.039C80.5 172.422 83.3125 175.996 85.1875 180.762C87.0625 185.527 88 191.426 88 198.457ZM2.68749 134.59H88V155.098H2.68749L2.68749 134.59ZM2.68748 85.3711L54.25 116.016L54.25 138.164L35.6758 140.625V126.621L2.68749 110.215L2.68748 85.3711ZM88 106.699L50.6758 126.68L36.9062 111.738L88 82.4414V106.699ZM20.6172 41.1328L88 61.9336V84.0234L2.68748 52.6758L2.68748 38.6719L20.6172 41.1328ZM88 23.9062L20.6172 44.7656L2.68748 47.4609L2.68748 33.2813L88 1.75781V23.9062ZM56.1836 24.7266L72.0625 24.7266V68.4961H56.1836L56.1836 24.7266Z"/>
</mask>
<path d="M47.1602 423.867L48.1602 423.867V423.867L47.1602 423.867ZM47.1602 438.574V439.574H48.1602V438.574H47.1602ZM36.8477 438.574H35.8477V439.574H36.8477V438.574ZM36.8477 427.676L37.8477 427.676V427.676L36.8477 427.676ZM35.6172 421.523L36.5026 421.059L36.4981 421.05L36.4934 421.042L35.6172 421.523ZM31.9844 418.066L32.4135 417.163L32.4048 417.159L31.9844 418.066ZM26.3594 416.953L26.3594 415.953L26.3594 416.953ZM21.9062 418.242L22.4207 419.1L22.4296 419.094L22.4384 419.089L21.9062 418.242ZM17.3945 428.613L16.3945 428.613L17.3945 428.613ZM21.3203 438.164L21.936 437.376L21.9301 437.371L21.9242 437.367L21.3203 438.164ZM26.0078 439.629L27.0078 439.629L27.0078 438.629L26.0078 438.629L26.0078 439.629ZM26.0078 460.137L26.0078 461.137L27.0078 461.137L27.0078 460.137L26.0078 460.137ZM8.07813 450.762L7.26658 451.346L7.27034 451.351L8.07813 450.762ZM3.27344 440.684L4.23423 440.406L4.23233 440.4L3.27344 440.684ZM1.57422 428.613L0.574219 428.613L1.57422 428.613ZM3.15625 415.371L4.12237 415.629L4.12468 415.62L3.15625 415.371ZM7.72656 405.234L8.53726 405.82L8.54105 405.815L7.72656 405.234ZM15.3437 398.672L15.791 399.566L15.7956 399.564L15.3437 398.672ZM25.832 396.387L25.832 397.387L25.832 396.387ZM34.0938 398.379L33.6358 399.268L33.6465 399.273L34.0938 398.379ZM45.5195 412.676L46.4704 412.366L46.4682 412.36L45.5195 412.676ZM41.9453 438.574H40.9453V439.574H41.9453V438.574ZM41.9453 423.867L42.9453 423.867V423.867L41.9453 423.867ZM47.6875 402.656L48.483 403.262L48.4875 403.256L47.6875 402.656ZM54.6602 396.973L55.0816 397.88L55.0866 397.877L54.6602 396.973ZM64.0938 395.039L64.0937 394.039L64.0938 395.039ZM74.7578 397.559L74.2844 398.439L74.2884 398.442L74.7578 397.559ZM87.4727 415.195L86.5064 415.453L86.507 415.455L87.4727 415.195ZM87.707 440.391L88.6767 440.635L88.6794 440.624L87.707 440.391ZM75.5781 458.555L76.0926 459.412L76.1004 459.407L75.5781 458.555ZM64.3281 461.367H63.3281V462.367L64.3281 462.367L64.3281 461.367ZM64.3281 440.742L64.3281 439.742L63.3281 439.742V440.742H64.3281ZM68.957 439.219L69.5534 440.021L69.5606 440.016L69.5678 440.011L68.957 439.219ZM73.3516 428.613L72.3516 428.613L73.3516 428.613ZM72.0625 421.641L71.1472 422.043L71.1502 422.05L72.0625 421.641ZM63.625 415.664L63.625 414.664L63.625 415.664ZM58.293 416.426L58.6167 417.372L58.6245 417.369L58.293 416.426ZM54.7188 418.711L55.4536 419.389L55.4607 419.381L55.4677 419.374L54.7188 418.711ZM52.7266 422.52L53.6871 422.798L53.6914 422.783L53.6952 422.768L52.7266 422.52ZM52.082 427.676L53.082 427.676V427.676L52.082 427.676ZM52.082 438.574V439.574H53.082V438.574H52.082ZM20.6172 346.758L20.9121 345.802L20.8341 345.778L20.7532 345.767L20.6172 346.758ZM88 367.559H89V366.821L88.295 366.603L88 367.559ZM88 389.648L87.6551 390.587L89 391.081V389.648H88ZM2.6875 358.301L1.6875 358.301L1.6875 358.999L2.3426 359.239L2.6875 358.301ZM2.6875 344.297L2.82348 343.306L1.6875 343.15L1.6875 344.297L2.6875 344.297ZM88 329.531L88.2957 330.487L89 330.269V329.531H88ZM20.6172 350.391L20.7658 351.38L20.8406 351.368L20.9129 351.346L20.6172 350.391ZM2.6875 353.086L1.6875 353.086L1.6875 354.248L2.83615 354.075L2.6875 353.086ZM2.6875 338.906L2.3409 337.968L1.6875 338.21L1.6875 338.906L2.6875 338.906ZM88 307.383H89V305.947L87.6534 306.445L88 307.383ZM56.1836 330.352V329.352H55.1836V330.352H56.1836ZM72.0625 330.352L73.0625 330.352L73.0625 329.352H72.0625V330.352ZM72.0625 374.121V375.121H73.0625L73.0625 374.121L72.0625 374.121ZM56.1836 374.121H55.1836V375.121H56.1836V374.121ZM58.0586 256.699H59.0586V255.691L58.0506 255.699L58.0586 256.699ZM58.0586 279.492L58.9827 279.874L59.0586 279.691V279.492H58.0586ZM55.5391 285.586L54.6149 285.204L54.5982 285.244L54.5851 285.286L55.5391 285.586ZM45.8125 301.465L46.4547 302.231L46.4581 302.228L45.8125 301.465ZM29.2305 306.914L29.2305 305.914L29.2305 306.914ZM14.582 302.988L15.1386 302.158L15.1348 302.155L14.582 302.988ZM2.68749 274.746L3.68749 274.746L2.68749 274.746ZM2.68749 243.809V242.809H1.68749L1.68749 243.809L2.68749 243.809ZM88 243.809H89V242.809H88V243.809ZM88 264.434V265.434H89V264.434H88ZM18.5664 264.434V263.434H17.5664V264.434H18.5664ZM18.5664 274.746L17.5664 274.746V274.746L18.5664 274.746ZM21.7891 283.652L22.4456 282.898L22.4387 282.892L21.7891 283.652ZM31.0469 286.406L31.0469 285.406L31.0469 286.406ZM38.4297 285.117L38.8611 286.019L38.869 286.016L38.8769 286.012L38.4297 285.117ZM42.2969 281.191L43.2072 281.605L43.2112 281.597L43.2149 281.588L42.2969 281.191ZM43.4101 274.746L42.4101 274.746V274.746L43.4101 274.746ZM43.4101 256.816L43.4021 255.816L42.4101 255.824V256.816H43.4101ZM50.3828 272.52L50.8165 271.618L49.3828 270.928V272.52H50.3828ZM88 290.625H89V289.997L88.4337 289.724L88 290.625ZM88 313.008L87.5709 313.911L89 314.59V313.008H88ZM50.3828 295.137H49.3828V295.769L49.9537 296.04L50.3828 295.137ZM51.7305 219.609L51.7392 220.609L52.7305 220.601L52.7305 219.609L51.7305 219.609ZM38.2539 219.727L37.2539 219.727L37.2539 220.735L38.2626 220.727L38.2539 219.727ZM38.2539 201.914L37.2539 201.914L37.2539 201.914L38.2539 201.914ZM37.1992 194.238L38.1379 193.893L38.1348 193.885L38.1316 193.877L37.1992 194.238ZM33.9766 190.078L33.4382 190.921L33.4466 190.926L33.4551 190.931L33.9766 190.078ZM28.7031 188.73L28.7031 187.73L28.7031 188.73ZM19.6211 194.355L20.5598 194.7L20.5639 194.689L20.5679 194.677L19.6211 194.355ZM18.5664 201.797L19.5664 201.797V201.797L18.5664 201.797ZM18.5664 211.875H17.5664V212.875H18.5664V211.875ZM88 211.875H89V210.875H88V211.875ZM88 232.441V233.441H89V232.441H88ZM2.68749 232.441L1.68749 232.441L1.68749 233.441H2.68749V232.441ZM2.68749 201.797L3.68749 201.797L2.68749 201.797ZM4.15233 187.676L5.12567 187.905L5.12765 187.897L4.15233 187.676ZM8.48827 177.129L9.31688 177.689L9.32032 177.684L8.48827 177.129ZM15.8711 170.449L16.3276 171.339L16.3324 171.336L15.8711 170.449ZM26.2422 168.164L26.2422 169.164L26.2422 168.164ZM43.4687 177.832L44.3466 177.353L44.3447 177.35L43.4687 177.832ZM46.3984 191.953L45.3985 191.966L45.4036 192.354L45.6691 192.637L46.3984 191.953ZM88 198.457L89 198.457V198.457L88 198.457ZM88 224.59L87.5939 225.504L89 226.129V224.59H88ZM72.1797 217.559H71.1797V218.208L71.7735 218.472L72.1797 217.559ZM72.1797 198.457L73.1797 198.457V198.457L72.1797 198.457ZM70.8906 191.719L71.7809 191.263L71.7768 191.255L70.8906 191.719ZM67.375 188.027L66.9092 188.912L66.9182 188.917L67.375 188.027ZM62.4531 186.855L62.4531 187.855L62.4531 186.855ZM56.7695 187.969L57.1715 188.884L57.1808 188.88L57.19 188.876L56.7695 187.969ZM53.0781 191.367L53.945 191.866L53.9498 191.857L53.9543 191.849L53.0781 191.367ZM51.7305 214.922L51.7218 215.922L52.7305 215.931L52.7305 214.922L51.7305 214.922ZM38.2539 214.805L37.2539 214.805L37.2539 215.796L38.2452 215.805L38.2539 214.805ZM38.2539 194.121L37.5885 193.375L37.2539 193.673L37.2539 194.121L38.2539 194.121ZM43.6445 189.316L44.3099 190.063L44.6631 189.748L44.6437 189.275L43.6445 189.316ZM46.0469 175.781L46.922 176.265L46.9244 176.261L46.0469 175.781ZM62.7461 166.406L62.7461 165.406L62.7461 166.406ZM76.75 170.039L76.2075 170.879L76.2137 170.883L76.75 170.039ZM2.68749 134.59V133.59H1.68749L1.68749 134.59L2.68749 134.59ZM88 134.59H89V133.59H88V134.59ZM88 155.098V156.098H89V155.098H88ZM2.68749 155.098L1.68749 155.098L1.68749 156.098H2.68749V155.098ZM2.68748 85.3711L3.19838 84.5115L1.68748 83.6135L1.68748 85.3711L2.68748 85.3711ZM54.25 116.016L55.25 116.016L55.25 115.447L54.7609 115.156L54.25 116.016ZM54.25 138.164L54.3813 139.155L55.25 139.04L55.25 138.164L54.25 138.164ZM35.6758 140.625H34.6758V141.766L35.8071 141.616L35.6758 140.625ZM35.6758 126.621H36.6758V126.002L36.1211 125.726L35.6758 126.621ZM2.68749 110.215L1.68749 110.215L1.68749 110.834L2.24218 111.11L2.68749 110.215ZM88 106.699L88.4719 107.581L89 107.298V106.699H88ZM50.6758 126.68L49.9404 127.357L50.4651 127.927L51.1477 127.561L50.6758 126.68ZM36.9062 111.738L36.4088 110.871L35.3215 111.494L36.1709 112.416L36.9062 111.738ZM88 82.4414H89V80.7153L87.5026 81.5739L88 82.4414ZM20.6172 41.1328L20.9121 40.1773L20.8341 40.1532L20.7532 40.1421L20.6172 41.1328ZM88 61.9336H89V61.1957L88.2949 60.9781L88 61.9336ZM88 84.0234L87.6551 84.9621L89 85.4563V84.0234H88ZM2.68748 52.6758L1.68748 52.6758L1.68748 53.3737L2.34258 53.6144L2.68748 52.6758ZM2.68748 38.6719L2.82346 37.6812L1.68748 37.5252L1.68748 38.6719L2.68748 38.6719ZM88 23.9062L88.2957 24.8615L89 24.6435V23.9062H88ZM20.6172 44.7656L20.7658 45.7545L20.8406 45.7433L20.9129 45.7209L20.6172 44.7656ZM2.68748 47.4609L1.68748 47.4609L1.68748 48.6225L2.83614 48.4498L2.68748 47.4609ZM2.68748 33.2813L2.34088 32.3432L1.68748 32.5847L1.68748 33.2813L2.68748 33.2813ZM88 1.75781H89V0.322223L87.6534 0.8198L88 1.75781ZM56.1836 24.7266L56.1836 23.7266L55.1836 23.7266L55.1836 24.7266L56.1836 24.7266ZM72.0625 24.7266H73.0625V23.7266L72.0625 23.7266L72.0625 24.7266ZM72.0625 68.4961V69.4961H73.0625V68.4961H72.0625ZM56.1836 68.4961L55.1836 68.4961L55.1836 69.4961H56.1836V68.4961ZM46.1602 423.867V438.574H48.1602V423.867H46.1602ZM47.1602 437.574H36.8477V439.574H47.1602V437.574ZM37.8477 438.574V427.676H35.8477V438.574H37.8477ZM37.8477 427.676C37.8477 425.041 37.4239 422.814 36.5026 421.059L34.7318 421.988C35.4511 423.358 35.8477 425.232 35.8477 427.676L37.8477 427.676ZM36.4934 421.042C35.5362 419.301 34.1717 417.998 32.4134 417.163L31.5553 418.97C32.9221 419.619 33.9794 420.621 34.741 422.005L36.4934 421.042ZM32.4048 417.159C30.6461 416.344 28.6221 415.953 26.3594 415.953L26.3594 417.953C28.3935 417.953 30.1195 418.304 31.5639 418.974L32.4048 417.159ZM26.3594 415.953C24.5679 415.953 22.8993 416.437 21.3741 417.396L22.4384 419.089C23.6476 418.329 24.9478 417.953 26.3594 417.953L26.3594 415.953ZM21.3918 417.385C19.8257 418.324 18.6107 419.759 17.7225 421.62L19.5275 422.482C20.2799 420.905 21.2524 419.801 22.4207 419.1L21.3918 417.385ZM17.7225 421.62C16.8179 423.516 16.3945 425.863 16.3945 428.613L18.3945 428.613C18.3945 426.051 18.7915 424.024 19.5275 422.482L17.7225 421.62ZM16.3945 428.613C16.3945 430.755 16.7449 432.737 17.4607 434.547L19.3206 433.812C18.7082 432.263 18.3945 430.534 18.3945 428.613L16.3945 428.613ZM17.4607 434.547C18.184 436.377 19.2648 437.861 20.7165 438.961L21.9242 437.367C20.7977 436.514 19.9254 435.342 19.3206 433.812L17.4607 434.547ZM20.7047 438.952C22.1611 440.09 23.9519 440.629 26.0078 440.629L26.0078 438.629C24.3138 438.629 22.9796 438.191 21.936 437.376L20.7047 438.952ZM25.0078 439.629L25.0078 460.137L27.0078 460.137L27.0078 439.629L25.0078 439.629ZM26.0078 459.137C22.331 459.137 19.0842 458.332 16.2415 456.744L15.2663 458.49C18.4392 460.262 22.0284 461.137 26.0078 461.137L26.0078 459.137ZM16.2415 456.744C13.3645 455.137 10.9136 452.951 8.88592 450.172L7.27034 451.351C9.46137 454.354 12.1277 456.738 15.2663 458.49L16.2415 456.744ZM8.88966 450.177C6.85317 447.349 5.29911 444.095 4.23421 440.406L2.31267 440.961C3.43527 444.85 5.08433 448.315 7.26659 451.346L8.88966 450.177ZM4.23233 440.4C3.12829 436.669 2.57422 432.741 2.57422 428.613L0.574219 428.613C0.574219 432.923 1.15296 437.042 2.31454 440.967L4.23233 440.4ZM2.57422 428.613C2.57422 423.801 3.09404 419.476 4.12233 415.629L2.19017 415.113C1.10908 419.157 0.574219 423.66 0.574219 428.613L2.57422 428.613ZM4.12468 415.62C5.1145 411.775 6.59065 408.515 8.53724 405.82L6.91588 404.649C4.79997 407.579 3.22925 411.076 2.18782 415.122L4.12468 415.62ZM8.54105 405.815C10.4801 403.092 12.8945 401.015 15.791 399.566L14.8965 397.777C11.6992 399.376 9.03547 401.673 6.91207 404.654L8.54105 405.815ZM15.7956 399.564C18.64 398.123 21.9763 397.387 25.832 397.387L25.832 395.387C21.7191 395.387 18.0631 396.174 14.8919 397.78L15.7956 399.564ZM25.832 397.387C28.6041 397.387 31.2008 398.013 33.6358 399.268L34.5517 397.49C31.8305 396.088 28.9193 395.387 25.832 395.387L25.832 397.387ZM33.6465 399.273C36.0865 400.493 38.2418 402.254 40.1122 404.573L41.669 403.318C39.6332 400.793 37.2573 398.843 34.541 397.484L33.6465 399.273ZM40.1122 404.573C41.98 406.889 43.4701 409.69 44.5708 412.992L46.4682 412.36C45.3033 408.865 43.7075 405.845 41.669 403.318L40.1122 404.573ZM44.5687 412.985C45.6251 416.23 46.1602 419.854 46.1602 423.867L48.1602 423.867C48.1602 419.677 47.6015 415.84 46.4704 412.366L44.5687 412.985ZM42.9453 438.574V423.867H40.9453V438.574H42.9453ZM42.9453 423.867C42.9453 419.366 43.4264 415.395 44.3744 411.945L42.4459 411.415C41.4407 415.073 40.9453 419.228 40.9453 423.867L42.9453 423.867ZM44.3744 411.945C45.3234 408.49 46.6989 405.604 48.4829 403.262L46.8921 402.05C44.9261 404.63 43.45 407.76 42.4459 411.415L44.3744 411.945ZM48.4875 403.256C50.2658 400.885 52.4611 399.097 55.0816 397.879L54.2387 396.066C51.3123 397.426 48.8592 399.427 46.8875 402.056L48.4875 403.256ZM55.0866 397.877C57.6661 396.661 60.6608 396.039 64.0938 396.039L64.0937 394.039C60.4173 394.039 57.1229 394.706 54.2337 396.068L55.0866 397.877ZM64.0938 396.039C67.9335 396.039 71.3221 396.847 74.2844 398.439L75.2313 396.678C71.9436 394.911 68.2227 394.039 64.0937 394.039L64.0938 396.039ZM74.2884 398.442C77.2299 400.005 79.7318 402.223 81.7956 405.112L83.4231 403.95C81.1901 400.824 78.4576 398.393 75.2272 396.676L74.2884 398.442ZM81.7956 405.112C83.8647 408.009 85.4391 411.451 86.5064 415.453L88.4389 414.938C87.3187 410.737 85.651 407.069 83.4231 403.95L81.7956 405.112ZM86.507 415.455C87.5747 419.421 88.1133 423.805 88.1133 428.613L90.1133 428.613C90.1133 423.656 89.5582 419.095 88.4383 414.935L86.507 415.455ZM88.1133 428.613C88.1133 432.479 87.6541 436.326 86.7346 440.157L88.6794 440.624C89.6349 436.643 90.1133 432.639 90.1133 428.613L88.1133 428.613ZM86.7375 440.146C85.7849 443.918 84.3403 447.335 82.4077 450.405L84.1001 451.47C86.1519 448.212 87.676 444.598 88.6766 440.635L86.7375 440.146ZM82.4077 450.405C80.4957 453.441 78.0469 455.87 75.0558 457.702L76.1004 459.407C79.3593 457.411 82.0277 454.762 84.1001 451.47L82.4077 450.405ZM75.0636 457.697C72.1226 459.462 68.5584 460.367 64.3281 460.367L64.3281 462.367C68.8479 462.367 72.7836 461.398 76.0926 459.412L75.0636 457.697ZM65.3281 461.367V440.742H63.3281V461.367H65.3281ZM64.3281 441.742C66.2596 441.742 68.012 441.166 69.5534 440.021L68.3607 438.416C67.1676 439.302 65.8342 439.742 64.3281 439.742L64.3281 441.742ZM69.5678 440.011C71.0906 438.836 72.262 437.243 73.0998 435.274L71.2595 434.491C70.5349 436.194 69.5579 437.492 68.3462 438.427L69.5678 440.011ZM73.0998 435.274C73.9422 433.295 74.3516 431.068 74.3516 428.613L72.3516 428.613C72.3516 430.846 71.9797 432.799 71.2595 434.491L73.0998 435.274ZM74.3516 428.613C74.3516 425.779 73.9067 423.307 72.9748 421.231L71.1502 422.05C71.9371 423.803 72.3516 425.979 72.3516 428.613L74.3516 428.613ZM72.9778 421.238C72.0575 419.146 70.7766 417.501 69.1116 416.362L67.9822 418.013C69.2859 418.905 70.3488 420.229 71.1472 422.043L72.9778 421.238ZM69.1116 416.362C67.461 415.233 65.6236 414.664 63.625 414.664L63.625 416.664C65.2201 416.664 66.664 417.111 67.9822 418.013L69.1116 416.362ZM63.625 414.664C61.4422 414.664 59.5451 414.926 57.9615 415.482L58.6245 417.369C59.9315 416.91 61.589 416.664 63.625 416.664L63.625 414.664ZM57.9693 415.48C56.347 416.035 54.9999 416.884 53.9698 418.048L55.4677 419.374C56.2344 418.507 57.2702 417.833 58.6167 417.372L57.9693 415.48ZM53.9839 418.033C52.9194 419.186 52.1839 420.61 51.7579 422.271L53.6952 422.768C54.0504 421.383 54.6431 420.267 55.4536 419.389L53.9839 418.033ZM51.766 422.241C51.3043 423.836 51.082 425.652 51.082 427.676L53.082 427.676C53.082 425.793 53.2894 424.171 53.6871 422.798L51.766 422.241ZM51.082 427.676V438.574H53.082V427.676H51.082ZM52.082 437.574H41.9453V439.574H52.082V437.574ZM20.3222 347.713L87.705 368.514L88.295 366.603L20.9121 345.802L20.3222 347.713ZM87 367.559V389.648H89V367.559H87ZM88.3449 388.71L3.0324 357.362L2.3426 359.239L87.6551 390.587L88.3449 388.71ZM3.6875 358.301L3.6875 344.297L1.6875 344.297L1.6875 358.301L3.6875 358.301ZM2.55152 345.288L20.4812 347.749L20.7532 345.767L2.82348 343.306L2.55152 345.288ZM87.7043 328.576L20.3215 349.435L20.9129 351.346L88.2957 330.487L87.7043 328.576ZM20.4685 349.402L2.53884 352.097L2.83615 354.075L20.7658 351.38L20.4685 349.402ZM3.6875 353.086L3.6875 338.906L1.6875 338.906L1.6875 353.086L3.6875 353.086ZM3.0341 339.844L88.3466 308.321L87.6534 306.445L2.3409 337.968L3.0341 339.844ZM87 307.383V329.531H89V307.383H87ZM56.1836 331.352H72.0625V329.352H56.1836V331.352ZM71.0625 330.352L71.0625 374.121L73.0625 374.121L73.0625 330.352L71.0625 330.352ZM72.0625 373.121H56.1836V375.121H72.0625V373.121ZM57.1836 374.121V330.352H55.1836V374.121H57.1836ZM57.0586 256.699V279.492H59.0586V256.699H57.0586ZM57.1345 279.11L54.6149 285.204L56.4632 285.968L58.9827 279.874L57.1345 279.11ZM54.5851 285.286C52.4379 292.111 49.2822 297.222 45.1669 300.701L46.4581 302.228C50.9365 298.442 54.2652 292.967 56.493 285.886L54.5851 285.286ZM45.1703 300.698C41.0468 304.153 35.7605 305.914 29.2305 305.914L29.2305 307.914C36.1379 307.914 41.9063 306.042 46.4547 302.231L45.1703 300.698ZM29.2305 305.914C23.5203 305.914 18.8438 304.64 15.1386 302.158L14.0254 303.819C18.1328 306.571 23.2218 307.914 29.2305 307.914L29.2305 305.914ZM15.1348 302.155C11.3714 299.658 8.52339 296.112 6.59952 291.472L4.75203 292.238C6.81253 297.208 9.90201 301.084 14.0292 303.822L15.1348 302.155ZM6.59952 291.472C4.66924 286.817 3.68749 281.25 3.68749 274.746L1.68749 274.746C1.68749 281.445 2.69793 287.284 4.75203 292.238L6.59952 291.472ZM3.68749 274.746L3.68749 243.809L1.68749 243.809L1.68749 274.746L3.68749 274.746ZM2.68749 244.809H88V242.809H2.68749V244.809ZM87 243.809V264.434H89V243.809H87ZM88 263.434H18.5664V265.434H88V263.434ZM17.5664 264.434V274.746H19.5664V264.434H17.5664ZM17.5664 274.746C17.5664 279.005 18.6829 282.313 21.1394 284.413L22.4387 282.892C20.5983 281.319 19.5664 278.691 19.5664 274.746L17.5664 274.746ZM21.1325 284.407C23.4911 286.459 26.8502 287.406 31.0469 287.406L31.0469 285.406C27.1185 285.406 24.3057 284.517 22.4456 282.898L21.1325 284.407ZM31.0469 287.406C34.245 287.406 36.8745 286.969 38.8611 286.019L37.9982 284.215C36.3911 284.984 34.0987 285.406 31.0469 285.406L31.0469 287.406ZM38.8769 286.012C40.8645 285.018 42.3249 283.546 43.2072 281.605L41.3865 280.778C40.7064 282.274 39.5886 283.42 37.9825 284.223L38.8769 286.012ZM43.2149 281.588C44.0275 279.706 44.4101 277.412 44.4101 274.746L42.4101 274.746C42.4101 277.236 42.0507 279.239 41.3788 280.795L43.2149 281.588ZM44.4101 274.746V256.816H42.4101V274.746H44.4101ZM43.4181 257.816L58.0666 257.699L58.0506 255.699L43.4021 255.816L43.4181 257.816ZM49.9491 273.421L87.5663 291.526L88.4337 289.724L50.8165 271.618L49.9491 273.421ZM87 290.625V313.008H89V290.625H87ZM88.4291 312.105L50.8119 294.233L49.9537 296.04L87.5709 313.911L88.4291 312.105ZM51.3828 295.137V272.52H49.3828V295.137H51.3828ZM50.7305 197.637L50.7305 219.609L52.7305 219.609L52.7305 197.637L50.7305 197.637ZM51.7218 218.609L38.2452 218.727L38.2626 220.727L51.7392 220.609L51.7218 218.609ZM39.2539 219.727L39.2539 201.914L37.2539 201.914L37.2539 219.727L39.2539 219.727ZM39.2539 201.914C39.2539 198.653 38.898 195.963 38.1379 193.893L36.2605 194.583C36.9067 196.342 37.2539 198.769 37.2539 201.914L39.2539 201.914ZM38.1316 193.877C37.3299 191.809 36.1334 190.224 34.498 189.225L33.4551 190.931C34.6322 191.651 35.5841 192.839 36.2668 194.6L38.1316 193.877ZM34.5149 189.235C32.9104 188.21 30.9532 187.73 28.7031 187.73L28.7031 189.73C30.6718 189.73 32.2302 190.149 33.4382 190.921L34.5149 189.235ZM28.7031 187.73C26.1677 187.73 24.0165 188.199 22.3259 189.223L23.3615 190.934C24.6397 190.16 26.3948 189.73 28.7031 189.73L28.7031 187.73ZM22.3259 189.223C20.6037 190.265 19.3991 191.902 18.6743 194.034L20.5679 194.677C21.1711 192.903 22.115 191.688 23.3615 190.934L22.3259 189.223ZM18.6824 194.011C17.9239 196.075 17.5664 198.685 17.5664 201.797L19.5664 201.797C19.5664 198.815 19.912 196.464 20.5598 194.7L18.6824 194.011ZM17.5664 201.797V211.875H19.5664V201.797H17.5664ZM18.5664 212.875H88V210.875H18.5664V212.875ZM87 211.875V232.441H89V211.875H87ZM88 231.441H2.68749V233.441H88V231.441ZM3.68749 232.441L3.68749 201.797L1.68749 201.797L1.68749 232.441L3.68749 232.441ZM3.68749 201.797C3.68749 196.583 4.17044 191.955 5.12563 187.905L3.17904 187.446C2.1811 191.677 1.68749 196.464 1.68749 201.797L3.68749 201.797ZM5.12765 187.897C6.0435 183.852 7.44656 180.457 9.31686 177.689L7.65968 176.569C5.62373 179.582 4.13617 183.219 3.17702 187.455L5.12765 187.897ZM9.32032 177.684C11.1843 174.888 13.519 172.78 16.3276 171.339L15.4145 169.56C12.2857 171.165 9.6985 173.511 7.65622 176.574L9.32032 177.684ZM16.3324 171.336C19.0931 169.901 22.3855 169.164 26.2422 169.164L26.2422 167.164C22.1301 167.164 18.5085 167.951 15.4097 169.562L16.3324 171.336ZM26.2422 169.164C29.571 169.164 32.6825 169.873 35.5894 171.29L36.4653 169.492C33.2784 167.939 29.8665 167.164 26.2422 167.164L26.2422 169.164ZM35.5894 171.29C38.4206 172.669 40.7607 174.987 42.5927 178.314L44.3447 177.35C42.3487 173.724 39.7278 171.081 36.4653 169.492L35.5894 171.29ZM42.5908 178.311C44.3574 181.55 45.3215 186.074 45.3985 191.966L47.3983 191.94C47.3191 185.879 46.3301 180.989 44.3466 177.353L42.5908 178.311ZM45.6691 192.637L51.0012 198.321L52.4598 196.953L47.1277 191.269L45.6691 192.637ZM87 198.457V224.59H89V198.457H87ZM88.4061 223.676L72.5858 216.645L71.7735 218.472L87.5939 225.504L88.4061 223.676ZM73.1797 217.559V198.457H71.1797V217.559H73.1797ZM73.1797 198.457C73.1797 195.558 72.7391 193.136 71.7809 191.263L70.0004 192.174C70.7609 193.661 71.1797 195.731 71.1797 198.457L73.1797 198.457ZM71.7768 191.255C70.8017 189.39 69.4942 187.991 67.8318 187.138L66.9182 188.917C68.1464 189.548 69.1827 190.61 70.0044 192.182L71.7768 191.255ZM67.8407 187.142C66.2026 186.28 64.4004 185.855 62.4531 185.855L62.4531 187.855C64.0996 187.855 65.5786 188.212 66.9092 188.912L67.8407 187.142ZM62.4531 185.855C60.1543 185.855 58.11 186.245 56.3491 187.061L57.19 188.876C58.6322 188.208 60.377 187.855 62.4531 187.855L62.4531 185.855ZM56.3675 187.053C54.5603 187.847 53.1651 189.134 52.2019 190.885L53.9543 191.849C54.7099 190.475 55.7756 189.497 57.1715 188.884L56.3675 187.053ZM52.2112 190.869C51.1949 192.636 50.7305 194.919 50.7305 197.637L52.7305 197.637C52.7305 195.12 53.1645 193.223 53.945 191.866L52.2112 190.869ZM50.7305 197.637L50.7305 214.922L52.7305 214.922L52.7305 197.637L50.7305 197.637ZM51.7392 213.922L38.2626 213.805L38.2452 215.805L51.7218 215.922L51.7392 213.922ZM39.2539 214.805L39.2539 194.121L37.2539 194.121L37.2539 214.805L39.2539 214.805ZM38.9193 194.868L44.3099 190.063L42.9791 188.57L37.5885 193.375L38.9193 194.868ZM44.6437 189.275C44.4133 183.669 45.2086 179.364 46.922 176.265L45.1717 175.297C43.2132 178.839 42.407 183.557 42.6454 189.357L44.6437 189.275ZM46.9244 176.261C48.6753 173.057 50.9533 170.817 53.7456 169.476L52.8794 167.673C49.6561 169.222 47.0903 171.787 45.1694 175.302L46.9244 176.261ZM53.7456 169.476C56.6206 168.094 59.6174 167.406 62.7461 167.406L62.7461 165.406C59.3123 165.406 56.02 166.164 52.8794 167.673L53.7456 169.476ZM62.7461 167.406C68.1878 167.406 72.6554 168.585 76.2075 170.879L77.2925 169.199C73.3446 166.649 68.4762 165.406 62.7461 165.406L62.7461 167.406ZM76.2137 170.883C79.7586 173.136 82.4472 176.528 84.2569 181.128L86.1181 180.396C84.1778 175.464 81.2414 171.708 77.2863 169.195L76.2137 170.883ZM84.2569 181.128C86.0724 185.742 87 191.507 87 198.457L89 198.457C89 191.344 88.0526 185.313 86.1181 180.396L84.2569 181.128ZM2.68749 135.59H88V133.59H2.68749V135.59ZM87 134.59V155.098H89V134.59H87ZM88 154.098H2.68749V156.098H88V154.098ZM3.68749 155.098L3.68749 134.59L1.68749 134.59L1.68749 155.098L3.68749 155.098ZM2.17659 86.2307L53.7391 116.875L54.7609 115.156L3.19838 84.5115L2.17659 86.2307ZM53.25 116.016L53.25 138.164L55.25 138.164L55.25 116.016L53.25 116.016ZM54.1186 137.173L35.5444 139.634L35.8071 141.616L54.3813 139.155L54.1186 137.173ZM36.6758 140.625V126.621H34.6758V140.625H36.6758ZM36.1211 125.726L3.13279 109.319L2.24218 111.11L35.2305 127.516L36.1211 125.726ZM3.68749 110.215L3.68748 85.3711L1.68748 85.3711L1.68749 110.215L3.68749 110.215ZM87.528 105.818L50.2038 125.798L51.1477 127.561L88.4719 107.581L87.528 105.818ZM51.4111 126.002L37.6416 111.061L36.1709 112.416L49.9404 127.357L51.4111 126.002ZM37.4037 112.606L88.4974 83.3089L87.5026 81.5739L36.4088 110.871L37.4037 112.606ZM87 82.4414V106.699H89V82.4414H87ZM20.3222 42.0883L87.705 62.8891L88.2949 60.9781L20.9121 40.1773L20.3222 42.0883ZM87 61.9336V84.0234H89V61.9336H87ZM88.3449 83.0848L3.03238 51.7371L2.34258 53.6144L87.6551 84.9621L88.3449 83.0848ZM3.68748 52.6758L3.68748 38.6719L1.68748 38.6719L1.68748 52.6758L3.68748 52.6758ZM2.5515 39.6626L20.4812 42.1235L20.7532 40.1421L2.82346 37.6812L2.5515 39.6626ZM87.7043 22.951L20.3215 43.8104L20.9129 45.7209L88.2957 24.8615L87.7043 22.951ZM20.4685 43.7767L2.53883 46.4721L2.83614 48.4498L20.7658 45.7545L20.4685 43.7767ZM3.68748 47.4609L3.68748 33.2813L1.68748 33.2813L1.68748 47.4609L3.68748 47.4609ZM3.03408 34.2193L88.3466 2.69583L87.6534 0.8198L2.34088 32.3432L3.03408 34.2193ZM87 1.75781V23.9062H89V1.75781H87ZM56.1836 25.7266L72.0625 25.7266L72.0625 23.7266L56.1836 23.7266L56.1836 25.7266ZM71.0625 24.7266V68.4961H73.0625V24.7266H71.0625ZM72.0625 67.4961H56.1836V69.4961H72.0625V67.4961ZM57.1836 68.4961L57.1836 24.7266L55.1836 24.7266L55.1836 68.4961L57.1836 68.4961Z" fill="#373737" mask="url(#path-1-outside-1_1764_28)"/>
</svg>
