<svg width="55" height="306" viewBox="0 0 55 306" fill="none" xmlns="http://www.w3.org/2000/svg">
<mask id="path-1-outside-1_1826_53" maskUnits="userSpaceOnUse" x="0.109375" y="0.210938" width="55" height="306" fill="black">
<rect fill="white" x="0.109375" y="0.210938" width="55" height="306"/>
<path d="M26.3867 259.785H28.4609C32.375 259.785 35.8906 260.336 39.0078 261.438C42.1016 262.516 44.75 264.051 46.9531 266.043C49.1328 268.035 50.8086 270.391 51.9805 273.109C53.1289 275.828 53.7031 278.828 53.7031 282.109C53.7031 285.414 53.1289 288.438 51.9805 291.18C50.8086 293.898 49.1328 296.266 46.9531 298.281C44.75 300.273 42.1016 301.82 39.0078 302.922C35.8906 304 32.375 304.539 28.4609 304.539H26.3867C22.4727 304.539 18.957 304 15.8398 302.922C12.7227 301.82 10.0742 300.285 7.89453 298.316C5.69141 296.324 4.01563 293.969 2.86719 291.25C1.69531 288.508 1.10938 285.484 1.10938 282.18C1.10937 278.898 1.69531 275.898 2.86719 273.18C4.01562 270.438 5.69141 268.07 7.89453 266.078C10.0742 264.086 12.7227 262.539 15.8398 261.438C18.957 260.336 22.4727 259.785 26.3867 259.785ZM28.4609 272.301H26.3164C23.7852 272.301 21.5586 272.523 19.6367 272.969C17.6914 273.391 16.0625 274.023 14.75 274.867C13.4375 275.711 12.4531 276.754 11.7969 277.996C11.1172 279.215 10.7773 280.609 10.7773 282.18C10.7773 283.82 11.1172 285.25 11.7969 286.469C12.4531 287.688 13.4375 288.707 14.75 289.527C16.0625 290.348 17.6914 290.969 19.6367 291.391C21.5586 291.789 23.7852 291.988 26.3164 291.988H28.4609C30.9688 291.988 33.1953 291.789 35.1406 291.391C37.0625 290.969 38.6914 290.348 40.0273 289.527C41.3633 288.684 42.3711 287.652 43.0508 286.434C43.7305 285.191 44.0703 283.75 44.0703 282.109C44.0703 280.539 43.7305 279.145 43.0508 277.926C42.3711 276.707 41.3633 275.687 40.0273 274.867C38.6914 274.023 37.0625 273.391 35.1406 272.969C33.1953 272.523 30.9688 272.301 28.4609 272.301ZM1.8125 231.625H53L53 243.965H1.8125L1.8125 231.625ZM1.8125 216.227H11.3398L11.3398 259.012H1.8125L1.8125 216.227ZM28.4961 190.211V199.035H22.3086V192.496C22.3086 190.973 22.0625 189.742 21.5703 188.805C21.0547 187.867 20.3281 187.176 19.3906 186.73C18.4297 186.285 17.3047 186.062 16.0156 186.062C15.0547 186.063 14.1641 186.32 13.3437 186.836C12.5234 187.328 11.8672 188.09 11.375 189.121C10.8828 190.152 10.6367 191.465 10.6367 193.059C10.6367 194.277 10.8359 195.391 11.2344 196.398C11.6328 197.406 12.2187 198.203 12.9922 198.789C13.7422 199.375 14.6797 199.668 15.8047 199.668L15.8047 211.973C13.5078 211.973 11.457 211.469 9.65234 210.461C7.84765 209.453 6.3125 208.082 5.04687 206.348C3.78125 204.59 2.82031 202.574 2.16406 200.301C1.48437 198.004 1.14453 195.59 1.14453 193.059C1.14453 190.129 1.46093 187.48 2.09375 185.113C2.70312 182.746 3.61718 180.719 4.83593 179.031C6.05468 177.32 7.57812 176.008 9.40625 175.094C11.2109 174.18 13.3086 173.723 15.6992 173.723C17.457 173.723 19.1094 174.121 20.6562 174.918C22.2031 175.691 23.5625 176.805 24.7344 178.258C25.9062 179.711 26.832 181.457 27.5117 183.496C28.168 185.512 28.4961 187.75 28.4961 190.211ZM25.3672 199.035V190.211C25.3672 187.469 25.6602 185.031 26.2461 182.898C26.832 180.766 27.6875 178.961 28.8125 177.484C29.9375 175.984 31.332 174.848 32.9961 174.074C34.6367 173.301 36.5234 172.914 38.6562 172.914C41.0469 172.914 43.1797 173.418 45.0547 174.426C46.9062 175.41 48.4766 176.805 49.7656 178.609C51.0547 180.414 52.0273 182.547 52.6836 185.008C53.3398 187.445 53.668 190.129 53.668 193.059C53.668 195.426 53.3867 197.781 52.8242 200.125C52.2383 202.445 51.3477 204.555 50.1523 206.453C48.957 208.352 47.4219 209.875 45.5469 211.023C43.6719 212.148 41.4219 212.711 38.7969 212.711V200.336C39.8281 200.336 40.7539 200.031 41.5742 199.422C42.3945 198.789 43.0391 197.922 43.5078 196.82C43.9766 195.719 44.2109 194.465 44.2109 193.059C44.2109 191.418 43.9531 190.023 43.4375 188.875C42.9219 187.703 42.2187 186.812 41.3281 186.203C40.4375 185.594 39.4531 185.289 38.375 185.289C37.1094 185.289 36.043 185.441 35.1758 185.746C34.2852 186.051 33.5703 186.508 33.0312 187.117C32.4687 187.727 32.0703 188.488 31.8359 189.402C31.5781 190.293 31.4492 191.324 31.4492 192.496V199.035H25.3672ZM19.4258 157.973V146.969C19.4258 142.82 20.1172 139.211 21.5 136.141C22.8828 133.07 24.8164 130.703 27.3008 129.039C29.7851 127.352 32.6914 126.508 36.0195 126.508C38.5273 126.508 40.8242 126.988 42.9101 127.949C44.9726 128.91 46.7656 130.293 48.2891 132.098C49.7891 133.879 50.9492 136.023 51.7695 138.531C52.5898 141.039 53 143.852 53 146.969L53 165.672H1.81249L1.81249 153.297H43.5078L43.5078 146.969C43.5078 145.211 43.168 143.734 42.4883 142.539C41.8086 141.32 40.9062 140.395 39.7812 139.762C38.6328 139.129 37.3555 138.812 35.9492 138.812C34.5898 138.813 33.3828 139.129 32.3281 139.762C31.2734 140.395 30.4414 141.32 29.832 142.539C29.2227 143.734 28.918 145.211 28.918 146.969V157.973H19.4258ZM1.81249 110.477H53V122.781H1.81249L1.81249 110.477ZM31.2383 81.9648L31.2383 95.1484L23.1523 95.2188L23.1523 84.5312C23.1523 82.6094 22.9414 81.0742 22.5195 79.9258C22.0742 78.7773 21.4297 77.9453 20.5859 77.4297C19.7422 76.8906 18.6875 76.6211 17.4219 76.6211C15.9687 76.6211 14.7969 76.8906 13.9062 77.4297C13.0156 77.9688 12.3711 78.8242 11.9726 79.9961C11.5508 81.1445 11.3398 82.6328 11.3398 84.4609V90.5078H53V102.848H1.81249L1.81249 84.4609C1.81249 81.2969 2.10546 78.4727 2.6914 75.9883C3.2539 73.5039 4.12108 71.3945 5.29296 69.6602C6.46483 67.9023 7.9414 66.5664 9.72265 65.6523C11.4805 64.7383 13.5547 64.2813 15.9453 64.2812C18.0312 64.2812 19.9883 64.7266 21.8164 65.6172C23.6445 66.5078 25.1328 67.9961 26.2812 70.082C27.4062 72.1445 27.9922 74.9688 28.0391 78.5547L31.2383 81.9648ZM53 82.457V98.1367L43.5078 93.918V82.457C43.5078 80.7695 43.25 79.4219 42.7344 78.4141C42.1953 77.3828 41.4922 76.6445 40.625 76.1992C39.7344 75.7305 38.75 75.4961 37.6719 75.4961C36.3594 75.4961 35.2226 75.7187 34.2617 76.1641C33.3008 76.5859 32.5625 77.2656 32.0469 78.2031C31.5078 79.1406 31.2383 80.3945 31.2383 81.9648L31.2383 92.3359L23.1523 92.2656L23.1523 79.8555L26.3867 76.9727C26.2461 73.5508 26.7266 70.8438 27.8281 68.8516C28.9297 66.8359 30.3828 65.3945 32.1875 64.5273C33.9922 63.6602 35.8789 63.2266 37.8476 63.2266C41.1992 63.2266 44 63.9531 46.25 65.4062C48.5 66.8359 50.1875 68.9805 51.3125 71.8398C52.4375 74.6992 53 78.2383 53 82.457ZM19.4258 48.707L19.4258 37.7031C19.4258 33.5547 20.1172 29.9453 21.5 26.875C22.8828 23.8047 24.8164 21.4375 27.3008 19.7734C29.7851 18.0859 32.6914 17.2422 36.0195 17.2422C38.5273 17.2422 40.8242 17.7227 42.9101 18.6836C44.9726 19.6445 46.7656 21.0273 48.2891 22.832C49.7891 24.6133 50.9492 26.7578 51.7695 29.2656C52.5898 31.7734 53 34.5859 53 37.7031V56.4062L1.81249 56.4063L1.81249 44.0313L43.5078 44.0312V37.7031C43.5078 35.9453 43.168 34.4688 42.4883 33.2734C41.8086 32.0547 40.9062 31.1289 39.7812 30.4961C38.6328 29.8633 37.3555 29.5469 35.9492 29.5469C34.5898 29.5469 33.3828 29.8633 32.3281 30.4961C31.2734 31.1289 30.4414 32.0547 29.832 33.2734C29.2226 34.4688 28.918 35.9453 28.918 37.7031L28.918 48.707H19.4258ZM1.81249 1.21094L53 1.21094V13.5156L1.81249 13.5156L1.81249 1.21094Z"/>
</mask>
<path d="M26.3867 259.785L26.3867 258.785H26.3867L26.3867 259.785ZM28.4609 259.785L28.4609 260.785H28.4609L28.4609 259.785ZM39.0078 261.438L38.6746 262.38L38.6787 262.382L39.0078 261.438ZM46.9531 266.043L47.6278 265.305L47.6238 265.301L46.9531 266.043ZM51.9805 273.109L52.9017 272.72L52.8988 272.714L51.9805 273.109ZM53.7031 282.109L52.7031 282.109L53.7031 282.109ZM51.9805 291.18L52.8988 291.576L52.9028 291.566L51.9805 291.18ZM46.9531 298.281L47.6239 299.023L47.6321 299.015L46.9531 298.281ZM39.0078 302.922L39.3347 303.867L39.3432 303.864L39.0078 302.922ZM28.4609 304.539L28.4609 305.539H28.4609L28.4609 304.539ZM26.3867 304.539L26.3867 303.539H26.3867L26.3867 304.539ZM15.8398 302.922L15.5066 303.865L15.513 303.867L15.8398 302.922ZM7.89453 298.316L7.22382 299.058L7.22425 299.059L7.89453 298.316ZM2.86719 291.25L3.78838 290.861L3.78674 290.857L2.86719 291.25ZM1.10938 282.18L0.109375 282.18L1.10938 282.18ZM2.86719 273.18L3.78556 273.576L3.78956 273.566L2.86719 273.18ZM7.89453 266.078L8.56525 266.82L8.56918 266.816L7.89453 266.078ZM28.4609 272.301L28.4609 273.301H28.4609L28.4609 272.301ZM26.3164 272.301L26.3164 271.301H26.3164L26.3164 272.301ZM19.6367 272.969L19.8487 273.946L19.8624 273.943L19.6367 272.969ZM11.7969 277.996L12.6702 278.483L12.6758 278.473L12.6811 278.463L11.7969 277.996ZM10.7773 282.18L9.77734 282.18L10.7773 282.18ZM11.7969 286.469L12.6773 285.995L12.6738 285.988L12.6702 285.982L11.7969 286.469ZM19.6367 291.391L19.4248 292.368L19.4337 292.37L19.6367 291.391ZM26.3164 291.988L26.3164 290.988H26.3164L26.3164 291.988ZM28.4609 291.988L28.4609 292.988H28.4609L28.4609 291.988ZM35.1406 291.391L35.3413 292.37L35.355 292.367L35.1406 291.391ZM40.0273 289.527L40.5506 290.38L40.5613 290.373L40.0273 289.527ZM43.0508 286.434L43.9242 286.921L43.928 286.914L43.0508 286.434ZM44.0703 282.109L43.0703 282.109L44.0703 282.109ZM40.0273 274.867L39.4933 275.713L39.5041 275.719L40.0273 274.867ZM35.1406 272.969L34.9175 273.944L34.9262 273.945L35.1406 272.969ZM1.8125 231.625V230.625H0.812498L0.812498 231.625L1.8125 231.625ZM53 231.625L54 231.625L54 230.625H53V231.625ZM53 243.965V244.965H54L54 243.965L53 243.965ZM1.8125 243.965L0.812498 243.965L0.812498 244.965H1.8125V243.965ZM1.8125 216.227V215.227H0.812497L0.812497 216.227L1.8125 216.227ZM11.3398 216.227L12.3398 216.227L12.3398 215.227H11.3398V216.227ZM11.3398 259.012V260.012H12.3398L12.3398 259.012L11.3398 259.012ZM1.8125 259.012L0.812499 259.012L0.812499 260.012H1.8125V259.012ZM28.4961 190.211L29.4961 190.211L29.4961 190.211L28.4961 190.211ZM28.4961 199.035V200.035H29.4961V199.035H28.4961ZM22.3086 199.035H21.3086V200.035H22.3086V199.035ZM22.3086 192.496L23.3086 192.496V192.496L22.3086 192.496ZM21.5703 188.805L22.4557 188.34L22.4512 188.331L22.4465 188.323L21.5703 188.805ZM19.3906 186.73L19.8197 185.827L19.8111 185.823L19.3906 186.73ZM16.0156 186.062L16.0156 187.062L16.0156 186.062ZM13.3437 186.836L13.8582 187.693L13.8671 187.688L13.8759 187.683L13.3437 186.836ZM10.6367 193.059L11.6367 193.059L10.6367 193.059ZM12.9922 198.789L13.6078 198.001L13.602 197.996L13.596 197.992L12.9922 198.789ZM15.8047 199.668L16.8047 199.668L16.8047 198.668L15.8047 198.668L15.8047 199.668ZM15.8047 211.973L15.8047 212.973L16.8047 212.973L16.8047 211.973L15.8047 211.973ZM5.04687 206.348L4.23532 206.932L4.23908 206.937L5.04687 206.348ZM2.16406 200.301L3.12485 200.023L3.12296 200.017L2.16406 200.301ZM1.14453 193.059L0.144527 193.059L1.14453 193.059ZM2.09375 185.113L3.05986 185.372L3.06217 185.363L2.09375 185.113ZM4.83593 179.031L5.64663 179.617L5.65042 179.611L4.83593 179.031ZM9.40625 175.094L9.85346 175.988L9.85809 175.986L9.40625 175.094ZM15.6992 173.723L15.6992 172.723L15.6992 173.723ZM20.6562 174.918L20.1983 175.807L20.209 175.812L20.6562 174.918ZM27.5117 183.496L28.4626 183.187L28.4604 183.18L27.5117 183.496ZM25.3672 199.035H24.3672V200.035H25.3672V199.035ZM25.3672 190.211L26.3672 190.211V190.211L25.3672 190.211ZM28.8125 177.484L29.608 178.09L29.6125 178.084L28.8125 177.484ZM32.9961 174.074L33.4176 174.981L33.4225 174.979L32.9961 174.074ZM38.6562 172.914L38.6562 171.914L38.6562 172.914ZM45.0547 174.426L44.5812 175.307L44.5853 175.309L45.0547 174.426ZM52.6836 185.008L51.7174 185.265L51.718 185.268L52.6836 185.008ZM52.8242 200.125L53.7938 200.37L53.7966 200.358L52.8242 200.125ZM45.5469 211.023L46.0614 211.881L46.0692 211.876L45.5469 211.023ZM38.7969 212.711H37.7969V213.711L38.7969 213.711L38.7969 212.711ZM38.7969 200.336L38.7969 199.336L37.7969 199.336V200.336H38.7969ZM41.5742 199.422L42.1705 200.225L42.1778 200.219L42.185 200.214L41.5742 199.422ZM44.2109 193.059L45.2109 193.059L44.2109 193.059ZM43.4375 188.875L42.5222 189.278L42.5252 189.285L43.4375 188.875ZM38.375 185.289L38.375 186.289L38.375 185.289ZM35.1758 185.746L35.4995 186.692L35.5073 186.69L35.1758 185.746ZM33.0312 187.117L33.766 187.795L33.7732 187.788L33.7802 187.78L33.0312 187.117ZM31.8359 189.402L32.7965 189.68L32.8008 189.666L32.8046 189.651L31.8359 189.402ZM31.4492 192.496L32.4492 192.496V192.496L31.4492 192.496ZM31.4492 199.035V200.035H32.4492V199.035H31.4492ZM19.4258 157.973H18.4258V158.973H19.4258V157.973ZM19.4258 146.969L20.4258 146.969L20.4258 146.969L19.4258 146.969ZM27.3008 129.039L27.8573 129.87L27.8627 129.866L27.3008 129.039ZM36.0195 126.508L36.0195 127.508L36.0195 126.508ZM42.9101 127.949L43.3325 127.043L43.3286 127.041L42.9101 127.949ZM48.2891 132.098L49.054 131.454L49.0532 131.453L48.2891 132.098ZM53 146.969L52 146.969L52 146.969L53 146.969ZM53 165.672V166.672H54L54 165.672L53 165.672ZM1.81249 165.672L0.812495 165.672L0.812495 166.672H1.81249V165.672ZM1.81249 153.297V152.297H0.812494L0.812494 153.297L1.81249 153.297ZM43.5078 153.297V154.297H44.5078L44.5078 153.297L43.5078 153.297ZM43.5078 146.969L42.5078 146.969L42.5078 146.969L43.5078 146.969ZM42.4883 142.539L41.6149 143.026L41.619 143.033L42.4883 142.539ZM39.7812 139.762L40.2715 138.89L40.2638 138.886L39.7812 139.762ZM35.9492 138.812L35.9492 139.812L35.9492 138.812ZM29.832 142.539L30.723 142.993L30.7265 142.986L29.832 142.539ZM28.918 146.969L29.918 146.969L29.918 146.969L28.918 146.969ZM28.918 157.973V158.973H29.918V157.973H28.918ZM1.81249 110.477V109.477H0.812492L0.812492 110.477L1.81249 110.477ZM53 110.477H54V109.477H53V110.477ZM53 122.781V123.781H54V122.781H53ZM1.81249 122.781L0.812493 122.781L0.812493 123.781H1.81249V122.781ZM31.2383 95.1484L31.247 96.1484L32.2383 96.1398L32.2383 95.1484L31.2383 95.1484ZM23.1523 95.2188L22.1523 95.2188L22.1523 96.2275L23.161 96.2187L23.1523 95.2188ZM23.1523 84.5312L22.1523 84.5313L22.1523 84.5313L23.1523 84.5312ZM22.5195 79.9258L23.4582 79.581L23.4551 79.5726L23.4519 79.5643L22.5195 79.9258ZM20.5859 77.4297L20.0475 78.2724L20.056 78.2778L20.0645 78.283L20.5859 77.4297ZM17.4219 76.6211L17.4219 77.6211L17.4219 76.6211ZM11.9726 79.9961L12.9113 80.3409L12.9155 80.3295L12.9194 80.318L11.9726 79.9961ZM11.3398 84.4609L12.3398 84.4609L12.3398 84.4609L11.3398 84.4609ZM11.3398 90.5078H10.3398V91.5078H11.3398V90.5078ZM53 90.5078H54V89.5078H53V90.5078ZM53 102.848V103.848H54V102.848H53ZM1.81249 102.848L0.812492 102.848L0.812492 103.848H1.81249V102.848ZM1.81249 84.4609L2.81249 84.4609L1.81249 84.4609ZM2.6914 75.9883L3.66473 76.2178L3.66671 76.2091L2.6914 75.9883ZM5.29296 69.6602L6.12156 70.22L6.12501 70.2149L5.29296 69.6602ZM9.72265 65.6523L10.1792 66.5421L10.184 66.5396L9.72265 65.6523ZM26.2812 70.082L27.1591 69.6032L27.1572 69.5997L26.2812 70.082ZM28.0391 78.5547L27.0391 78.5678L27.0442 78.9558L27.3098 79.2389L28.0391 78.5547ZM53 82.457L54 82.457V82.457L53 82.457ZM53 98.1367L52.5939 99.0505L54 99.6755V98.1367H53ZM43.5078 93.918H42.5078V94.5678L43.1017 94.8318L43.5078 93.918ZM43.5078 82.457L44.5078 82.457V82.457L43.5078 82.457ZM42.7344 78.4141L43.6246 77.9586L43.6206 77.9508L42.7344 78.4141ZM40.625 76.1992L40.1592 77.0842L40.1682 77.0888L40.625 76.1992ZM37.6719 75.4961L37.6719 76.4961L37.6719 75.4961ZM34.2617 76.1641L34.6637 77.0797L34.673 77.0756L34.6822 77.0714L34.2617 76.1641ZM32.0469 78.2031L32.9138 78.7016L32.9185 78.6934L32.9231 78.685L32.0469 78.2031ZM31.2383 92.3359L31.2296 93.3359L32.2383 93.3447L32.2383 92.3359L31.2383 92.3359ZM23.1523 92.2656L22.1523 92.2656L22.1523 93.257L23.1436 93.2656L23.1523 92.2656ZM23.1523 79.8555L22.487 79.109L22.1523 79.4072L22.1523 79.8555L23.1523 79.8555ZM26.3867 76.9727L27.0521 77.7192L27.4053 77.4043L27.3859 76.9316L26.3867 76.9727ZM27.8281 68.8516L28.7033 69.3355L28.7056 69.3311L27.8281 68.8516ZM46.25 65.4062L45.7075 66.2463L45.7137 66.2503L46.25 65.4062ZM19.4258 48.707L18.4258 48.707L18.4258 49.707H19.4258V48.707ZM19.4258 37.7031L18.4258 37.7031L18.4258 37.7031L19.4258 37.7031ZM27.3008 19.7734L27.8573 20.6043L27.8627 20.6007L27.3008 19.7734ZM36.0195 17.2422L36.0195 18.2422L36.0195 17.2422ZM42.9101 18.6836L43.3325 17.7771L43.3286 17.7753L42.9101 18.6836ZM48.2891 22.832L49.054 22.1879L49.0532 22.187L48.2891 22.832ZM53 37.7031L54 37.7031V37.7031L53 37.7031ZM53 56.4062L53 57.4062L54 57.4062V56.4062H53ZM1.81249 56.4063L0.81249 56.4063L0.81249 57.4063L1.81249 57.4063L1.81249 56.4063ZM1.81249 44.0313L1.81249 43.0313L0.81249 43.0313L0.81249 44.0313L1.81249 44.0313ZM43.5078 44.0312L43.5078 45.0312L44.5078 45.0312V44.0312H43.5078ZM43.5078 37.7031L44.5078 37.7031V37.7031L43.5078 37.7031ZM42.4883 33.2734L41.6149 33.7605L41.619 33.7677L42.4883 33.2734ZM39.7812 30.4961L40.2715 29.6245L40.2638 29.6203L39.7812 30.4961ZM35.9492 29.5469L35.9492 28.5469L35.9492 29.5469ZM29.832 33.2734L30.723 33.7276L30.7264 33.7207L29.832 33.2734ZM28.918 37.7031L27.918 37.7031L27.918 37.7031L28.918 37.7031ZM28.918 48.707V49.707H29.918L29.918 48.707L28.918 48.707ZM1.81249 1.21094L1.81249 0.21094L0.812488 0.21094L0.812488 1.21094L1.81249 1.21094ZM53 1.21094H54V0.210937L53 0.210938L53 1.21094ZM53 13.5156L53 14.5156L54 14.5156V13.5156H53ZM1.81249 13.5156L0.812488 13.5156L0.812488 14.5156L1.81249 14.5156L1.81249 13.5156ZM26.3867 260.785H28.4609V258.785H26.3867V260.785ZM28.4609 260.785C32.2819 260.785 35.6821 261.323 38.6746 262.38L39.341 260.495C36.0992 259.349 32.4681 258.785 28.4609 258.785L28.4609 260.785ZM38.6787 262.382C41.6593 263.42 44.1882 264.891 46.2824 266.785L47.6238 265.301C45.3118 263.211 42.5439 261.611 39.3369 260.493L38.6787 262.382ZM46.2785 266.781C48.3533 268.677 49.9462 270.916 51.0621 273.505L52.8988 272.714C51.671 269.865 49.9123 267.393 47.6278 265.305L46.2785 266.781ZM51.0593 273.498C52.1502 276.081 52.7031 278.947 52.7031 282.109L54.7031 282.109C54.7031 278.709 54.1076 275.575 52.9017 272.72L51.0593 273.498ZM52.7031 282.109C52.7031 285.296 52.1499 288.187 51.0581 290.793L52.9028 291.566C54.1079 288.688 54.7031 285.532 54.7031 282.109L52.7031 282.109ZM51.0621 290.784C49.9457 293.374 48.3516 295.626 46.2742 297.547L47.6321 299.015C49.914 296.905 51.6715 294.423 52.8988 291.576L51.0621 290.784ZM46.2824 297.54C44.1866 299.435 41.6554 300.918 38.6724 301.98L39.3432 303.864C42.5477 302.723 45.3134 301.112 47.6238 299.023L46.2824 297.54ZM38.6809 301.977C35.6864 303.012 32.284 303.539 28.4609 303.539L28.4609 305.539C32.466 305.539 36.0948 304.988 39.3347 303.867L38.6809 301.977ZM28.4609 303.539H26.3867V305.539H28.4609V303.539ZM26.3867 303.539C22.5637 303.539 19.1612 303.012 16.1667 301.977L15.513 303.867C18.7529 304.988 22.3816 305.539 26.3867 305.539L26.3867 303.539ZM16.173 301.979C13.1648 300.916 10.6349 299.444 8.56482 297.574L7.22425 299.059C9.51352 301.126 12.2806 302.725 15.5067 303.865L16.173 301.979ZM8.56524 297.575C6.46961 295.68 4.87966 293.444 3.78837 290.861L1.946 291.639C3.15159 294.493 4.9132 296.969 7.22383 299.058L8.56524 297.575ZM3.78674 290.857C2.67342 288.252 2.10938 285.364 2.10937 282.18L0.109375 282.18C0.109375 285.605 0.717206 288.764 1.94764 291.643L3.78674 290.857ZM2.10937 282.18C2.10937 279.02 2.67309 276.156 3.78551 273.576L1.94886 272.784C0.717539 275.641 0.109375 278.777 0.109375 282.18L2.10937 282.18ZM3.78956 273.566C4.88129 270.959 6.4712 268.713 8.56524 266.82L7.22382 265.336C4.91161 267.427 3.14995 269.916 1.94481 272.793L3.78956 273.566ZM8.56918 266.816C10.6387 264.925 13.1671 263.443 16.173 262.38L15.5067 260.495C12.2782 261.636 9.5097 263.247 7.21989 265.34L8.56918 266.816ZM16.173 262.38C19.1656 261.323 22.5658 260.785 26.3867 260.785L26.3867 258.785C22.3795 258.785 18.7485 259.349 15.5067 260.495L16.173 262.38ZM28.4609 271.301H26.3164V273.301H28.4609V271.301ZM26.3164 271.301C23.7294 271.301 21.4243 271.528 19.411 271.995L19.8624 273.943C21.6929 273.519 23.8409 273.301 26.3164 273.301L26.3164 271.301ZM19.4248 271.991C17.3934 272.432 15.6458 273.103 14.2092 274.026L15.2908 275.708C16.4792 274.944 17.9894 274.349 19.8487 273.946L19.4248 271.991ZM14.2092 274.026C12.7684 274.952 11.6579 276.118 10.9127 277.529L12.6811 278.463C13.2483 277.39 14.1066 276.47 15.2908 275.708L14.2092 274.026ZM10.9235 277.509C10.1508 278.895 9.77734 280.461 9.77734 282.18L11.7773 282.18C11.7773 280.758 12.0836 279.535 12.6702 278.483L10.9235 277.509ZM9.77734 282.18C9.77734 283.961 10.1473 285.564 10.9235 286.956L12.6702 285.982C12.0871 284.936 11.7773 283.68 11.7773 282.18L9.77734 282.18ZM10.9164 286.943C11.6644 288.332 12.778 289.474 14.22 290.375L15.28 288.679C14.097 287.94 13.2418 287.043 12.6773 285.995L10.9164 286.943ZM14.22 290.375C15.6537 291.271 17.3974 291.928 19.4248 292.368L19.8487 290.413C17.9854 290.009 16.4713 289.424 15.28 288.679L14.22 290.375ZM19.4337 292.37C21.4383 292.785 23.7354 292.988 26.3164 292.988L26.3164 290.988C23.8349 290.988 21.6789 290.793 19.8397 290.411L19.4337 292.37ZM26.3164 292.988H28.4609V290.988H26.3164V292.988ZM28.4609 292.988C31.0195 292.988 33.3154 292.785 35.3413 292.37L34.94 290.411C33.0753 290.793 30.918 290.988 28.4609 290.988L28.4609 292.988ZM35.355 292.367C37.3594 291.927 39.0986 291.271 40.5506 290.38L39.5041 288.675C38.2842 289.424 36.7656 290.01 34.9262 290.414L35.355 292.367ZM40.5613 290.373C42.0196 289.452 43.1528 288.304 43.9241 286.921L42.1774 285.947C41.5894 287.001 40.7069 287.915 39.4934 288.682L40.5613 290.373ZM43.928 286.914C44.7002 285.502 45.0703 283.891 45.0703 282.109L43.0703 282.109C43.0703 283.609 42.7607 284.88 42.1735 285.954L43.928 286.914ZM45.0703 282.109C45.0703 280.39 44.6969 278.824 43.9241 277.439L42.1774 278.413C42.7641 279.465 43.0703 280.688 43.0703 282.109L45.0703 282.109ZM43.9241 277.439C43.1511 276.053 42.0142 274.914 40.5506 274.015L39.5041 275.719C40.7123 276.461 41.5911 277.362 42.1774 278.413L43.9241 277.439ZM40.5613 274.022C39.1066 273.103 37.3635 272.433 35.355 271.992L34.9262 273.945C36.7615 274.348 38.2762 274.944 39.4934 275.713L40.5613 274.022ZM35.3638 271.994C33.3294 271.528 31.0256 271.301 28.4609 271.301L28.4609 273.301C30.9119 273.301 33.0612 273.519 34.9175 273.944L35.3638 271.994ZM1.8125 232.625H53V230.625H1.8125V232.625ZM52 231.625L52 243.965L54 243.965L54 231.625L52 231.625ZM53 242.965H1.8125V244.965H53V242.965ZM2.8125 243.965L2.8125 231.625L0.812498 231.625L0.812498 243.965L2.8125 243.965ZM1.8125 217.227H11.3398V215.227H1.8125V217.227ZM10.3398 216.227L10.3398 259.012L12.3398 259.012L12.3398 216.227L10.3398 216.227ZM11.3398 258.012H1.8125V260.012H11.3398V258.012ZM2.8125 259.012L2.8125 216.227L0.812497 216.227L0.812499 259.012L2.8125 259.012ZM27.4961 190.211V199.035H29.4961V190.211H27.4961ZM28.4961 198.035H22.3086V200.035H28.4961V198.035ZM23.3086 199.035V192.496H21.3086V199.035H23.3086ZM23.3086 192.496C23.3086 190.877 23.0489 189.47 22.4557 188.34L20.6849 189.27C21.0761 190.015 21.3086 191.068 21.3086 192.496L23.3086 192.496ZM22.4465 188.323C21.8331 187.207 20.9529 186.365 19.8197 185.827L18.9616 187.634C19.7033 187.986 20.2763 188.527 20.6941 189.287L22.4465 188.323ZM19.8111 185.823C18.693 185.305 17.419 185.062 16.0156 185.062L16.0156 187.062C17.1904 187.062 18.1664 187.265 18.9702 187.638L19.8111 185.823ZM16.0156 185.062C14.8647 185.063 13.7899 185.374 12.8116 185.989L13.8759 187.683C14.5382 187.266 15.2446 187.063 16.0156 187.062L16.0156 185.062ZM12.8293 185.978C11.8101 186.59 11.0326 187.517 10.4725 188.69L12.2775 189.552C12.7018 188.663 13.2368 188.066 13.8582 187.693L12.8293 185.978ZM10.4725 188.69C9.89598 189.898 9.63671 191.371 9.63671 193.059L11.6367 193.059C11.6367 191.559 11.8696 190.406 12.2775 189.552L10.4725 188.69ZM9.63671 193.059C9.63671 194.388 9.85428 195.628 10.3044 196.766L12.1643 196.031C11.8176 195.154 11.6367 194.167 11.6367 193.059L9.63671 193.059ZM10.3044 196.766C10.7621 197.924 11.4523 198.877 12.3883 199.586L13.596 197.992C12.9852 197.529 12.5035 196.889 12.1643 196.031L10.3044 196.766ZM12.3765 199.577C13.3329 200.324 14.4987 200.668 15.8047 200.668L15.8047 198.668C14.8606 198.668 14.1514 198.426 13.6078 198.001L12.3765 199.577ZM14.8047 199.668L14.8047 211.973L16.8047 211.973L16.8047 199.668L14.8047 199.668ZM15.8047 210.973C13.6591 210.973 11.7795 210.503 10.1399 209.588L9.16477 211.334C11.1345 212.434 13.3565 212.973 15.8047 212.973L15.8047 210.973ZM10.1399 209.588C8.46608 208.653 7.03863 207.381 5.85466 205.758L4.23908 206.937C5.58636 208.783 7.22923 210.253 9.16477 211.334L10.1399 209.588ZM5.85841 205.763C4.66567 204.107 3.75223 202.197 3.12483 200.023L1.20329 200.578C1.88839 202.952 2.89683 205.073 4.23534 206.932L5.85841 205.763ZM3.12296 200.017C2.47203 197.817 2.14453 195.499 2.14453 193.059L0.144527 193.059C0.144527 195.68 0.496708 198.19 1.20516 200.585L3.12296 200.017ZM2.14453 193.059C2.14453 190.2 2.45341 187.64 3.05982 185.372L1.12767 184.855C0.468455 187.321 0.144527 190.058 0.144527 193.059L2.14453 193.059ZM3.06217 185.363C3.64575 183.096 4.51252 181.187 5.64661 179.617L4.02525 178.446C2.72184 180.25 1.7605 182.397 1.12532 184.864L3.06217 185.363ZM5.65042 179.611C6.77702 178.03 8.17577 176.827 9.85346 175.988L8.95903 174.199C6.98047 175.189 5.33235 176.611 4.02145 178.451L5.65042 179.611ZM9.85809 175.986C11.4994 175.155 13.4372 174.723 15.6992 174.723L15.6992 172.723C13.18 172.723 10.9225 173.205 8.9544 174.202L9.85809 175.986ZM15.6992 174.723C17.2994 174.723 18.7945 175.084 20.1983 175.807L21.1142 174.029C19.4242 173.158 17.6147 172.723 15.6992 172.723L15.6992 174.723ZM20.209 175.812C21.6177 176.517 22.8668 177.535 23.956 178.886L25.5128 177.63C24.2582 176.074 22.7885 174.866 21.1035 174.024L20.209 175.812ZM23.956 178.886C25.0425 180.233 25.9154 181.87 26.563 183.812L28.4604 183.18C27.7486 181.045 26.77 179.189 25.5128 177.63L23.956 178.886ZM26.5608 183.806C27.1798 185.707 27.4961 187.839 27.4961 190.211L29.4961 190.211C29.4961 187.661 29.1561 185.317 28.4626 183.187L26.5608 183.806ZM26.3672 199.035V190.211H24.3672V199.035H26.3672ZM26.3672 190.211C26.3672 187.538 26.653 185.192 27.2104 183.163L25.2818 182.634C24.6673 184.87 24.3672 187.4 24.3672 190.211L26.3672 190.211ZM27.2104 183.163C27.7687 181.131 28.5739 179.448 29.6079 178.09L28.0171 176.878C26.8011 178.474 25.8953 180.4 25.2818 182.634L27.2104 183.163ZM29.6125 178.084C30.6408 176.713 31.9064 175.683 33.4176 174.981L32.5746 173.167C30.7576 174.012 29.2342 175.255 28.0125 176.884L29.6125 178.084ZM33.4225 174.979C34.9083 174.278 36.6451 173.914 38.6562 173.914L38.6562 171.914C36.4017 171.914 34.3651 172.323 32.5697 173.17L33.4225 174.979ZM38.6562 173.914C40.9023 173.914 42.8689 174.386 44.5812 175.307L45.5281 173.545C43.4904 172.45 41.1915 171.914 38.6562 171.914L38.6562 173.914ZM44.5853 175.309C46.2924 176.216 47.7474 177.504 48.9519 179.191L50.5794 178.028C49.2057 176.105 47.5201 174.604 45.5241 173.543L44.5853 175.309ZM48.9519 179.191C50.1615 180.884 51.0875 182.904 51.7174 185.265L53.6498 184.75C52.9671 182.19 51.9478 179.944 50.5794 178.028L48.9519 179.191ZM51.718 185.268C52.3481 187.608 52.668 190.203 52.668 193.059L54.668 193.059C54.668 190.055 54.3316 187.282 53.6492 184.748L51.718 185.268ZM52.668 193.059C52.668 195.346 52.3963 197.623 51.8518 199.892L53.7966 200.358C54.3771 197.94 54.668 195.506 54.668 193.059L52.668 193.059ZM51.8547 199.88C51.2927 202.105 50.4418 204.117 49.3061 205.92L50.9986 206.986C52.2535 204.993 53.1838 202.785 53.7938 200.37L51.8547 199.88ZM49.3061 205.92C48.191 207.691 46.7657 209.104 45.0246 210.171L46.0692 211.876C48.0781 210.646 49.723 209.012 50.9986 206.986L49.3061 205.92ZM45.0324 210.166C43.3414 211.181 41.2771 211.711 38.7969 211.711L38.7969 213.711C41.5666 213.711 44.0024 213.116 46.0614 211.881L45.0324 210.166ZM39.7969 212.711V200.336H37.7969V212.711H39.7969ZM38.7969 201.336C40.0408 201.336 41.1761 200.963 42.1705 200.225L40.9779 198.619C40.3317 199.099 39.6154 199.336 38.7969 199.336L38.7969 201.336ZM42.185 200.214C43.1609 199.461 43.9026 198.446 44.428 197.212L42.5877 196.429C42.1755 197.397 41.6282 198.117 40.9634 198.63L42.185 200.214ZM44.428 197.212C44.9578 195.967 45.2109 194.576 45.2109 193.059L43.2109 193.059C43.2109 194.353 42.9953 195.471 42.5877 196.429L44.428 197.212ZM45.2109 193.059C45.2109 191.318 44.9379 189.775 44.3498 188.465L42.5252 189.285C42.9683 190.271 43.2109 191.518 43.2109 193.059L45.2109 193.059ZM44.3528 188.472C43.7762 187.162 42.9641 186.111 41.8928 185.378L40.7634 187.028C41.4734 187.514 42.0675 188.244 42.5222 189.278L44.3528 188.472ZM41.8928 185.378C40.836 184.655 39.6549 184.289 38.375 184.289L38.375 186.289C39.2514 186.289 40.039 186.533 40.7634 187.028L41.8928 185.378ZM38.375 184.289C37.0359 184.289 35.8498 184.449 34.8443 184.803L35.5073 186.69C36.2362 186.433 37.1828 186.289 38.375 186.289L38.375 184.289ZM34.8521 184.8C33.8235 185.152 32.9531 185.696 32.2822 186.455L33.7802 187.78C34.1876 187.319 34.7468 186.95 35.4995 186.692L34.8521 184.8ZM32.2964 186.439C31.6069 187.186 31.1371 188.102 30.8673 189.154L32.8046 189.651C33.0036 188.875 33.3306 188.267 33.766 187.795L32.2964 186.439ZM30.8754 189.124C30.5856 190.125 30.4492 191.254 30.4492 192.496L32.4492 192.496C32.4492 191.395 32.5707 190.461 32.7965 189.68L30.8754 189.124ZM30.4492 192.496V199.035H32.4492V192.496H30.4492ZM31.4492 198.035H25.3672V200.035H31.4492V198.035ZM20.4258 157.973V146.969H18.4258V157.973H20.4258ZM20.4258 146.969C20.4258 142.93 21.099 139.466 22.4118 136.551L20.5882 135.73C19.1354 138.956 18.4258 142.711 18.4258 146.969L20.4258 146.969ZM22.4118 136.551C23.7277 133.629 25.5473 131.417 27.8573 129.87L26.7443 128.208C24.0855 129.989 22.0379 132.511 20.5882 135.73L22.4118 136.551ZM27.8627 129.866C30.1635 128.303 32.8692 127.508 36.0195 127.508L36.0195 125.508C32.5136 125.508 29.4068 126.4 26.7389 128.212L27.8627 129.866ZM36.0195 127.508C38.3963 127.508 40.5487 127.962 42.4917 128.857L43.3286 127.041C41.0997 126.014 38.6584 125.508 36.0195 125.508L36.0195 127.508ZM42.4878 128.856C44.4137 129.753 46.0915 131.045 47.5249 132.743L49.0532 131.453C47.4398 129.541 45.5316 128.067 43.3325 127.043L42.4878 128.856ZM47.5241 132.742C48.9312 134.413 50.0334 136.44 50.8191 138.842L52.72 138.22C51.865 135.607 50.6469 133.345 49.054 131.454L47.5241 132.742ZM50.8191 138.842C51.6012 141.233 52 143.939 52 146.969L54 146.969C54 143.765 53.5784 140.845 52.72 138.22L50.8191 138.842ZM52 146.969L52 165.672L54 165.672L54 146.969L52 146.969ZM53 164.672H1.81249V166.672H53V164.672ZM2.81249 165.672L2.81249 153.297L0.812494 153.297L0.812495 165.672L2.81249 165.672ZM1.81249 154.297H43.5078V152.297H1.81249V154.297ZM44.5078 153.297L44.5078 146.969L42.5078 146.969L42.5078 153.297L44.5078 153.297ZM44.5078 146.969C44.5078 145.085 44.1436 143.427 43.3576 142.045L41.619 143.033C42.1923 144.042 42.5078 145.337 42.5078 146.969L44.5078 146.969ZM43.3616 142.052C42.5997 140.686 41.5702 139.621 40.2715 138.89L39.291 140.633C40.2423 141.168 41.0175 141.955 41.6149 143.026L43.3616 142.052ZM40.2638 138.886C38.9569 138.166 37.5116 137.812 35.9492 137.812L35.9492 139.812C37.1993 139.812 38.3087 140.092 39.2986 140.638L40.2638 138.886ZM35.9492 137.812C34.4282 137.813 33.0397 138.169 31.8136 138.904L32.8426 140.619C33.7259 140.089 34.7515 139.813 35.9492 139.812L35.9492 137.812ZM31.8136 138.904C30.5786 139.645 29.6225 140.722 28.9376 142.092L30.7265 142.986C31.2603 141.919 31.9683 141.144 32.8426 140.619L31.8136 138.904ZM28.9411 142.085C28.2413 143.458 27.918 145.1 27.918 146.969L29.918 146.969C29.918 145.322 30.204 144.011 30.7229 142.993L28.9411 142.085ZM27.918 146.969V157.973H29.918V146.969H27.918ZM28.918 156.973H19.4258V158.973H28.918V156.973ZM1.81249 111.477H53V109.477H1.81249V111.477ZM52 110.477V122.781H54V110.477H52ZM53 121.781H1.81249V123.781H53V121.781ZM2.81249 122.781L2.81249 110.477L0.812492 110.477L0.812493 122.781L2.81249 122.781ZM30.2383 81.9648L30.2383 95.1484L32.2383 95.1484L32.2383 81.9648L30.2383 81.9648ZM31.2296 94.1485L23.1436 94.2188L23.161 96.2187L31.247 96.1484L31.2296 94.1485ZM24.1523 95.2187L24.1523 84.5312L22.1523 84.5313L22.1523 95.2188L24.1523 95.2187ZM24.1523 84.5312C24.1523 82.5511 23.937 80.8844 23.4582 79.581L21.5809 80.2706C21.9458 81.264 22.1523 82.6677 22.1523 84.5313L24.1523 84.5312ZM23.4519 79.5643C22.9471 78.2624 22.1803 77.2321 21.1074 76.5764L20.0645 78.283C20.679 78.6585 21.2013 79.2922 21.5872 80.2873L23.4519 79.5643ZM21.1243 76.587C20.0822 75.9212 18.8282 75.6211 17.4219 75.6211L17.4219 77.6211C18.5468 77.6211 19.4021 77.86 20.0475 78.2724L21.1243 76.587ZM17.4219 75.6211C15.8552 75.6211 14.4853 75.9103 13.3884 76.5742L14.424 78.2852C15.1085 77.8709 16.0823 77.6211 17.4219 77.6211L17.4219 75.6211ZM13.3884 76.5742C12.26 77.2572 11.4851 78.3236 11.0259 79.6742L12.9194 80.318C13.2571 79.3249 13.7713 78.6803 14.424 78.2852L13.3884 76.5742ZM11.034 79.6513C10.5567 80.9505 10.3398 82.5676 10.3398 84.4609L12.3398 84.4609C12.3398 82.698 12.5448 81.3386 12.9113 80.3409L11.034 79.6513ZM10.3398 84.4609V90.5078H12.3398V84.4609H10.3398ZM11.3398 91.5078H53V89.5078H11.3398V91.5078ZM52 90.5078V102.848H54V90.5078H52ZM53 101.848H1.81249V103.848H53V101.848ZM2.81249 102.848L2.81249 84.4609L0.812491 84.4609L0.812492 102.848L2.81249 102.848ZM2.81249 84.4609C2.81249 81.3566 3.10013 78.6116 3.66469 76.2178L1.7181 75.7587C1.11079 78.3337 0.812491 81.2372 0.812491 84.4609L2.81249 84.4609ZM3.66671 76.2091C4.20756 73.8204 5.0325 71.8318 6.12155 70.22L4.46437 69.1003C3.20967 70.9573 2.30023 73.1875 1.71608 75.7675L3.66671 76.2091ZM6.12501 70.2149C7.20773 68.5908 8.55807 67.3739 10.1792 66.542L9.26609 64.7626C7.32472 65.7589 5.72194 67.2139 4.46091 69.1055L6.12501 70.2149ZM10.184 66.5396C11.7728 65.7134 13.6824 65.2813 15.9453 65.2812L15.9453 63.2812C13.4269 63.2813 11.1882 63.7632 9.26129 64.7651L10.184 66.5396ZM15.9453 65.2812C17.8835 65.2812 19.6903 65.6938 21.3784 66.5162L22.2544 64.7182C20.2862 63.7594 18.179 63.2812 15.9453 63.2812L15.9453 65.2812ZM21.3784 66.5162C22.9909 67.3017 24.3388 68.6274 25.4052 70.5643L27.1572 69.5997C25.9268 67.3648 24.2982 65.7139 22.2544 64.7182L21.3784 66.5162ZM25.4033 70.5609C26.4199 72.4246 26.9934 75.0664 27.0391 78.5678L29.039 78.5416C28.991 74.8711 28.3926 71.8645 27.1591 69.6032L25.4033 70.5609ZM27.3098 79.2389L30.509 82.649L31.9676 81.2807L28.7684 77.8705L27.3098 79.2389ZM52 82.457V98.1367H54V82.457H52ZM53.4061 97.2229L43.9139 93.0042L43.1017 94.8318L52.5939 99.0505L53.4061 97.2229ZM44.5078 93.918V82.457H42.5078V93.918H44.5078ZM44.5078 82.457C44.5078 80.6826 44.2391 79.1596 43.6246 77.9586L41.8441 78.8695C42.2609 79.6842 42.5078 80.8565 42.5078 82.457L44.5078 82.457ZM43.6206 77.9508C43.0048 76.7728 42.166 75.8664 41.0818 75.3097L40.1682 77.0888C40.8183 77.4226 41.3858 77.9928 41.8481 78.8773L43.6206 77.9508ZM41.0907 75.3143C40.0464 74.7646 38.9004 74.4961 37.6719 74.4961L37.6719 76.4961C38.5996 76.4961 39.4224 76.6963 40.1592 77.0841L41.0907 75.3143ZM37.6719 74.4961C36.248 74.4961 34.9616 74.7376 33.8413 75.2568L34.6822 77.0714C35.4837 76.6999 36.4707 76.4961 37.6719 76.4961L37.6719 74.4961ZM33.8597 75.2484C32.6931 75.7606 31.7901 76.595 31.1706 77.7212L32.9231 78.685C33.3349 77.9363 33.9085 77.4113 34.6637 77.0797L33.8597 75.2484ZM31.18 77.7047C30.523 78.8472 30.2383 80.2937 30.2383 81.9648L32.2383 81.9648C32.2383 80.4954 32.4926 79.434 32.9138 78.7016L31.18 77.7047ZM30.2383 81.9648L30.2383 92.3359L32.2383 92.3359L32.2383 81.9648L30.2383 81.9648ZM31.247 91.336L23.161 91.2657L23.1436 93.2656L31.2296 93.3359L31.247 91.336ZM24.1523 92.2656L24.1523 79.8555L22.1523 79.8555L22.1523 92.2656L24.1523 92.2656ZM23.8177 80.602L27.0521 77.7192L25.7213 76.2261L22.487 79.109L23.8177 80.602ZM27.3859 76.9316C27.2492 73.607 27.7243 71.1059 28.7032 69.3355L26.953 68.3677C25.7288 70.5816 25.2429 73.4946 25.3876 77.0137L27.3859 76.9316ZM28.7056 69.3311C29.7222 67.4711 31.0314 66.1923 32.6206 65.4287L31.7544 63.626C29.7342 64.5967 28.1372 66.2008 26.9506 68.372L28.7056 69.3311ZM32.6206 65.4287C34.2925 64.6253 36.0315 64.2266 37.8476 64.2266L37.8476 62.2266C35.7263 62.2266 33.6918 62.695 31.7544 63.626L32.6206 65.4287ZM37.8476 64.2266C41.055 64.2266 43.6554 64.921 45.7075 66.2463L46.7925 64.5662C44.3446 62.9852 41.3434 62.2266 37.8476 62.2266L37.8476 64.2266ZM45.7137 66.2503C47.7586 67.5497 49.3222 69.5124 50.3819 72.206L52.2431 71.4737C51.0528 68.4485 49.2414 66.1222 46.7863 64.5622L45.7137 66.2503ZM50.3819 72.206C51.4474 74.9141 52 78.32 52 82.457L54 82.457C54 78.1566 53.4276 74.4844 52.2431 71.4737L50.3819 72.206ZM20.4258 48.707L20.4258 37.7031L18.4258 37.7031L18.4258 48.707L20.4258 48.707ZM20.4258 37.7031C20.4258 33.6643 21.099 30.2006 22.4118 27.2857L20.5882 26.4643C19.1354 29.6901 18.4258 33.4451 18.4258 37.7031L20.4258 37.7031ZM22.4118 27.2857C23.7277 24.3638 25.5473 22.1515 27.8573 20.6043L26.7443 18.9426C24.0855 20.7235 22.0379 23.2456 20.5882 26.4643L22.4118 27.2857ZM27.8627 20.6007C30.1635 19.0378 32.8692 18.2422 36.0195 18.2422L36.0195 16.2422C32.5136 16.2422 29.4068 17.1341 26.7389 18.9462L27.8627 20.6007ZM36.0195 18.2422C38.3963 18.2422 40.5487 18.6967 42.4917 19.5919L43.3286 17.7753C41.0997 16.7486 38.6583 16.2422 36.0195 16.2422L36.0195 18.2422ZM42.4878 19.59C44.4137 20.4873 46.0914 21.779 47.5249 23.4771L49.0532 22.187C47.4398 20.2757 45.5316 18.8017 43.3325 17.7771L42.4878 19.59ZM47.5241 23.4762C48.9312 25.1471 50.0334 27.1745 50.8191 29.5765L52.72 28.9547C51.865 26.3411 50.6469 24.0795 49.054 22.1879L47.5241 23.4762ZM50.8191 29.5765C51.6012 31.9677 52 34.6729 52 37.7031L54 37.7031C54 34.499 53.5784 31.5792 52.72 28.9547L50.8191 29.5765ZM52 37.7031V56.4062H54V37.7031H52ZM53 55.4062L1.81249 55.4063L1.81249 57.4063L53 57.4062L53 55.4062ZM2.81249 56.4063L2.81249 44.0313L0.81249 44.0313L0.81249 56.4063L2.81249 56.4063ZM1.81249 45.0313L43.5078 45.0312L43.5078 43.0313L1.81249 43.0313L1.81249 45.0313ZM44.5078 44.0312V37.7031H42.5078V44.0312H44.5078ZM44.5078 37.7031C44.5078 35.8193 44.1436 34.1615 43.3576 32.7791L41.619 33.7677C42.1923 34.776 42.5078 36.0714 42.5078 37.7031L44.5078 37.7031ZM43.3616 32.7864C42.5997 31.4201 41.5702 30.355 40.2715 29.6245L39.291 31.3677C40.2423 31.9028 41.0175 32.6892 41.6149 33.7605L43.3616 32.7864ZM40.2638 29.6203C38.9569 28.9001 37.5116 28.5469 35.9492 28.5469L35.9492 30.5469C37.1993 30.5469 38.3087 30.8264 39.2986 31.3719L40.2638 29.6203ZM35.9492 28.5469C34.4282 28.5469 33.0397 28.9029 31.8136 29.6386L32.8426 31.3536C33.7259 30.8236 34.7514 30.5469 35.9492 30.5469L35.9492 28.5469ZM31.8136 29.6386C30.5786 30.3796 29.6225 31.4563 28.9376 32.8262L30.7264 33.7207C31.2603 32.653 31.9683 31.8782 32.8426 31.3536L31.8136 29.6386ZM28.9411 32.8193C28.2413 34.192 27.918 35.8346 27.918 37.7031L29.918 37.7031C29.918 36.056 30.204 34.7455 30.7229 33.7276L28.9411 32.8193ZM27.918 37.7031L27.918 48.707L29.918 48.707L29.918 37.7031L27.918 37.7031ZM28.918 47.707H19.4258V49.707H28.918V47.707ZM1.81249 2.21094L53 2.21094L53 0.210938L1.81249 0.21094L1.81249 2.21094ZM52 1.21094V13.5156H54V1.21094H52ZM53 12.5156L1.81249 12.5156L1.81249 14.5156L53 14.5156L53 12.5156ZM2.81249 13.5156L2.81249 1.21094L0.812488 1.21094L0.812488 13.5156L2.81249 13.5156Z" fill="#161617" mask="url(#path-1-outside-1_1826_53)"/>
</svg>
