<svg width="55" height="279" viewBox="0 0 55 279" fill="none" xmlns="http://www.w3.org/2000/svg">
<mask id="path-1-outside-1_1826_55" maskUnits="userSpaceOnUse" x="0.144531" y="0.0546875" width="55" height="279" fill="black">
<rect fill="white" x="0.144531" y="0.0546875" width="55" height="279"/>
<path d="M28.4961 255.32V264.145H22.3086V257.605C22.3086 256.082 22.0625 254.852 21.5703 253.914C21.0547 252.977 20.3281 252.285 19.3906 251.84C18.4297 251.395 17.3047 251.172 16.0156 251.172C15.0547 251.172 14.1641 251.43 13.3438 251.945C12.5234 252.438 11.8672 253.199 11.375 254.23C10.8828 255.262 10.6367 256.574 10.6367 258.168C10.6367 259.387 10.8359 260.5 11.2344 261.508C11.6328 262.516 12.2188 263.313 12.9922 263.898C13.7422 264.484 14.6797 264.777 15.8047 264.777L15.8047 277.082C13.5078 277.082 11.457 276.578 9.65234 275.57C7.84766 274.563 6.3125 273.191 5.04688 271.457C3.78125 269.699 2.82031 267.684 2.16406 265.41C1.48438 263.113 1.14453 260.699 1.14453 258.168C1.14453 255.238 1.46094 252.59 2.09375 250.223C2.70312 247.855 3.61719 245.828 4.83594 244.141C6.05469 242.43 7.57812 241.117 9.40625 240.203C11.2109 239.289 13.3086 238.832 15.6992 238.832C17.457 238.832 19.1094 239.23 20.6562 240.027C22.2031 240.801 23.5625 241.914 24.7344 243.367C25.9063 244.82 26.832 246.566 27.5117 248.605C28.168 250.621 28.4961 252.859 28.4961 255.32ZM25.3672 264.145V255.32C25.3672 252.578 25.6602 250.141 26.2461 248.008C26.832 245.875 27.6875 244.07 28.8125 242.594C29.9375 241.094 31.332 239.957 32.9961 239.184C34.6367 238.41 36.5234 238.023 38.6562 238.023C41.0469 238.023 43.1797 238.527 45.0547 239.535C46.9062 240.52 48.4766 241.914 49.7656 243.719C51.0547 245.523 52.0273 247.656 52.6836 250.117C53.3398 252.555 53.668 255.238 53.668 258.168C53.668 260.535 53.3867 262.891 52.8242 265.234C52.2383 267.555 51.3477 269.664 50.1523 271.562C48.957 273.461 47.4219 274.984 45.5469 276.133C43.6719 277.258 41.4219 277.82 38.7969 277.82V265.445C39.8281 265.445 40.7539 265.141 41.5742 264.531C42.3945 263.898 43.0391 263.031 43.5078 261.93C43.9766 260.828 44.2109 259.574 44.2109 258.168C44.2109 256.527 43.9531 255.133 43.4375 253.984C42.9219 252.812 42.2188 251.922 41.3281 251.312C40.4375 250.703 39.4531 250.398 38.375 250.398C37.1094 250.398 36.043 250.551 35.1758 250.855C34.2852 251.16 33.5703 251.617 33.0312 252.227C32.4688 252.836 32.0703 253.598 31.8359 254.512C31.5781 255.402 31.4492 256.434 31.4492 257.605V264.145H25.3672ZM12.5703 209.055L53 221.535V234.789L1.8125 215.98L1.8125 207.578L12.5703 209.055ZM53 198.719L12.5703 211.234L1.8125 212.852L1.8125 204.344L53 185.43V198.719ZM33.9102 199.211H43.4375L43.4375 225.473H33.9102L33.9102 199.211ZM35.0352 155.02V168.695L33.5234 172.352C32.2109 176.523 30.2656 179.699 27.6875 181.879C25.0859 184.059 21.7695 185.148 17.7383 185.148C14.2227 185.148 11.293 184.363 8.94922 182.793C6.58203 181.223 4.80078 178.996 3.60547 176.113C2.41015 173.23 1.8125 169.809 1.8125 165.848L1.8125 147.285H53V159.66H11.3398L11.3398 165.848C11.3398 168.309 11.9844 170.09 13.2734 171.191C14.5391 172.293 16.3906 172.844 18.8281 172.844C20.7031 172.844 22.1797 172.586 23.2578 172.07C24.3359 171.531 25.1094 170.746 25.5781 169.715C26.0234 168.684 26.2461 167.395 26.2461 165.848V155.09L35.0352 155.02ZM30.4297 164.512L53 175.375V188.805L30.4297 178.082V164.512ZM31.2383 119.582V132.766L23.1523 132.836V122.148C23.1523 120.227 22.9414 118.691 22.5195 117.543C22.0742 116.395 21.4297 115.562 20.5859 115.047C19.7422 114.508 18.6875 114.238 17.4219 114.238C15.9687 114.238 14.7969 114.508 13.9062 115.047C13.0156 115.586 12.3711 116.441 11.9726 117.613C11.5508 118.762 11.3398 120.25 11.3398 122.078V128.125H53L53 140.465H1.81249L1.81249 122.078C1.81249 118.914 2.10546 116.09 2.6914 113.605C3.2539 111.121 4.12109 109.012 5.29296 107.277C6.46484 105.52 7.9414 104.184 9.72265 103.27C11.4805 102.355 13.5547 101.898 15.9453 101.898C18.0312 101.898 19.9883 102.344 21.8164 103.234C23.6445 104.125 25.1328 105.613 26.2812 107.699C27.4062 109.762 27.9922 112.586 28.0391 116.172L31.2383 119.582ZM53 120.074L53 135.754L43.5078 131.535L43.5078 120.074C43.5078 118.387 43.25 117.039 42.7344 116.031C42.1953 115 41.4922 114.262 40.625 113.816C39.7344 113.348 38.75 113.113 37.6719 113.113C36.3594 113.113 35.2226 113.336 34.2617 113.781C33.3008 114.203 32.5625 114.883 32.0469 115.82C31.5078 116.758 31.2383 118.012 31.2383 119.582V129.953L23.1523 129.883V117.473L26.3867 114.59C26.2461 111.168 26.7266 108.461 27.8281 106.469C28.9297 104.453 30.3828 103.012 32.1875 102.145C33.9922 101.277 35.8789 100.844 37.8476 100.844C41.1992 100.844 44 101.57 46.25 103.023C48.5 104.453 50.1875 106.598 51.3125 109.457C52.4375 112.316 53 115.855 53 120.074ZM1.81249 81.7539H53V94.0586H1.81249L1.81249 81.7539ZM1.81249 52.2227L32.75 70.6094V83.8984L21.6055 85.375V76.9727L1.81249 67.1289L1.81249 52.2227ZM53 65.0195L30.6055 77.0078L22.3437 68.043L53 50.4648V65.0195ZM12.5703 25.6797L53 38.1602L53 51.4141L1.81249 32.6055L1.81249 24.2031L12.5703 25.6797ZM53 15.3438L12.5703 27.8594L1.81249 29.4766L1.81249 20.9688L53 2.05469V15.3438ZM33.9101 15.8359L43.4375 15.8359V42.0977H33.9101V15.8359Z"/>
</mask>
<path d="M28.4961 255.32L29.4961 255.32L29.4961 255.32L28.4961 255.32ZM28.4961 264.145V265.145H29.4961V264.145H28.4961ZM22.3086 264.145H21.3086V265.145H22.3086V264.145ZM22.3086 257.605L23.3086 257.605L23.3086 257.605L22.3086 257.605ZM21.5703 253.914L22.4557 253.449L22.4512 253.441L22.4465 253.432L21.5703 253.914ZM19.3906 251.84L19.8197 250.937L19.8111 250.933L19.3906 251.84ZM16.0156 251.172L16.0156 250.172L16.0156 251.172ZM13.3438 251.945L13.8582 252.803L13.8671 252.797L13.8759 252.792L13.3438 251.945ZM12.9922 263.898L13.6078 263.11L13.602 263.106L13.596 263.101L12.9922 263.898ZM15.8047 264.777L16.8047 264.777L16.8047 263.777L15.8047 263.777L15.8047 264.777ZM15.8047 277.082L15.8047 278.082L16.8047 278.082L16.8047 277.082L15.8047 277.082ZM5.04688 271.457L4.23532 272.041L4.23908 272.047L5.04688 271.457ZM2.16406 265.41L3.12486 265.133L3.12296 265.126L2.16406 265.41ZM1.14453 258.168L2.14453 258.168L1.14453 258.168ZM2.09375 250.223L3.05987 250.481L3.06218 250.472L2.09375 250.223ZM4.83594 244.141L5.64663 244.726L5.65042 244.721L4.83594 244.141ZM9.40625 240.203L9.85347 241.098L9.85809 241.095L9.40625 240.203ZM15.6992 238.832L15.6992 239.832L15.6992 238.832ZM20.6562 240.027L20.1983 240.916L20.209 240.922L20.6562 240.027ZM27.5117 248.605L28.4626 248.296L28.4604 248.289L27.5117 248.605ZM25.3672 264.145H24.3672V265.145H25.3672V264.145ZM25.3672 255.32L26.3672 255.32L26.3672 255.32L25.3672 255.32ZM28.8125 242.594L29.608 243.2L29.6125 243.194L28.8125 242.594ZM32.9961 239.184L33.4176 240.09L33.4225 240.088L32.9961 239.184ZM38.6562 238.023L38.6562 237.023L38.6562 238.023ZM45.0547 239.535L44.5812 240.416L44.5853 240.418L45.0547 239.535ZM52.6836 250.117L51.7174 250.375L51.718 250.377L52.6836 250.117ZM53.668 258.168L54.668 258.168L53.668 258.168ZM52.8242 265.234L53.7939 265.479L53.7966 265.468L52.8242 265.234ZM45.5469 276.133L46.0614 276.99L46.0692 276.986L45.5469 276.133ZM38.7969 277.82H37.7969V278.82L38.7969 278.82L38.7969 277.82ZM38.7969 265.445L38.7969 264.445L37.7969 264.445V265.445H38.7969ZM41.5742 264.531L42.1705 265.334L42.1778 265.329L42.185 265.323L41.5742 264.531ZM44.2109 258.168L43.2109 258.168L44.2109 258.168ZM43.4375 253.984L42.5222 254.387L42.5252 254.394L43.4375 253.984ZM38.375 250.398L38.375 251.398L38.375 250.398ZM35.1758 250.855L35.4995 251.802L35.5073 251.799L35.1758 250.855ZM33.0312 252.227L33.7661 252.905L33.7732 252.897L33.7802 252.889L33.0312 252.227ZM31.8359 254.512L32.7965 254.79L32.8008 254.775L32.8046 254.76L31.8359 254.512ZM31.4492 257.605L32.4492 257.605V257.605L31.4492 257.605ZM31.4492 264.145V265.145H32.4492V264.145H31.4492ZM12.5703 209.055L12.8653 208.099L12.7872 208.075L12.7063 208.064L12.5703 209.055ZM53 221.535H54V220.797L53.295 220.58L53 221.535ZM53 234.789L52.6551 235.728L54 236.222V234.789H53ZM1.8125 215.98L0.812498 215.98L0.812498 216.678L1.4676 216.919L1.8125 215.98ZM1.8125 207.578L1.94848 206.587L0.812498 206.431L0.812498 207.578L1.8125 207.578ZM53 198.719L53.2957 199.674L54 199.456V198.719H53ZM12.5703 211.234L12.719 212.223L12.7938 212.212L12.866 212.19L12.5703 211.234ZM1.8125 212.852L0.812498 212.852L0.812498 214.013L1.96115 213.84L1.8125 212.852ZM1.8125 204.344L1.4659 203.406L0.812498 203.647L0.812498 204.344L1.8125 204.344ZM53 185.43H54V183.994L52.6534 184.492L53 185.43ZM33.9102 199.211V198.211H32.9102L32.9102 199.211L33.9102 199.211ZM43.4375 199.211L44.4375 199.211L44.4375 198.211H43.4375V199.211ZM43.4375 225.473V226.473H44.4375L44.4375 225.473L43.4375 225.473ZM33.9102 225.473L32.9102 225.473L32.9102 226.473H33.9102V225.473ZM35.0352 155.02H36.0352V154.011L35.0272 154.02L35.0352 155.02ZM35.0352 168.695L35.9593 169.077L36.0352 168.894V168.695H35.0352ZM33.5234 172.352L32.5993 171.969L32.5826 172.01L32.5695 172.051L33.5234 172.352ZM27.6875 181.879L28.3297 182.645L28.3331 182.643L27.6875 181.879ZM17.7383 185.148L17.7383 186.148L17.7383 185.148ZM8.94922 182.793L9.50584 181.962L9.50201 181.96L8.94922 182.793ZM1.8125 165.848L2.8125 165.848L1.8125 165.848ZM1.8125 147.285V146.285H0.812495L0.812495 147.285L1.8125 147.285ZM53 147.285H54V146.285H53V147.285ZM53 159.66V160.66H54V159.66H53ZM11.3398 159.66V158.66H10.3398L10.3398 159.66L11.3398 159.66ZM11.3398 165.848L12.3398 165.848L12.3398 165.848L11.3398 165.848ZM13.2734 171.191L13.93 170.437L13.9231 170.431L13.2734 171.191ZM18.8281 172.844L18.8281 173.844L18.8281 172.844ZM23.2578 172.07L23.6893 172.972L23.6972 172.969L23.705 172.965L23.2578 172.07ZM25.5781 169.715L26.4885 170.129L26.4924 170.12L26.4962 170.111L25.5781 169.715ZM26.2461 165.848L25.2461 165.848L25.2461 165.848L26.2461 165.848ZM26.2461 155.09L26.2381 154.09L25.2461 154.098V155.09H26.2461ZM30.4297 164.512L30.8634 163.611L29.4297 162.921V164.512H30.4297ZM53 175.375H54V174.747L53.4337 174.474L53 175.375ZM53 188.805L52.5709 189.708L54 190.387V188.805H53ZM30.4297 178.082H29.4297V178.714L30.0006 178.985L30.4297 178.082ZM31.2383 119.582L32.2383 119.582V119.582L31.2383 119.582ZM31.2383 132.766L31.247 133.766L32.2383 133.757V132.766H31.2383ZM23.1523 132.836H22.1523V133.845L23.161 133.836L23.1523 132.836ZM23.1523 122.148L24.1523 122.148L24.1523 122.148L23.1523 122.148ZM22.5195 117.543L23.4582 117.198L23.4551 117.19L23.4519 117.181L22.5195 117.543ZM20.5859 115.047L20.0475 115.89L20.056 115.895L20.0645 115.9L20.5859 115.047ZM11.9726 117.613L12.9113 117.958L12.9155 117.947L12.9194 117.935L11.9726 117.613ZM11.3398 122.078L12.3398 122.078L12.3398 122.078L11.3398 122.078ZM11.3398 128.125H10.3398V129.125H11.3398V128.125ZM53 128.125L54 128.125L54 127.125H53V128.125ZM53 140.465V141.465H54L54 140.465L53 140.465ZM1.81249 140.465L0.812495 140.465L0.812495 141.465H1.81249V140.465ZM1.81249 122.078L0.812494 122.078L1.81249 122.078ZM2.6914 113.605L3.66474 113.835L3.66671 113.826L2.6914 113.605ZM5.29296 107.277L6.12157 107.837L6.12501 107.832L5.29296 107.277ZM9.72265 103.27L10.1792 104.159L10.184 104.157L9.72265 103.27ZM15.9453 101.898L15.9453 100.898L15.9453 101.898ZM26.2812 107.699L27.1591 107.22L27.1573 107.217L26.2812 107.699ZM28.0391 116.172L27.0391 116.185L27.0442 116.573L27.3098 116.856L28.0391 116.172ZM53 120.074L52 120.074L52 120.074L53 120.074ZM53 135.754L52.5939 136.668L54 137.293L54 135.754L53 135.754ZM43.5078 131.535L42.5078 131.535L42.5078 132.185L43.1017 132.449L43.5078 131.535ZM43.5078 120.074L42.5078 120.074L42.5078 120.074L43.5078 120.074ZM42.7344 116.031L43.6246 115.576L43.6206 115.568L42.7344 116.031ZM40.625 113.816L40.1592 114.701L40.1682 114.706L40.625 113.816ZM37.6719 113.113L37.6719 112.113L37.6719 113.113ZM34.2617 113.781L34.6637 114.697L34.673 114.693L34.6822 114.689L34.2617 113.781ZM32.0469 115.82L32.9138 116.319L32.9185 116.311L32.9231 116.302L32.0469 115.82ZM31.2383 129.953L31.2296 130.953L32.2383 130.962V129.953H31.2383ZM23.1523 129.883H22.1523V130.874L23.1436 130.883L23.1523 129.883ZM23.1523 117.473L22.487 116.726L22.1523 117.024V117.473H23.1523ZM26.3867 114.59L27.0521 115.336L27.4053 115.022L27.3859 114.549L26.3867 114.59ZM27.8281 106.469L28.7033 106.953L28.7056 106.948L27.8281 106.469ZM37.8476 100.844L37.8476 101.844L37.8476 100.844ZM46.25 103.023L45.7075 103.863L45.7137 103.867L46.25 103.023ZM1.81249 81.7539V80.7539H0.812492L0.812492 81.7539L1.81249 81.7539ZM53 81.7539H54V80.7539H53V81.7539ZM53 94.0586V95.0586H54V94.0586H53ZM1.81249 94.0586L0.812493 94.0586L0.812493 95.0586H1.81249V94.0586ZM1.81249 52.2227L2.32339 51.363L0.812491 50.4651L0.812491 52.2227L1.81249 52.2227ZM32.75 70.6094H33.75V70.0404L33.2609 69.7497L32.75 70.6094ZM32.75 83.8984L32.8813 84.8898L33.75 84.7747V83.8984H32.75ZM21.6055 85.375H20.6055V86.5162L21.7368 86.3663L21.6055 85.375ZM21.6055 76.9727H22.6055V76.3531L22.0508 76.0773L21.6055 76.9727ZM1.81249 67.1289L0.812491 67.1289L0.812492 67.7484L1.36719 68.0243L1.81249 67.1289ZM53 65.0195L53.4719 65.9012L54 65.6185V65.0195H53ZM30.6055 77.0078L29.8701 77.6855L30.3948 78.2549L31.0774 77.8894L30.6055 77.0078ZM22.3437 68.043L21.8463 67.1755L20.759 67.7989L21.6084 68.7206L22.3437 68.043ZM53 50.4648H54V48.7387L52.5026 49.5973L53 50.4648ZM12.5703 25.6797L12.8653 24.7242L12.7872 24.7001L12.7063 24.689L12.5703 25.6797ZM53 38.1602L54 38.1602L54 37.4223L53.295 37.2046L53 38.1602ZM53 51.4141L52.6551 52.3527L54 52.8469L54 51.4141L53 51.4141ZM1.81249 32.6055L0.81249 32.6055L0.81249 33.3034L1.46759 33.5441L1.81249 32.6055ZM1.81249 24.2031L1.94847 23.2124L0.81249 23.0565L0.81249 24.2031L1.81249 24.2031ZM53 15.3438L53.2957 16.299L54 16.081V15.3438H53ZM12.5703 27.8594L12.719 28.8483L12.7938 28.837L12.866 28.8147L12.5703 27.8594ZM1.81249 29.4766L0.81249 29.4766L0.81249 30.6381L1.96115 30.4655L1.81249 29.4766ZM1.81249 20.9688L1.46589 20.0307L0.812489 20.2722L0.812489 20.9688L1.81249 20.9688ZM53 2.05469H54V0.619098L52.6534 1.11667L53 2.05469ZM33.9101 15.8359L33.9101 14.8359L32.9101 14.8359V15.8359H33.9101ZM43.4375 15.8359H44.4375V14.8359L43.4375 14.8359L43.4375 15.8359ZM43.4375 42.0977V43.0977H44.4375V42.0977H43.4375ZM33.9101 42.0977H32.9101V43.0977H33.9101V42.0977ZM27.4961 255.32V264.145H29.4961V255.32H27.4961ZM28.4961 263.145H22.3086V265.145H28.4961V263.145ZM23.3086 264.145V257.605H21.3086V264.145H23.3086ZM23.3086 257.605C23.3086 255.986 23.0489 254.579 22.4557 253.449L20.6849 254.379C21.0761 255.124 21.3086 256.178 21.3086 257.605L23.3086 257.605ZM22.4465 253.432C21.8331 252.317 20.9529 251.475 19.8197 250.937L18.9616 252.743C19.7033 253.095 20.2763 253.636 20.6941 254.396L22.4465 253.432ZM19.8111 250.933C18.693 250.414 17.419 250.172 16.0156 250.172L16.0156 252.172C17.1904 252.172 18.1664 252.375 18.9702 252.747L19.8111 250.933ZM16.0156 250.172C14.8647 250.172 13.7899 250.484 12.8116 251.099L13.8759 252.792C14.5382 252.376 15.2446 252.172 16.0156 252.172L16.0156 250.172ZM12.8293 251.088C11.8101 251.699 11.0326 252.626 10.4725 253.8L12.2775 254.661C12.7018 253.772 13.2368 253.176 13.8582 252.803L12.8293 251.088ZM10.4725 253.8C9.89598 255.008 9.63672 256.48 9.63672 258.168L11.6367 258.168C11.6367 256.668 11.8696 255.516 12.2775 254.661L10.4725 253.8ZM9.63672 258.168C9.63672 259.497 9.85429 260.737 10.3044 261.875L12.1643 261.14C11.8176 260.263 11.6367 259.276 11.6367 258.168L9.63672 258.168ZM10.3044 261.875C10.7621 263.033 11.4523 263.986 12.3883 264.696L13.596 263.101C12.9852 262.639 12.5035 261.998 12.1643 261.14L10.3044 261.875ZM12.3765 264.686C13.3329 265.434 14.4987 265.777 15.8047 265.777L15.8047 263.777C14.8606 263.777 14.1514 263.535 13.6078 263.11L12.3765 264.686ZM14.8047 264.777L14.8047 277.082L16.8047 277.082L16.8047 264.777L14.8047 264.777ZM15.8047 276.082C13.6591 276.082 11.7795 275.613 10.1399 274.697L9.16478 276.443C11.1345 277.543 13.3565 278.082 15.8047 278.082L15.8047 276.082ZM10.1399 274.697C8.46608 273.762 7.03863 272.49 5.85467 270.868L4.23908 272.047C5.58637 273.893 7.22923 275.363 9.16478 276.443L10.1399 274.697ZM5.85841 270.873C4.66567 269.216 3.75223 267.306 3.12484 265.133L1.20329 265.687C1.88839 268.061 2.89683 270.182 4.23534 272.041L5.85841 270.873ZM3.12296 265.126C2.47204 262.927 2.14453 260.609 2.14453 258.168L0.144531 258.168C0.144531 260.79 0.496712 263.3 1.20517 265.694L3.12296 265.126ZM2.14453 258.168C2.14453 255.309 2.45342 252.749 3.05983 250.481L1.12767 249.964C0.468458 252.43 0.144531 255.168 0.144531 258.168L2.14453 258.168ZM3.06218 250.472C3.64575 248.205 4.51253 246.296 5.64662 244.726L4.02526 243.555C2.72185 245.36 1.7605 247.506 1.12532 249.973L3.06218 250.472ZM5.65042 244.721C6.77702 243.139 8.17578 241.936 9.85346 241.098L8.95904 239.309C6.98047 240.298 5.33235 241.72 4.02145 243.56L5.65042 244.721ZM9.85809 241.095C11.4994 240.264 13.4372 239.832 15.6992 239.832L15.6992 237.832C13.18 237.832 10.9225 238.314 8.95441 239.311L9.85809 241.095ZM15.6992 239.832C17.2994 239.832 18.7945 240.193 20.1983 240.916L21.1142 239.138C19.4242 238.268 17.6147 237.832 15.6992 237.832L15.6992 239.832ZM20.209 240.922C21.6177 241.626 22.8668 242.644 23.956 243.995L25.5128 242.739C24.2582 241.184 22.7885 239.975 21.1035 239.133L20.209 240.922ZM23.956 243.995C25.0425 245.342 25.9154 246.979 26.563 248.922L28.4604 248.289C27.7486 246.154 26.77 244.298 25.5128 242.739L23.956 243.995ZM26.5608 248.915C27.1798 250.816 27.4961 252.948 27.4961 255.32L29.4961 255.32C29.4961 252.771 29.1561 250.426 28.4626 248.296L26.5608 248.915ZM26.3672 264.145V255.32H24.3672V264.145H26.3672ZM26.3672 255.32C26.3672 252.647 26.653 250.302 27.2104 248.273L25.2818 247.743C24.6673 249.98 24.3672 252.509 24.3672 255.32L26.3672 255.32ZM27.2104 248.273C27.7687 246.24 28.5739 244.557 29.6079 243.2L28.0171 241.988C26.8011 243.584 25.8953 245.51 25.2818 247.743L27.2104 248.273ZM29.6125 243.194C30.6408 241.823 31.9064 240.793 33.4176 240.09L32.5746 238.277C30.7576 239.121 29.2342 240.365 28.0125 241.994L29.6125 243.194ZM33.4225 240.088C34.9083 239.388 36.6452 239.023 38.6563 239.023L38.6562 237.023C36.4017 237.023 34.3651 237.433 32.5697 238.279L33.4225 240.088ZM38.6563 239.023C40.9023 239.023 42.8689 239.496 44.5812 240.416L45.5281 238.654C43.4904 237.559 41.1915 237.023 38.6562 237.023L38.6563 239.023ZM44.5853 240.418C46.2924 241.326 47.7474 242.614 48.9519 244.3L50.5794 243.138C49.2057 241.214 47.5201 239.713 45.5241 238.652L44.5853 240.418ZM48.9519 244.3C50.1615 245.993 51.0875 248.013 51.7174 250.375L53.6498 249.86C52.9671 247.299 51.9478 245.053 50.5794 243.138L48.9519 244.3ZM51.718 250.377C52.3481 252.718 52.668 255.312 52.668 258.168L54.668 258.168C54.668 255.164 54.3316 252.392 53.6492 249.857L51.718 250.377ZM52.668 258.168C52.668 260.455 52.3963 262.732 51.8518 265.001L53.7966 265.468C54.3771 263.049 54.668 260.615 54.668 258.168L52.668 258.168ZM51.8547 264.99C51.2927 267.215 50.4418 269.226 49.3061 271.03L50.9986 272.095C52.2535 270.102 53.1838 267.895 53.7938 265.479L51.8547 264.99ZM49.3061 271.03C48.191 272.801 46.7657 274.214 45.0246 275.28L46.0692 276.986C48.0781 275.755 49.7231 274.121 50.9986 272.095L49.3061 271.03ZM45.0324 275.275C43.3414 276.29 41.2771 276.82 38.7969 276.82L38.7969 278.82C41.5666 278.82 44.0024 278.226 46.0614 276.99L45.0324 275.275ZM39.7969 277.82V265.445H37.7969V277.82H39.7969ZM38.7969 266.445C40.0408 266.445 41.1761 266.073 42.1705 265.334L40.9779 263.729C40.3317 264.209 39.6154 264.445 38.7969 264.445L38.7969 266.445ZM42.185 265.323C43.1609 264.57 43.9026 263.556 44.428 262.321L42.5877 261.538C42.1755 262.507 41.6282 263.227 40.9634 263.739L42.185 265.323ZM44.428 262.321C44.9578 261.076 45.2109 259.686 45.2109 258.168L43.2109 258.168C43.2109 259.463 42.9953 260.58 42.5877 261.538L44.428 262.321ZM45.2109 258.168C45.2109 256.427 44.9379 254.885 44.3498 253.575L42.5252 254.394C42.9683 255.381 43.2109 256.628 43.2109 258.168L45.2109 258.168ZM44.3528 253.582C43.7762 252.271 42.9641 251.22 41.8928 250.487L40.7634 252.138C41.4734 252.624 42.0675 253.354 42.5222 254.387L44.3528 253.582ZM41.8928 250.487C40.836 249.764 39.6549 249.398 38.375 249.398L38.375 251.398C39.2514 251.398 40.039 251.642 40.7634 252.138L41.8928 250.487ZM38.375 249.398C37.036 249.398 35.8498 249.559 34.8443 249.912L35.5073 251.799C36.2362 251.543 37.1828 251.398 38.375 251.398L38.375 249.398ZM34.8521 249.909C33.8235 250.261 32.9531 250.806 32.2823 251.564L33.7802 252.889C34.1876 252.429 34.7468 252.059 35.4995 251.802L34.8521 249.909ZM32.2964 251.548C31.6069 252.295 31.1371 253.211 30.8673 254.263L32.8046 254.76C33.0036 253.984 33.3306 253.377 33.7661 252.905L32.2964 251.548ZM30.8754 254.234C30.5856 255.235 30.4492 256.363 30.4492 257.605L32.4492 257.605C32.4492 256.504 32.5707 255.57 32.7965 254.79L30.8754 254.234ZM30.4492 257.605V264.145H32.4492V257.605H30.4492ZM31.4492 263.145H25.3672V265.145H31.4492V263.145ZM12.2753 210.01L52.705 222.491L53.295 220.58L12.8653 208.099L12.2753 210.01ZM52 221.535V234.789H54V221.535H52ZM53.3449 233.85L2.1574 215.042L1.4676 216.919L52.6551 235.728L53.3449 233.85ZM2.8125 215.98L2.8125 207.578L0.812498 207.578L0.812498 215.98L2.8125 215.98ZM1.67652 208.569L12.4343 210.045L12.7063 208.064L1.94848 206.587L1.67652 208.569ZM52.7043 197.763L12.2746 210.279L12.866 212.19L53.2957 199.674L52.7043 197.763ZM12.4217 210.245L1.66384 211.863L1.96115 213.84L12.719 212.223L12.4217 210.245ZM2.8125 212.852L2.8125 204.344L0.812498 204.344L0.812498 212.852L2.8125 212.852ZM2.1591 205.282L53.3466 186.368L52.6534 184.492L1.4659 203.406L2.1591 205.282ZM52 185.43V198.719H54V185.43H52ZM33.9102 200.211H43.4375V198.211H33.9102V200.211ZM42.4375 199.211L42.4375 225.473L44.4375 225.473L44.4375 199.211L42.4375 199.211ZM43.4375 224.473H33.9102V226.473H43.4375V224.473ZM34.9102 225.473L34.9102 199.211L32.9102 199.211L32.9102 225.473L34.9102 225.473ZM34.0352 155.02V168.695H36.0352V155.02H34.0352ZM34.111 168.313L32.5993 171.969L34.4476 172.734L35.9593 169.077L34.111 168.313ZM32.5695 172.051C31.2973 176.095 29.4385 179.089 27.0419 181.115L28.3331 182.643C31.0928 180.309 33.1246 176.952 34.4773 172.652L32.5695 172.051ZM27.0453 181.112C24.6562 183.114 21.5808 184.148 17.7383 184.148L17.7383 186.148C21.9582 186.148 25.5157 185.003 28.3297 182.645L27.0453 181.112ZM17.7383 184.148C14.3719 184.148 11.6485 183.398 9.50583 181.962L8.3926 183.624C10.9375 185.329 14.0734 186.148 17.7383 186.148L17.7383 184.148ZM9.50201 181.96C7.31674 180.51 5.65621 178.448 4.52921 175.73L2.68172 176.496C3.94535 179.544 5.84732 181.935 8.39642 183.626L9.50201 181.96ZM4.52921 175.73C3.39581 172.997 2.8125 169.711 2.8125 165.848L0.812496 165.848C0.812496 169.906 1.4245 173.464 2.68172 176.496L4.52921 175.73ZM2.8125 165.848L2.8125 147.285L0.812495 147.285L0.812496 165.848L2.8125 165.848ZM1.8125 148.285H53V146.285H1.8125V148.285ZM52 147.285V159.66H54V147.285H52ZM53 158.66H11.3398V160.66H53V158.66ZM10.3398 159.66L10.3398 165.848L12.3398 165.848L12.3398 159.66L10.3398 159.66ZM10.3398 165.848C10.3398 168.466 11.0267 170.587 12.6238 171.952L13.9231 170.431C12.942 169.593 12.3398 168.152 12.3398 165.848L10.3398 165.848ZM12.6169 171.946C14.1317 173.264 16.2565 173.844 18.8281 173.844L18.8281 171.844C16.5248 171.844 14.9464 171.322 13.93 170.437L12.6169 171.946ZM18.8281 173.844C20.7763 173.844 22.4214 173.579 23.6893 172.972L22.8264 171.168C21.938 171.593 20.63 171.844 18.8281 171.844L18.8281 173.844ZM23.705 172.965C24.9739 172.33 25.9186 171.382 26.4885 170.129L24.6678 169.301C24.3001 170.11 23.698 170.732 22.8106 171.176L23.705 172.965ZM26.4962 170.111C27.0118 168.917 27.2461 167.483 27.2461 165.848L25.2461 165.848C25.2461 167.306 25.035 168.45 24.6601 169.318L26.4962 170.111ZM27.2461 165.848V155.09H25.2461V165.848H27.2461ZM26.2541 156.09L35.0432 156.019L35.0272 154.02L26.2381 154.09L26.2541 156.09ZM29.996 165.413L52.5663 176.276L53.4337 174.474L30.8634 163.611L29.996 165.413ZM52 175.375V188.805H54V175.375H52ZM53.4291 187.901L30.8588 177.179L30.0006 178.985L52.5709 189.708L53.4291 187.901ZM31.4297 178.082V164.512H29.4297V178.082H31.4297ZM30.2383 119.582V132.766H32.2383V119.582H30.2383ZM31.2296 131.766L23.1436 131.836L23.161 133.836L31.247 133.766L31.2296 131.766ZM24.1523 132.836V122.148H22.1523V132.836H24.1523ZM24.1523 122.148C24.1523 120.168 23.937 118.502 23.4582 117.198L21.5809 117.888C21.9458 118.881 22.1523 120.285 22.1523 122.148L24.1523 122.148ZM23.4519 117.181C22.9471 115.88 22.1803 114.849 21.1074 114.194L20.0645 115.9C20.679 116.276 21.2013 116.909 21.5872 117.904L23.4519 117.181ZM21.1243 114.204C20.0822 113.538 18.8282 113.238 17.4219 113.238L17.4219 115.238C18.5468 115.238 19.4021 115.477 20.0475 115.89L21.1243 114.204ZM17.4219 113.238C15.8552 113.238 14.4853 113.527 13.3884 114.191L14.424 115.902C15.1085 115.488 16.0823 115.238 17.4219 115.238L17.4219 113.238ZM13.3884 114.191C12.26 114.874 11.4851 115.941 11.0259 117.291L12.9194 117.935C13.2571 116.942 13.7713 116.297 14.424 115.902L13.3884 114.191ZM11.034 117.268C10.5567 118.568 10.3398 120.185 10.3398 122.078L12.3398 122.078C12.3398 120.315 12.5448 118.956 12.9113 117.958L11.034 117.268ZM10.3398 122.078V128.125H12.3398V122.078H10.3398ZM11.3398 129.125H53V127.125H11.3398V129.125ZM52 128.125L52 140.465L54 140.465L54 128.125L52 128.125ZM53 139.465H1.81249V141.465H53V139.465ZM2.81249 140.465L2.81249 122.078L0.812494 122.078L0.812495 140.465L2.81249 140.465ZM2.81249 122.078C2.81249 118.974 3.10013 116.229 3.6647 113.835L1.7181 113.376C1.11079 115.951 0.812494 118.854 0.812494 122.078L2.81249 122.078ZM3.66671 113.826C4.20756 111.438 5.0325 109.449 6.12155 107.837L4.46437 106.717C3.20968 108.574 2.30024 110.805 1.71609 113.385L3.66671 113.826ZM6.12501 107.832C7.20773 106.208 8.55807 104.991 10.1792 104.159L9.2661 102.38C7.32473 103.376 5.72194 104.831 4.46091 106.723L6.12501 107.832ZM10.184 104.157C11.7728 103.331 13.6824 102.898 15.9453 102.898L15.9453 100.898C13.427 100.898 11.1882 101.38 9.2613 102.382L10.184 104.157ZM15.9453 102.898C17.8835 102.898 19.6903 103.311 21.3784 104.133L22.2544 102.335C20.2862 101.377 18.179 100.898 15.9453 100.898L15.9453 102.898ZM21.3784 104.133C22.9909 104.919 24.3388 106.245 25.4052 108.182L27.1573 107.217C25.9268 104.982 24.2982 103.331 22.2544 102.335L21.3784 104.133ZM25.4033 108.178C26.4199 110.042 26.9934 112.684 27.0391 116.185L29.039 116.159C28.991 112.488 28.3926 109.482 27.1591 107.22L25.4033 108.178ZM27.3098 116.856L30.509 120.266L31.9676 118.898L28.7684 115.488L27.3098 116.856ZM52 120.074L52 135.754L54 135.754L54 120.074L52 120.074ZM53.4061 134.84L43.9139 130.621L43.1017 132.449L52.5939 136.668L53.4061 134.84ZM44.5078 131.535L44.5078 120.074L42.5078 120.074L42.5078 131.535L44.5078 131.535ZM44.5078 120.074C44.5078 118.3 44.2391 116.777 43.6246 115.576L41.8441 116.487C42.2609 117.301 42.5078 118.474 42.5078 120.074L44.5078 120.074ZM43.6206 115.568C43.0048 114.39 42.166 113.484 41.0818 112.927L40.1682 114.706C40.8183 115.04 41.3858 115.61 41.8481 116.495L43.6206 115.568ZM41.0907 112.931C40.0464 112.382 38.9004 112.113 37.6719 112.113L37.6719 114.113C38.5996 114.113 39.4224 114.314 40.1592 114.701L41.0907 112.931ZM37.6719 112.113C36.248 112.113 34.9616 112.355 33.8413 112.874L34.6822 114.689C35.4837 114.317 36.4707 114.113 37.6719 114.113L37.6719 112.113ZM33.8597 112.866C32.6931 113.378 31.7901 114.212 31.1707 115.338L32.9231 116.302C33.3349 115.553 33.9085 115.028 34.6637 114.697L33.8597 112.866ZM31.18 115.322C30.523 116.464 30.2383 117.911 30.2383 119.582L32.2383 119.582C32.2383 118.113 32.4926 117.051 32.9138 116.319L31.18 115.322ZM30.2383 119.582V129.953H32.2383V119.582H30.2383ZM31.247 128.953L23.161 128.883L23.1436 130.883L31.2296 130.953L31.247 128.953ZM24.1523 129.883V117.473H22.1523V129.883H24.1523ZM23.8177 118.219L27.0521 115.336L25.7213 113.843L22.487 116.726L23.8177 118.219ZM27.3859 114.549C27.2492 111.224 27.7243 108.723 28.7032 106.953L26.953 105.985C25.7288 108.199 25.2429 111.112 25.3876 114.631L27.3859 114.549ZM28.7056 106.948C29.7222 105.088 31.0314 103.81 32.6206 103.046L31.7544 101.243C29.7342 102.214 28.1372 103.818 26.9506 105.989L28.7056 106.948ZM32.6206 103.046C34.2925 102.242 36.0315 101.844 37.8476 101.844L37.8476 99.8438C35.7263 99.8438 33.6918 100.312 31.7544 101.243L32.6206 103.046ZM37.8476 101.844C41.055 101.844 43.6554 102.538 45.7075 103.863L46.7925 102.183C44.3446 100.602 41.3434 99.8437 37.8476 99.8438L37.8476 101.844ZM45.7137 103.867C47.7586 105.167 49.3222 107.13 50.3819 109.823L52.2431 109.091C51.0528 106.066 49.2414 103.739 46.7863 102.179L45.7137 103.867ZM50.3819 109.823C51.4474 112.531 52 115.937 52 120.074L54 120.074C54 115.774 53.4276 112.102 52.2431 109.091L50.3819 109.823ZM1.81249 82.7539H53V80.7539H1.81249V82.7539ZM52 81.7539V94.0586H54V81.7539H52ZM53 93.0586H1.81249V95.0586H53V93.0586ZM2.81249 94.0586L2.81249 81.7539L0.812492 81.7539L0.812493 94.0586L2.81249 94.0586ZM1.30159 53.0823L32.2391 71.469L33.2609 69.7497L2.32339 51.363L1.30159 53.0823ZM31.75 70.6094V83.8984H33.75V70.6094H31.75ZM32.6186 82.9071L21.4741 84.3837L21.7368 86.3663L32.8813 84.8898L32.6186 82.9071ZM22.6055 85.375V76.9727H20.6055V85.375H22.6055ZM22.0508 76.0773L2.2578 66.2335L1.36719 68.0243L21.1602 77.868L22.0508 76.0773ZM2.81249 67.1289L2.81249 52.2227L0.812491 52.2227L0.812491 67.1289L2.81249 67.1289ZM52.528 64.1379L30.1335 76.1262L31.0774 77.8894L53.4719 65.9012L52.528 64.1379ZM31.3408 76.3301L23.0791 67.3653L21.6084 68.7206L29.8701 77.6855L31.3408 76.3301ZM22.8412 68.9105L53.4974 51.3324L52.5026 49.5973L21.8463 67.1755L22.8412 68.9105ZM52 50.4648V65.0195H54V50.4648H52ZM12.2753 26.6352L52.705 39.1157L53.295 37.2046L12.8653 24.7242L12.2753 26.6352ZM52 38.1602L52 51.4141L54 51.4141L54 38.1602L52 38.1602ZM53.3449 50.4754L2.15739 31.6668L1.46759 33.5441L52.6551 52.3527L53.3449 50.4754ZM2.81249 32.6055L2.81249 24.2031L0.81249 24.2031L0.81249 32.6055L2.81249 32.6055ZM1.67651 25.1938L12.4343 26.6704L12.7063 24.689L1.94847 23.2124L1.67651 25.1938ZM52.7043 14.3885L12.2746 26.9041L12.866 28.8147L53.2957 16.299L52.7043 14.3885ZM12.4216 26.8705L1.66383 28.4877L1.96115 30.4655L12.719 28.8483L12.4216 26.8705ZM2.81249 29.4766L2.81249 20.9688L0.812489 20.9688L0.81249 29.4766L2.81249 29.4766ZM2.15909 21.9068L53.3466 2.9927L52.6534 1.11667L1.46589 20.0307L2.15909 21.9068ZM52 2.05469V15.3438H54V2.05469H52ZM33.9101 16.8359L43.4375 16.8359L43.4375 14.8359L33.9101 14.8359L33.9101 16.8359ZM42.4375 15.8359V42.0977H44.4375V15.8359H42.4375ZM43.4375 41.0977H33.9101V43.0977H43.4375V41.0977ZM34.9101 42.0977V15.8359H32.9101V42.0977H34.9101Z" fill="#373737" mask="url(#path-1-outside-1_1826_55)"/>
</svg>
