<svg width="91" height="461" viewBox="0 0 91 461" fill="none" xmlns="http://www.w3.org/2000/svg">
<mask id="path-1-outside-1_1762_20" maskUnits="userSpaceOnUse" x="0.457031" y="0.148438" width="90" height="461" fill="black">
<rect fill="white" x="0.457031" y="0.148438" width="90" height="461"/>
<path d="M55.832 425.484L2.6875 405.328L2.6875 383.59L70.3633 412.359C72.8633 413.453 75.2461 414.723 77.5117 416.168C79.7773 417.574 81.7891 419.254 83.5469 421.207C85.3047 423.121 86.6914 425.387 87.707 428.004C88.7227 430.621 89.2305 433.688 89.2305 437.203C89.2305 438.062 89.2109 439.117 89.1719 440.367C89.1719 441.578 89.1524 442.633 89.1133 443.531L73.1758 443.883C73.293 443.375 73.3711 442.672 73.4102 441.773C73.4102 440.875 73.4102 440.23 73.4102 439.84C73.4102 437.496 73.1367 435.641 72.5899 434.273C72.0039 432.906 71.1445 431.832 70.0117 431.051C68.8398 430.23 67.3555 429.527 65.5586 428.941L55.832 425.484ZM2.6875 436.91L39.7188 419.449L63.3906 412.77V427.535L2.68751 458.766L2.6875 436.91ZM59.1133 329.449V308.941C65.0508 309.215 70.2852 310.816 74.8164 313.746C79.3477 316.676 82.8828 320.738 85.4219 325.934C87.9219 331.09 89.1719 337.184 89.1719 344.215C89.1719 349.918 88.2148 355.016 86.3008 359.508C84.3867 363.961 81.6328 367.75 78.0391 370.875C74.4453 373.961 70.0898 376.324 64.9727 377.965C59.8555 379.566 54.0938 380.367 47.6875 380.367H43.0586C36.6523 380.367 30.8906 379.527 25.7734 377.848C20.6172 376.129 16.2422 373.707 12.6484 370.582C9.01563 367.418 6.24219 363.629 4.32813 359.215C2.41406 354.801 1.45703 349.898 1.45703 344.508C1.45703 337.086 2.78516 330.816 5.44141 325.699C8.09766 320.582 11.75 316.617 16.3984 313.805C21.0078 310.992 26.2617 309.332 32.1602 308.824L32.1602 329.332C28.957 329.41 26.2812 329.957 24.1328 330.973C21.9453 331.988 20.3047 333.59 19.2109 335.777C18.1172 337.965 17.5703 340.875 17.5703 344.508C17.5703 347.047 18.0391 349.254 18.9766 351.129C19.9141 353.004 21.3984 354.566 23.4297 355.816C25.4609 357.066 28.0977 358.004 31.3398 358.629C34.543 359.215 38.4102 359.508 42.9414 359.508H47.6875C52.2188 359.508 56.0859 359.234 59.2891 358.688C62.4922 358.141 65.1094 357.262 67.1406 356.051C69.1719 354.84 70.6758 353.277 71.6523 351.363C72.5898 349.41 73.0586 347.027 73.0586 344.215C73.0586 341.09 72.5703 338.453 71.5938 336.305C70.5781 334.156 69.0547 332.496 67.0234 331.324C64.9531 330.152 62.3164 329.527 59.1133 329.449ZM2.6875 241.324H18.5664L18.5664 285.387H2.6875L2.6875 241.324ZM2.68749 227.438H88V248.004H2.6875L2.68749 227.438ZM2.6875 286.793L2.6875 266.344L46.0469 268.57C52.6094 268.922 58.2734 269.586 63.0391 270.562C67.7656 271.539 71.75 272.848 74.9922 274.488C78.1953 276.129 80.7539 278.102 82.668 280.406C84.582 282.711 85.9492 285.387 86.7695 288.434C87.5898 291.441 88 294.82 88 298.57V303.551H72.1797L71.9453 301.324C71.75 299.527 71.2617 297.945 70.4805 296.578C69.6602 295.211 68.4492 294.039 66.8477 293.062C65.2461 292.047 63.1953 291.207 60.6953 290.543C58.1953 289.879 55.168 289.352 51.6133 288.961C48.0195 288.531 43.8203 288.238 39.0156 288.082L2.6875 286.793ZM55.832 187.594L2.68749 167.438L2.68749 145.699L70.3633 174.469C72.8633 175.562 75.2461 176.832 77.5117 178.277C79.7773 179.684 81.7891 181.363 83.5469 183.316C85.3047 185.23 86.6914 187.496 87.707 190.113C88.7226 192.73 89.2305 195.797 89.2305 199.312C89.2305 200.172 89.2109 201.227 89.1719 202.477C89.1719 203.688 89.1523 204.742 89.1133 205.641L73.1758 205.992C73.293 205.484 73.3711 204.781 73.4101 203.883C73.4101 202.984 73.4101 202.34 73.4101 201.949C73.4101 199.605 73.1367 197.75 72.5898 196.383C72.0039 195.016 71.1445 193.941 70.0117 193.16C68.8398 192.34 67.3555 191.637 65.5586 191.051L55.832 187.594ZM2.68749 199.02L39.7187 181.559L63.3906 174.879V189.645L2.68749 220.875L2.68749 199.02ZM2.68749 81.1875H18.5664L18.5664 118.277H88V138.785H2.68749L2.68749 81.1875ZM56.5351 52.3594L2.68749 21.7148L2.68748 1.14844L88 1.14844V21.7148L34.2109 21.7148L88 52.3594V72.9258H2.68749L2.68749 52.3594L56.5351 52.3594Z"/>
</mask>
<path d="M55.832 425.484L2.6875 405.328L2.6875 383.59L70.3633 412.359C72.8633 413.453 75.2461 414.723 77.5117 416.168C79.7773 417.574 81.7891 419.254 83.5469 421.207C85.3047 423.121 86.6914 425.387 87.707 428.004C88.7227 430.621 89.2305 433.688 89.2305 437.203C89.2305 438.062 89.2109 439.117 89.1719 440.367C89.1719 441.578 89.1524 442.633 89.1133 443.531L73.1758 443.883C73.293 443.375 73.3711 442.672 73.4102 441.773C73.4102 440.875 73.4102 440.23 73.4102 439.84C73.4102 437.496 73.1367 435.641 72.5899 434.273C72.0039 432.906 71.1445 431.832 70.0117 431.051C68.8398 430.23 67.3555 429.527 65.5586 428.941L55.832 425.484ZM2.6875 436.91L39.7188 419.449L63.3906 412.77V427.535L2.68751 458.766L2.6875 436.91ZM59.1133 329.449V308.941C65.0508 309.215 70.2852 310.816 74.8164 313.746C79.3477 316.676 82.8828 320.738 85.4219 325.934C87.9219 331.09 89.1719 337.184 89.1719 344.215C89.1719 349.918 88.2148 355.016 86.3008 359.508C84.3867 363.961 81.6328 367.75 78.0391 370.875C74.4453 373.961 70.0898 376.324 64.9727 377.965C59.8555 379.566 54.0938 380.367 47.6875 380.367H43.0586C36.6523 380.367 30.8906 379.527 25.7734 377.848C20.6172 376.129 16.2422 373.707 12.6484 370.582C9.01563 367.418 6.24219 363.629 4.32813 359.215C2.41406 354.801 1.45703 349.898 1.45703 344.508C1.45703 337.086 2.78516 330.816 5.44141 325.699C8.09766 320.582 11.75 316.617 16.3984 313.805C21.0078 310.992 26.2617 309.332 32.1602 308.824L32.1602 329.332C28.957 329.41 26.2812 329.957 24.1328 330.973C21.9453 331.988 20.3047 333.59 19.2109 335.777C18.1172 337.965 17.5703 340.875 17.5703 344.508C17.5703 347.047 18.0391 349.254 18.9766 351.129C19.9141 353.004 21.3984 354.566 23.4297 355.816C25.4609 357.066 28.0977 358.004 31.3398 358.629C34.543 359.215 38.4102 359.508 42.9414 359.508H47.6875C52.2188 359.508 56.0859 359.234 59.2891 358.688C62.4922 358.141 65.1094 357.262 67.1406 356.051C69.1719 354.84 70.6758 353.277 71.6523 351.363C72.5898 349.41 73.0586 347.027 73.0586 344.215C73.0586 341.09 72.5703 338.453 71.5938 336.305C70.5781 334.156 69.0547 332.496 67.0234 331.324C64.9531 330.152 62.3164 329.527 59.1133 329.449ZM2.6875 241.324H18.5664L18.5664 285.387H2.6875L2.6875 241.324ZM2.68749 227.438H88V248.004H2.6875L2.68749 227.438ZM2.6875 286.793L2.6875 266.344L46.0469 268.57C52.6094 268.922 58.2734 269.586 63.0391 270.562C67.7656 271.539 71.75 272.848 74.9922 274.488C78.1953 276.129 80.7539 278.102 82.668 280.406C84.582 282.711 85.9492 285.387 86.7695 288.434C87.5898 291.441 88 294.82 88 298.57V303.551H72.1797L71.9453 301.324C71.75 299.527 71.2617 297.945 70.4805 296.578C69.6602 295.211 68.4492 294.039 66.8477 293.062C65.2461 292.047 63.1953 291.207 60.6953 290.543C58.1953 289.879 55.168 289.352 51.6133 288.961C48.0195 288.531 43.8203 288.238 39.0156 288.082L2.6875 286.793ZM55.832 187.594L2.68749 167.438L2.68749 145.699L70.3633 174.469C72.8633 175.562 75.2461 176.832 77.5117 178.277C79.7773 179.684 81.7891 181.363 83.5469 183.316C85.3047 185.23 86.6914 187.496 87.707 190.113C88.7226 192.73 89.2305 195.797 89.2305 199.312C89.2305 200.172 89.2109 201.227 89.1719 202.477C89.1719 203.688 89.1523 204.742 89.1133 205.641L73.1758 205.992C73.293 205.484 73.3711 204.781 73.4101 203.883C73.4101 202.984 73.4101 202.34 73.4101 201.949C73.4101 199.605 73.1367 197.75 72.5898 196.383C72.0039 195.016 71.1445 193.941 70.0117 193.16C68.8398 192.34 67.3555 191.637 65.5586 191.051L55.832 187.594ZM2.68749 199.02L39.7187 181.559L63.3906 174.879V189.645L2.68749 220.875L2.68749 199.02ZM2.68749 81.1875H18.5664L18.5664 118.277H88V138.785H2.68749L2.68749 81.1875ZM56.5351 52.3594L2.68749 21.7148L2.68748 1.14844L88 1.14844V21.7148L34.2109 21.7148L88 52.3594V72.9258H2.68749L2.68749 52.3594L56.5351 52.3594Z" stroke="#161617" stroke-width="2" mask="url(#path-1-outside-1_1762_20)"/>
</svg>
