<svg width="323" height="536" viewBox="0 0 323 536" fill="none" xmlns="http://www.w3.org/2000/svg">
<g filter="url(#filter0_d_1709_20)">
<rect x="20" y="20" width="5" height="60" fill="white"/>
</g>
<g filter="url(#filter1_d_1709_20)">
<path fill-rule="evenodd" clip-rule="evenodd" d="M297.967 25.0539H20V20H303V516H20V510.946H297.967V25.0539Z" fill="white"/>
</g>
<path fill-rule="evenodd" clip-rule="evenodd" d="M86.0822 118.124V132.477H95.4659C97.4328 132.477 99.0035 132.175 100.178 131.572C101.38 130.942 102.241 130.119 102.76 129.105C103.306 128.063 103.579 126.911 103.579 125.65C103.579 124.115 103.32 122.785 102.801 121.661C102.309 120.537 101.517 119.673 100.424 119.07C99.5355 118.557 98.403 118.253 97.0266 118.157C96.7105 118.135 96.3815 118.124 96.0396 118.124H86.0822ZM86.7815 118.826V131.775H95.4659C97.3705 131.775 98.8179 131.482 99.8573 130.949C100.955 130.372 101.697 129.645 102.138 128.784L102.141 128.778C102.631 127.844 102.88 126.806 102.88 125.65C102.88 124.193 102.634 122.968 102.166 121.956L102.163 121.95L102.16 121.943C101.732 120.963 101.048 120.215 100.087 119.685L100.081 119.682L100.075 119.678C99.1262 119.131 97.7993 118.826 96.0396 118.826H86.7815ZM71.6993 143.581V83.7019H93.1302C96.8181 83.7019 100.11 84.0446 103.006 84.73C105.901 85.388 108.36 86.4025 110.381 87.7733C112.43 89.1442 113.987 90.8715 115.053 92.9552C116.118 95.0114 116.651 97.4379 116.651 100.234C116.651 102.675 116.132 104.964 115.094 107.102C114.056 109.241 112.321 110.982 109.89 112.325C109.739 112.408 109.584 112.488 109.426 112.566C109.106 112.723 108.771 112.871 108.422 113.008C108.785 113.101 109.136 113.205 109.473 113.321C110.14 113.549 110.757 113.82 111.324 114.135C113.673 115.424 115.353 117.123 116.364 119.234C117.375 121.346 117.88 123.553 117.88 125.856C117.88 129.776 117.033 133.053 115.34 135.685C113.673 138.317 111.174 140.291 107.841 141.607C104.508 142.923 100.383 143.581 95.4659 143.581H71.6993ZM115.928 136.063C114.171 138.838 111.545 140.899 108.097 142.26C104.658 143.618 100.44 144.283 95.4659 144.283H71V83H93.1302C96.8586 83 100.205 83.3462 103.163 84.0462C106.124 84.7192 108.665 85.7627 110.771 87.1905C112.912 88.6234 114.552 90.4383 115.674 92.6331C116.8 94.8077 117.35 97.349 117.35 100.234C117.35 102.778 116.808 105.173 115.722 107.41C114.625 109.671 112.809 111.493 110.322 112.887C110.792 113.075 111.239 113.286 111.661 113.52C114.118 114.868 115.912 116.669 116.994 118.93C118.05 121.135 118.58 123.446 118.58 125.856C118.58 129.877 117.711 133.293 115.928 136.063ZM93.0483 108.665C95.2295 108.665 96.9833 108.431 98.3098 107.963C98.3456 107.951 98.381 107.938 98.4162 107.925C99.7548 107.404 100.725 106.65 101.326 105.663C101.954 104.676 102.268 103.442 102.268 101.962C102.268 100.262 101.954 98.891 101.326 97.8491C100.697 96.8073 99.7002 96.0533 98.3343 95.5872C96.9957 95.0937 95.261 94.8469 93.1302 94.8469H86.0822V108.665H93.0483ZM86.7815 107.963H93.0483C95.2441 107.963 96.9396 107.72 98.1693 107.268C99.3973 106.789 100.227 106.122 100.729 105.297L100.732 105.291L100.736 105.285C101.276 104.437 101.569 103.343 101.569 101.962C101.569 100.342 101.268 99.1097 100.727 98.2126C100.2 97.3376 99.35 96.6752 98.1091 96.2517L98.1011 96.249L98.0931 96.246C96.86 95.7914 95.2154 95.5488 93.1302 95.5488H86.7815V107.963ZM167.629 131.775V144.283H125.171V83H167.752V95.5488H140.953V106.771H163.531V118.908H140.953V131.775H167.629ZM140.254 132.477H166.929V143.581H125.871V83.7019H167.052V94.8469H140.254V107.473H162.832V118.206H140.254V132.477ZM212.949 131.775V144.283H172.131V83H187.912V131.775H212.949ZM187.213 132.477H212.25V143.581H172.83V83.7019H187.213V132.477ZM71 181.965V243.248H86.7815V228.546L85.6201 204.895L98.6119 243.248H109.12L122.112 204.895L120.951 228.546V243.248H136.773V181.965H116.674L103.866 222.03L91.0587 181.965H71ZM71.6993 182.667V242.546H86.0822V228.563L84.676 199.927L99.1128 242.546H108.619L123.056 199.927L121.65 228.563V242.546H136.074V182.667H117.184L103.866 224.327L90.5487 182.667H71.6993ZM170.045 199.375L163.636 220.215H176.473L170.045 199.375ZM175.525 219.513L170.046 201.752L164.584 219.513H175.525ZM176.805 182.667L198.85 242.546H183.361L179.911 231.36H160.208L156.767 242.546H141.319L163.242 182.667H176.805ZM162.753 181.965L140.317 243.248H157.283L160.724 232.061H179.395L182.846 243.248H199.854L177.292 181.965H162.753ZM202.536 181.965H226.715C231.371 181.965 235.452 182.66 238.941 184.072C242.439 185.488 245.165 187.597 247.082 190.412C249.036 193.238 249.992 196.702 249.992 200.762C249.992 204.258 249.449 207.231 248.329 209.653C247.219 212.052 245.663 214.047 243.66 215.626L243.659 215.627C242.49 216.545 241.208 217.363 239.813 218.083L252 241.758V243.248H235.461L224.93 222.109H218.317V243.248H202.536V181.965ZM217.618 221.407H225.362L235.893 242.546H251.301V241.929L238.866 217.772C239.077 217.67 239.286 217.566 239.492 217.46C240.851 216.758 242.096 215.963 243.228 215.074C245.14 213.566 246.629 211.66 247.695 209.357C248.76 207.054 249.293 204.189 249.293 200.762C249.293 196.814 248.364 193.497 246.506 190.81C244.676 188.123 242.067 186.094 238.68 184.723C235.292 183.352 231.304 182.667 226.715 182.667H203.235V242.546H217.618V221.407ZM226.715 210.262C228.545 210.262 230.061 209.933 231.263 209.275C232.465 208.617 233.366 207.685 233.967 206.479C234.596 205.245 234.91 203.778 234.91 202.078C234.91 200.351 234.596 198.87 233.967 197.637C233.339 196.403 232.41 195.457 231.181 194.799C229.979 194.141 228.49 193.812 226.715 193.812H217.618V210.262H226.715ZM218.317 209.56H226.715C228.466 209.56 229.858 209.245 230.928 208.659C232.007 208.068 232.806 207.24 233.342 206.165L233.345 206.159C233.913 205.044 234.211 203.692 234.211 202.078C234.211 200.435 233.912 199.069 233.345 197.956C232.782 196.851 231.956 196.009 230.852 195.418L230.846 195.415C229.773 194.828 228.407 194.514 226.715 194.514H218.317V209.56ZM86.7815 280.93V305.696L90.5012 300.034L90.505 300.029L103.58 280.93H123.106L102.4 308.122L122.931 342.213H104.28L91.8378 320.425L86.7815 325.977V342.213H71V280.93H86.7815ZM86.0822 325.704L91.9681 319.242L104.686 341.511H121.691L101.555 308.076L121.691 281.632H103.948L91.0814 300.426L86.0822 308.035V281.632H71.6993V341.511H86.0822V325.704ZM167.137 329.705V342.213H124.68V280.93H167.26V293.479H140.461V304.7H163.039V316.838H140.461V329.705H167.137ZM139.762 330.407H166.438V341.511H125.379V281.632H166.561V292.777H139.762V305.402H162.34V316.136H139.762V330.407ZM170.126 281.632V292.777H187.664V341.511H202.047V292.777H219.994V281.632H170.126ZM202.746 293.479V342.213H186.964V293.479H169.426V280.93H220.694V293.479H202.746ZM87.683 379.895V441.177H71.9425V379.895H87.683ZM147.632 379.895V441.177H132.184L112.187 405.871V441.177H96.4056V379.895H111.895L131.892 415.201V379.895H147.632ZM132.591 417.856L111.488 380.597H97.105V440.476H111.488V403.216L132.591 440.476H146.933V380.597H132.591V417.856ZM205.532 407.778V433.343L205.352 433.543C204.277 434.739 202.655 435.987 200.526 437.291L200.524 437.293C198.379 438.595 195.694 439.7 192.485 440.616C189.239 441.543 185.443 442 181.107 442C177.072 442 173.392 441.357 170.076 440.06L170.072 440.058C166.756 438.733 163.898 436.798 161.504 434.254L161.498 434.248C159.132 431.675 157.31 428.546 156.025 424.875L156.023 424.869C154.764 421.163 154.142 416.944 154.142 412.222V408.891C154.142 404.168 154.779 399.948 156.066 396.24C157.35 392.543 159.157 389.413 161.498 386.865C163.86 384.297 166.635 382.346 169.816 381.018L169.818 381.017C173.025 379.69 176.532 379.031 180.329 379.031C185.884 379.031 190.469 379.917 194.041 381.737C197.594 383.52 200.309 386.01 202.16 389.21C203.993 392.352 205.097 395.975 205.488 400.064L205.562 400.833H190.374L190.29 400.228C190.026 398.318 189.528 396.734 188.816 395.457L188.811 395.45L188.808 395.442C188.137 394.171 187.176 393.219 185.912 392.573L185.907 392.57L185.902 392.568C184.642 391.898 182.963 391.539 180.821 391.539C179.204 391.539 177.746 391.885 176.434 392.569C175.159 393.246 174.056 394.282 173.128 395.704L173.125 395.709C172.199 397.104 171.461 398.885 170.929 401.075C170.426 403.257 170.169 405.833 170.169 408.809V412.222C170.169 415.172 170.412 417.737 170.89 419.922C171.394 422.104 172.129 423.894 173.078 425.313C174.048 426.694 175.265 427.736 176.734 428.449C178.235 429.136 180.027 429.492 182.132 429.492C183.623 429.492 184.877 429.372 185.903 429.141C186.955 428.877 187.794 428.567 188.436 428.22C189.001 427.905 189.434 427.619 189.751 427.364V419.093H179.752V407.778H205.532ZM190.45 418.391V427.686C190.068 428.042 189.508 428.426 188.77 428.837C188.06 429.221 187.158 429.55 186.066 429.824C184.973 430.071 183.662 430.194 182.132 430.194C179.946 430.194 178.048 429.824 176.436 429.084C174.852 428.316 173.54 427.192 172.502 425.711C171.492 424.204 170.727 422.325 170.208 420.077C169.716 417.829 169.47 415.211 169.47 412.222V408.809C169.47 405.793 169.73 403.161 170.249 400.913C170.795 398.664 171.56 396.8 172.543 395.32C173.527 393.812 174.715 392.688 176.108 391.947C177.529 391.207 179.1 390.837 180.821 390.837C183.033 390.837 184.836 391.207 186.229 391.947C187.623 392.66 188.688 393.716 189.426 395.114C190.191 396.485 190.71 398.157 190.983 400.131H204.792C204.769 399.896 204.745 399.662 204.717 399.429C204.28 395.715 203.226 392.426 201.555 389.562C199.779 386.491 197.17 384.092 193.728 382.365C190.286 380.61 185.82 379.733 180.329 379.733C176.614 379.733 173.199 380.377 170.085 381.666C166.998 382.954 164.307 384.846 162.012 387.341C159.745 389.809 157.983 392.852 156.726 396.471C155.47 400.09 154.841 404.23 154.841 408.891V412.222C154.841 416.883 155.456 421.023 156.685 424.642C157.942 428.234 159.718 431.277 162.012 433.772C164.334 436.24 167.107 438.118 170.331 439.406C173.554 440.668 177.146 441.298 181.107 441.298C185.396 441.298 189.125 440.846 192.294 439.941C195.463 439.036 198.085 437.953 200.162 436.692C202.265 435.403 203.822 434.197 204.833 433.073V408.48H180.452V418.391H190.45ZM86.9837 380.597H72.6418V440.476H86.9837V380.597Z" fill="white"/>
<g filter="url(#filter2_d_1709_20)">
<rect x="20" y="146" width="5" height="232" fill="white"/>
</g>
<g filter="url(#filter3_d_1709_20)">
<rect x="20" y="442" width="5" height="69" fill="white"/>
</g>
<defs>
<filter id="filter0_d_1709_20" x="0" y="0" width="45" height="100" filterUnits="userSpaceOnUse" color-interpolation-filters="sRGB">
<feFlood flood-opacity="0" result="BackgroundImageFix"/>
<feColorMatrix in="SourceAlpha" type="matrix" values="0 0 0 0 0 0 0 0 0 0 0 0 0 0 0 0 0 0 127 0" result="hardAlpha"/>
<feOffset/>
<feGaussianBlur stdDeviation="10"/>
<feComposite in2="hardAlpha" operator="out"/>
<feColorMatrix type="matrix" values="0 0 0 0 1 0 0 0 0 0.608589 0 0 0 0 0.275 0 0 0 1 0"/>
<feBlend mode="normal" in2="BackgroundImageFix" result="effect1_dropShadow_1709_20"/>
<feBlend mode="normal" in="SourceGraphic" in2="effect1_dropShadow_1709_20" result="shape"/>
</filter>
<filter id="filter1_d_1709_20" x="0" y="0" width="323" height="536" filterUnits="userSpaceOnUse" color-interpolation-filters="sRGB">
<feFlood flood-opacity="0" result="BackgroundImageFix"/>
<feColorMatrix in="SourceAlpha" type="matrix" values="0 0 0 0 0 0 0 0 0 0 0 0 0 0 0 0 0 0 127 0" result="hardAlpha"/>
<feOffset/>
<feGaussianBlur stdDeviation="10"/>
<feComposite in2="hardAlpha" operator="out"/>
<feColorMatrix type="matrix" values="0 0 0 0 0.94902 0 0 0 0 0.603922 0 0 0 0 0.309804 0 0 0 1 0"/>
<feBlend mode="normal" in2="BackgroundImageFix" result="effect1_dropShadow_1709_20"/>
<feBlend mode="normal" in="SourceGraphic" in2="effect1_dropShadow_1709_20" result="shape"/>
</filter>
<filter id="filter2_d_1709_20" x="0" y="126" width="45" height="272" filterUnits="userSpaceOnUse" color-interpolation-filters="sRGB">
<feFlood flood-opacity="0" result="BackgroundImageFix"/>
<feColorMatrix in="SourceAlpha" type="matrix" values="0 0 0 0 0 0 0 0 0 0 0 0 0 0 0 0 0 0 127 0" result="hardAlpha"/>
<feOffset/>
<feGaussianBlur stdDeviation="10"/>
<feComposite in2="hardAlpha" operator="out"/>
<feColorMatrix type="matrix" values="0 0 0 0 1 0 0 0 0 0.608589 0 0 0 0 0.275 0 0 0 1 0"/>
<feBlend mode="normal" in2="BackgroundImageFix" result="effect1_dropShadow_1709_20"/>
<feBlend mode="normal" in="SourceGraphic" in2="effect1_dropShadow_1709_20" result="shape"/>
</filter>
<filter id="filter3_d_1709_20" x="0" y="422" width="45" height="109" filterUnits="userSpaceOnUse" color-interpolation-filters="sRGB">
<feFlood flood-opacity="0" result="BackgroundImageFix"/>
<feColorMatrix in="SourceAlpha" type="matrix" values="0 0 0 0 0 0 0 0 0 0 0 0 0 0 0 0 0 0 127 0" result="hardAlpha"/>
<feOffset/>
<feGaussianBlur stdDeviation="10"/>
<feComposite in2="hardAlpha" operator="out"/>
<feColorMatrix type="matrix" values="0 0 0 0 1 0 0 0 0 0.608589 0 0 0 0 0.275 0 0 0 1 0"/>
<feBlend mode="normal" in2="BackgroundImageFix" result="effect1_dropShadow_1709_20"/>
<feBlend mode="normal" in="SourceGraphic" in2="effect1_dropShadow_1709_20" result="shape"/>
</filter>
</defs>
</svg>
