<svg width="112" height="72" viewBox="0 0 112 72" fill="none" xmlns="http://www.w3.org/2000/svg">
<path d="M22 2L8 16" stroke="#939393"/>
<path d="M32 1L6 26" stroke="#939393"/>
<path d="M24 18L6 35" stroke="#939393"/>
<path d="M39 2L29 13" stroke="#939393"/>
<path d="M75 2L61 16" stroke="#939393"/>
<path d="M85 1L62 24" stroke="#939393"/>
<path d="M93 2L81 14" stroke="#939393"/>
<path d="M100 5L89 16" stroke="#939393"/>
<path d="M105 11L90 25" stroke="#939393"/>
<path d="M107 19L61 65" stroke="#939393"/>
<path d="M103 33L65 71" stroke="#939393"/>
<path d="M90 57L77 70" stroke="#939393"/>
<path d="M100 57L87 70" stroke="#939393"/>
<path d="M109 57L96 70" stroke="#939393"/>
<path d="M45 7L36 16" stroke="#939393"/>
<path d="M49 12L37 24" stroke="#939393"/>
<path d="M52 18L37 32" stroke="#939393"/>
<path d="M22 28L6 44" stroke="#939393"/>
<path d="M22 37L7 52" stroke="#939393"/>
<path d="M22 47L10 59" stroke="#939393"/>
<path d="M24 55L14 65" stroke="#939393"/>
<path d="M30 58L19 69" stroke="#939393"/>
<path d="M53 25L37 41" stroke="#939393"/>
<path d="M53 34L36 51" stroke="#939393"/>
<path d="M53 43L26 70" stroke="#939393"/>
<path d="M51 55L36 70" stroke="#939393"/>
<path d="M51.3555 55.0635L50.4027 54.7596L50.4004 54.7671L51.3555 55.0635ZM46.5312 63.9697L45.786 63.3029L45.7811 63.3084L46.5312 63.9697ZM21.8071 69.8608L21.513 70.8167L21.5243 70.82L21.8071 69.8608ZM15.2666 66.521L14.6465 67.3056L14.6535 67.3111L14.6606 67.3164L15.2666 66.521ZM7.10254 52.8833L6.13015 53.1167L6.13069 53.1189L7.10254 52.8833ZM7.65918 17.3975L6.70646 17.0936L6.70485 17.0987L7.65918 17.3975ZM37.2539 2.64648L36.9563 3.60118L36.9637 3.60348L36.9711 3.60565L37.2539 2.64648ZM43.7944 5.98633L43.1805 6.77572L43.1884 6.78176L43.7944 5.98633ZM48.7578 11.5991L47.9013 12.1154L47.9066 12.1239L48.7578 11.5991ZM51.9585 19.624L50.9861 19.8574L50.9866 19.8596L51.9585 19.624ZM37.0684 22.4072L36.0773 22.5406L36.0786 22.55L36.08 22.5593L37.0684 22.4072ZM36.0479 18.3252L35.1158 18.6876L35.1202 18.6988L35.1248 18.7098L36.0479 18.3252ZM34.4243 15.6348L33.6858 16.309L33.6933 16.3172L33.701 16.3252L34.4243 15.6348ZM32.1978 14.104L31.8081 15.025L31.8291 15.0338L31.8504 15.0418L32.1978 14.104ZM26.1675 14.3823L26.6262 15.271L26.6366 15.2654L26.1675 14.3823ZM22.1318 21.2476L21.1513 21.0514L21.1497 21.0593L21.1482 21.0672L22.1318 21.2476ZM21.9463 50.0537L20.9549 50.1846L20.9563 50.1952L20.9579 50.2058L21.9463 50.0537ZM22.9668 54.1821L22.0315 54.536L22.0374 54.5515L22.0437 54.5667L22.9668 54.1821ZM24.6367 56.9189L23.8982 57.5932L23.9057 57.6014L23.9134 57.6094L24.6367 56.9189ZM26.8633 58.4033L26.516 59.3411L26.8633 58.4033ZM32.8472 58.125L33.3058 59.0136L32.8472 58.125ZM35.3057 55.7129L34.4564 55.1849L34.4524 55.1914L35.3057 55.7129ZM36.8828 51.2134L35.9015 51.0203L35.8992 51.0331L36.8828 51.2134ZM52.0718 30.061V42.3999H54.0718V30.061H52.0718ZM52.0718 42.3999C52.0718 47.1801 51.5081 51.2943 50.4028 54.7596L52.3082 55.3674C53.4913 51.6582 54.0718 47.33 54.0718 42.3999H52.0718ZM50.4004 54.7671C49.3217 58.243 47.7766 61.0781 45.786 63.3029L47.2765 64.6365C49.4916 62.1608 51.1627 59.0584 52.3105 55.3599L50.4004 54.7671ZM45.7811 63.3084C43.8119 65.5422 41.4677 67.1969 38.7397 68.2823L39.479 70.1406C42.503 68.9375 45.1068 67.0977 47.2814 64.631L45.7811 63.3084ZM38.7397 68.2823C35.9945 69.3744 32.9521 69.9277 29.6001 69.9277V71.9277C33.1752 71.9277 36.4722 71.3368 39.479 70.1406L38.7397 68.2823ZM29.6001 69.9277C26.9025 69.9277 24.401 69.5831 22.09 68.9017L21.5243 70.82C24.0375 71.5611 26.7313 71.9277 29.6001 71.9277V69.9277ZM22.1012 68.9051C19.7983 68.1965 17.7243 67.1364 15.8726 65.7256L14.6606 67.3164C16.7054 68.8744 18.9918 70.0408 21.513 70.8166L22.1012 68.9051ZM15.8867 65.7364C14.0685 64.2995 12.49 62.5036 11.1545 60.3371L9.45196 61.3866C10.8996 63.735 12.6301 65.7119 14.6465 67.3056L15.8867 65.7364ZM11.1545 60.3371C9.82725 58.184 8.79634 55.6257 8.07439 52.6477L6.13069 53.1189C6.89312 56.2639 7.99599 59.0247 9.45196 61.3866L11.1545 60.3371ZM8.07493 52.6499C7.35465 49.6488 6.98926 46.2347 6.98926 42.3999H4.98926C4.98926 46.3581 5.36606 49.9329 6.13015 53.1167L8.07493 52.6499ZM6.98926 42.3999L6.98926 30.061H4.98926L4.98926 42.3999H6.98926ZM6.98926 30.061C6.98926 25.2467 7.53823 21.1311 8.61351 17.6962L6.70485 17.0987C5.55356 20.7764 4.98926 25.1033 4.98926 30.061H6.98926ZM8.61189 17.7013C9.72145 14.2227 11.2825 11.3849 13.275 9.15801L11.7845 7.82442C9.57131 10.298 7.88532 13.3977 6.70647 17.0936L8.61189 17.7013ZM13.275 9.15801C15.2767 6.92083 17.6383 5.26456 20.3677 4.17868L19.6284 2.32035C16.6058 3.52288 13.9886 5.36107 11.7845 7.82442L13.275 9.15801ZM20.3677 4.17868C23.1129 3.08652 26.1554 2.5332 29.5073 2.5332V0.533203C25.9322 0.533203 22.6352 1.1241 19.6284 2.32035L20.3677 4.17868ZM29.5073 2.5332C32.2012 2.5332 34.6819 2.89228 36.9563 3.60118L37.5515 1.69178C35.0635 0.916315 32.3799 0.533203 29.5073 0.533203V2.5332ZM36.9711 3.60565C39.2655 4.28221 41.3329 5.33867 43.1805 6.77568L44.4084 5.19698C42.3595 3.60338 40.0666 2.43328 37.5367 1.68731L36.9711 3.60565ZM43.1884 6.78176C45.0289 8.18403 46.6008 9.95759 47.9014 12.1153L49.6143 11.0829C48.1935 8.72568 46.4565 6.75737 44.4005 5.1909L43.1884 6.78176ZM47.9066 12.1239C49.2328 14.2754 50.2639 16.848 50.9861 19.8574L52.9309 19.3907C52.1688 16.2151 51.066 13.4378 49.6091 11.0744L47.9066 12.1239ZM50.9866 19.8596C51.7063 22.8284 52.0718 26.226 52.0718 30.061H54.0718C54.0718 26.1031 53.695 22.5427 52.9303 19.3884L50.9866 19.8596ZM38.4395 44.3018V28.0664H36.4395V44.3018H38.4395ZM38.4395 28.0664C38.4395 25.8663 38.3139 23.9269 38.0567 22.2552L36.08 22.5593C36.3176 24.1037 36.4395 25.9371 36.4395 28.0664H38.4395ZM38.0594 22.2738C37.835 20.607 37.4776 19.1565 36.9709 17.9406L35.1248 18.7098C35.5459 19.7205 35.8687 20.9913 36.0773 22.5406L38.0594 22.2738ZM36.9799 17.9627C36.5118 16.7592 35.9082 15.7411 35.1477 14.9443L33.701 16.3252C34.2392 16.8891 34.718 17.6647 35.1158 18.6876L36.9799 17.9627ZM35.1628 14.9605C34.4149 14.1413 33.5416 13.5353 32.5451 13.1663L31.8504 15.0418C32.5239 15.2912 33.135 15.7057 33.6858 16.309L35.1628 14.9605ZM32.5874 13.183C31.6447 12.7842 30.613 12.5938 29.5073 12.5938V14.5938C30.3809 14.5938 31.1428 14.7435 31.8081 15.025L32.5874 13.183ZM29.5073 12.5938C28.1241 12.5938 26.8469 12.889 25.6983 13.4992L26.6366 15.2654C27.4672 14.8242 28.4166 14.5938 29.5073 14.5938V12.5938ZM25.7088 13.4937C24.5564 14.0885 23.6115 15.0363 22.8557 16.273L24.5623 17.3159C25.1672 16.326 25.8612 15.6657 26.6261 15.2709L25.7088 13.4937ZM22.8557 16.273C22.0933 17.5206 21.5359 19.1281 21.1513 21.0514L23.1124 21.4437C23.4699 19.656 23.964 18.2948 24.5623 17.3159L22.8557 16.273ZM21.1482 21.0672C20.7936 23.0014 20.6216 25.3388 20.6216 28.0664H22.6216C22.6216 25.4132 22.7897 23.2047 23.1154 21.4279L21.1482 21.0672ZM20.6216 28.0664L20.6216 44.3018H22.6216L22.6216 28.0664H20.6216ZM20.6216 44.3018C20.6216 46.5279 20.7312 48.4908 20.9549 50.1846L22.9377 49.9228C22.7284 48.3386 22.6216 46.4669 22.6216 44.3018H20.6216ZM20.9579 50.2058C21.2127 51.8617 21.5673 53.3093 22.0315 54.536L23.9021 53.8282C23.5004 52.7666 23.1747 51.4619 22.9347 49.9017L20.9579 50.2058ZM22.0437 54.5667C22.5412 55.7607 23.1542 56.7784 23.8982 57.5932L25.3752 56.2447C24.8204 55.637 24.3201 54.8301 23.8899 53.7975L22.0437 54.5667ZM23.9134 57.6094C24.6616 58.3933 25.5305 58.9761 26.516 59.3411L27.2106 57.4656C26.5261 57.2121 25.9106 56.8052 25.3601 56.2285L23.9134 57.6094ZM26.516 59.3411C27.4738 59.6958 28.5051 59.8672 29.6001 59.8672V57.8672C28.7159 57.8672 27.9227 57.7293 27.2106 57.4656L26.516 59.3411ZM29.6001 59.8672C30.9467 59.8672 32.1893 59.5899 33.3058 59.0136L32.3885 57.2364C31.5877 57.6497 30.6656 57.8672 29.6001 57.8672V59.8672ZM33.3058 59.0136C34.4582 58.4188 35.4032 57.471 36.1589 56.2343L34.4524 55.1914C33.8475 56.1813 33.1534 56.8416 32.3885 57.2364L33.3058 59.0136ZM36.1549 56.2408C36.9531 54.9568 37.512 53.3267 37.8664 51.3937L35.8992 51.0331C35.5733 52.811 35.0807 54.1806 34.4564 55.185L36.1549 56.2408ZM37.864 51.4064C38.2516 49.4363 38.4395 47.0635 38.4395 44.3018H36.4395C36.4395 46.9827 36.2562 49.2177 35.9016 51.0204L37.864 51.4064ZM108.411 57.9395H109.411V56.9395H108.411V57.9395ZM108.411 70V71H109.411V70H108.411ZM61.2822 70H60.2822V71H61.2822V70ZM61.2822 59.7949L60.5577 59.1057L60.2822 59.3953V59.7949H61.2822ZM82.9912 36.9727L83.7158 37.6619L83.7304 37.6464L83.7444 37.6304L82.9912 36.9727ZM87.6299 31.0815L88.4574 31.6431L88.4619 31.6362L87.6299 31.0815ZM90.1812 26.3037L89.2499 25.9393L89.2465 25.9482L89.2432 25.9571L90.1812 26.3037ZM90.1348 17.583L89.2123 17.9691L89.2178 17.9822L89.2237 17.9952L90.1348 17.583ZM87.6299 14.5679L87.0977 15.4146L87.1084 15.4212L87.6299 14.5679ZM76.5435 18.7427L75.6225 18.353L75.6193 18.3606L75.6162 18.3682L76.5435 18.7427ZM75.5693 24.1699V25.1699H76.5693V24.1699H75.5693ZM59.8906 24.1699H58.8906V25.1699H59.8906V24.1699ZM62.9058 12.8052L62.0462 12.2941L62.0428 12.2999L62.9058 12.8052ZM71.3945 4.59473L71.8859 5.46572L71.8915 5.46251L71.3945 4.59473ZM104.097 10.5322L103.232 11.0333L103.238 11.044L104.097 10.5322ZM102.381 34.2822L103.215 34.8341L103.218 34.8285L102.381 34.2822ZM97.2783 40.7764L96.536 40.1062L96.5309 40.112L97.2783 40.7764ZM90.5059 47.8735L89.8031 47.1621L89.7755 47.1894L89.7501 47.2187L90.5059 47.8735ZM81.7852 57.9395L81.0294 57.2847L79.5957 58.9395H81.7852V57.9395ZM107.411 57.9395L107.411 70H109.411L109.411 57.9395H107.411ZM108.411 69L61.2822 69V71L108.411 71V69ZM62.2822 70V59.7949H60.2822V70H62.2822ZM62.0068 60.4841L83.7158 37.6619L82.2667 36.2834L60.5577 59.1057L62.0068 60.4841ZM83.7444 37.6304C85.6789 35.4151 87.2526 33.4185 88.4574 31.643L86.8024 30.52C85.6569 32.2081 84.1381 34.1389 82.238 36.3149L83.7444 37.6304ZM88.4619 31.6362C89.6647 29.8321 90.5581 28.1686 91.1191 26.6504L89.2432 25.9571C88.7528 27.2839 87.9453 28.8056 86.7978 30.5268L88.4619 31.6362ZM91.1124 26.6681C91.7001 25.1661 92.0161 23.7566 92.0161 22.4536H90.0161C90.0161 23.439 89.7755 24.5963 89.2499 25.9393L91.1124 26.6681ZM92.0161 22.4536C92.0161 20.4123 91.7094 18.6375 91.0459 17.1708L89.2237 17.9952C89.7353 19.1262 90.0161 20.5984 90.0161 22.4536H92.0161ZM91.0572 17.1969C90.4283 15.6945 89.4629 14.5161 88.1513 13.7146L87.1084 15.4212C88.0235 15.9803 88.728 16.812 89.2123 17.9691L91.0572 17.1969ZM88.1621 13.7212C86.8838 12.9178 85.3424 12.5474 83.5942 12.5474V14.5474C85.0623 14.5474 86.2112 14.8573 87.0977 15.4145L88.1621 13.7212ZM83.5942 12.5474C81.779 12.5474 80.1545 13.0762 78.7633 14.1463L79.9828 15.7316C81.0037 14.9463 82.1933 14.5474 83.5942 14.5474V12.5474ZM78.7633 14.1463C77.4014 15.194 76.36 16.6098 75.6225 18.353L77.4644 19.1323C78.0876 17.6594 78.9326 16.5394 79.9828 15.7316L78.7633 14.1463ZM75.6162 18.3682C74.9117 20.1126 74.5693 22.0517 74.5693 24.1699H76.5693C76.5693 22.268 76.8764 20.5889 77.4707 19.1171L75.6162 18.3682ZM75.5693 23.1699H59.8906V25.1699H75.5693V23.1699ZM60.8906 24.1699C60.8906 20.1959 61.8522 16.5833 63.7687 13.3105L62.0428 12.2999C59.9392 15.8923 58.8906 19.8562 58.8906 24.1699H60.8906ZM63.7653 13.3163C65.7134 10.0399 68.4134 7.42454 71.8858 5.46571L70.9032 3.72375C67.1394 5.84694 64.1801 8.70527 62.0462 12.2941L63.7653 13.3163ZM71.8915 5.46251C75.3379 3.48891 79.3521 2.48682 83.9653 2.48682V0.486816C79.0538 0.486816 74.6875 1.55666 70.8976 3.72694L71.8915 5.46251ZM83.9653 2.48682C88.847 2.48682 92.8696 3.2457 96.0728 4.71509L96.9067 2.89722C93.3684 1.27415 89.0413 0.486816 83.9653 0.486816V2.48682ZM96.0728 4.71509C99.2737 6.1834 101.644 8.29117 103.232 11.0333L104.963 10.0312C103.148 6.89763 100.447 4.52135 96.9067 2.89722L96.0728 4.71509ZM103.238 11.044C104.86 13.7659 105.695 17.0904 105.695 21.062H107.695C107.695 16.8077 106.798 13.1124 104.956 10.0204L103.238 11.044ZM105.695 21.062C105.695 23.3049 105.341 25.4526 104.636 27.5101L106.527 28.1588C107.306 25.8869 107.695 23.5196 107.695 21.062H105.695ZM104.636 27.5101C103.923 29.5884 102.895 31.6637 101.543 33.736L103.218 34.8285C104.65 32.6332 105.756 30.4099 106.527 28.1588L104.636 27.5101ZM101.547 33.7304C100.187 35.7847 98.5188 37.91 96.536 40.1063L98.0206 41.4465C100.058 39.1896 101.791 36.9855 103.215 34.8341L101.547 33.7304ZM96.5309 40.112C94.5686 42.3196 92.3264 44.6696 89.8031 47.1621L91.2086 48.585C93.7569 46.0677 96.0297 43.6862 98.0257 41.4407L96.5309 40.112ZM89.7501 47.2187L81.0294 57.2847L82.541 58.5942L91.2617 48.5283L89.7501 47.2187ZM81.7852 58.9395H108.411V56.9395H81.7852V58.9395Z" fill="#161617"/>
</svg>
