<svg width="113" height="71" viewBox="0 0 113 71" fill="none" xmlns="http://www.w3.org/2000/svg">
<path d="M23 2L9 16" stroke="#939393"/>
<path d="M32 1L7 26" stroke="#939393"/>
<path d="M24 18L7 35" stroke="#939393"/>
<path d="M40 2L29 13" stroke="#939393"/>
<path d="M75 2L61 16" stroke="#939393"/>
<path d="M85 1L66 19" stroke="#939393"/>
<path d="M93 2L81 14" stroke="#939393"/>
<path d="M100 5L89 16" stroke="#939393"/>
<path d="M105 11L75 41" stroke="#939393"/>
<path d="M107 19L84 41" stroke="#939393"/>
<path d="M75 50L63 62" stroke="#939393"/>
<path d="M100 36L91 45" stroke="#939393"/>
<path d="M79 57L68 67" stroke="#939393"/>
<path d="M105 41L77 69" stroke="#939393"/>
<path d="M108 48L87 69" stroke="#939393"/>
<path d="M46 7L36 16" stroke="#939393"/>
<path d="M49 12L37 24" stroke="#939393"/>
<path d="M52 18L37 33" stroke="#939393"/>
<path d="M22 28L6 45" stroke="#939393"/>
<path d="M22 38L7 53" stroke="#939393"/>
<path d="M22 47L10 60" stroke="#939393"/>
<path d="M24 55L14 65" stroke="#939393"/>
<path d="M31 58L20 69" stroke="#939393"/>
<path d="M53 26L37 42" stroke="#939393"/>
<path d="M54 34L37 51" stroke="#939393"/>
<path d="M53 44L27 70" stroke="#939393"/>
<path d="M52 55L37 70" stroke="#939393"/>
<path d="M51.3555 55.0635L50.4027 54.7596L50.4004 54.7671L51.3555 55.0635ZM46.5312 63.9697L45.786 63.3029L45.7811 63.3084L46.5312 63.9697ZM21.8071 69.8608L21.513 70.8167L21.5243 70.82L21.8071 69.8608ZM15.2666 66.521L14.6465 67.3056L14.6535 67.3111L14.6606 67.3164L15.2666 66.521ZM7.10254 52.8833L6.13015 53.1167L6.13069 53.1189L7.10254 52.8833ZM7.65918 17.3975L6.70646 17.0936L6.70485 17.0987L7.65918 17.3975ZM37.2539 2.64648L36.9563 3.60118L36.9637 3.60348L36.9711 3.60565L37.2539 2.64648ZM43.7944 5.98633L43.1805 6.77572L43.1884 6.78176L43.7944 5.98633ZM48.7578 11.5991L47.9013 12.1154L47.9066 12.1239L48.7578 11.5991ZM51.9585 19.624L50.9861 19.8574L50.9866 19.8596L51.9585 19.624ZM37.0684 22.4072L36.0773 22.5406L36.0786 22.55L36.08 22.5593L37.0684 22.4072ZM36.0479 18.3252L35.1158 18.6876L35.1202 18.6988L35.1248 18.7098L36.0479 18.3252ZM34.4243 15.6348L33.6858 16.309L33.6933 16.3172L33.701 16.3252L34.4243 15.6348ZM32.1978 14.104L31.8081 15.025L31.8291 15.0338L31.8504 15.0418L32.1978 14.104ZM26.1675 14.3823L26.6262 15.271L26.6366 15.2654L26.1675 14.3823ZM22.1318 21.2476L21.1513 21.0514L21.1497 21.0593L21.1482 21.0672L22.1318 21.2476ZM21.9463 50.0537L20.9549 50.1846L20.9563 50.1952L20.9579 50.2058L21.9463 50.0537ZM22.9668 54.1821L22.0315 54.536L22.0374 54.5515L22.0437 54.5667L22.9668 54.1821ZM24.6367 56.9189L23.8982 57.5932L23.9057 57.6014L23.9134 57.6094L24.6367 56.9189ZM26.8633 58.4033L26.516 59.3411L26.8633 58.4033ZM32.8472 58.125L33.3058 59.0136L32.8472 58.125ZM35.3057 55.7129L34.4564 55.1849L34.4524 55.1914L35.3057 55.7129ZM36.8828 51.2134L35.9015 51.0203L35.8992 51.0331L36.8828 51.2134ZM52.0718 30.061V42.3999H54.0718V30.061H52.0718ZM52.0718 42.3999C52.0718 47.1801 51.5081 51.2943 50.4028 54.7596L52.3082 55.3674C53.4913 51.6582 54.0718 47.33 54.0718 42.3999H52.0718ZM50.4004 54.7671C49.3217 58.243 47.7766 61.0781 45.786 63.3029L47.2765 64.6365C49.4916 62.1608 51.1627 59.0584 52.3105 55.3599L50.4004 54.7671ZM45.7811 63.3084C43.8119 65.5422 41.4677 67.1969 38.7397 68.2823L39.479 70.1406C42.503 68.9375 45.1068 67.0977 47.2814 64.631L45.7811 63.3084ZM38.7397 68.2823C35.9945 69.3744 32.9521 69.9277 29.6001 69.9277V71.9277C33.1752 71.9277 36.4722 71.3368 39.479 70.1406L38.7397 68.2823ZM29.6001 69.9277C26.9025 69.9277 24.401 69.5831 22.09 68.9017L21.5243 70.82C24.0375 71.5611 26.7313 71.9277 29.6001 71.9277V69.9277ZM22.1012 68.9051C19.7983 68.1965 17.7243 67.1364 15.8726 65.7256L14.6606 67.3164C16.7054 68.8744 18.9918 70.0408 21.513 70.8166L22.1012 68.9051ZM15.8867 65.7364C14.0685 64.2995 12.49 62.5036 11.1545 60.3371L9.45196 61.3866C10.8996 63.735 12.6301 65.7119 14.6465 67.3056L15.8867 65.7364ZM11.1545 60.3371C9.82725 58.184 8.79634 55.6257 8.07439 52.6477L6.13069 53.1189C6.89312 56.2639 7.99599 59.0247 9.45196 61.3866L11.1545 60.3371ZM8.07493 52.6499C7.35465 49.6488 6.98926 46.2347 6.98926 42.3999H4.98926C4.98926 46.3581 5.36606 49.9329 6.13015 53.1167L8.07493 52.6499ZM6.98926 42.3999L6.98926 30.061H4.98926L4.98926 42.3999H6.98926ZM6.98926 30.061C6.98926 25.2467 7.53823 21.1311 8.61351 17.6962L6.70485 17.0987C5.55356 20.7764 4.98926 25.1033 4.98926 30.061H6.98926ZM8.61189 17.7013C9.72145 14.2227 11.2825 11.3849 13.275 9.15801L11.7845 7.82442C9.57131 10.298 7.88532 13.3977 6.70647 17.0936L8.61189 17.7013ZM13.275 9.15801C15.2767 6.92083 17.6383 5.26456 20.3677 4.17868L19.6284 2.32035C16.6058 3.52288 13.9886 5.36107 11.7845 7.82442L13.275 9.15801ZM20.3677 4.17868C23.1129 3.08652 26.1554 2.5332 29.5073 2.5332V0.533203C25.9322 0.533203 22.6352 1.1241 19.6284 2.32035L20.3677 4.17868ZM29.5073 2.5332C32.2012 2.5332 34.6819 2.89228 36.9563 3.60118L37.5515 1.69178C35.0635 0.916315 32.3799 0.533203 29.5073 0.533203V2.5332ZM36.9711 3.60565C39.2655 4.28221 41.3329 5.33867 43.1805 6.77568L44.4084 5.19698C42.3595 3.60338 40.0666 2.43328 37.5367 1.68731L36.9711 3.60565ZM43.1884 6.78176C45.0289 8.18403 46.6008 9.95759 47.9014 12.1153L49.6143 11.0829C48.1935 8.72568 46.4565 6.75737 44.4005 5.1909L43.1884 6.78176ZM47.9066 12.1239C49.2328 14.2754 50.2639 16.848 50.9861 19.8574L52.9309 19.3907C52.1688 16.2151 51.066 13.4378 49.6091 11.0744L47.9066 12.1239ZM50.9866 19.8596C51.7063 22.8284 52.0718 26.226 52.0718 30.061H54.0718C54.0718 26.1031 53.695 22.5427 52.9303 19.3884L50.9866 19.8596ZM38.4395 44.3018V28.0664H36.4395V44.3018H38.4395ZM38.4395 28.0664C38.4395 25.8663 38.3139 23.9269 38.0567 22.2552L36.08 22.5593C36.3176 24.1037 36.4395 25.9371 36.4395 28.0664H38.4395ZM38.0594 22.2738C37.835 20.607 37.4776 19.1565 36.9709 17.9406L35.1248 18.7098C35.5459 19.7205 35.8687 20.9913 36.0773 22.5406L38.0594 22.2738ZM36.9799 17.9627C36.5118 16.7592 35.9082 15.7411 35.1477 14.9443L33.701 16.3252C34.2392 16.8891 34.718 17.6647 35.1158 18.6876L36.9799 17.9627ZM35.1628 14.9605C34.4149 14.1413 33.5416 13.5353 32.5451 13.1663L31.8504 15.0418C32.5239 15.2912 33.135 15.7057 33.6858 16.309L35.1628 14.9605ZM32.5874 13.183C31.6447 12.7842 30.613 12.5938 29.5073 12.5938V14.5938C30.3809 14.5938 31.1428 14.7435 31.8081 15.025L32.5874 13.183ZM29.5073 12.5938C28.1241 12.5938 26.8469 12.889 25.6983 13.4992L26.6366 15.2654C27.4672 14.8242 28.4166 14.5938 29.5073 14.5938V12.5938ZM25.7088 13.4937C24.5564 14.0885 23.6115 15.0363 22.8557 16.273L24.5623 17.3159C25.1672 16.326 25.8612 15.6657 26.6261 15.2709L25.7088 13.4937ZM22.8557 16.273C22.0933 17.5206 21.5359 19.1281 21.1513 21.0514L23.1124 21.4437C23.4699 19.656 23.964 18.2948 24.5623 17.3159L22.8557 16.273ZM21.1482 21.0672C20.7936 23.0014 20.6216 25.3388 20.6216 28.0664H22.6216C22.6216 25.4132 22.7897 23.2047 23.1154 21.4279L21.1482 21.0672ZM20.6216 28.0664L20.6216 44.3018H22.6216L22.6216 28.0664H20.6216ZM20.6216 44.3018C20.6216 46.5279 20.7312 48.4908 20.9549 50.1846L22.9377 49.9228C22.7284 48.3386 22.6216 46.4669 22.6216 44.3018H20.6216ZM20.9579 50.2058C21.2127 51.8617 21.5673 53.3093 22.0315 54.536L23.9021 53.8282C23.5004 52.7666 23.1747 51.4619 22.9347 49.9017L20.9579 50.2058ZM22.0437 54.5667C22.5412 55.7607 23.1542 56.7784 23.8982 57.5932L25.3752 56.2447C24.8204 55.637 24.3201 54.8301 23.8899 53.7975L22.0437 54.5667ZM23.9134 57.6094C24.6616 58.3933 25.5305 58.9761 26.516 59.3411L27.2106 57.4656C26.5261 57.2121 25.9106 56.8052 25.3601 56.2285L23.9134 57.6094ZM26.516 59.3411C27.4738 59.6958 28.5051 59.8672 29.6001 59.8672V57.8672C28.7159 57.8672 27.9227 57.7293 27.2106 57.4656L26.516 59.3411ZM29.6001 59.8672C30.9467 59.8672 32.1893 59.5899 33.3058 59.0136L32.3885 57.2364C31.5877 57.6497 30.6656 57.8672 29.6001 57.8672V59.8672ZM33.3058 59.0136C34.4582 58.4188 35.4032 57.471 36.1589 56.2343L34.4524 55.1914C33.8475 56.1813 33.1534 56.8416 32.3885 57.2364L33.3058 59.0136ZM36.1549 56.2408C36.9531 54.9568 37.512 53.3267 37.8664 51.3937L35.8992 51.0331C35.5733 52.811 35.0807 54.1806 34.4564 55.185L36.1549 56.2408ZM37.864 51.4064C38.2516 49.4363 38.4395 47.0635 38.4395 44.3018H36.4395C36.4395 46.9827 36.2562 49.2177 35.9016 51.0204L37.864 51.4064ZM75.5229 29.6899V28.6899H74.5229V29.6899H75.5229ZM87.9082 28.6694L88.3901 29.5457L88.3975 29.5416L87.9082 28.6694ZM90.7378 25.7007L91.6366 26.1391L91.6407 26.1306L90.7378 25.7007ZM90.7842 17.3511L89.8849 17.7885L89.8897 17.7983L89.8946 17.8079L90.7842 17.3511ZM88.1865 14.6143L87.6687 15.4698L87.6771 15.4748L87.6855 15.4797L88.1865 14.6143ZM80.0688 14.3359L80.4569 15.2576L80.4671 15.2533L80.4772 15.2488L80.0688 14.3359ZM77.1465 16.4697L76.3783 15.8295L76.3719 15.8372L76.3656 15.845L77.1465 16.4697ZM76.0332 19.856V20.856H77.0332V19.856H76.0332ZM60.3545 19.856H59.3545V20.856H60.3545V19.856ZM63.5088 10.022L62.7185 9.40926L62.7175 9.41053L63.5088 10.022ZM71.9048 3.71338L72.2917 4.63549L72.2958 4.63378L71.9048 3.71338ZM95.7939 3.71338L95.4144 4.63857L95.4212 4.64131L95.7939 3.71338ZM104.236 10.2075L103.417 10.7804L103.424 10.7904L104.236 10.2075ZM105.674 27.3242L106.558 27.7927L105.674 27.3242ZM94.2632 36.3696L94.5794 37.3183L94.5861 37.3161L94.2632 36.3696ZM75.5229 37.6685H74.5229V38.6685H75.5229V37.6685ZM75.5229 41.333H74.5229V42.333H75.5229V41.333ZM75.5229 33.54V32.54H74.5229V33.54H75.5229ZM94.959 34.6997L94.6913 35.6633L94.7013 35.6659L94.959 34.6997ZM106.788 43.5596L105.891 44.0017L105.893 44.0068L106.788 43.5596ZM106.509 59.4702L105.619 59.0141L106.509 59.4702ZM101.175 65.7324L100.578 64.9298L101.175 65.7324ZM93.1499 69.6289L93.4221 70.5912L93.431 70.5886L93.1499 69.6289ZM74.7344 69.8145L74.4695 70.7788L74.4794 70.7814L74.7344 69.8145ZM67.0342 66.2891L66.4644 67.1109L66.4719 67.116L67.0342 66.2891ZM61.4214 60.166L60.5472 60.6517L60.5508 60.6581L60.5545 60.6645L61.4214 60.166ZM59.334 51.2134V50.2134H58.334V51.2134H59.334ZM75.0127 51.2134H76.0127V50.2134H75.0127V51.2134ZM76.1724 55.1099L75.3369 55.6595L75.3454 55.6723L75.3542 55.6848L76.1724 55.1099ZM79.373 57.8467L78.9176 58.7369L79.373 57.8467ZM88.5576 57.8003L89.0293 58.6821L89.0365 58.6782L88.5576 57.8003ZM91.5728 45.2295L90.6949 45.7083L90.699 45.716L90.7033 45.7235L91.5728 45.2295ZM88.2793 42.2607L87.8806 43.1778L87.8877 43.1809L88.2793 42.2607ZM75.5229 30.6899L83.1304 30.6899V28.6899L75.5229 28.6899V30.6899ZM83.1304 30.6899C85.1862 30.6899 86.96 30.3322 88.3901 29.5456L87.4263 27.7932C86.3824 28.3673 84.971 28.6899 83.1304 28.6899V30.6899ZM88.3975 29.5416C89.837 28.734 90.926 27.5957 91.6366 26.1391L89.839 25.2623C89.3126 26.3414 88.5152 27.1823 87.419 27.7973L88.3975 29.5416ZM91.6407 26.1306C92.3359 24.6707 92.6655 22.987 92.6655 21.1084H90.6655C90.6655 22.7552 90.3767 24.133 89.8349 25.2708L91.6407 26.1306ZM92.6655 21.1084C92.6655 19.5983 92.3381 18.188 91.6737 16.8943L89.8946 17.8079C90.4054 18.8026 90.6655 19.8971 90.6655 21.1084H92.6655ZM91.6834 16.9136C91.0337 15.578 90.0229 14.5219 88.6876 13.7488L87.6855 15.4797C88.7004 16.0673 89.4214 16.8357 89.8849 17.7885L91.6834 16.9136ZM88.7043 13.7588C87.3297 12.9268 85.6358 12.5474 83.687 12.5474V14.5474C85.3873 14.5474 86.693 14.8792 87.6687 15.4698L88.7043 13.7588ZM83.687 12.5474C82.3035 12.5474 80.9587 12.8423 79.6605 13.4231L80.4772 15.2488C81.5292 14.7781 82.5965 14.5474 83.687 14.5474V12.5474ZM79.6808 13.4143C78.3667 13.9676 77.2595 14.7721 76.3783 15.8295L77.9147 17.1099C78.5797 16.3119 79.4207 15.6939 80.4569 15.2576L79.6808 13.4143ZM76.3656 15.845C75.4646 16.9712 75.0332 18.3278 75.0332 19.856H77.0332C77.0332 18.7246 77.3439 17.8237 77.9274 17.0944L76.3656 15.845ZM76.0332 18.856H60.3545V20.856H76.0332V18.856ZM61.3545 19.856C61.3545 16.2158 62.3481 13.1595 64.3001 10.6334L62.7175 9.41053C60.4638 12.3271 59.3545 15.8269 59.3545 19.856H61.3545ZM64.2991 10.6347C66.3191 8.02917 68.9742 6.02766 72.2917 4.63548L71.5178 2.79128C67.9083 4.30599 64.9661 6.51021 62.7185 9.40926L64.2991 10.6347ZM72.2958 4.63378C75.6594 3.20499 79.2829 2.48682 83.1768 2.48682V0.486816C79.0303 0.486816 75.1391 1.25302 71.5138 2.79297L72.2958 4.63378ZM83.1768 2.48682C87.8684 2.48682 91.9405 3.21337 95.4144 4.63855L96.1735 2.78821C92.411 1.24464 88.0717 0.486816 83.1768 0.486816V2.48682ZM95.4212 4.64131C98.8798 6.03068 101.53 8.08109 103.417 10.7804L105.056 9.63465C102.922 6.582 99.9444 4.30297 96.1667 2.78545L95.4212 4.64131ZM103.424 10.7904C105.32 13.4337 106.298 16.7441 106.298 20.7837H108.298C108.298 16.4119 107.235 12.6715 105.049 9.62461L103.424 10.7904ZM106.298 20.7837C106.298 22.9404 105.796 24.9596 104.791 26.8557L106.558 27.7927C107.717 25.6068 108.298 23.2657 108.298 20.7837H106.298ZM104.791 26.8557C103.778 28.7658 102.355 30.4547 100.507 31.9218L101.75 33.4884C103.798 31.863 105.406 29.9647 106.558 27.7927L104.791 26.8557ZM100.507 31.9218C98.6579 33.3892 96.4732 34.559 93.9403 35.4232L94.5861 37.3161C97.3103 36.3866 99.7025 35.1134 101.75 33.4884L100.507 31.9218ZM93.947 35.4209C91.4635 36.2488 88.7267 36.6685 85.728 36.6685V38.6685C88.9142 38.6685 91.8675 38.2223 94.5794 37.3183L93.947 35.4209ZM85.728 36.6685H75.5229V38.6685H85.728V36.6685ZM76.5229 37.6685V29.6899H74.5229V37.6685H76.5229ZM76.5229 41.333V33.54H74.5229V41.333H76.5229ZM75.5229 34.54H85.728V32.54H75.5229V34.54ZM85.728 34.54C89.023 34.54 92.0084 34.918 94.6913 35.6632L95.2266 33.7362C92.3432 32.9352 89.1746 32.54 85.728 32.54V34.54ZM94.7013 35.6659C97.3815 36.3807 99.66 37.4447 101.555 38.844L102.743 37.2351C100.618 35.6657 98.1028 34.5031 95.2166 33.7335L94.7013 35.6659ZM101.555 38.844C103.439 40.2356 104.88 41.9524 105.891 44.0017L107.685 43.1174C106.53 40.7755 104.879 38.8123 102.743 37.2351L101.555 38.844ZM105.893 44.0068C106.896 46.0117 107.411 48.3437 107.411 51.0278H109.411C109.411 48.0837 108.844 45.4369 107.682 43.1124L105.893 44.0068ZM107.411 51.0278C107.411 54.0451 106.806 56.6993 105.619 59.0141L107.399 59.9263C108.749 57.2932 109.411 54.3192 109.411 51.0278H107.411ZM105.619 59.0141C104.423 61.348 102.747 63.318 100.578 64.9298L101.771 66.535C104.18 64.7451 106.06 62.5403 107.399 59.9263L105.619 59.0141ZM100.578 64.9298C98.3955 66.5522 95.8301 67.8018 92.8688 68.6692L93.431 70.5886C96.5927 69.6624 99.3773 68.3144 101.771 66.535L100.578 64.9298ZM92.8777 68.6667C89.9152 69.5045 86.6835 69.9277 83.1768 69.9277V71.9277C86.8445 71.9277 90.2615 71.485 93.4221 70.5912L92.8777 68.6667ZM83.1768 69.9277C80.4516 69.9277 77.7231 69.5685 74.9894 68.8475L74.4794 70.7814C77.3739 71.5448 80.2737 71.9277 83.1768 71.9277V69.9277ZM74.9993 68.8502C72.2868 68.105 69.8213 66.975 67.5965 65.4621L66.4719 67.116C68.8858 68.7574 71.5537 69.9777 74.4695 70.7787L74.9993 68.8502ZM67.604 65.4673C65.4078 63.9446 63.6378 62.0145 62.2883 59.6675L60.5545 60.6645C62.05 63.2654 64.0219 65.4174 66.4644 67.1109L67.604 65.4673ZM62.2955 59.6804C61.0021 57.3521 60.334 54.5423 60.334 51.2134H58.334C58.334 54.8116 59.0575 57.9701 60.5472 60.6517L62.2955 59.6804ZM59.334 52.2134H75.0127V50.2134H59.334V52.2134ZM74.0127 51.2134C74.0127 52.8289 74.4552 54.3192 75.3369 55.6595L77.0078 54.5602C76.3433 53.5503 76.0127 52.4429 76.0127 51.2134H74.0127ZM75.3542 55.6848C76.258 56.971 77.4532 57.9877 78.9176 58.7369L79.8285 56.9564C78.6334 56.345 77.6948 55.5371 76.9906 54.5349L75.3542 55.6848ZM78.9176 58.7369C80.3934 59.492 81.9882 59.8672 83.687 59.8672V57.8672C82.2934 57.8672 81.0122 57.5621 79.8285 56.9564L78.9176 58.7369ZM83.687 59.8672C85.7253 59.8672 87.5203 59.4892 89.0293 58.6821L88.086 56.9185C86.9354 57.5339 85.4834 57.8672 83.687 57.8672V59.8672ZM89.0365 58.6782C90.5445 57.8556 91.7214 56.7405 92.5324 55.33L90.7986 54.3331C90.1871 55.3965 89.2921 56.2606 88.0788 56.9224L89.0365 58.6782ZM92.5324 55.33C93.3363 53.9319 93.7324 52.3821 93.7324 50.7031H91.7324C91.7324 52.0547 91.4172 53.2572 90.7986 54.3331L92.5324 55.33ZM93.7324 50.7031C93.7324 48.3163 93.3315 46.3006 92.4422 44.7355L90.7033 45.7235C91.3603 46.8798 91.7324 48.5132 91.7324 50.7031H93.7324ZM92.4507 44.7506C91.5984 43.1882 90.3272 42.0454 88.6709 41.3406L87.8877 43.1809C89.1383 43.7131 90.0627 44.5494 90.6949 45.7083L92.4507 44.7506ZM88.678 41.3437C87.0984 40.6569 85.2388 40.333 83.1304 40.333V42.333C85.0421 42.333 86.6152 42.6276 87.8806 43.1778L88.678 41.3437ZM83.1304 40.333H75.5229V42.333H83.1304V40.333Z" fill="#161617"/>
</svg>
