<svg width="175" height="113" viewBox="0 0 175 113" fill="none" xmlns="http://www.w3.org/2000/svg">
<path d="M32.5 3L10 25.5" stroke="#939393"/>
<path d="M48 1L7 42" stroke="#939393"/>
<path d="M35 28L7 56" stroke="#939393"/>
<path d="M60 4L43 21" stroke="#939393"/>
<path d="M115.5 3L93 25.5" stroke="#939393"/>
<path d="M131 1L94 38" stroke="#939393"/>
<path d="M144 3L125 22" stroke="#939393"/>
<path d="M155 8L137 26" stroke="#939393"/>
<path d="M162 17L139 40" stroke="#939393"/>
<path d="M166 30L93 103" stroke="#939393"/>
<path d="M159 53L102 110" stroke="#939393"/>
<path d="M139 90L119 110" stroke="#939393"/>
<path d="M155 90L135 110" stroke="#939393"/>
<path d="M169 91L150 110" stroke="#939393"/>
<path d="M69 11L54 26" stroke="#939393"/>
<path d="M75 19L56 38" stroke="#939393"/>
<path d="M80 28L57 51" stroke="#939393"/>
<path d="M32 45L7 70" stroke="#939393"/>
<path d="M33 59L9 83" stroke="#939393"/>
<path d="M33 74L13 94" stroke="#939393"/>
<path d="M35 87L19 103" stroke="#939393"/>
<path d="M45 92L28 109" stroke="#939393"/>
<path d="M82 40L57 65" stroke="#939393"/>
<path d="M82 54L55 81" stroke="#939393"/>
<path d="M82 69L39 112" stroke="#939393"/>
<path d="M79 87L55 111" stroke="#939393"/>
<path d="M77.9297 86.416L76.9769 86.1121L76.9746 86.1196L77.9297 86.416ZM70.3125 100.479L69.5672 99.8117L69.5624 99.8172L70.3125 100.479ZM31.2744 109.78L30.9803 110.736L30.9916 110.739L31.2744 109.78ZM20.9473 104.507L20.3272 105.291L20.3342 105.297L20.3412 105.302L20.9473 104.507ZM8.05664 82.9736L7.08425 83.207L7.08479 83.2092L8.05664 82.9736ZM8.93555 26.9434L7.98282 26.6395L7.98121 26.6446L8.93555 26.9434ZM55.6641 3.65234L55.3665 4.60704L55.3738 4.60934L55.3812 4.61151L55.6641 3.65234ZM65.9912 8.92578L65.3772 9.71517L65.3852 9.72121L65.9912 8.92578ZM73.8281 17.7881L72.9716 18.3043L72.9769 18.3128L73.8281 17.7881ZM78.8818 30.459L77.9094 30.6924L77.91 30.6946L78.8818 30.459ZM55.3711 34.8535L54.38 34.9869L54.3813 34.9963L54.3827 35.0056L55.3711 34.8535ZM53.7598 28.4082L52.8278 28.7706L52.8321 28.7818L52.8367 28.7928L53.7598 28.4082ZM51.1963 24.1602L50.4578 24.8344L50.4653 24.8426L50.4729 24.8506L51.1963 24.1602ZM47.6807 21.7432L47.291 22.6641L47.312 22.673L47.3333 22.6809L47.6807 21.7432ZM38.1592 22.1826L38.6179 23.0713L38.6283 23.0657L38.1592 22.1826ZM31.7871 33.0225L30.8065 32.8263L30.805 32.8342L30.8035 32.8421L31.7871 33.0225ZM31.4941 78.5059L30.5028 78.6368L30.5041 78.6474L30.5058 78.6579L31.4941 78.5059ZM33.1055 85.0244L32.1702 85.3783L32.176 85.3938L32.1824 85.409L33.1055 85.0244ZM35.7422 89.3457L35.0037 90.02L35.0112 90.0282L35.0188 90.0362L35.7422 89.3457ZM52.5879 87.4414L51.7386 86.9135L51.7346 86.92L52.5879 87.4414ZM55.0781 80.3369L54.0968 80.1439L54.0945 80.1566L55.0781 80.3369ZM79.6396 46.9385V66.4209H81.6396V46.9385H79.6396ZM79.6396 66.4209C79.6396 74.012 78.7447 80.57 76.977 86.1121L78.8824 86.7199C80.7279 80.9339 81.6396 74.1618 81.6396 66.4209H79.6396ZM76.9746 86.1196C75.2513 91.6724 72.7753 96.2262 69.5673 99.8117L71.0577 101.145C74.4903 97.3089 77.0924 92.4877 78.8848 86.7124L76.9746 86.1196ZM69.5624 99.8172C66.3936 103.412 62.6171 106.078 58.2241 107.826L58.9634 109.684C63.6524 107.819 67.6885 104.967 71.0626 101.14L69.5624 99.8172ZM58.2241 107.826C53.8139 109.58 48.9363 110.465 43.5791 110.465V112.465C49.1594 112.465 54.2916 111.543 58.9634 109.684L58.2241 107.826ZM43.5791 110.465C39.2702 110.465 35.2648 109.914 31.5572 108.821L30.9916 110.739C34.9012 111.892 39.0989 112.465 43.5791 112.465V110.465ZM31.5685 108.824C27.8691 107.686 24.5329 105.982 21.5533 103.711L20.3412 105.302C23.514 107.72 27.0626 109.531 30.9803 110.736L31.5685 108.824ZM21.5673 103.722C18.6391 101.408 16.1028 98.52 13.9616 95.0465L12.2591 96.096C14.5124 99.7515 17.2007 102.82 20.3272 105.291L21.5673 103.722ZM13.9616 95.0465C11.8287 91.5865 10.1801 87.4885 9.02849 82.738L7.08479 83.2092C8.2769 88.1267 9.99746 92.4272 12.2591 96.096L13.9616 95.0465ZM9.02903 82.7403C7.87906 77.9487 7.29883 72.5115 7.29883 66.4209H5.29883C5.29883 72.635 5.89047 78.2329 7.08425 83.207L9.02903 82.7403ZM7.29883 66.4209L7.29883 46.9385H5.29883L5.29883 66.4209H7.29883ZM7.29883 46.9385C7.29883 39.2953 8.17007 32.7359 9.88988 27.2421L7.98121 26.6446C6.1854 32.3812 5.29883 39.1519 5.29883 46.9385H7.29883ZM9.88826 27.2472C11.6603 21.6918 14.1613 17.1352 17.3712 13.5477L15.8807 12.2141C12.4501 16.0484 9.82412 20.8668 7.98284 26.6395L9.88826 27.2472ZM17.3712 13.5477C20.5903 9.9498 24.3932 7.28197 28.7876 5.53366L28.0483 3.67533C23.3607 5.54029 19.3022 8.39004 15.8807 12.2141L17.3712 13.5477ZM28.7876 5.53366C33.1978 3.77906 38.0754 2.89453 43.4326 2.89453V0.894531C37.8523 0.894531 32.7201 1.81664 28.0483 3.67533L28.7876 5.53366ZM43.4326 2.89453C47.7378 2.89453 51.7135 3.46845 55.3665 4.60704L55.9616 2.69764C52.0951 1.49249 47.9165 0.894531 43.4326 0.894531V2.89453ZM55.3812 4.61151C59.0721 5.69985 62.4018 7.40085 65.3773 9.71513L66.6052 8.13643C63.4283 5.66556 59.8732 3.85093 55.9469 2.69317L55.3812 4.61151ZM65.3852 9.72121C68.3536 11.9829 70.8833 14.8396 72.9717 18.3043L74.6846 17.2719C72.476 13.6077 69.7812 10.5562 66.5973 8.13035L65.3852 9.72121ZM72.9769 18.3128C75.1088 21.7713 76.7575 25.8926 77.9094 30.6924L79.8542 30.2256C78.6624 25.2597 76.942 20.9338 74.6794 17.2633L72.9769 18.3128ZM77.91 30.6946C79.0594 35.4358 79.6396 40.8476 79.6396 46.9385H81.6396C81.6396 40.7247 81.0481 35.1501 79.8537 30.2234L77.91 30.6946ZM56.957 69.4238L56.957 43.7891H54.957L54.957 69.4238L56.957 69.4238ZM56.957 43.7891C56.957 40.3357 56.7599 37.3042 56.3595 34.7015L54.3827 35.0056C54.7636 37.481 54.957 40.4065 54.957 43.7891H56.957ZM56.3622 34.7201C56.0125 32.1223 55.458 29.884 54.6828 28.0236L52.8367 28.7928C53.5263 30.448 54.0461 32.5066 54.38 34.9869L56.3622 34.7201ZM54.6918 28.0458C53.9731 26.1976 53.0562 24.6603 51.9196 23.4697L50.4729 24.8506C51.3872 25.8084 52.1793 27.1031 52.8278 28.7706L54.6918 28.0458ZM51.9348 23.4859C50.8108 22.2549 49.5079 21.3535 48.028 20.8054L47.3333 22.6809C48.4902 23.1094 49.5309 23.8193 50.4578 24.8344L51.9348 23.4859ZM48.0703 20.8222C46.6621 20.2264 45.1112 19.9375 43.4326 19.9375L43.4326 21.9375C44.8791 21.9375 46.1602 22.1857 47.291 22.6641L48.0703 20.8222ZM43.4326 19.9375C41.3332 19.9375 39.4116 20.3849 37.69 21.2995L38.6283 23.0657C40.0318 22.3201 41.6258 21.9375 43.4326 21.9375L43.4326 19.9375ZM37.7005 21.294C35.9931 22.1752 34.5737 23.5886 33.4241 25.4698L35.1306 26.5127C36.1294 24.8782 37.2979 23.7525 38.6178 23.0712L37.7005 21.294ZM33.4241 25.4698C32.2678 27.3619 31.406 29.8288 30.8065 32.8263L32.7677 33.2186C33.3401 30.3567 34.1385 28.1361 35.1306 26.5127L33.4241 25.4698ZM30.8035 32.8421C30.252 35.8505 29.9814 39.5038 29.9814 43.7891H31.9814C31.9814 39.5782 32.248 36.0538 32.7707 33.2028L30.8035 32.8421ZM29.9814 43.7891L29.9814 69.4238H31.9814L31.9814 43.7891H29.9814ZM29.9814 69.4238C29.9814 72.9212 30.1537 75.9941 30.5028 78.6368L32.4855 78.3749C32.151 75.8419 31.9814 72.8601 31.9814 69.4238H29.9814ZM30.5058 78.6579C30.9038 81.2448 31.4554 83.4891 32.1702 85.3783L34.0408 84.6705C33.3884 82.9464 32.8658 80.845 32.4825 78.3538L30.5058 78.6579ZM32.1824 85.409C32.9484 87.2476 33.8837 88.7933 35.0037 90.02L36.4807 88.6714C35.5499 87.652 34.7273 86.3169 34.0285 84.6398L32.1824 85.409ZM35.0188 90.0362C36.1431 91.214 37.4416 92.0832 38.9105 92.6272L39.6051 90.7517C38.4373 90.3192 37.3921 89.6259 36.4655 88.6552L35.0188 90.0362ZM38.9105 92.6272C40.3517 93.161 41.9112 93.4219 43.5791 93.4219V91.4219C42.122 91.4219 40.8006 91.1945 39.6051 90.7517L38.9105 92.6272ZM43.5791 93.4219C45.6239 93.4219 47.4932 93.0013 49.1647 92.1386L48.2474 90.3614C46.8916 91.0612 45.3429 91.4219 43.5791 91.4219V93.4219ZM49.1647 92.1386C50.8721 91.2574 52.2915 89.8441 53.4412 87.9629L51.7346 86.92C50.7358 88.5544 49.5673 89.6801 48.2474 90.3614L49.1647 92.1386ZM53.4372 87.9693C54.6471 86.0229 55.5104 83.5245 56.0617 80.5172L54.0945 80.1566C53.5716 83.0087 52.7747 85.2467 51.7386 86.9135L53.4372 87.9693ZM56.0593 80.5299C56.6617 77.4677 56.957 73.7611 56.957 69.4238L54.957 69.4238C54.957 73.6803 54.6664 77.2491 54.0969 80.1439L56.0593 80.5299ZM168.018 90.957H169.018V89.957H168.018V90.957ZM168.018 110V111H169.018V110H168.018ZM93.6035 110H92.6035V111H93.6035V110ZM93.6035 93.8867L92.879 93.1975L92.6035 93.4871V93.8867H93.6035ZM127.881 57.8516L128.605 58.5408L128.62 58.5254L128.634 58.5093L127.881 57.8516ZM135.205 48.5498L136.033 49.1113L136.037 49.1045L135.205 48.5498ZM139.233 41.0059L138.302 40.6415L138.299 40.6503L138.295 40.6592L139.233 41.0059ZM139.16 27.2363L138.238 27.6225L138.243 27.6356L138.249 27.6485L139.16 27.2363ZM135.205 22.4756L134.673 23.3223L134.684 23.3289L135.205 22.4756ZM117.7 29.0674L116.779 28.6777L116.776 28.6853L116.773 28.6929L117.7 29.0674ZM116.162 37.6367V38.6367H117.162V37.6367H116.162ZM91.4062 37.6367H90.4062V38.6367H91.4062V37.6367ZM96.167 19.6924L95.3074 19.1813L95.3041 19.1871L96.167 19.6924ZM109.57 6.72852L110.062 7.59951L110.067 7.5963L109.57 6.72852ZM161.206 16.1035L160.341 16.6046L160.347 16.6153L161.206 16.1035ZM158.496 53.6035L159.33 54.1554L159.334 54.1498L158.496 53.6035ZM150.439 63.8574L149.697 63.1873L149.692 63.1931L150.439 63.8574ZM139.746 75.0635L139.043 74.352L139.016 74.3793L138.99 74.4087L139.746 75.0635ZM125.977 90.957L125.221 90.3022L123.787 91.957H125.977V90.957ZM167.018 90.957V110H169.018V90.957H167.018ZM168.018 109L93.6035 109V111L168.018 111V109ZM94.6035 110V93.8867H92.6035V110H94.6035ZM94.3281 94.5759L128.605 58.5408L127.156 57.1623L92.879 93.1975L94.3281 94.5759ZM128.634 58.5093C131.679 55.0229 134.147 51.8894 136.033 49.1113L134.378 47.9883C132.552 50.679 130.138 53.7467 127.128 57.1938L128.634 58.5093ZM136.037 49.1045C137.92 46.2799 139.306 43.6943 140.171 41.3525L138.295 40.6592C137.501 42.8096 136.201 45.2533 134.373 47.9951L136.037 49.1045ZM140.165 41.3703C141.075 39.0447 141.552 36.8922 141.552 34.9268H139.552C139.552 36.5746 139.15 38.4748 138.302 40.6415L140.165 41.3703ZM141.552 34.9268C141.552 31.7575 141.075 29.0427 140.071 26.8242L138.249 27.6485C139.101 29.5315 139.552 31.9437 139.552 34.9268H141.552ZM140.083 26.8502C139.131 24.5779 137.683 22.8177 135.727 21.6223L134.684 23.3289C136.243 24.2819 137.431 25.6955 138.238 27.6225L140.083 26.8502ZM135.737 21.6289C133.832 20.4316 131.512 19.8643 128.833 19.8643V21.8643C131.232 21.8643 133.16 22.3711 134.673 23.3222L135.737 21.6289ZM128.833 19.8643C126.087 19.8643 123.648 20.6616 121.558 22.2689L122.778 23.8541C124.497 22.5317 126.501 21.8643 128.833 21.8643V19.8643ZM121.558 22.2689C119.498 23.8536 117.911 26.0035 116.779 28.6777L118.621 29.457C119.638 27.0531 121.029 25.1991 122.778 23.8541L121.558 22.2689ZM116.773 28.6929C115.692 31.3683 115.162 34.3547 115.162 37.6367H117.162C117.162 34.5711 117.657 31.8446 118.627 29.4418L116.773 28.6929ZM116.162 36.6367L91.4062 36.6367V38.6367L116.162 38.6367V36.6367ZM92.4062 37.6367C92.4062 31.2636 93.9497 25.4578 97.0299 20.1977L95.3041 19.1871C92.0366 24.7668 90.4062 30.9239 90.4062 37.6367H92.4062ZM97.0265 20.2035C100.156 14.9398 104.494 10.74 110.062 7.59949L109.079 5.85754C103.22 9.16237 98.623 13.6052 95.3075 19.1813L97.0265 20.2035ZM110.067 7.5963C115.608 4.42316 122.049 2.82129 129.419 2.82129V0.821289C121.75 0.821289 114.958 2.4909 109.073 5.86073L110.067 7.5963ZM129.419 2.82129C137.183 2.82129 143.623 4.02777 148.777 6.39233L149.611 4.57447C144.121 2.05622 137.377 0.821289 129.419 0.821289V2.82129ZM148.777 6.39233C153.93 8.75583 157.768 12.1616 160.341 16.6046L162.071 15.6025C159.273 10.7681 155.103 7.09378 149.611 4.57447L148.777 6.39233ZM160.347 16.6153C162.971 21.0201 164.308 26.3767 164.308 32.7295H166.308C166.308 26.094 164.91 20.3666 162.065 15.5917L160.347 16.6153ZM164.308 32.7295C164.308 36.3331 163.739 39.7878 162.604 43.0985L164.496 43.7472C165.704 40.222 166.308 36.5478 166.308 32.7295H164.308ZM162.604 43.0985C161.462 46.4301 159.816 49.7496 157.658 53.0572L159.334 54.1498C161.571 50.7191 163.294 47.2516 164.496 43.7472L162.604 43.0985ZM157.662 53.0516C155.497 56.3234 152.844 59.702 149.697 63.1873L151.182 64.5275C154.383 60.9816 157.101 57.5243 159.33 54.1554L157.662 53.0516ZM149.692 63.1931C146.584 66.6897 143.035 70.4093 139.043 74.352L140.449 75.7749C144.465 71.8075 148.045 68.0563 151.187 64.5218L149.692 63.1931ZM138.99 74.4087L125.221 90.3022L126.732 91.6118L140.502 75.7183L138.99 74.4087ZM125.977 91.957H168.018V89.957H125.977V91.957Z" fill="#161617"/>
</svg>
