<svg width="95" height="74" viewBox="0 0 95 74" fill="none" xmlns="http://www.w3.org/2000/svg">
<path d="M18 2L4 17" stroke="#939393"/>
<path d="M28 1L2 27" stroke="#939393"/>
<path d="M20 18L2 36" stroke="#939393"/>
<path d="M36 3L25 14" stroke="#939393"/>
<path d="M41 8L32 17" stroke="#939393"/>
<path d="M45 13L33 25" stroke="#939393"/>
<path d="M48 18L34 33" stroke="#939393"/>
<path d="M71 9L61 20" stroke="#939393"/>
<path d="M83 5L64 25" stroke="#939393"/>
<path d="M93 4L76 22" stroke="#939393"/>
<path d="M93 14L76 30" stroke="#939393"/>
<path d="M93 23L76 40" stroke="#939393"/>
<path d="M93 34L76 50" stroke="#939393"/>
<path d="M93 44L76 60" stroke="#939393"/>
<path d="M93 54L76 71" stroke="#939393"/>
<path d="M93 65L87 71" stroke="#939393"/>
<path d="M18 29L2 45" stroke="#939393"/>
<path d="M19 38L3 53" stroke="#939393"/>
<path d="M19 48L6 60" stroke="#939393"/>
<path d="M20 56L10 66" stroke="#939393"/>
<path d="M26 59L15 70" stroke="#939393"/>
<path d="M50 26L34 42" stroke="#939393"/>
<path d="M50 35L33 52" stroke="#939393"/>
<path d="M50 44L22 72" stroke="#939393"/>
<path d="M48 56L33 71" stroke="#939393"/>
<path d="M17.6601 71.3388L17.6657 71.3404C20.1283 72.0666 22.7741 72.4277 25.6001 72.4277C29.1194 72.4277 32.3528 71.8462 35.2942 70.676C38.2436 69.5026 40.782 67.7096 42.905 65.3019C45.063 62.8895 46.702 59.855 47.8324 56.2137C48.9957 52.5659 49.5718 48.2917 49.5718 43.3999V31.061C49.5718 27.1343 49.1979 23.615 48.4447 20.5073C47.6928 17.3743 46.6083 14.6488 45.1847 12.3388C43.7947 10.0332 42.1 8.11479 40.0994 6.5901C38.1023 5.03722 35.8677 3.89641 33.399 3.16799C30.9655 2.40993 28.3338 2.0332 25.5073 2.0332C21.988 2.0332 18.7546 2.6147 15.8132 3.78493C12.8639 4.9583 10.3106 6.75101 8.15716 9.15781C5.99912 11.5697 4.34435 14.604 3.18282 18.2455L3.18282 18.2455L3.18201 18.2481C2.04973 21.8651 1.48926 26.1391 1.48926 31.061V43.3999C1.48926 47.3272 1.8632 50.8619 2.61634 54L2.61661 54.0011C3.36892 57.1044 4.45381 59.8145 5.87759 62.1242C7.29723 64.4272 8.98968 66.3588 10.9566 67.9133L10.9565 67.9133L10.9636 67.9187C12.9601 69.4399 15.1934 70.5798 17.6601 71.3388ZM32.5728 23.4739L32.5727 23.4739L32.5742 23.4833C32.8167 25.0595 32.9395 26.9194 32.9395 29.0664V45.3018C32.9395 48.0029 32.7551 50.2723 32.3922 52.1169L32.3922 52.1169L32.391 52.1232C32.0579 53.9399 31.5488 55.3746 30.881 56.4489L30.879 56.4522C30.2364 57.5037 29.4796 58.2359 28.6178 58.6807C27.7381 59.1348 26.7359 59.3672 25.6001 59.3672C24.6632 59.3672 23.8105 59.2209 23.0369 58.9344C22.2789 58.6537 21.6013 58.2042 21.0022 57.5777C20.4031 56.9204 19.877 56.0646 19.4315 54.9975C19.016 53.8972 18.6844 52.5611 18.4413 50.9829C18.2289 49.3725 18.1216 47.4797 18.1216 45.3018V29.0664C18.1216 26.3965 18.2904 24.157 18.6229 22.3416C18.9872 20.522 19.4968 19.1005 20.1356 18.0552C20.7783 17.0036 21.535 16.2714 22.3968 15.8266L22.3968 15.8267L22.4021 15.8239C23.3121 15.3404 24.3435 15.0938 25.5073 15.0938C26.4389 15.0938 27.2682 15.2537 28.0029 15.5645L28.0134 15.5689L28.0241 15.5729C28.7783 15.8522 29.4549 16.3146 30.0551 16.9719L30.055 16.972L30.0626 16.98C30.6565 17.6021 31.1665 18.4383 31.5819 19.5064L31.5817 19.5065L31.5863 19.5175C32.0288 20.5795 32.3603 21.8952 32.5728 23.4739ZM92.3867 3.46094V2.96094H91.8867H90.4487H90.3646L90.2851 2.98848L60.6903 13.2399L60.354 13.3565V13.7124V25.5874V26.2544L60.9942 26.0673L75.7544 21.7549V71V71.5H76.2544H91.8867H92.3867V71V3.46094Z" stroke="#353535"/>
</svg>
