<svg width="175" height="113" viewBox="0 0 175 113" fill="none" xmlns="http://www.w3.org/2000/svg">
<path d="M32.5 3L10 25.5" stroke="#939393"/>
<path d="M48 1L7 42" stroke="#939393"/>
<path d="M35 28L7 56" stroke="#939393"/>
<path d="M60 4L43 21" stroke="#939393"/>
<path d="M115.5 3L93 25.5" stroke="#939393"/>
<path d="M131 1L101 31" stroke="#939393"/>
<path d="M144 3L125 22" stroke="#939393"/>
<path d="M155 8L138 25" stroke="#939393"/>
<path d="M163 17L115 65" stroke="#939393"/>
<path d="M166 30L130 66" stroke="#939393"/>
<path d="M116 80L97 99" stroke="#939393"/>
<path d="M155 57L141 71" stroke="#939393"/>
<path d="M122 90L105 107" stroke="#939393"/>
<path d="M164 65L119 110" stroke="#939393"/>
<path d="M168 77L135 110" stroke="#939393"/>
<path d="M69 11L54 26" stroke="#939393"/>
<path d="M75 19L56 38" stroke="#939393"/>
<path d="M79 29L56 52" stroke="#939393"/>
<path d="M32 45L6 71" stroke="#939393"/>
<path d="M32 60L8 84" stroke="#939393"/>
<path d="M32 75L12 95" stroke="#939393"/>
<path d="M35 87L19 103" stroke="#939393"/>
<path d="M45 92L28 109" stroke="#939393"/>
<path d="M81 41L55 67" stroke="#939393"/>
<path d="M82 54L55 81" stroke="#939393"/>
<path d="M81 70L39 112" stroke="#939393"/>
<path d="M79 87L55 111" stroke="#939393"/>
<path d="M77.9297 86.416L76.9769 86.1121L76.9746 86.1196L77.9297 86.416ZM70.3125 100.479L69.5672 99.8117L69.5624 99.8172L70.3125 100.479ZM31.2744 109.78L30.9803 110.736L30.9916 110.739L31.2744 109.78ZM20.9473 104.507L20.3272 105.291L20.3342 105.297L20.3412 105.302L20.9473 104.507ZM8.05664 82.9736L7.08425 83.207L7.08479 83.2092L8.05664 82.9736ZM8.93555 26.9434L7.98282 26.6395L7.98121 26.6446L8.93555 26.9434ZM55.6641 3.65234L55.3665 4.60704L55.3738 4.60934L55.3812 4.61151L55.6641 3.65234ZM65.9912 8.92578L65.3772 9.71517L65.3852 9.72121L65.9912 8.92578ZM73.8281 17.7881L72.9716 18.3043L72.9769 18.3128L73.8281 17.7881ZM78.8818 30.459L77.9094 30.6924L77.91 30.6946L78.8818 30.459ZM55.3711 34.8535L54.38 34.9869L54.3813 34.9963L54.3827 35.0056L55.3711 34.8535ZM53.7598 28.4082L52.8278 28.7706L52.8321 28.7818L52.8367 28.7928L53.7598 28.4082ZM51.1963 24.1602L50.4578 24.8344L50.4653 24.8426L50.4729 24.8506L51.1963 24.1602ZM47.6807 21.7432L47.291 22.6641L47.312 22.673L47.3333 22.6809L47.6807 21.7432ZM38.1592 22.1826L38.6179 23.0713L38.6283 23.0657L38.1592 22.1826ZM31.7871 33.0225L30.8065 32.8263L30.805 32.8342L30.8035 32.8421L31.7871 33.0225ZM31.4941 78.5059L30.5028 78.6368L30.5041 78.6474L30.5058 78.6579L31.4941 78.5059ZM33.1055 85.0244L32.1702 85.3783L32.176 85.3938L32.1824 85.409L33.1055 85.0244ZM35.7422 89.3457L35.0037 90.02L35.0112 90.0282L35.0188 90.0362L35.7422 89.3457ZM52.5879 87.4414L51.7386 86.9135L51.7346 86.92L52.5879 87.4414ZM55.0781 80.3369L54.0968 80.1439L54.0945 80.1566L55.0781 80.3369ZM79.6396 46.9385V66.4209H81.6396V46.9385H79.6396ZM79.6396 66.4209C79.6396 74.012 78.7447 80.57 76.977 86.1121L78.8824 86.7199C80.7279 80.9339 81.6396 74.1618 81.6396 66.4209H79.6396ZM76.9746 86.1196C75.2513 91.6724 72.7753 96.2262 69.5673 99.8117L71.0577 101.145C74.4903 97.3089 77.0924 92.4877 78.8848 86.7124L76.9746 86.1196ZM69.5624 99.8172C66.3936 103.412 62.6171 106.078 58.2241 107.826L58.9634 109.684C63.6524 107.819 67.6885 104.967 71.0626 101.14L69.5624 99.8172ZM58.2241 107.826C53.8139 109.58 48.9363 110.465 43.5791 110.465V112.465C49.1594 112.465 54.2916 111.543 58.9634 109.684L58.2241 107.826ZM43.5791 110.465C39.2702 110.465 35.2648 109.914 31.5572 108.821L30.9916 110.739C34.9012 111.892 39.0989 112.465 43.5791 112.465V110.465ZM31.5685 108.824C27.8691 107.686 24.5329 105.982 21.5533 103.711L20.3412 105.302C23.514 107.72 27.0626 109.531 30.9803 110.736L31.5685 108.824ZM21.5673 103.722C18.6391 101.408 16.1028 98.52 13.9616 95.0465L12.2591 96.096C14.5124 99.7515 17.2007 102.82 20.3272 105.291L21.5673 103.722ZM13.9616 95.0465C11.8287 91.5865 10.1801 87.4885 9.02849 82.738L7.08479 83.2092C8.2769 88.1267 9.99746 92.4272 12.2591 96.096L13.9616 95.0465ZM9.02903 82.7403C7.87906 77.9487 7.29883 72.5115 7.29883 66.4209H5.29883C5.29883 72.635 5.89047 78.2329 7.08425 83.207L9.02903 82.7403ZM7.29883 66.4209L7.29883 46.9385H5.29883L5.29883 66.4209H7.29883ZM7.29883 46.9385C7.29883 39.2953 8.17007 32.7359 9.88988 27.2421L7.98121 26.6446C6.1854 32.3812 5.29883 39.1519 5.29883 46.9385H7.29883ZM9.88826 27.2472C11.6603 21.6918 14.1613 17.1352 17.3712 13.5477L15.8807 12.2141C12.4501 16.0484 9.82412 20.8668 7.98284 26.6395L9.88826 27.2472ZM17.3712 13.5477C20.5903 9.9498 24.3932 7.28197 28.7876 5.53366L28.0483 3.67533C23.3607 5.54029 19.3022 8.39004 15.8807 12.2141L17.3712 13.5477ZM28.7876 5.53366C33.1978 3.77906 38.0754 2.89453 43.4326 2.89453V0.894531C37.8523 0.894531 32.7201 1.81664 28.0483 3.67533L28.7876 5.53366ZM43.4326 2.89453C47.7378 2.89453 51.7135 3.46845 55.3665 4.60704L55.9616 2.69764C52.0951 1.49249 47.9165 0.894531 43.4326 0.894531V2.89453ZM55.3812 4.61151C59.0721 5.69985 62.4018 7.40085 65.3773 9.71513L66.6052 8.13643C63.4283 5.66556 59.8732 3.85093 55.9469 2.69317L55.3812 4.61151ZM65.3852 9.72121C68.3536 11.9829 70.8833 14.8396 72.9717 18.3043L74.6846 17.2719C72.476 13.6077 69.7812 10.5562 66.5973 8.13035L65.3852 9.72121ZM72.9769 18.3128C75.1088 21.7713 76.7575 25.8926 77.9094 30.6924L79.8542 30.2256C78.6624 25.2597 76.942 20.9338 74.6794 17.2633L72.9769 18.3128ZM77.91 30.6946C79.0594 35.4358 79.6396 40.8476 79.6396 46.9385H81.6396C81.6396 40.7247 81.0481 35.1501 79.8537 30.2234L77.91 30.6946ZM56.957 69.4238L56.957 43.7891H54.957L54.957 69.4238L56.957 69.4238ZM56.957 43.7891C56.957 40.3357 56.7599 37.3042 56.3595 34.7015L54.3827 35.0056C54.7636 37.481 54.957 40.4065 54.957 43.7891H56.957ZM56.3622 34.7201C56.0125 32.1223 55.458 29.884 54.6828 28.0236L52.8367 28.7928C53.5263 30.448 54.0461 32.5066 54.38 34.9869L56.3622 34.7201ZM54.6918 28.0458C53.9731 26.1976 53.0562 24.6603 51.9196 23.4697L50.4729 24.8506C51.3872 25.8084 52.1793 27.1031 52.8278 28.7706L54.6918 28.0458ZM51.9348 23.4859C50.8108 22.2549 49.5079 21.3535 48.028 20.8054L47.3333 22.6809C48.4902 23.1094 49.5309 23.8193 50.4578 24.8344L51.9348 23.4859ZM48.0703 20.8222C46.6621 20.2264 45.1112 19.9375 43.4326 19.9375L43.4326 21.9375C44.8791 21.9375 46.1602 22.1857 47.291 22.6641L48.0703 20.8222ZM43.4326 19.9375C41.3332 19.9375 39.4116 20.3849 37.69 21.2995L38.6283 23.0657C40.0318 22.3201 41.6258 21.9375 43.4326 21.9375L43.4326 19.9375ZM37.7005 21.294C35.9931 22.1752 34.5737 23.5886 33.4241 25.4698L35.1306 26.5127C36.1294 24.8782 37.2979 23.7525 38.6178 23.0712L37.7005 21.294ZM33.4241 25.4698C32.2678 27.3619 31.406 29.8288 30.8065 32.8263L32.7677 33.2186C33.3401 30.3567 34.1385 28.1361 35.1306 26.5127L33.4241 25.4698ZM30.8035 32.8421C30.252 35.8505 29.9814 39.5038 29.9814 43.7891H31.9814C31.9814 39.5782 32.248 36.0538 32.7707 33.2028L30.8035 32.8421ZM29.9814 43.7891L29.9814 69.4238H31.9814L31.9814 43.7891H29.9814ZM29.9814 69.4238C29.9814 72.9212 30.1537 75.9941 30.5028 78.6368L32.4855 78.3749C32.151 75.8419 31.9814 72.8601 31.9814 69.4238H29.9814ZM30.5058 78.6579C30.9038 81.2448 31.4554 83.4891 32.1702 85.3783L34.0408 84.6705C33.3884 82.9464 32.8658 80.845 32.4825 78.3538L30.5058 78.6579ZM32.1824 85.409C32.9484 87.2476 33.8837 88.7933 35.0037 90.02L36.4807 88.6714C35.5499 87.652 34.7273 86.3169 34.0285 84.6398L32.1824 85.409ZM35.0188 90.0362C36.1431 91.214 37.4416 92.0832 38.9105 92.6272L39.6051 90.7517C38.4373 90.3192 37.3921 89.6259 36.4655 88.6552L35.0188 90.0362ZM38.9105 92.6272C40.3517 93.161 41.9112 93.4219 43.5791 93.4219V91.4219C42.122 91.4219 40.8006 91.1945 39.6051 90.7517L38.9105 92.6272ZM43.5791 93.4219C45.6239 93.4219 47.4932 93.0013 49.1647 92.1386L48.2474 90.3614C46.8916 91.0612 45.3429 91.4219 43.5791 91.4219V93.4219ZM49.1647 92.1386C50.8721 91.2574 52.2915 89.8441 53.4412 87.9629L51.7346 86.92C50.7358 88.5544 49.5673 89.6801 48.2474 90.3614L49.1647 92.1386ZM53.4372 87.9693C54.6471 86.0229 55.5104 83.5245 56.0617 80.5172L54.0945 80.1566C53.5716 83.0087 52.7747 85.2467 51.7386 86.9135L53.4372 87.9693ZM56.0593 80.5299C56.6617 77.4677 56.957 73.7611 56.957 69.4238L54.957 69.4238C54.957 73.6803 54.6664 77.2491 54.0969 80.1439L56.0593 80.5299ZM116.089 46.3525V45.3525H115.089V46.3525H116.089ZM135.645 44.7412L136.126 45.6175L136.134 45.6134L135.645 44.7412ZM140.112 40.0537L141.011 40.4922L141.015 40.4836L140.112 40.0537ZM140.186 26.8701L139.286 27.3076L139.291 27.3173L139.296 27.3269L140.186 26.8701ZM136.084 22.5488L135.566 23.4043L135.575 23.4094L135.583 23.4143L136.084 22.5488ZM123.267 22.1094L123.655 23.031L123.665 23.0267L123.675 23.0222L123.267 22.1094ZM118.652 25.4785L117.884 24.8383L117.878 24.846L117.871 24.8538L118.652 25.4785ZM116.895 30.8252V31.8252H117.895V30.8252H116.895ZM92.1387 30.8252H91.1387V31.8252H92.1387V30.8252ZM97.1191 15.2979L96.3288 14.6851L96.3279 14.6864L97.1191 15.2979ZM110.376 5.33691L110.763 6.25902L110.767 6.25732L110.376 5.33691ZM148.096 5.33691L147.716 6.26211L147.723 6.26484L148.096 5.33691ZM161.426 15.5908L160.606 16.1637L160.613 16.1737L161.426 15.5908ZM145.679 56.8994L145.995 57.8481L146.002 57.8458L145.679 56.8994ZM116.089 58.9502L115.089 58.9502V59.9502L116.089 59.9502V58.9502ZM116.089 64.7363H115.089V65.7363H116.089V64.7363ZM116.089 52.4316V51.4316H115.089V52.4316L116.089 52.4316ZM146.777 54.2627L146.51 55.2263L146.52 55.2289L146.777 54.2627ZM165.454 68.252L164.557 68.6941L164.56 68.6992L165.454 68.252ZM143.921 109.414L144.193 110.376L144.202 110.374L143.921 109.414ZM114.844 109.707L114.579 110.671L114.589 110.674L114.844 109.707ZM102.686 104.141L102.116 104.962L102.123 104.968L102.686 104.141ZM93.8232 94.4727L92.9491 94.9583L92.9527 94.9647L92.9563 94.9711L93.8232 94.4727ZM90.5273 80.3369V79.3369H89.5273V80.3369H90.5273ZM115.283 80.3369H116.283V79.3369H115.283V80.3369ZM117.114 86.4893L116.279 87.0389L116.287 87.0517L116.296 87.0642L117.114 86.4893ZM136.67 90.7373L137.142 91.6191L137.149 91.6152L136.67 90.7373ZM141.431 70.8887L140.553 71.3675L140.557 71.3751L140.561 71.3827L141.431 70.8887ZM136.23 66.2012L135.832 67.1183L135.839 67.1213L136.23 66.2012ZM116.089 47.3525H128.101V45.3525H116.089V47.3525ZM128.101 47.3525C131.284 47.3525 133.98 46.7979 136.126 45.6174L135.163 43.865C133.403 44.833 131.069 45.3525 128.101 45.3525V47.3525ZM136.134 45.6134C138.307 44.394 139.942 42.6828 141.011 40.4921L139.214 39.6153C138.329 41.4285 136.986 42.8423 135.155 43.8691L136.134 45.6134ZM141.015 40.4836C142.068 38.2718 142.577 35.7018 142.577 32.8027H140.577C140.577 35.47 140.109 37.7341 139.209 39.6238L141.015 40.4836ZM142.577 32.8027C142.577 30.5049 142.08 28.3695 141.075 26.4133L139.296 27.3269C140.147 28.9841 140.577 30.8037 140.577 32.8027H142.577ZM141.085 26.4327C140.113 24.4346 138.601 22.8504 136.585 21.6834L135.583 23.4143C137.278 24.3957 138.501 25.6923 139.286 27.3076L141.085 26.4327ZM136.602 21.6933C134.547 20.4496 131.985 19.8643 128.979 19.8643V21.8643C131.736 21.8643 133.91 22.402 135.566 23.4043L136.602 21.6933ZM128.979 19.8643C126.88 19.8643 124.837 20.3114 122.858 21.1966L123.675 23.0222C125.407 22.2472 127.173 21.8643 128.979 21.8643V19.8643ZM122.879 21.1877C120.884 22.0275 119.213 23.2437 117.884 24.8383L119.421 26.1187C120.533 24.7836 121.938 23.7538 123.655 23.031L122.879 21.1877ZM117.871 24.8538C116.541 26.5171 115.895 28.5272 115.895 30.8252L117.895 30.8252C117.895 28.924 118.42 27.3696 119.433 26.1032L117.871 24.8538ZM116.895 29.8252L92.1387 29.8252V31.8252L116.895 31.8252V29.8252ZM93.1387 30.8252C93.1387 24.9649 94.741 20.0109 97.9104 15.9093L96.3279 14.6864C92.8567 19.1785 91.1387 24.5761 91.1387 30.8252H93.1387ZM97.9094 15.9106C101.165 11.7116 105.44 8.49267 110.763 6.25901L109.989 4.41481C104.374 6.771 99.8118 10.1927 96.3288 14.6851L97.9094 15.9106ZM110.767 6.25732C116.154 3.96915 121.952 2.82129 128.174 2.82129V0.821289C121.7 0.821289 115.633 2.01718 109.985 4.41651L110.767 6.25732ZM128.174 2.82129C135.641 2.82129 142.148 3.97753 147.716 6.26208L148.475 4.41175C142.618 2.0088 135.844 0.821289 128.174 0.821289V2.82129ZM147.723 6.26484C153.276 8.49569 157.556 11.7993 160.606 16.1637L162.245 15.0179C158.948 10.3003 154.341 6.76798 148.468 4.40899L147.723 6.26484ZM160.613 16.1737C163.691 20.4641 165.26 25.8155 165.26 32.29H167.26C167.26 25.4833 165.606 19.7019 162.238 15.0079L160.613 16.1737ZM165.26 32.29C165.26 35.7895 164.445 39.0709 162.813 42.1487L164.58 43.0857C166.366 39.7181 167.26 36.1148 167.26 32.29H165.26ZM162.813 42.1487C161.173 45.2404 158.873 47.9677 155.897 50.33L157.14 51.8966C160.316 49.3761 162.801 46.4393 164.58 43.0857L162.813 42.1487ZM155.897 50.33C152.92 52.6926 149.411 54.5696 145.356 55.953L146.002 57.8458C150.248 56.3972 153.965 54.4168 157.14 51.8966L155.897 50.33ZM145.362 55.9507C141.375 57.2798 136.991 57.9502 132.202 57.9502V59.9502C137.179 59.9502 141.779 59.2534 145.995 57.8481L145.362 55.9507ZM132.202 57.9502H116.089V59.9502H132.202V57.9502ZM117.089 58.9502V46.3525H115.089V58.9502L117.089 58.9502ZM117.089 64.7363V52.4316L115.089 52.4316V64.7363H117.089ZM116.089 53.4316H132.202V51.4316H116.089V53.4316ZM132.202 53.4316C137.449 53.4316 142.215 54.0334 146.51 55.2262L147.045 53.2992C142.55 52.0506 137.6 51.4316 132.202 51.4316V53.4316ZM146.52 55.2289C150.811 56.3733 154.477 58.0819 157.536 60.3406L158.724 58.7317C155.435 56.3029 151.533 54.4958 147.035 53.2965L146.52 55.2289ZM157.536 60.3406C160.584 62.5915 162.92 65.3736 164.557 68.6941L166.351 67.8098C164.57 64.1967 162.023 61.1683 158.724 58.7317L157.536 60.3406ZM164.56 68.6992C166.189 71.9573 167.018 75.7306 167.018 80.0439H169.018C169.018 75.4706 168.137 71.3825 166.349 67.8047L164.56 68.6992ZM167.018 80.0439C167.018 84.8873 166.045 89.1708 164.125 92.9179L165.905 93.8301C167.988 89.7647 169.018 85.1615 169.018 80.0439H167.018ZM164.125 92.9179C162.195 96.6841 159.489 99.8626 155.995 102.459L157.188 104.064C160.921 101.29 163.831 97.8764 165.905 93.8301L164.125 92.9179ZM155.995 102.459C152.488 105.066 148.374 107.068 143.64 108.454L144.202 110.374C149.136 108.928 153.469 106.828 157.188 104.064L155.995 102.459ZM143.649 108.452C138.914 109.791 133.757 110.465 128.174 110.465V112.465C133.918 112.465 139.26 111.772 144.193 110.376L143.649 108.452ZM128.174 110.465C123.819 110.465 119.462 109.891 115.099 108.74L114.589 110.674C119.112 111.867 123.641 112.465 128.174 112.465V110.465ZM115.109 108.743C110.767 107.55 106.815 105.74 103.248 103.314L102.123 104.968C105.88 107.522 110.034 109.423 114.579 110.671L115.109 108.743ZM103.255 103.319C99.7164 100.865 96.8632 97.7535 94.6901 93.9742L92.9563 94.9711C95.2754 99.0044 98.3305 102.338 102.116 104.962L103.255 103.319ZM94.6974 93.987C92.5983 90.2086 91.5273 85.671 91.5273 80.3369H89.5273C89.5273 85.9403 90.6537 90.8266 92.9491 94.9583L94.6974 93.987ZM90.5273 81.3369L115.283 81.3369V79.3369L90.5273 79.3369V81.3369ZM114.283 80.3369C114.283 82.776 114.949 85.0183 116.279 87.0389L117.95 85.9396C116.838 84.2493 116.283 82.39 116.283 80.3369H114.283ZM116.296 87.0642C117.665 89.0129 119.478 90.5577 121.712 91.7008L122.623 89.9203C120.658 88.9149 119.102 87.5789 117.932 85.9143L116.296 87.0642ZM121.712 91.7008C123.958 92.8497 126.385 93.4219 128.979 93.4219V91.4219C126.691 91.4219 124.577 90.9198 122.623 89.9203L121.712 91.7008ZM128.979 93.4219C132.128 93.4219 134.863 92.838 137.142 91.6191L136.198 89.8555C134.278 90.8827 131.886 91.4219 128.979 91.4219V93.4219ZM137.149 91.6152C139.445 90.3629 141.221 88.6749 142.444 86.5483L140.71 85.5513C139.687 87.3309 138.192 88.7679 136.191 89.8594L137.149 91.6152ZM142.444 86.5483C143.66 84.434 144.262 82.0875 144.262 79.5313H142.262C142.262 81.7601 141.741 83.7593 140.71 85.5513L142.444 86.5483ZM144.262 79.5313C144.262 75.8195 143.637 72.7475 142.3 70.3947L140.561 71.3827C141.666 73.3267 142.262 76.0164 142.262 79.5313H144.262ZM142.309 70.4098C141.027 68.0597 139.12 66.3439 136.622 65.281L135.839 67.1213C137.931 68.0116 139.491 69.4208 140.553 71.3675L142.309 70.4098ZM136.629 65.2841C134.226 64.2392 131.373 63.7363 128.101 63.7363V65.7363C131.176 65.7363 133.743 66.21 135.832 67.1182L136.629 65.2841ZM128.101 63.7363L116.089 63.7363V65.7363L128.101 65.7363V63.7363Z" fill="#161617"/>
</svg>
