<svg width="145" height="113" viewBox="0 0 145 113" fill="none" xmlns="http://www.w3.org/2000/svg">
<path d="M26.5 3L4 25.5" stroke="#939393"/>
<path d="M42 1L1 42" stroke="#939393"/>
<path d="M29 28L1 56" stroke="#939393"/>
<path d="M54 4L37 21" stroke="#939393"/>
<path d="M63 11L48 26" stroke="#939393"/>
<path d="M69 19L50 38" stroke="#939393"/>
<path d="M74 28L51 51" stroke="#939393"/>
<path d="M109 14L93 30" stroke="#939393"/>
<path d="M129 7L98 38" stroke="#939393"/>
<path d="M144 6L117 33" stroke="#939393"/>
<path d="M144 21L118 47" stroke="#939393"/>
<path d="M144 36L118 62" stroke="#939393"/>
<path d="M144 52L118 78" stroke="#939393"/>
<path d="M144 68L118 94" stroke="#939393"/>
<path d="M144 84L118 110" stroke="#939393"/>
<path d="M144 101L135 110" stroke="#939393"/>
<path d="M26 45L1 70" stroke="#939393"/>
<path d="M27 59L3 83" stroke="#939393"/>
<path d="M27 74L7 94" stroke="#939393"/>
<path d="M29 87L13 103" stroke="#939393"/>
<path d="M39 92L22 109" stroke="#939393"/>
<path d="M76 40L51 65" stroke="#939393"/>
<path d="M76 54L49 81" stroke="#939393"/>
<path d="M76 69L33 112" stroke="#939393"/>
<path d="M73 87L49 111" stroke="#939393"/>
<path d="M72.9297 86.416L71.9769 86.1121L71.9746 86.1196L72.9297 86.416ZM65.3125 100.479L64.5672 99.8117L64.5624 99.8172L65.3125 100.479ZM26.2744 109.78L25.9803 110.736L25.9916 110.739L26.2744 109.78ZM15.9473 104.507L15.3272 105.291L15.3342 105.297L15.3412 105.302L15.9473 104.507ZM3.05664 82.9736L2.08425 83.207L2.08479 83.2092L3.05664 82.9736ZM3.93555 26.9434L2.98282 26.6395L2.98121 26.6446L3.93555 26.9434ZM50.6641 3.65234L50.3665 4.60704L50.3738 4.60934L50.3812 4.61151L50.6641 3.65234ZM60.9912 8.92578L60.3772 9.71517L60.3852 9.72121L60.9912 8.92578ZM68.8281 17.7881L67.9716 18.3043L67.9769 18.3128L68.8281 17.7881ZM73.8818 30.459L72.9094 30.6924L72.91 30.6946L73.8818 30.459ZM50.3711 34.8535L49.38 34.9869L49.3813 34.9963L49.3827 35.0056L50.3711 34.8535ZM48.7598 28.4082L47.8278 28.7706L47.8321 28.7818L47.8367 28.7928L48.7598 28.4082ZM46.1963 24.1602L45.4578 24.8344L45.4653 24.8426L45.4729 24.8506L46.1963 24.1602ZM42.6807 21.7432L42.291 22.6641L42.312 22.673L42.3333 22.6809L42.6807 21.7432ZM33.1592 22.1826L33.6179 23.0713L33.6283 23.0657L33.1592 22.1826ZM26.7871 33.0225L25.8065 32.8263L25.805 32.8342L25.8035 32.8421L26.7871 33.0225ZM26.4941 78.5059L25.5028 78.6368L25.5041 78.6474L25.5058 78.6579L26.4941 78.5059ZM28.1055 85.0244L27.1702 85.3783L27.176 85.3938L27.1824 85.409L28.1055 85.0244ZM30.7422 89.3457L30.0037 90.02L30.0112 90.0282L30.0188 90.0362L30.7422 89.3457ZM47.5879 87.4414L46.7386 86.9135L46.7346 86.92L47.5879 87.4414ZM50.0781 80.3369L49.0968 80.1439L49.0945 80.1566L50.0781 80.3369ZM74.6396 46.9385V66.4209H76.6396V46.9385H74.6396ZM74.6396 66.4209C74.6396 74.012 73.7447 80.57 71.977 86.1121L73.8824 86.7199C75.7279 80.9339 76.6396 74.1618 76.6396 66.4209H74.6396ZM71.9746 86.1196C70.2513 91.6724 67.7753 96.2262 64.5673 99.8117L66.0577 101.145C69.4903 97.3089 72.0924 92.4877 73.8848 86.7124L71.9746 86.1196ZM64.5624 99.8172C61.3936 103.412 57.6171 106.078 53.2241 107.826L53.9634 109.684C58.6524 107.819 62.6885 104.967 66.0626 101.14L64.5624 99.8172ZM53.2241 107.826C48.8139 109.58 43.9363 110.465 38.5791 110.465V112.465C44.1594 112.465 49.2916 111.543 53.9634 109.684L53.2241 107.826ZM38.5791 110.465C34.2702 110.465 30.2648 109.914 26.5572 108.821L25.9916 110.739C29.9012 111.892 34.0989 112.465 38.5791 112.465V110.465ZM26.5685 108.824C22.8691 107.686 19.5329 105.982 16.5533 103.711L15.3412 105.302C18.514 107.72 22.0626 109.531 25.9803 110.736L26.5685 108.824ZM16.5673 103.722C13.6391 101.408 11.1028 98.52 8.96161 95.0465L7.25909 96.096C9.51243 99.7515 12.2007 102.82 15.3272 105.291L16.5673 103.722ZM8.96161 95.0465C6.82872 91.5865 5.18013 87.4885 4.02849 82.738L2.08479 83.2092C3.2769 88.1267 4.99746 92.4272 7.25909 96.096L8.96161 95.0465ZM4.02903 82.7403C2.87906 77.9487 2.29883 72.5115 2.29883 66.4209H0.298828C0.298828 72.635 0.890472 78.2329 2.08425 83.207L4.02903 82.7403ZM2.29883 66.4209L2.29883 46.9385H0.298828L0.298828 66.4209H2.29883ZM2.29883 46.9385C2.29883 39.2953 3.17007 32.7359 4.88988 27.2421L2.98121 26.6446C1.1854 32.3812 0.298828 39.1519 0.298828 46.9385H2.29883ZM4.88826 27.2472C6.66025 21.6918 9.16127 17.1352 12.3712 13.5477L10.8807 12.2141C7.45006 16.0484 4.82412 20.8668 2.98284 26.6395L4.88826 27.2472ZM12.3712 13.5477C15.5903 9.9498 19.3932 7.28197 23.7876 5.53366L23.0483 3.67533C18.3607 5.54029 14.3022 8.39004 10.8807 12.2141L12.3712 13.5477ZM23.7876 5.53366C28.1978 3.77906 33.0754 2.89453 38.4326 2.89453V0.894531C32.8523 0.894531 27.7201 1.81664 23.0483 3.67533L23.7876 5.53366ZM38.4326 2.89453C42.7378 2.89453 46.7135 3.46845 50.3665 4.60704L50.9616 2.69764C47.0951 1.49249 42.9165 0.894531 38.4326 0.894531V2.89453ZM50.3812 4.61151C54.0721 5.69985 57.4018 7.40085 60.3773 9.71513L61.6052 8.13643C58.4283 5.66556 54.8732 3.85093 50.9469 2.69317L50.3812 4.61151ZM60.3852 9.72121C63.3536 11.9829 65.8833 14.8396 67.9717 18.3043L69.6846 17.2719C67.476 13.6077 64.7812 10.5562 61.5973 8.13035L60.3852 9.72121ZM67.9769 18.3128C70.1088 21.7713 71.7575 25.8926 72.9094 30.6924L74.8542 30.2256C73.6624 25.2597 71.942 20.9338 69.6794 17.2633L67.9769 18.3128ZM72.91 30.6946C74.0594 35.4358 74.6396 40.8476 74.6396 46.9385H76.6396C76.6396 40.7247 76.0481 35.1501 74.8537 30.2234L72.91 30.6946ZM51.957 69.4238L51.957 43.7891H49.957L49.957 69.4238L51.957 69.4238ZM51.957 43.7891C51.957 40.3357 51.7599 37.3042 51.3595 34.7015L49.3827 35.0056C49.7636 37.481 49.957 40.4065 49.957 43.7891H51.957ZM51.3622 34.7201C51.0125 32.1223 50.458 29.884 49.6828 28.0236L47.8367 28.7928C48.5263 30.448 49.0461 32.5066 49.38 34.9869L51.3622 34.7201ZM49.6918 28.0458C48.9731 26.1976 48.0562 24.6603 46.9196 23.4697L45.4729 24.8506C46.3872 25.8084 47.1793 27.1031 47.8278 28.7706L49.6918 28.0458ZM46.9348 23.4859C45.8108 22.2549 44.5079 21.3535 43.028 20.8054L42.3333 22.6809C43.4902 23.1094 44.5309 23.8193 45.4578 24.8344L46.9348 23.4859ZM43.0703 20.8222C41.6621 20.2264 40.1112 19.9375 38.4326 19.9375L38.4326 21.9375C39.8791 21.9375 41.1602 22.1857 42.291 22.6641L43.0703 20.8222ZM38.4326 19.9375C36.3332 19.9375 34.4116 20.3849 32.69 21.2995L33.6283 23.0657C35.0318 22.3201 36.6258 21.9375 38.4326 21.9375L38.4326 19.9375ZM32.7005 21.294C30.9931 22.1752 29.5737 23.5886 28.4241 25.4698L30.1306 26.5127C31.1294 24.8782 32.2979 23.7525 33.6178 23.0712L32.7005 21.294ZM28.4241 25.4698C27.2678 27.3619 26.406 29.8288 25.8065 32.8263L27.7677 33.2186C28.3401 30.3567 29.1385 28.1361 30.1306 26.5127L28.4241 25.4698ZM25.8035 32.8421C25.252 35.8505 24.9814 39.5038 24.9814 43.7891H26.9814C26.9814 39.5782 27.248 36.0538 27.7707 33.2028L25.8035 32.8421ZM24.9814 43.7891L24.9814 69.4238H26.9814L26.9814 43.7891H24.9814ZM24.9814 69.4238C24.9814 72.9212 25.1537 75.9941 25.5028 78.6368L27.4855 78.3749C27.151 75.8419 26.9814 72.8601 26.9814 69.4238H24.9814ZM25.5058 78.6579C25.9038 81.2448 26.4554 83.4891 27.1702 85.3783L29.0408 84.6705C28.3884 82.9464 27.8658 80.845 27.4825 78.3538L25.5058 78.6579ZM27.1824 85.409C27.9484 87.2476 28.8837 88.7933 30.0037 90.02L31.4807 88.6714C30.5499 87.652 29.7273 86.3169 29.0285 84.6398L27.1824 85.409ZM30.0188 90.0362C31.1431 91.214 32.4416 92.0832 33.9105 92.6272L34.6051 90.7517C33.4373 90.3192 32.3921 89.6259 31.4655 88.6552L30.0188 90.0362ZM33.9105 92.6272C35.3517 93.161 36.9112 93.4219 38.5791 93.4219V91.4219C37.122 91.4219 35.8006 91.1945 34.6051 90.7517L33.9105 92.6272ZM38.5791 93.4219C40.6239 93.4219 42.4932 93.0013 44.1647 92.1386L43.2474 90.3614C41.8916 91.0612 40.3429 91.4219 38.5791 91.4219V93.4219ZM44.1647 92.1386C45.8721 91.2574 47.2915 89.8441 48.4412 87.9629L46.7346 86.92C45.7358 88.5544 44.5673 89.6801 43.2474 90.3614L44.1647 92.1386ZM48.4372 87.9693C49.6471 86.0229 50.5104 83.5245 51.0617 80.5172L49.0945 80.1566C48.5716 83.0087 47.7747 85.2467 46.7386 86.9135L48.4372 87.9693ZM51.0593 80.5299C51.6617 77.4677 51.957 73.7611 51.957 69.4238L49.957 69.4238C49.957 73.6803 49.6664 77.2491 49.0969 80.1439L51.0593 80.5299ZM143.242 3.35938H144.242V2.35938H143.242V3.35938ZM143.242 110V111H144.242V110H143.242ZM118.56 110H117.56V111H118.56V110ZM118.56 31.1914H119.56V29.8574L118.279 30.2315L118.56 31.1914ZM94.2432 38.2959H93.2432V39.6299L94.5236 39.2558L94.2432 38.2959ZM94.2432 19.5459L93.9159 18.601L93.2432 18.834V19.5459H94.2432ZM140.972 3.35938V2.35938H140.803L140.644 2.41446L140.972 3.35938ZM142.242 3.35938V110H144.242V3.35938H142.242ZM143.242 109L118.56 109V111L143.242 111V109ZM119.56 110L119.56 31.1914H117.56L117.56 110H119.56ZM118.279 30.2315L93.9627 37.336L94.5236 39.2558L118.84 32.1513L118.279 30.2315ZM95.2432 38.2959V19.5459L93.2432 19.5459V38.2959H95.2432ZM94.5705 20.4908L141.299 4.30429L140.644 2.41446L93.9159 18.601L94.5705 20.4908ZM140.972 4.35938H143.242V2.35938H140.972V4.35938Z" fill="#353535"/>
</svg>
