<svg width="439" height="265" viewBox="0 0 439 265" fill="none" xmlns="http://www.w3.org/2000/svg">
<path d="M50.5 119C50.5 120.933 48.933 122.5 47 122.5C45.067 122.5 43.5 120.933 43.5 119C43.5 117.067 45.067 115.5 47 115.5C48.933 115.5 50.5 117.067 50.5 119ZM62.5 149C62.5 150.933 60.933 152.5 59 152.5C57.067 152.5 55.5 150.933 55.5 149C55.5 147.067 57.067 145.5 59 145.5C60.933 145.5 62.5 147.067 62.5 149ZM389.5 239C389.5 240.933 387.933 242.5 386 242.5C384.067 242.5 382.5 240.933 382.5 239C382.5 237.067 384.067 235.5 386 235.5C387.933 235.5 389.5 237.067 389.5 239ZM7.5 142C7.5 143.933 5.933 145.5 4 145.5C2.067 145.5 0.5 143.933 0.5 142C0.5 140.067 2.067 138.5 4 138.5C5.933 138.5 7.5 140.067 7.5 142ZM278.5 4C278.5 5.933 276.933 7.5 275 7.5C273.067 7.5 271.5 5.933 271.5 4C271.5 2.067 273.067 0.5 275 0.5C276.933 0.5 278.5 2.067 278.5 4Z" stroke="#FF8822"/>
<path d="M72 121H99" stroke="#FF8822"/>
<path d="M59 132H101" stroke="#FF8822"/>
<path d="M410 196H437" stroke="#FF8822"/>
<path d="M397 185H439" stroke="#FF8822"/>
<path d="M222.267 64H335C340.523 64 345 68.4771 345 74V76.9947M130 64V216C130 221.523 134.477 226 140 226H335C340.523 226 345 221.523 345 216V104.717" stroke="#161617"/>
<path d="M192.881 43.8159C185.723 45.0853 180.868 48.6886 178.109 51.5365C176.847 52.8391 174.747 53.0845 173.371 51.9027C170.214 49.1912 165.403 45.5438 159.857 44.2479C154.067 42.895 146.169 43.1095 141.325 43.8161C139.952 44.0164 139 45.2263 139 46.6137V99.0674C139 101.028 140.865 102.515 142.815 102.321C147.646 101.84 154.766 101.971 160.292 103.8C166.005 105.691 170.937 108.411 173.923 110.47C175.126 111.299 176.752 111.314 177.915 110.429C180.843 108.201 185.502 105.134 191.143 103.8C197.835 102.218 203.903 101.951 208.149 102.318C210.114 102.488 212 101.002 212 99.0301V46.4149C212 45.1213 211.169 43.9719 209.901 43.718C206.58 43.0534 200.503 42.4641 192.881 43.8159Z" stroke="#FF8822"/>
<path d="M176 54V111" stroke="#FF8822"/>
<path d="M183 75C184.497 73.8501 188.567 71.4645 192.878 71.119C199.163 70.6152 202.755 71.8377 205 72.4127" stroke="#FF8822"/>
<path d="M183 85C184.497 83.8501 188.567 81.4645 192.878 81.119C199.163 80.6152 202.755 81.8377 205 82.4127" stroke="#FF8822"/>
<path d="M183 95C184.497 93.8501 188.567 91.4645 192.878 91.119C199.163 90.6152 202.755 91.8377 205 92.4127" stroke="#FF8822"/>
<path d="M167 75C165.571 73.8501 161.686 71.4645 157.571 71.119C151.571 70.6152 148.143 71.8377 146 72.4127" stroke="#FF8822"/>
<path d="M167 85C165.571 83.8501 161.686 81.4645 157.571 81.119C151.571 80.6152 148.143 81.8377 146 82.4127" stroke="#FF8822"/>
<path d="M167 95C165.571 93.8501 161.686 91.4645 157.571 91.119C151.571 90.6153 148.143 91.8377 146 92.4127" stroke="#FF8822"/>
<path d="M138.233 48H133C131.343 48 130 49.3431 130 51V107.623C130 109.344 131.442 110.713 133.163 110.691C139.453 110.609 149.753 111.07 157.3 113.407C163.766 115.409 169.132 118.428 172.502 120.726C174.249 121.918 176.682 121.844 178.406 120.617C182.056 118.018 188.326 114.586 196.733 112.535C205.335 110.437 212.843 110.179 217.451 110.427C219.312 110.528 221 109.084 221 107.22V51C221 49.3431 219.657 48 218 48H211.033" stroke="#FF8822"/>
<path d="M221 87H319" stroke="#161617"/>
<path d="M318.654 80V85.7791C318.654 86.5714 318.34 87.3316 317.782 87.8936L311.694 94.021C311.067 94.6519 311.514 95.7258 312.403 95.7258H316.087C317.743 95.7258 319.087 97.069 319.087 98.7258V101C319.087 102.657 320.43 104 322.087 104H352C353.657 104 355 102.657 355 101V80C355 78.3431 353.657 77 352 77H321.654C319.997 77 318.654 78.3431 318.654 80Z" stroke="#FF8822"/>
<path d="M281 140V130.041C281 127.443 282.536 125.192 285.265 123.113C288.678 120.515 293.332 118.498 289.531 113.588C284.839 107.526 287.825 98 295.503 98C303.18 98 304.742 104.947 304.46 107.093C303.607 113.588 300.493 112.722 300.195 115.753C299.728 120.492 307.446 123.113 309.579 126.144C311.128 128.346 311.143 136.247 310.858 140" stroke="#FF8822"/>
<path d="M281 195V185.041C281.284 183.598 282.534 180.192 285.261 178.113C288.67 175.515 293.318 173.498 289.522 168.588C284.835 162.526 287.817 153 295.487 153C303.157 153 304.717 159.947 304.435 162.093C303.583 168.588 301.878 166.856 300.174 170.753C298.271 175.105 307.418 178.546 309.548 181.144C311.252 183.223 311.11 191.247 310.826 195" stroke="#FF8822"/>
<path d="M164 195V185.041C164.284 183.598 165.534 180.192 168.261 178.113C171.67 175.515 176.318 173.498 172.522 168.588C167.835 162.526 170.817 153 178.487 153C186.157 153 187.717 159.947 187.435 162.093C186.583 168.588 184.878 166.856 183.174 170.753C181.271 175.105 190.418 178.546 192.548 181.144C194.252 183.223 194.11 191.247 193.826 195" stroke="#FF8822"/>
<path d="M312 196H131" stroke="#161617"/>
<path d="M319 195H345" stroke="#161617"/>
<path d="M131 140H206" stroke="#FF8822"/>
<path d="M269 141H346" stroke="#FF8822"/>
<path d="M238 160V195" stroke="#FF8822"/>
<path d="M227.5 120.5H247.5C258.546 120.5 267.5 129.454 267.5 140.5C267.5 151.546 258.546 160.5 247.5 160.5H227.5C216.454 160.5 207.5 151.546 207.5 140.5C207.5 129.454 216.454 120.5 227.5 120.5ZM237.5 215.5C234.186 215.5 231.5 212.814 231.5 209.5C231.5 206.186 234.186 203.5 237.5 203.5C240.814 203.5 243.5 206.186 243.5 209.5C243.5 212.814 240.814 215.5 237.5 215.5ZM230 131.5H243C243.828 131.5 244.5 132.172 244.5 133V148C244.5 148.828 243.828 149.5 243 149.5H230C226.962 149.5 224.5 147.038 224.5 144V137C224.5 133.962 226.962 131.5 230 131.5ZM243 130.5H230C226.41 130.5 223.5 133.41 223.5 137V144C223.5 147.59 226.41 150.5 230 150.5H243C244.381 150.5 245.5 149.381 245.5 148V133C245.5 131.619 244.381 130.5 243 130.5Z" stroke="#FF8822"/>
<path d="M245 137.774L252.613 134.582C253.272 134.305 254 134.789 254 135.504V145.56C254 146.257 253.304 146.741 252.651 146.497L245 143.645" stroke="#FF8822"/>
<path d="M222.179 226L217.385 264H203H257.923M271 264H257.923M257.923 264L252.256 226" stroke="#FF8822"/>
<path d="M329 91.5C328.172 91.5 327.5 90.8284 327.5 90C327.5 89.1716 328.172 88.5 329 88.5C329.828 88.5 330.5 89.1716 330.5 90C330.5 90.8284 329.828 91.5 329 91.5ZM337 91.5C336.172 91.5 335.5 90.8284 335.5 90C335.5 89.1716 336.172 88.5 337 88.5C337.828 88.5 338.5 89.1716 338.5 90C338.5 90.8284 337.828 91.5 337 91.5ZM345 91.5C344.172 91.5 343.5 90.8284 343.5 90C343.5 89.1716 344.172 88.5 345 88.5C345.828 88.5 346.5 89.1716 346.5 90C346.5 90.8284 345.828 91.5 345 91.5Z" stroke="#FF8822"/>
</svg>
