<svg width="205" height="42" viewBox="0 0 205 42" fill="none" xmlns="http://www.w3.org/2000/svg">
<path fill-rule="evenodd" clip-rule="evenodd" d="M29.9345 2.82689C27.4621 1.83452 24.8117 1.32367 22.1348 1.32385C18.103 1.32385 14.1628 2.48255 10.8128 4.65179C7.46293 6.82097 4.85437 9.90246 3.31461 13.5049C1.77493 17.1072 1.37233 21.0701 2.15704 24.8932C2.94177 28.7164 4.87914 32.2303 7.72664 34.9898C10.5743 37.7495 14.2043 39.6305 18.1582 40.3927C22.1123 41.1549 26.2106 40.7636 29.9343 39.2688C33.6579 37.7741 36.8381 35.2439 39.0744 32.0004C41.3106 28.7571 42.5031 24.9457 42.5031 21.048C42.5034 18.4599 41.9775 15.8967 40.9552 13.5047C39.9329 11.1126 38.4339 8.93816 36.5432 7.10585C34.6525 5.27346 32.407 3.81925 29.9345 2.82689ZM22.1347 0.359375C24.9341 0.359183 27.7066 0.893385 30.2938 1.93181C32.881 2.97025 35.2328 4.49281 37.2144 6.41322C39.1961 8.33363 40.7689 10.6144 41.8421 13.1256C42.9153 15.6369 43.4679 18.329 43.4677 21.0481C43.4677 25.1433 42.2145 29.1453 39.8684 32.5479C37.5226 35.9503 34.1899 38.5999 30.2936 40.1639C26.3974 41.7279 22.111 42.1369 17.9756 41.3397C13.8403 40.5426 10.0398 38.5746 7.05543 35.6825C4.07089 32.7902 2.03659 29.1032 1.21226 25.0871C0.387904 21.0708 0.81114 16.9081 2.42774 13.1259C4.04427 9.34382 6.78068 6.11371 10.2886 3.84222C13.7963 1.57085 17.9187 0.359375 22.1347 0.359375ZM81.3845 19.1056C82.0879 19.1056 83.3917 18.6637 83.3917 17.3264C83.3917 15.7378 81.8926 15.631 81.4709 15.631C80.6423 15.6365 79.8243 15.8133 79.0717 16.1494L79.0389 12.2127C80.2788 11.8849 81.5598 11.726 82.8449 11.7404C86.4051 11.7404 88.0117 14.1637 88.0117 16.5162C88.0117 18.8167 86.63 20.2205 85.3159 20.7548V20.931C86.5765 21.3166 88.2959 22.5094 88.2959 25.3009C88.2959 28.7308 85.8191 30.6298 82.6586 30.6298C80.9553 30.6298 79.8555 30.3887 78.5323 29.6825L78.6053 25.9003C79.513 26.2954 80.5018 26.4846 81.4962 26.4534C82.8986 26.4534 83.4589 25.4627 83.4589 24.7204C83.4589 23.6965 82.7897 23.0135 81.304 23.0135H79.5187V19.1142L81.3845 19.1056ZM73.4804 12.0511H67.9891L64.2502 30.2559H68.6775L69.214 27.1121H72.2585L72.7934 30.2559H77.2163L73.4804 12.0511ZM69.904 23.106L70.7295 17.549L71.5535 23.106H69.904ZM102.228 12.0495H90.3347V30.2645H94.6923V16.4382H97.8712V30.2558H102.228V12.0495ZM110.543 12.0553H104.716V30.2574H109.081V24.2497H110.543C114.864 24.2497 116.189 20.4949 116.189 18.1049C116.189 15.7538 114.67 12.0496 110.543 12.0553ZM110.116 20.2509H109.073V16.0628H110.116C111.108 16.0628 111.726 16.6405 111.726 18.1467C111.726 20.1166 110.68 20.2509 110.116 20.2509ZM117.355 21.1334C117.355 16.4616 119.097 11.7898 124.262 11.7898C129.431 11.7898 131.175 16.4616 131.175 21.1334C131.175 25.8052 129.429 30.4828 124.262 30.4828C119.097 30.4828 117.355 25.8052 117.355 21.1334ZM121.934 21.1334C121.934 24.3467 122.733 26.0796 124.262 26.0796C125.801 26.0796 126.592 24.3437 126.592 21.1334C126.592 17.9231 125.793 16.1901 124.262 16.1901C122.733 16.1901 121.934 17.9202 121.934 21.1334ZM155.204 18.8326H154.434V16.4238H160.201V12.0495H150.161V30.2572H155.377C156.505 30.2572 161.217 29.8052 161.228 24.2958C161.228 19.6399 157.568 18.8326 155.204 18.8326ZM155.069 26.6151H154.434V22.4733H155.071C155.581 22.4733 156.96 22.5007 156.96 24.3709C156.957 26.2959 155.579 26.6151 155.071 26.6151H155.069ZM181.181 12.0495H176.912V30.2558H181.181V22.9773H184.229V30.2558H188.49V12.0495H184.229V18.6044H181.181V12.0495ZM191.357 12.0495H195.624L195.615 18.6044H196.542L198.992 12.0495H203.626L200.296 20.6927L204.098 30.2558H199.081L196.628 22.9369H195.615L195.624 30.2529H191.357V12.0495ZM64.7556 12.0553H55.8145V30.2703H60.2553V16.6015H64.7556V12.0553ZM133.269 12.0553H136.971L140.238 16.343L143.53 12.0553H147.225V30.2616H142.869V19.1518L140.238 22.3405L137.628 19.1518V30.2717H133.269V12.0553ZM165.809 12.0829H171.302L175.04 30.2906H170.626L170.086 27.1453H167.042L166.508 30.2906H162.084L165.809 12.0829ZM168.553 17.5822L167.726 23.1364H169.375L168.553 17.5822ZM22.2028 26.896C21.201 27.0539 20.2578 27.2025 19.3795 27.359C21.4041 27.8608 23.4874 28.1064 25.5771 28.0898C31.9864 28.0898 37.6581 25.151 37.6581 25.151C37.6581 25.151 37.5284 25.5351 37.4048 25.873C33.335 28.2587 26.8453 29.2682 24.0839 29.1469C21.5473 29.056 19.0334 28.6478 16.6047 27.9324C15.891 28.1062 15.1932 28.3366 14.5184 28.6212C18.0413 30.1723 20.6983 30.5218 23.7129 30.7326C26.7812 30.9521 31.8627 30.2358 36.1589 28.731C36.0612 28.8221 35.9882 28.9412 35.9154 29.0598C35.8395 29.1836 35.764 29.3068 35.6612 29.3967C33.4662 30.5101 28.8049 31.6366 26.4847 31.7291C24.1644 31.8214 21.3256 31.7392 18.8683 31.2871C16.7388 30.8886 15.0147 30.2358 13.2055 29.4689C13.0582 29.5717 12.9338 29.7023 12.8401 29.853C12.7463 30.0037 12.6851 30.1713 12.6602 30.3455C19.7237 33.9226 26.3461 34.0006 33.8715 31.7377L33.1815 32.3803C24.8931 35.6368 18.4108 34.3689 13.3978 32.0266C13.2227 31.9586 13.0528 31.8784 12.8897 31.7868C13.3502 32.571 17.1844 35.2802 21.4642 35.621C24.4177 35.8563 28.0211 35.3653 30.1595 34.5393L28.9106 35.1718C27.8705 35.6687 25.1316 36.7806 21.2883 36.5351C16.1845 36.2015 13.3024 34.0137 12.012 32.8656C11.4144 32.3298 11.1312 31.7073 10.9524 30.9449C9.79605 30.3571 9.06438 29.752 8.46827 28.8407C8.11063 28.3064 8.18365 27.7085 8.27455 27.2045C8.30079 27.0504 8.3453 26.8997 8.40718 26.7554C7.85133 26.3655 7.29251 25.9481 7.04962 25.5293C6.53848 24.6455 6.84993 23.8873 7.19863 23.2981C6.8999 23.0061 6.65897 22.6635 6.48781 22.2872C6.3617 21.8918 6.32012 21.4756 6.36562 21.0641C6.46099 20.3218 6.87079 19.6415 7.39683 19.0538C8.51302 17.8147 10.2699 16.8442 13.2816 15.8767C15.4934 15.164 16.7135 14.9082 18.1269 14.6118C18.5923 14.5142 19.0787 14.4123 19.6283 14.2881C20.6184 14.0654 21.6826 13.9007 22.7645 13.7332C24.516 13.4622 26.3141 13.184 27.9197 12.6404C20.6863 11.4129 13.1728 12.5263 7.04663 16.6118L7.46091 15.4752C12.9478 11.9905 19.0174 9.95713 29.2996 11.68C29.8674 11.3609 30.1744 11.0619 30.3234 10.4077C27.7557 9.51376 24.9736 9.19754 21.3718 9.25237C18.1411 9.33906 12.3115 10.5031 9.19997 12.2851L10.1477 11.1384C12.3234 9.9109 17.992 8.26174 22.2391 8.17798C25.2373 8.12448 26.7931 8.28774 30.3517 9.21777C30.0628 8.66055 29.3859 8.36681 28.4092 7.94293C28.348 7.91643 28.2857 7.88934 28.2222 7.86167C24.7739 6.36264 18.3333 6.22255 13.0566 8.47398C13.7502 8.02092 14.4785 7.61968 15.2352 7.27395C16.9757 6.50851 19.8191 5.75753 23.3835 5.81822C26.2269 5.86302 29.5977 6.82482 31.672 8.80474C31.9675 9.13677 32.1828 9.52847 32.3023 9.95136C33.9415 10.7528 34.8878 11.5052 35.4243 12.3963C35.6572 12.8652 35.7313 13.3934 35.6359 13.9054C36.1673 14.1917 36.6256 14.59 36.977 15.0709C37.222 15.4163 37.3821 15.8115 37.445 16.2262C37.5165 16.7244 37.5716 17.2818 37.0351 17.936C37.5985 18.1988 38.0381 18.9512 38.1051 19.2834C38.3629 20.4806 37.5657 21.6474 36.5226 22.5515C35.3184 23.5769 32.6615 24.7899 30.4977 25.3257C27.4463 26.0695 24.6499 26.5103 22.2028 26.896ZM35.6449 16.7388C35.9727 16.1337 35.7715 15.7395 35.086 15.1806C34.8215 15.4821 34.5248 15.7556 34.2008 15.9965C34.3189 16.0526 34.4343 16.1055 34.5476 16.1573C34.9333 16.3338 35.2935 16.4988 35.6449 16.7388ZM32.3337 18.9845C33.1456 18.7164 33.9112 18.3313 34.6047 17.8421C34.4199 17.6414 32.7107 16.8428 32.6585 16.9034C31.6034 17.3771 30.0864 17.8681 27.9182 18.3981C27.1077 18.596 25.7619 18.8294 24.0953 19.1184C22.1128 19.4623 19.6764 19.8848 17.1471 20.4199C15.6659 20.7275 11.6767 21.6446 9.71255 23.2606C10.1039 23.574 10.3892 23.7159 10.7484 23.8944C10.8857 23.9627 11.0338 24.0364 11.2028 24.1271C12.0194 23.623 13.1191 23.145 14.7583 22.7219C17.6195 21.9897 19.7565 21.6547 22.3196 21.2677C24.8827 20.8807 29.6736 19.9088 32.3337 18.9845ZM33.7061 12.9292C33.6211 12.2504 32.8 11.5963 32.0997 11.1515C32.0103 11.498 31.6272 11.8952 31.362 12.1667C32.1573 12.3787 32.9399 12.6332 33.7061 12.9292ZM33.3142 14.1784C32.3264 13.7583 31.3066 13.4131 30.2638 13.1458C29.6795 13.5942 29.0257 13.95 28.3265 14.2C29.3609 14.3797 30.2034 14.63 31.0485 14.8809C31.3577 14.9727 31.6671 15.0646 31.9864 15.1531C32.201 15.2586 33.1651 14.3834 33.3142 14.1784ZM14.0196 17.4687C12.5056 17.9076 6.50313 19.6474 8.3133 22.0561C8.31522 22.0561 8.32439 22.0464 8.34184 22.0279C8.54035 21.817 9.80984 20.4677 13.678 19.3686C16.4413 18.5844 19.2774 18.0857 22.1576 17.5793C24.7352 17.1261 27.3482 16.6667 29.9762 15.9908C27.8035 15.4218 26.6128 15.1806 24.3134 15.4405C20.8788 15.8329 17.4833 16.4974 14.1608 17.4277C14.1195 17.4397 14.0722 17.4534 14.0196 17.4687ZM8.64116 24.4679C8.42804 24.9127 8.82439 25.3979 9.24619 25.6347C9.35219 25.532 9.46712 25.4404 9.58173 25.3491C9.6603 25.2865 9.73871 25.224 9.81394 25.1582C9.41062 24.9484 9.01916 24.718 8.64116 24.4679ZM10.0687 27.9324C10.0569 28.393 10.3459 28.8076 10.9867 29.3145C11.0691 29.0677 11.1991 28.8384 11.3696 28.6385C10.9256 28.422 10.4889 28.1822 10.0687 27.9324ZM10.7364 26.7366C11.3324 27.0702 11.9196 27.3966 12.5245 27.7027C12.9753 27.4471 13.4462 27.2264 13.9328 27.0428C13.1877 26.7424 12.4262 26.416 11.6483 26.0709C11.322 26.2625 11.0164 26.4855 10.7364 26.7366ZM13.3502 25.2188C14.1891 25.6188 15.0817 26.003 15.9996 26.3409V26.3351C17.7336 25.8317 19.5018 25.4466 21.2913 25.1827C22.2883 25.0166 25.3595 24.4968 27.5815 24.0418C31.587 23.2129 37.4584 21.4178 35.8952 19.0667C35.7542 19.1832 35.6041 19.294 35.4378 19.4168C35.4142 19.4342 35.3904 19.4518 35.3662 19.4697C34.1829 20.355 32.3098 21.0626 29.7124 21.7341C26.7024 22.5188 24.1534 22.9301 21.7143 23.3238C19.7857 23.635 17.9257 23.9351 15.9609 24.4C15.071 24.6104 14.1984 24.8841 13.3502 25.2188Z" fill="#2E3039"/>
</svg>
