<svg viewBox="0 0 184 50" fill="none" xmlns="http://www.w3.org/2000/svg">
<g clip-path="url(#clip0_1509_1153)">
<path d="M77.2063 23.3726H73.7066V18.6176H69.5706V31.4033H73.7066V26.8597H77.2063V31.4033H81.3423V18.6176H77.2063V23.3726ZM115.703 23.3726H112.203V18.6176H108.067V31.4033H112.203V26.8597H115.703V31.4033H119.839V18.6176H115.703V23.3726ZM179.121 22.4216H177.107V18.7232H172.971V31.509H179.121C181.773 31.509 184 30.0297 184 27.388V26.4369C184 23.9009 181.773 22.4216 179.121 22.4216ZM178.697 28.339H177.107V25.5916H178.485C179.652 25.5916 179.97 26.4369 179.97 26.9653C179.97 28.022 179.015 28.339 178.697 28.339ZM152.396 26.5426H157.063V23.4783H152.396V21.8933H157.487V18.5119H148.261V31.2977H157.911V27.9163H152.396V26.5426ZM147.2 18.6176H142.746L140.519 23.4783H139.459V18.6176H135.323V31.4033H139.459V26.8597H140.519L142.746 31.4033H147.519L144.018 24.9576L147.2 18.6176ZM89.7201 18.4062H87.7053C85.054 18.4062 82.827 20.3082 82.827 23.2669V26.8597C82.827 29.8183 85.054 31.7203 87.7053 31.7203H89.7201C92.3713 31.7203 94.5986 29.8183 94.5986 26.8597V23.2669C94.5986 20.2026 92.3713 18.4062 89.7201 18.4062ZM90.4628 27.1767C90.4628 28.022 89.7201 28.7617 88.872 28.7617H88.5542C87.7053 28.7617 86.9634 28.022 86.9634 27.1767V23.0556C86.9634 22.2103 87.7053 21.4706 88.5542 21.4706H88.872C89.7201 21.4706 90.4628 22.2103 90.4628 23.0556V27.1767ZM160.88 25.3802C160.88 27.2823 160.35 27.5993 159.608 27.9163C159.29 28.022 158.442 28.022 158.442 28.022V31.4033H160.032C163.532 31.4033 164.805 29.3957 164.911 24.8519C164.911 23.7952 164.911 22.8443 164.911 21.8933H167.243V31.4033H171.38V18.6176H160.88V25.3802ZM102.128 18.6176H95.9777V31.4033H100.114V28.2333H102.128C104.78 28.2333 107.007 26.7539 107.007 24.1123V22.6329C107.007 20.0969 104.78 18.6176 102.128 18.6176ZM102.976 23.7953C102.976 24.2179 102.765 25.1689 101.492 25.1689H100.114V21.7876H101.704C102.128 21.7876 102.976 22.1046 102.976 23.1612V23.7953ZM125.672 25.1689V18.7232H121.748V31.509H125.353L129.595 25.0632V31.509H133.52V18.6176H129.914L125.672 25.1689Z" />
<path d="M38.6036 5.83203V18.8291L19.3023 5.83203C8.59113 5.83203 0.000959784 14.391 0.000959784 25.0634C-0.105092 35.6301 8.59113 44.2949 19.3023 44.2949V31.2978L38.6036 44.2949C49.3148 44.2949 57.905 35.7358 57.905 25.0634C57.905 14.4967 49.3148 5.83203 38.6036 5.83203ZM15.1663 39.5399C12.7271 38.8002 10.394 37.5321 8.59113 35.7358C5.72773 32.8828 4.13696 29.0788 4.13696 25.0634C4.13696 21.0481 5.72773 17.2441 8.59113 14.391C10.5 12.489 12.7271 11.221 15.1663 10.587V39.5399ZM19.3023 26.3314V10.7984L38.6036 23.7955V39.3285L19.3023 26.3314ZM49.3148 35.7358C47.4059 37.6379 45.1789 38.9059 42.7396 39.5399V10.587C45.1789 11.3267 47.512 12.5947 49.3148 14.391C52.1782 17.2441 53.769 21.0481 53.769 25.0634C53.769 29.0788 52.1782 32.8828 49.3148 35.7358Z" />
</g>
<defs>
<clipPath id="clip0_1509_1153">
<rect width="184" height="50" fill="white"/>
</clipPath>
</defs>
</svg>
