<svg viewBox="0 0 18 18" fill="none" xmlns="http://www.w3.org/2000/svg">
<g clip-path="url(#clip0_1269_1056)">
<path d="M17.919 14.3472L17.8294 14.0772C17.6172 13.4465 16.9217 12.7888 16.2828 12.6155L13.918 11.9694C13.2767 11.795 12.3619 12.0296 11.8927 12.4987L11.0368 13.3546C7.92636 12.5141 5.48731 10.075 4.64796 6.96519L5.50387 6.10928C5.97308 5.64007 6.20764 4.72649 6.03317 4.08519L5.38833 1.71921C5.21386 1.07908 4.55486 0.383567 3.92537 0.173711L3.65542 0.0829486C3.02472 -0.126907 2.12524 0.0853251 1.65608 0.554492L0.375815 1.83592C0.147097 2.06343 0.000918643 2.71416 0.000918643 2.71654C-0.0438592 6.78125 1.54996 10.6974 4.42517 13.5726C7.29333 16.4408 11.1948 18.0323 15.2477 17.9981C15.2689 17.9981 15.9385 17.8543 16.1672 17.6267L17.4475 16.3465C17.9166 15.8773 18.1288 14.9779 17.919 14.3472Z" fill="#161617"/>
</g>
<defs>
<clipPath id="clip0_1269_1056">
<rect width="18" height="18" fill="white"/>
</clipPath>
</defs>
</svg>
