<svg width="17" height="17" viewBox="0 0 17 17" fill="none" xmlns="http://www.w3.org/2000/svg">
<g clip-path="url(#clip0_1206_2348)">
<path d="M16.9235 13.5502L16.8389 13.2953C16.6385 12.6996 15.9816 12.0784 15.3782 11.9147L13.1447 11.3046C12.5391 11.1398 11.6751 11.3614 11.2319 11.8045L10.4236 12.6128C7.48601 11.819 5.18246 9.51539 4.38974 6.57834L5.1981 5.76998C5.64124 5.32685 5.86277 4.46401 5.698 3.85834L5.08897 1.6238C4.9242 1.01924 4.30182 0.362366 3.70729 0.164169L3.45234 0.0784489C2.85668 -0.119748 2.00717 0.0806934 1.56407 0.523796L0.354936 1.73404C0.138925 1.94891 0.000867608 2.56349 0.000867608 2.56573C-0.0414225 6.40462 1.46385 10.1032 4.17933 12.8187C6.88814 15.5275 10.5729 17.0306 14.4006 16.9983C14.4206 16.9983 15.053 16.8625 15.269 16.6476L16.4782 15.4384C16.9213 14.9954 17.1217 14.1459 16.9235 13.5502Z" fill="white"/>
</g>
<defs>
<clipPath id="clip0_1206_2348">
<rect width="17" height="17" fill="white"/>
</clipPath>
</defs>
</svg>
