<svg viewBox="0 0 161 31" fill="none" xmlns="http://www.w3.org/2000/svg">
<path fill-rule="evenodd" clip-rule="evenodd" d="M10.152 31L20.2416 20.6667H10.152V0L0 10.3334V31H10.152ZM10.1522 10.3334L20.2419 0H30.3939V20.6667L20.2419 31V10.3334H10.1522ZM108.995 29.1615V0L107.188 1.83845V31L108.995 29.1615ZM130.482 9.82622L125.748 21.4275H128.364L129.299 19.0185H133.845L134.779 21.4275H137.52L132.786 9.82622H130.482ZM130.295 16.4827L131.603 13.1862L132.848 16.4827H130.295ZM155.456 15.1514L160.689 9.82622H157.325L152.654 14.8344V9.82622H150.038V21.4275H152.654V15.9755L157.45 21.4275H161L155.456 15.1514ZM124.441 14.9612C124.129 14.6442 123.755 14.3906 123.257 14.2639C122.821 14.0737 122.323 14.0103 121.762 14.0103H119.147V12.2986H124.565V9.82622H116.531V21.4275H120.953C122.385 21.4275 123.444 21.1105 124.191 20.4131C124.938 19.7158 125.312 18.7649 125.312 17.5604C125.312 17.0532 125.25 16.5461 125.063 16.1023C125.001 15.6585 124.752 15.2782 124.441 14.9612ZM122.572 18.5747C122.385 18.8283 122.012 18.9551 121.45 18.9551H119.208V16.4827H121.576C122.073 16.4827 122.385 16.6095 122.572 16.863C122.759 17.1166 122.883 17.4336 122.883 17.7506C122.883 18.0675 122.759 18.3211 122.572 18.5747ZM145.305 14.2639H141.132V9.82622H138.516V21.4275H141.132V16.7363H145.305V21.4275H147.921V9.82622H145.305V14.2639ZM45.8405 25.8015H40.5465V5.19817H59.2311V25.8015H53.9372V9.82605H45.8405V25.8015ZM87.694 12.9324H92.2405C96.5383 12.9324 99.5902 14.961 99.652 19.3986C99.652 23.7729 96.6001 25.8649 92.552 25.8649H82.3999V5.19817H97.8459V9.82605H87.694V12.9324ZM87.694 21.4273H91.7421C92.9879 21.4273 94.2955 20.9201 94.2955 19.3352C94.2955 17.8138 92.9879 17.3066 91.7421 17.3066H87.694V21.4273ZM66.7672 15.4681C66.7672 18.7647 68.7603 21.4273 72.3103 21.4273C74.6148 21.4273 76.2964 20.2228 77.3551 18.5745L80.5938 21.8711C78.6631 24.597 75.549 26.3086 71.9989 26.3086C66.1444 26.3086 61.4733 21.4273 61.4733 15.4681C61.4733 9.06529 66.1444 4.62762 71.9989 4.62762C75.2998 4.62762 78.2271 6.14914 80.1578 8.49474L76.9192 11.7913C76.3587 11.0305 74.7393 9.50903 72.2481 9.50903C68.1997 9.50903 66.7672 12.8056 66.7672 15.4681Z" fill="#2E3039"/>
</svg>
