<svg viewBox="0 0 184 47" fill="none" xmlns="http://www.w3.org/2000/svg">
<path fill-rule="evenodd" clip-rule="evenodd" d="M2.86253 46.9649C1.91098 46.7904 1.29231 45.9912 1.11448 45.165C1.29089 45.9916 1.90561 46.791 2.86253 46.9649ZM1.07657 44.4141C1.13298 43.9212 1.34469 43.4738 1.65553 43.128C1.33851 43.4795 1.13143 43.9223 1.07657 44.4141ZM0.00280145 43.5405C0.00280145 45.7923 1.73235 46.9478 3.15859 46.9979C3.19038 46.9993 3.22247 47 3.25487 47H22.3763L10.0786 34.6768L28.1226 16.5815L11.6163 0L2.30863 9.33412C-0.0167026 11.6661 -0.00908837 13.9568 0.00136229 17.101C0.00207476 17.3154 0.00280145 17.5338 0.00280145 17.7565V43.5405ZM145.138 33.8402L151.54 41.1345H147.378L142.43 35.5134V41.1345H138.98V27.5328H142.43V32.4678L147.294 27.5328H151.372L145.138 33.8402ZM42.0045 31.2082C44.5166 31.2082 45.6694 30.005 45.6694 28.1908C45.6694 26.3766 44.5166 25.1734 42.0045 25.1734H37.0273V31.2082H42.0045ZM42.117 21.9304C46.438 21.9304 49.2875 24.1489 49.2875 28.1814C49.2875 32.214 46.438 34.4324 42.117 34.4324H37.0273V41.1251H33.4186V21.9304H42.117ZM57.4329 38.2769C59.4575 38.2769 61.3415 36.8199 61.3415 34.329C61.3415 31.8286 59.4575 30.381 57.4329 30.381C55.4082 30.381 53.5242 31.838 53.5242 34.329C53.5242 36.8293 55.4082 38.2769 57.4329 38.2769ZM57.4329 27.1474C61.1541 27.1474 64.8472 29.5632 64.8472 34.3384C64.8472 39.1135 61.1541 41.5293 57.4329 41.5293C53.7117 41.5293 50.0186 39.1135 50.0186 34.3384C50.0186 29.5538 53.7117 27.1474 57.4329 27.1474ZM73.6393 38.2769C71.5584 38.2769 70.0305 36.7729 70.0305 34.329C70.0305 31.9132 71.6146 30.381 73.6393 30.381C74.8672 30.381 75.9357 30.9544 76.7887 32.2422L79.7413 30.5408C78.757 28.4258 76.6199 27.138 73.6673 27.138C69.815 27.138 66.5249 29.9956 66.5249 34.329C66.5249 38.6623 69.6463 41.5199 73.6673 41.5199C76.5637 41.5199 78.5039 40.2039 79.8725 37.8727L77.0229 36.3123C76.2168 37.4591 75.3358 38.2769 73.6393 38.2769ZM110.336 35.2408C110.167 37.3275 109.764 37.7881 109.051 37.7881C108.564 37.7881 108.339 37.7317 108.001 37.6471L108.021 41.1721C108.021 41.1721 108.452 41.3037 109.239 41.3037C112.163 41.3037 113.26 39.4143 113.532 35.3818L113.86 30.6348H117.74V41.1157H121.19V27.5328H110.907L110.336 35.2408ZM103.98 32.5242C103.652 30.8228 102.368 29.7794 100.457 29.7794C98.6473 29.7794 97.2784 30.9826 96.7914 32.5242H103.98ZM100.559 27.1474C104.44 27.1474 107.177 29.9768 107.177 33.953V35.1562H96.7254C96.9409 37.2429 98.4218 38.5589 100.446 38.5589C102.284 38.5589 103.043 37.7599 103.896 36.6977L106.633 38.0701C105.264 40.4013 103.381 41.5293 100.4 41.5293C96.6227 41.5293 93.4262 38.6529 93.4262 34.3384C93.4262 30.0238 96.6227 27.1474 100.559 27.1474ZM133.684 32.5242C133.356 30.8228 132.072 29.7794 130.16 29.7794C128.351 29.7794 126.982 30.9826 126.495 32.5242H133.684ZM130.263 27.1474C134.144 27.1474 136.881 29.9768 136.881 33.953V35.1562H126.429C126.645 37.2429 128.126 38.5589 130.151 38.5589C131.988 38.5589 132.747 37.7599 133.6 36.6977L136.337 38.0701C134.968 40.4013 133.085 41.5293 130.104 41.5293C126.326 41.5293 123.13 38.6529 123.13 34.3384C123.13 30.0238 126.326 27.1474 130.263 27.1474ZM80.9597 30.5502H84.9993V41.1345H88.4489V30.5502H92.4982V27.5328H80.9597V30.5502ZM158.383 38.2769C160.407 38.2769 162.292 36.8199 162.292 34.329C162.292 31.8286 160.407 30.381 158.383 30.381C156.358 30.381 154.474 31.838 154.474 34.329C154.465 36.8293 156.358 38.2769 158.383 38.2769ZM158.383 27.1474C162.104 27.1474 165.797 29.5632 165.797 34.3384C165.797 39.1135 162.104 41.5293 158.383 41.5293C154.662 41.5293 150.968 39.1135 150.968 34.3384C150.968 29.5538 154.662 27.1474 158.383 27.1474ZM179.511 27.5234L175.77 37.0549L172.03 27.5234H167.522V41.1063H170.793V32.5054L174.421 41.1063H177.092L180.719 32.5054V41.1063H184V27.5234H179.511ZM20.4917 46.2176L10.0788 35.783L2.28808 43.5959C2.01546 43.8693 1.84171 44.2556 1.84171 44.6782C1.84171 45.454 2.42434 46.2176 3.25487 46.2176H20.4917Z" fill="#2E3039"/>
</svg>
