<svg width="126" height="35" viewBox="0 0 126 35" fill="none" xmlns="http://www.w3.org/2000/svg">
<path fill-rule="evenodd" clip-rule="evenodd" d="M24.659 6.38993L28.0035 3.88203C24.9465 1.36363 21.1304 -0.0073702 17.197 2.97999e-05C10.3925 -0.0031702 4.19067 4.17793 1.47553 10.3984C0.500179 12.6346 -0.00259228 15.0537 1.00507e-05 17.5031C-0.00460904 24.3009 4.04721 30.7123 10.223 33.4994C12.4204 34.4921 14.7982 35.0031 17.2022 35C24.0056 35.0063 30.2013 30.8575 32.9289 24.6005C34.3247 21.401 34.737 17.8009 34.1333 14.364L30.4307 17.1405C30.4307 24.9857 23.8444 31.8001 15.7394 30.8766C8.95686 30.1068 3.88345 23.9564 3.97924 17.129C4.23127 10.1461 10.152 4.03763 17.197 4.04193C19.8532 4.05413 22.4748 4.86623 24.659 6.38993ZM32.875 10.2793C32.3228 9.04203 31.6309 7.87483 30.8137 6.79953L17.2059 17.0057L10.6574 12.83V17.8542L17.2059 22.0309L32.875 10.2793ZM99.2687 10.0076L104.19 6.36063H87.7179V28.2777H104.19V24.6308H92.4183V19.0162H102.46V15.3693H92.4183V10.0076H99.2687ZM70.9154 14.8991H76.6343C81.8276 14.8991 84.687 17.2001 84.687 21.3841C84.687 25.7573 81.5301 28.2652 76.0293 28.2652H66.218V6.34813H84.9613L80.0426 10.0065H70.9154V14.8991ZM70.9154 24.6162H75.8177C78.7037 24.6162 80.1878 23.5994 80.1878 21.5806C80.1878 19.5617 78.793 18.5439 75.8177 18.5439H70.9154V24.6162ZM116.299 6.35753H107.333V28.2746H112.032V22.0654H116.299C122.02 22.0654 125.558 19.0382 125.558 14.2C125.558 9.36183 122.02 6.35753 116.299 6.35753ZM116.2 18.4154H112.032V10.0076H116.2C119.209 10.0076 120.87 11.5008 120.87 14.2136C120.87 16.9252 119.209 18.4154 116.2 18.4154ZM55.2104 24.0979C56.5909 24.1062 57.9511 23.7635 59.1651 23.102L60.1837 22.5409L63.1264 24.7457C61.1731 26.8534 58.2884 28.0113 54.9881 28.0113C51.8294 28.0113 48.9512 26.89 46.8821 24.8534L46.6859 24.6527C46.2877 24.2327 45.9242 23.7823 45.5981 23.3068C45.1523 22.6569 44.7766 21.9578 44.4791 21.2221C43.9287 19.8616 43.6562 18.4028 43.6784 16.9346C43.6536 15.4801 43.9274 14.037 44.4817 12.6942C45.0365 11.3514 45.8599 10.1382 46.9014 9.12983C48.9608 7.17053 51.8455 6.09423 55.0266 6.09423C57.9597 6.09423 60.522 6.99293 62.4396 8.68883L62.6621 8.84773L59.3746 11.2824C58.1596 10.4141 56.7005 9.95953 55.2104 9.98563C51.0784 9.98563 48.081 12.9586 48.081 17.0444C48.081 21.1302 51.0784 24.0979 55.2104 24.0979Z" fill="#2E3039"/>
</svg>
