<svg width="173" height="36" viewBox="0 0 173 36" fill="none" xmlns="http://www.w3.org/2000/svg">
<path d="M77.2797 7.24219C78.7901 7.24219 79.7262 7.79907 81.1389 9.60404L91.6442 24.6356C92.2026 25.4222 92.1491 26.6768 91.1845 27.4916C90.331 28.2132 88.8205 28.2782 88.0013 27.1969L85.4877 23.7191H68.9417L66.4303 27.2619C65.544 28.3128 64.4605 28.3128 63.4768 27.6563C62.454 26.9737 62.1941 25.6541 62.8202 24.7353L73.4227 9.60621C74.7705 7.73403 75.8366 7.24219 77.2797 7.24219ZM77.9082 12.8046C77.6308 12.3993 77.5289 12.3604 77.2343 12.3604C76.9049 12.3604 76.7748 12.525 76.5517 12.824C76.1898 13.3073 71.9774 19.5153 71.9298 19.5153H82.5669C82.5453 19.5153 78.4954 13.6735 77.9082 12.8046Z" fill="#161617"/>
<path d="M5.62972 7.26562H20.7632C24.5183 7.26562 24.8629 11.5864 24.8629 11.5864H6.24511C5.32419 11.5864 4.46828 12.282 4.46828 13.4932C4.46828 14.8735 5.51704 15.5301 6.1801 15.5301H19.3374C21.9441 15.5301 25.6537 17.7013 25.6537 21.45C25.6537 26.3168 21.3439 28.0459 19.8443 28.0459H4.45094C-0.123321 28.0459 0.130202 23.684 0.130202 23.684H19.2095C19.9722 23.684 21.0969 22.9277 21.0969 21.7967C21.0969 20.7176 20.1109 19.8898 19.385 19.8898H6.49213C2.83446 19.8898 0.000192006 17.1747 0.000192006 13.491C-0.0063086 9.34803 3.54952 7.26562 5.62972 7.26562Z" fill="#161617"/>
<path d="M102.625 7.23828H118.253C120.622 7.23828 124.294 9.17332 124.294 13.8017V14.0965C124.294 16.5602 122.751 18.7249 120.585 19.7737C120.585 19.7737 120.74 20.0098 124.097 24.5646C124.533 25.154 124.556 26.5668 123.605 27.4206C122.697 28.2353 121.185 28.3371 120.422 27.4531C119.356 26.2201 118.123 24.5971 114.743 20.3002H108.636C106.896 20.3002 104.535 18.9199 104.535 15.8689H117.731C118.448 15.8387 119.597 15.1517 119.597 13.8039C119.597 12.558 118.491 11.7021 117.724 11.7021H103.149L103.16 25.5159C103.163 27.024 102.006 28.0403 100.76 28.0403C99.5768 28.0403 98.3981 26.9915 98.3981 25.5787V11.5049C98.3931 9.13863 100.887 7.23828 102.625 7.23828Z" fill="#161617"/>
<path d="M38.2219 7.27344H53.8495C56.2178 7.27344 59.8906 9.21057 59.8906 13.8368V14.1315C59.8906 16.5975 58.3479 18.76 56.181 19.8088C56.181 19.8088 55.0607 20.1706 54.0098 20.3028H44.1938C42.4539 20.3028 40.222 18.8921 40.222 15.8391H53.2861C54.0033 15.8087 55.1886 15.1868 55.1886 13.839C55.1886 12.5931 54.0834 11.7372 53.3164 11.7372L38.7442 11.735L38.7528 25.5509C38.755 27.0591 37.5979 28.0754 36.3519 28.0754C35.1689 28.0754 33.9901 27.0266 33.9901 25.6138V11.54C33.9879 9.1737 36.482 7.27344 38.2219 7.27344Z" fill="#161617"/>
<path fill-rule="evenodd" clip-rule="evenodd" d="M145.358 33.4603C139.646 30.639 136.404 24.873 136.404 18.4352C136.404 8.52397 144.236 0.539062 154.301 0.539062C164.318 0.539062 172.197 8.58683 172.197 18.4352C172.197 24.8751 168.57 30.8449 163.261 33.4603C157.878 36.1126 150.726 36.1126 145.358 33.4603ZM143.226 24.6214C147.141 20.2334 152.508 11.2842 154.309 5.17801C156.095 11.2864 161.462 20.2334 165.52 24.6192H156.095V27.2714C156.095 29.1826 157.562 30.3505 159.154 30.331C161.464 30.3028 164.446 29.1826 166.405 26.0103C166.957 25.1175 168.63 22.0189 168.63 18.4349C168.63 10.7967 162.236 4.12059 154.302 4.12059C146.281 4.12059 139.975 10.606 139.975 18.4349C139.975 22.0168 140.944 23.8044 142.279 26.0732C144.109 29.1826 147.141 30.3028 149.566 30.331C151.31 30.3527 152.509 28.7882 152.53 27.28L152.509 24.6214H143.226Z" fill="#161617"/>
</svg>
