<svg width="22" height="19" viewBox="0 0 22 19" fill="none" xmlns="http://www.w3.org/2000/svg">
<g clip-path="url(#clip0_1206_2570)">
<path fill-rule="evenodd" clip-rule="evenodd" d="M10.5444 18.0497L11.8326 18.0497C11.8326 18.0497 12.2218 18.0048 12.4204 17.7796C12.6033 17.5728 12.5974 17.1844 12.5974 17.1844C12.5974 17.1844 12.5723 15.3665 13.3745 15.0987C14.1654 14.835 15.1809 16.8558 16.2573 17.6328C17.0713 18.2208 17.6898 18.0919 17.6898 18.0919L20.5679 18.0497C20.5679 18.0497 22.0735 17.9522 21.3596 16.7072C21.3011 16.6053 20.9439 15.7862 19.2197 14.103C17.4151 12.3413 17.6567 12.6262 19.8306 9.57891C21.1545 7.72307 21.6838 6.59006 21.5185 6.10479C21.3608 5.6426 20.3871 5.76476 20.3871 5.76476L17.1465 5.78599C17.1465 5.78599 16.9063 5.75153 16.7281 5.86354C16.554 5.97339 16.4419 6.22941 16.4419 6.22941C16.4419 6.22941 15.929 7.66553 15.245 8.88686C13.802 11.464 13.225 11.6 12.9892 11.44C12.4406 11.067 12.5775 9.94171 12.5775 9.14226C12.5775 6.64483 12.9377 5.60352 11.8762 5.33396C11.524 5.24441 11.2647 5.18533 10.3639 5.17579C9.20761 5.16317 8.22894 5.17948 7.67479 5.46504C7.30614 5.65491 7.02175 6.07802 7.19496 6.10233C7.40913 6.13248 7.89423 6.23988 8.1514 6.60821C8.48348 7.08333 8.47178 8.15049 8.47178 8.15049C8.47178 8.15049 8.66254 11.0904 8.02618 11.4557C7.58936 11.7062 6.99015 11.1947 5.70368 8.8567C5.0445 7.65907 4.54682 6.33527 4.54682 6.33527C4.54682 6.33527 4.45086 6.08786 4.2797 5.95554C4.07197 5.79522 3.78173 5.74414 3.78173 5.74414L0.702328 5.76538C0.702328 5.76538 0.240052 5.77892 0.070356 5.99032C-0.080615 6.17833 0.0583601 6.56729 0.0583601 6.56729C0.0583601 6.56729 2.46922 12.4995 5.19898 15.4889C7.702 18.2298 10.5444 18.0497 10.5444 18.0497Z" fill="currentColor"/>
</g>
<defs>
<clipPath id="clip0_1206_2570">
<rect width="22" height="19" fill="currentColor"/>
</clipPath>
</defs>
</svg>
