<svg width="18" height="18" viewBox="0 0 18 18" fill="none" xmlns="http://www.w3.org/2000/svg">
<path d="M9.08853 5.95993e-06C7.36026 -0.00199559 5.66913 0.500185 4.2234 1.44471C4.15041 1.49208 4.07846 1.5405 4.00757 1.58996C2.19269 2.84166 0.909626 4.72203 0.408046 6.86517C-0.0935336 9.00832 0.222249 11.2609 1.29395 13.1847L0 18L4.85204 16.7032C6.72999 17.7217 8.91314 18.0308 11.0011 17.5739C13.0891 17.117 14.9419 15.9247 16.2199 14.2156C16.2519 14.1732 16.2828 14.1309 16.3137 14.0886C17.4119 12.5768 18.0022 10.7572 18 8.89028C18.0021 3.98822 14.004 5.95993e-06 9.08853 5.95993e-06ZM14.4733 13.6957C14.445 13.7265 14.4168 13.7579 14.3885 13.7882C13.267 15.0008 11.761 15.7913 10.1239 16.0267C8.48671 16.2621 6.81821 15.9281 5.39895 15.0808L5.09301 14.899L4.74988 14.9904L2.38306 15.6226L3.01537 13.2683L3.10495 12.9349L2.9174 12.6277C2.01434 11.1542 1.67382 9.40543 1.95822 7.70188C2.24261 5.99832 3.13289 4.454 4.46595 3.35182C4.51833 3.31002 4.56705 3.26874 4.61839 3.22851C5.52708 2.51394 6.59455 2.02749 7.731 1.81009C8.86744 1.59269 10.0396 1.65069 11.1489 1.97922L11.1882 1.99124C12.8776 2.50668 14.3205 3.61889 15.2466 5.11942L15.2811 5.17533C16.0782 6.49492 16.4297 8.03473 16.2841 9.56841C16.1385 11.1021 15.5035 12.5487 14.4723 13.6957H14.4733Z" />
<path fill-rule="evenodd" clip-rule="evenodd" d="M12.0559 10.2837C11.7166 10.0653 11.2746 9.82202 10.8752 9.99761C10.5684 10.1326 10.3726 10.6489 10.1733 10.9125C10.0716 11.048 9.9499 11.0688 9.79334 11.0011C8.64169 10.5082 7.75759 9.68134 7.1236 8.54289C7.016 8.36574 7.03539 8.22662 7.1648 8.0625C7.35868 7.81918 7.59812 7.54147 7.6495 7.21582C7.70088 6.89018 7.55838 6.50566 7.43236 6.2144C7.27144 5.84134 7.09307 5.31041 6.74457 5.0994C6.42515 4.90557 6.00491 5.01395 5.72088 5.263C5.22987 5.69285 4.99382 6.36602 5.00012 7.0345C5.00159 7.22407 5.02306 7.41285 5.0641 7.59722C5.16104 8.03749 5.3525 8.44858 5.56529 8.83935C5.72562 9.13409 5.90036 9.41949 6.08876 9.69437C6.70217 10.5998 7.4728 11.3691 8.35814 11.9598C8.80261 12.2584 9.27749 12.5013 9.77347 12.6835C10.3285 12.8805 10.8224 13.0852 11.4215 12.9633C12.0482 12.8351 12.6662 12.4183 12.9153 11.7686C12.9951 11.5776 13.0192 11.365 12.9846 11.159C12.8993 10.7364 12.3705 10.4869 12.0559 10.2837Z" />
</svg>
