<svg width="113" height="32" viewBox="0 0 113 32" fill="none" xmlns="http://www.w3.org/2000/svg">
<path fill-rule="evenodd" clip-rule="evenodd" d="M13.7765 27.4568H18.6649V0H11.5545C4.40362 0 0.646402 3.59504 0.646402 8.88887C0.646402 13.116 2.70682 15.6049 6.38324 18.1728L0 27.4568H5.29244L12.4028 17.0666L9.93849 15.4469C6.94884 13.4716 5.49443 11.9309 5.49443 8.61232C5.49443 5.68893 7.59525 3.71358 11.5948 3.71358H13.7765V27.4568ZM113 26.6272C111.829 27.4567 110.253 27.8518 108.031 27.8518C101.607 27.8518 98.4959 24.1777 98.4959 17.5407C98.4959 11.4962 101.688 7.19008 107.829 7.19008C110.212 7.19008 111.99 7.58518 113 8.13829V12.1284C112.03 11.5358 110.213 10.9037 108.354 10.9037C105.202 10.9037 103.465 13.116 103.465 17.4222C103.465 21.5309 104.88 24.1383 108.314 24.1383C110.334 24.1383 111.788 23.6247 113 22.795V26.6272ZM77.973 22.2815V26.1136C76.5589 27.0617 74.2965 27.8518 71.2262 27.8518C65.0853 27.8518 61.6109 24.4938 61.6109 17.5802C61.6109 11.5753 64.3985 7.19008 70.2565 7.19008C75.0642 7.19008 78.1749 9.79754 78.1749 16.7111V19.2H66.5801C66.7821 22.5185 68.1153 24.1383 71.6301 24.1383C73.9734 24.1383 76.4781 23.2691 77.973 22.2815ZM33.9367 15.4469V7.58518H38.7443V27.4567H33.9367V19.1604H27.5131V27.4567H22.7054V7.58518H27.5131V15.4469H33.9367ZM58.2981 23.7432H60.4392V32H55.9953V27.4567H45.2084V32H40.7644V23.7432H42.2592C43.956 20.4247 44.2791 14.1432 44.2791 9.28397V7.58518H58.2981V23.7432ZM98.7791 27.4567H93.325L86.215 17.6987V27.4567H81.407V7.58518H86.215V16.7506L93.0017 7.58518H97.8501L91.0625 16.7506L98.7791 27.4567ZM73.2866 15.3284C73.2866 12.8395 72.5594 10.9037 70.1757 10.9037C67.8729 10.9037 66.7013 12.5629 66.5801 15.7234H73.2866V15.3284ZM46.7032 23.7432H53.4904V11.2988H48.4V11.8913C48.4 15.3284 48.0364 20.7408 46.7032 23.7432Z" fill="#2E3039"/>
</svg>
